<?xml version="1.0" encoding="UTF-8"?>
<svg version="1.1" xmlns="http://www.w3.org/2000/svg" width="2000" height="2000">
<path d="M0 0 C2.99440439 0.00564137 5.98880311 0.00846112 8.98321152 0.0110817 C36.46220548 0.04604788 63.82885503 0.24801948 91.1896019 3.06158829 C93.86691412 3.33509292 96.54531228 3.59541751 99.22408676 3.85419083 C170.38209507 10.79269949 240.53993926 24.71479675 308.62429428 46.65063858 C310.68446712 47.31301222 312.74647945 47.96933803 314.8090477 48.62421036 C348.89856971 59.47290476 382.13697634 72.52330816 414.70016098 87.31805801 C415.61961502 87.73474747 415.61961502 87.73474747 416.55764389 88.15985489 C441.09681267 99.28550993 465.18980899 111.15149384 488.70016098 124.31805801 C489.788452 124.92665665 490.87674301 125.53525528 491.99801254 126.1622963 C531.88653945 148.53837511 570.29228667 173.62606666 606.70016098 201.31805801 C607.2615477 201.74296524 607.82293442 202.16787247 608.40133286 202.60565567 C616.40401516 208.66530977 624.21375425 214.93933538 631.98531723 221.29071426 C634.91113894 223.68095684 637.86028022 226.03883774 640.82516098 228.38055801 C650.27724346 235.92633814 659.35130535 243.92234158 668.26266098 252.09540176 C670.34288823 253.99227565 672.44572996 255.85198744 674.57516098 257.69305801 C683.44455279 265.41976744 691.93994676 273.49323262 700.20797348 281.85712051 C702.97159509 284.58608856 705.85450307 287.11999409 708.80172348 289.64618301 C713.49461114 293.77901412 717.83140973 298.2499531 721.88766098 303.00555801 C725.14448874 306.80144692 728.64651491 310.30401387 732.20016098 313.81805801 C736.26110022 317.83846208 740.20309317 321.8802999 743.90328598 326.23993301 C745.77030574 328.39918195 747.69964004 330.49402489 749.64156723 332.58588028 C754.47923106 337.79839715 759.06812158 343.13776613 763.52828598 348.68133926 C765.63772447 351.2422583 767.82903746 353.68929256 770.07516098 356.13055801 C774.5966961 361.09876125 778.71168304 366.32609378 782.82516098 371.63055801 C785.19028731 374.67879985 787.6042489 377.68356537 790.03463364 380.67987442 C796.97330323 389.2506328 803.5263078 398.08195508 810.00924301 407.0006752 C811.53905715 409.09726715 813.08313496 411.18215052 814.63375473 413.26337051 C831.48655985 436.03911251 847.21269204 459.97513583 861.70016098 484.31805801 C862.5291893 485.70662003 862.5291893 485.70662003 863.37496567 487.1232338 C872.21462982 501.9765259 880.60238083 517.04898965 888.70016098 532.31805801 C889.25139633 533.35204727 889.80263168 534.38603653 890.37057114 535.4513588 C913.29211634 578.55073958 932.52323376 623.27397957 948.70016098 669.31805801 C948.96464035 670.07024612 949.22911972 670.82243423 949.50161362 671.59741592 C975.69139642 746.29068456 992.24137755 824.07866461 1000.01266098 902.81805801 C1000.1259726 903.95377243 1000.1259726 903.95377243 1000.24157333 905.11243057 C1000.80306042 910.84226026 1001.26663447 916.57724811 1001.70016098 922.31805801 C1001.78629654 923.42516129 1001.8724321 924.53226456 1001.96117783 925.67291641 C1003.75245984 949.32060853 1004.06358437 972.90954448 1004.01821899 996.61789703 C1004.01257763 999.61230142 1004.00975787 1002.60670014 1004.0071373 1005.60110855 C1003.97217112 1033.08010252 1003.77019951 1060.44675206 1000.95663071 1087.80749893 C1000.68312608 1090.48481116 1000.42280149 1093.16320932 1000.16402817 1095.8419838 C993.16750911 1167.59692821 979.24161146 1238.77420697 956.70016098 1307.31805801 C956.43632614 1308.12356094 956.1724913 1308.92906387 955.90066147 1309.75897598 C935.99263148 1370.46959891 910.91355099 1429.51939544 879.70016098 1485.31805801 C879.09011215 1486.40924942 878.48006332 1487.50044083 877.85152817 1488.62469864 C854.90070503 1529.53653334 829.11159239 1568.81424672 800.49361801 1605.98553848 C798.96123406 1607.97851374 797.43562532 1609.97626249 795.91500473 1611.97821426 C786.35345331 1624.52483539 776.33451067 1636.70412299 766.08590317 1648.69403458 C764.64287007 1650.38520022 763.20641281 1652.0818042 761.77047348 1653.77899551 C755.41181749 1661.27342187 748.86779841 1668.55923048 742.16158676 1675.74335098 C740.71493053 1677.30214361 739.28144195 1678.87192501 737.85250473 1680.44696426 C732.70342576 1686.1205781 727.43104447 1691.62484762 721.97750473 1697.00946426 C719.30234688 1699.72133097 716.82247293 1702.56330018 714.34078598 1705.45087051 C710.56504454 1709.74802386 706.49138813 1713.67525831 702.13766098 1717.38055801 C698.12271297 1720.83200455 694.42176326 1724.55768393 690.70016098 1728.31805801 C686.50134741 1732.55597899 682.29964218 1736.69933405 677.74312973 1740.55633926 C675.59501039 1742.4087328 673.51422777 1744.32640217 671.43575668 1746.25629044 C666.32635897 1750.9982563 661.10252454 1755.50868503 655.66891098 1759.88055801 C652.17733453 1762.74732604 648.78506551 1765.7159912 645.38766098 1768.69305801 C638.95783089 1774.30456084 632.35832789 1779.6356569 625.60152817 1784.84637833 C623.55663607 1786.42914792 621.52231778 1788.02485326 619.48922348 1789.62274551 C573.20176691 1825.94476093 523.6675625 1857.75772608 471.70016098 1885.31805801 C470.66617172 1885.86929337 469.63218246 1886.42052872 468.5668602 1886.98846817 C425.46747942 1909.91001337 380.74423943 1929.14113079 334.70016098 1945.31805801 C333.94797287 1945.58253738 333.19578476 1945.84701675 332.42080307 1946.11951065 C257.7437936 1972.30359249 179.98167317 1988.83769388 101.26266098 1996.63055801 C100.13335159 1996.74386963 100.13335159 1996.74386963 98.98122787 1996.85947037 C93.22657976 1997.42656906 87.46671083 1997.89015232 81.70016098 1998.31805801 C80.55827316 1998.40452591 79.41638535 1998.4909938 78.23989487 1998.58008194 C55.2907583 2000.26567039 32.41093862 2000.63439538 9.40523911 2000.5788002 C4.65291344 2000.56740666 -0.09918816 2000.57420071 -4.85150623 2000.58567047 C-36.18305891 2000.64995731 -67.189859 1999.36068111 -98.36233902 1996.06805801 C-99.38712357 1995.96134781 -100.41190811 1995.8546376 -101.46774673 1995.74469376 C-169.95893328 1988.5698888 -237.85164837 1974.90669906 -303.29983902 1953.31805801 C-304.10107193 1953.05529068 -304.90230484 1952.79252335 -305.72781754 1952.52179337 C-365.77503903 1932.82270246 -424.04609621 1908.06738848 -479.29983902 1877.31805801 C-480.25326187 1876.78776993 -481.20668472 1876.25748184 -482.18899918 1875.71112442 C-511.10768314 1859.58591493 -539.0838227 1842.17818724 -566.29983902 1823.31805801 C-567.42615738 1822.54147842 -567.42615738 1822.54147842 -568.57522964 1821.74921036 C-579.97118597 1813.88143796 -590.99569486 1805.55850888 -601.96731949 1797.11151505 C-603.96029475 1795.57913109 -605.9580435 1794.05352235 -607.95999527 1792.53290176 C-619.48323429 1783.75125121 -630.70772367 1774.59583312 -641.72659683 1765.19012833 C-644.95312802 1762.43908595 -648.23182353 1759.77000192 -651.54983902 1757.13055801 C-657.33952333 1752.42909631 -662.7191295 1747.31363462 -668.11136246 1742.16498184 C-671.48627904 1738.94531142 -674.88321006 1735.78186842 -678.41312027 1732.73212051 C-682.04705144 1729.5824462 -685.44056709 1726.25618853 -688.79983902 1722.81805801 C-692.89182354 1718.67423894 -697.0385442 1714.7008536 -701.47171402 1710.91962051 C-706.14907458 1706.82193284 -710.45418179 1702.35908718 -714.48733902 1697.63055801 C-717.74416678 1693.8346691 -721.24619295 1690.33210216 -724.79983902 1686.81805801 C-728.86077826 1682.79765395 -732.80277121 1678.75581613 -736.50296402 1674.39618301 C-738.36998378 1672.23693407 -740.29931808 1670.14209114 -742.24124527 1668.05023575 C-747.0789091 1662.83771888 -751.66779962 1657.49834989 -756.12796402 1651.95477676 C-758.23740251 1649.39385773 -760.4287155 1646.94682347 -762.67483902 1644.50555801 C-767.19637414 1639.53735478 -771.31136108 1634.31002224 -775.42483902 1629.00555801 C-777.78996535 1625.95731618 -780.20392694 1622.95255066 -782.63431168 1619.95624161 C-789.57298127 1611.38548323 -796.12598584 1602.55416095 -802.60892105 1593.63544083 C-804.13873519 1591.53884888 -805.682813 1589.45396551 -807.23343277 1587.37274551 C-824.08623789 1564.59700351 -839.81237008 1540.66098019 -854.29983902 1516.31805801 C-855.12886734 1514.929496 -855.12886734 1514.929496 -855.97464371 1513.51288223 C-864.81430786 1498.65959012 -873.20205887 1483.58712638 -881.29983902 1468.31805801 C-881.85107437 1467.28406876 -882.40230972 1466.2500795 -882.97024918 1465.18475723 C-905.89179438 1422.08537645 -925.1229118 1377.36213646 -941.29983902 1331.31805801 C-941.56431839 1330.5658699 -941.82879776 1329.81368179 -942.10129166 1329.0387001 C-968.29107446 1254.34543147 -984.84105559 1176.55745141 -992.61233902 1097.81805801 C-992.6878801 1097.06091507 -992.76342117 1096.30377213 -992.84125137 1095.52368546 C-993.40273846 1089.79385576 -993.86631251 1084.05886792 -994.29983902 1078.31805801 C-994.38597458 1077.21095474 -994.47211014 1076.10385147 -994.56085587 1074.96319962 C-996.35213788 1051.3155075 -996.66326241 1027.72657155 -996.61789703 1004.01821899 C-996.61225567 1001.02381461 -996.60943591 998.02941589 -996.60681534 995.03500748 C-996.5718392 967.54818657 -996.36241935 940.17796101 -993.55307388 912.80920792 C-993.28485678 910.17067311 -993.03125728 907.53099626 -992.77981949 904.89081192 C-984.1319344 814.89976685 -963.82713568 726.23182982 -872.29983902 515.31805801 C-871.68979019 514.22686661 -871.07974136 513.1356752 -870.45120621 512.01141739 C-848.50267005 472.88624625 -823.98681517 435.07475695 -796.83841324 399.34491348 C-795.26979632 397.27848098 -793.70848839 395.2066598 -792.14749527 393.13446426 C-784.95191071 383.61698182 -777.4851482 374.35807037 -769.85110855 365.18964005 C-767.70800727 362.60402241 -765.59911479 359.99181466 -763.48733902 357.38055801 C-759.92369009 353.01690626 -756.20901527 348.81602846 -752.41702652 344.65008926 C-750.51932733 342.55981912 -748.65250487 340.44819686 -746.79983902 338.31805801 C-742.68750693 333.60208084 -738.50074555 328.95516091 -734.29983902 324.31805801 C-733.43101089 323.35512833 -732.56218277 322.39219864 -731.66702652 321.40008926 C-727.07525775 316.33399144 -722.41474005 311.37344698 -717.54983902 306.56805801 C-713.8699654 302.92988268 -710.40305694 299.2099997 -707.03812027 295.28290176 C-702.52927164 290.18638298 -697.65858405 285.42579236 -692.48733902 281.00555801 C-688.91081777 277.94302784 -685.60621861 274.66501613 -682.29983902 271.31805801 C-678.45831933 267.43432382 -674.57611106 263.69251 -670.41312027 260.15008926 C-668.24307574 258.26884918 -666.13457551 256.32818589 -664.02981949 254.3744545 C-658.81780219 249.53778824 -653.47932488 244.94944892 -647.93655777 240.48993301 C-645.37563874 238.38049452 -642.92860447 236.18918153 -640.48733902 233.94305801 C-635.52266344 229.42473339 -630.29896505 225.31243865 -624.99905777 221.20087051 C-621.89947723 218.79564192 -618.83808299 216.34671204 -615.78567886 213.88202286 C-608.10084023 207.68131995 -600.28160681 201.68396458 -592.33597183 195.82147598 C-591.01271849 194.84442633 -589.69162576 193.86444128 -588.37308121 192.8810463 C-549.29828759 163.76824344 -507.35564643 138.07214653 -464.29983902 115.31805801 C-463.27310074 114.77117325 -462.24636246 114.22428848 -461.18851089 113.66083145 C-418.08227299 90.73338732 -373.35230623 71.49793251 -327.29983902 55.31805801 C-326.54765091 55.05357864 -325.7954628 54.78909927 -325.02048111 54.51660538 C-250.32721248 28.32682257 -172.53923242 11.77684144 -93.79983902 4.00555801 C-93.04269608 3.93001694 -92.28555313 3.85447586 -91.50546646 3.77664566 C-85.77563677 3.21515857 -80.04064892 2.75158452 -74.29983902 2.31805801 C-73.19273575 2.23192245 -72.08563248 2.1457869 -70.94498062 2.05704117 C-47.2972885 0.26575915 -23.70835255 -0.04536537 0 0 Z " fill="#F0B90B" transform="translate(996.2998390197754,-0.3180580139160156)"/>
<path d="M0 0 C2.8290199 1.31337281 5.4623829 2.78269445 8.1394043 4.38354492 C9.2018335 5.01623291 10.2642627 5.6489209 11.35888672 6.30078125 C12.51230561 6.99240297 13.66570679 7.6840542 14.8190918 8.37573242 C16.0302097 9.09836152 17.24155841 9.82060391 18.453125 10.54248047 C20.96516689 12.03960719 23.47621274 13.53838425 25.98657227 15.03833008 C31.60886546 18.39578162 37.24606624 21.72805885 42.8815918 25.06323242 C53.50657072 31.35784316 64.12584721 37.66203371 74.74398804 43.96817017 C83.89112939 49.40058541 93.04084588 54.82860701 102.1940918 60.25073242 C112.03109616 66.0778971 121.86369131 71.91243663 131.6940918 77.75073242 C141.62898229 83.65097663 151.56570673 89.54809242 161.5065918 95.43823242 C162.59593018 96.08373047 163.68526855 96.72922852 164.80761719 97.39428711 C169.84214727 100.37721344 174.87702084 103.35955606 179.91333008 106.33947754 C181.08314786 107.0318933 182.25274499 107.72468198 183.42211914 108.41784668 C186.28555511 110.11488303 189.15230694 111.80544443 192.02514648 113.48657227 C197.27131955 116.5667878 202.43469618 119.70223248 207.4831543 123.09838867 C208.3791333 123.68523437 209.2751123 124.27208008 210.19824219 124.87670898 C211.84744093 125.96389907 213.47654903 127.08251606 215.07861328 128.23803711 C217.33375145 129.70381473 219.06352554 130.67988913 221.6940918 131.25073242 C225.48217074 130.31230421 228.442655 128.35974805 231.6940918 126.25073242 C233.56003989 125.15616889 235.42727454 124.06379626 237.2956543 122.97338867 C239.30542597 121.75656661 241.31315612 120.53636781 243.3190918 119.31323242 C251.80099968 114.1818201 260.30986884 109.10575559 268.8815918 104.12573242 C277.29525437 99.23509921 285.6875714 94.31085249 294.06079102 89.35131836 C299.24594464 86.2823849 304.43811018 83.2258229 309.6394043 80.18432617 C310.23895935 79.83368607 310.8385144 79.48304596 311.45623779 79.1217804 C312.06195618 78.76754501 312.66767456 78.41330963 313.29174805 78.04833984 C314.53004196 77.32415903 315.76832315 76.59995644 317.0065918 75.87573242 C317.62211914 75.51573151 318.23764648 75.15573059 318.87182617 74.78482056 C327.4099218 69.78866561 335.91058405 64.73512233 344.3815918 59.62573242 C354.07735659 53.77860293 363.85579603 48.08758879 373.67407227 42.44897461 C380.30233888 38.63990265 386.88053697 34.76781824 393.4206543 30.80932617 C397.04487432 28.62765914 400.69205222 26.48571719 404.3425293 24.34838867 C404.94878647 23.99333755 405.55504364 23.63828644 406.17967224 23.2724762 C409.34675263 21.41874588 412.51585482 19.56856546 415.6875 17.72265625 C421.45410481 14.36102622 427.18929267 10.97188445 432.83862305 7.41479492 C433.75297119 6.84414307 434.66731934 6.27349121 435.609375 5.68554688 C437.28825602 4.63178619 438.95804559 3.56334812 440.61669922 2.47802734 C441.35380127 2.01759033 442.09090332 1.55715332 442.8503418 1.08276367 C443.4774707 0.67775635 444.10459961 0.27274902 444.75073242 -0.14453125 C447.63180894 -1.04106725 449.04149951 -0.07906318 451.6940918 1.25073242 C453.47664974 2.20275721 455.24133473 3.18868878 456.9909668 4.19995117 C458.01899414 4.79291992 459.04702148 5.38588867 460.10620117 5.99682617 C461.20770508 6.63749023 462.30920898 7.2781543 463.4440918 7.93823242 C464.60877095 8.61277097 465.77348509 9.28724911 466.93823242 9.96166992 C475.77858732 15.09116332 484.5448086 20.34025571 493.29467773 25.62255859 C500.71038373 30.08928473 508.18445669 34.44404923 515.6940918 38.75073242 C525.32832277 44.27669218 534.87893443 49.92597639 544.38745117 55.6652832 C552.98839806 60.84969717 561.65192641 65.92007113 570.3449707 70.94824219 C571.29549316 71.49923584 572.24601562 72.05022949 573.2253418 72.61791992 C574.06645508 73.10373535 574.90756836 73.58955078 575.77416992 74.09008789 C577.6940918 75.25073242 577.6940918 75.25073242 578.6940918 76.25073242 C578.84338629 78.23013658 578.92278629 80.21482534 578.97584534 82.19914246 C579.01190384 83.49289291 579.04796234 84.78664337 579.08511353 86.11959839 C579.1198572 87.56719279 579.15430136 89.01479441 579.18847656 90.46240234 C579.22745935 91.97676357 579.2665498 93.49112204 579.30574036 95.00547791 C579.65260884 108.87742568 579.85625726 122.75192202 580.01971531 136.6271162 C580.13223538 145.95387944 580.2896354 155.2754687 580.55957031 164.59912109 C580.79505268 172.73452246 580.94471515 180.86627689 580.99288601 189.00502282 C581.02119618 193.31122292 581.09037945 197.60744901 581.26217842 201.91051292 C582.26262412 228.00875154 582.26262412 228.00875154 576.34705162 235.04070282 C570.64391202 239.69163598 564.38887685 242.58553209 557.53139019 245.14386082 C553.70507282 246.63656319 550.43433658 248.5995391 546.95581055 250.77416992 C545.31745239 251.73359497 545.31745239 251.73359497 543.64599609 252.71240234 C542.56874268 253.34380127 541.49148926 253.9752002 540.3815918 254.62573242 C539.79044586 254.97213776 539.19929993 255.31854309 538.59024048 255.67544556 C529.67136967 260.90294756 520.77118455 266.16109757 511.8815918 271.43823242 C501.58263443 277.55181973 491.25163948 283.6077568 480.90112305 289.63354492 C474.09508936 293.5967179 467.30022877 297.57886591 460.5065918 301.56323242 C459.89978577 301.91908417 459.29297974 302.27493591 458.66778564 302.64157104 C455.5783214 304.45336081 452.48895928 306.26532461 449.3996582 308.07739258 C443.93424696 311.28307511 438.46787049 314.48711101 433.0015564 317.69125366 C429.98236101 319.4610108 426.96322968 321.2308772 423.9440918 323.00073242 C422.73575877 323.70906628 421.52742544 324.41739961 420.3190918 325.12573242 C419.7209668 325.47635742 419.1228418 325.82698242 418.5065918 326.18823242 C413.06909179 329.37573243 413.06909179 329.37573243 411.25695801 330.43800354 C410.04738745 331.14707162 408.83783344 331.85616794 407.6282959 332.56529236 C404.62652654 334.32511472 401.62448071 336.08446176 398.62182617 337.84277344 C392.95655619 341.16096021 387.29436078 344.48412096 381.64123535 347.82296753 C378.97003239 349.40026183 376.2973323 350.97500934 373.62451172 352.54956055 C372.35048507 353.3010542 371.07719361 354.05379581 369.8046875 354.80786133 C368.04050243 355.85318264 366.27383187 356.89418053 364.5065918 357.93432617 C363.50241211 358.52785889 362.49823242 359.1213916 361.46362305 359.73291016 C358.91541324 361.12943875 356.39724604 362.19923988 353.6940918 363.25073242 C353.70434425 363.80750483 353.71459669 364.36427723 353.72515982 364.93792152 C354.33030363 397.98903516 354.79308154 431.03875318 355.07285569 464.09417105 C355.10662192 468.06921904 355.14156889 472.04425583 355.17724609 476.01928711 C355.18786967 477.20624695 355.18786967 477.20624695 355.19870786 478.41718578 C355.31597685 491.20538397 355.52871984 503.99028167 355.77721729 516.77652621 C356.0303525 529.91166114 356.17980686 543.04507683 356.23448116 556.18255043 C356.26810913 563.55714263 356.3491667 570.92481178 356.54880333 578.29693604 C357.80720209 626.15680228 357.80720209 626.15680228 349.60733312 634.80669212 C343.93229754 639.71244626 337.43405553 642.08655602 330.25600624 644.09373474 C324.09269566 646.09573006 318.87799889 649.54922493 313.3815918 652.93823242 C311.21875078 654.19095458 309.05254776 655.4379079 306.8815918 656.67651367 C300.30026402 660.46912598 293.75848763 664.32631985 287.2253418 668.20117188 C282.07772852 671.25340701 276.92273205 674.29245912 271.7565918 677.31323242 C271.15554626 677.66484436 270.55450073 678.0164563 269.9352417 678.37872314 C267.47015875 679.82057955 265.00496164 681.26222728 262.53796387 682.70080566 C255.7921376 686.63456495 249.07674822 690.60701111 242.4284668 694.70385742 C241.2714014 695.41313473 240.11425781 696.12228449 238.95703125 696.83129883 C236.78492247 698.16668088 234.61906225 699.51229538 232.46044922 700.86938477 C231.49469971 701.46187012 230.5289502 702.05435547 229.53393555 702.66479492 C228.69209717 703.19024902 227.85025879 703.71570312 226.98291016 704.25708008 C224.6940918 705.25073242 224.6940918 705.25073242 222.57543945 705.00634766 C219.61900298 703.81893903 216.88832161 702.27131201 214.1315918 700.68823242 C213.44887207 700.30038574 212.76615234 699.91253906 212.06274414 699.51293945 C204.09239146 694.95574062 196.2138411 690.24071467 188.32397461 685.54614258 C180.37897115 680.8220642 172.39602553 676.16891223 164.3815918 671.56323242 C155.64126267 666.53896089 146.93348847 661.46557288 138.26269531 656.32226562 C132.90394294 653.14456487 127.53641684 649.98253723 122.15893555 646.83666992 C121.50972641 646.4567691 120.86051727 646.07686829 120.19163513 645.68545532 C117.60553509 644.17238268 115.0193303 642.65949643 112.43173218 641.14898682 C110.63577674 640.10058508 108.84066522 639.05075025 107.0456543 638.00073242 C105.49612061 637.09581055 105.49612061 637.09581055 103.9152832 636.17260742 C102.85229004 635.53838867 101.78929687 634.90416992 100.6940918 634.25073242 C100.02394499 633.95199229 99.35379819 633.65325215 98.66334391 633.34545928 C96.32015874 632.18398071 94.56487161 631.08731178 92.6940918 629.25073242 C91.51020331 625.69851743 91.64718688 622.26748045 91.73205566 618.55107117 C91.72522027 617.46057411 91.71838487 616.37007706 91.71134233 615.24653465 C91.69814317 611.58500566 91.7421957 607.92639631 91.78588867 604.26513672 C91.78814478 601.64374358 91.78687955 599.02234539 91.78234863 596.4009552 C91.77815475 590.75365043 91.80324238 585.10708536 91.84825134 579.45996666 C91.9132832 571.29532656 91.93410423 563.13104394 91.94415528 554.96617291 C91.96166212 541.7192706 92.01489509 528.4727625 92.09057617 515.22607422 C92.16401437 502.35858126 92.22063862 489.49119539 92.25463867 476.62353516 C92.25779135 475.43369435 92.25779135 475.43369435 92.26100773 474.21981635 C92.27144807 470.24040724 92.28155772 466.26099738 92.29150295 462.281587 C92.37442988 429.27101516 92.51532853 396.26092654 92.6940918 363.25073242 C91.92661118 362.9514534 91.15913055 362.65217438 90.36839294 362.34382629 C87.36980055 361.11818162 84.66484384 359.62342162 81.85424805 358.01245117 C80.72059814 357.3641333 79.58694824 356.71581543 78.41894531 356.04785156 C77.19805084 355.34483613 75.97726909 354.64162489 74.7565918 353.93823242 C73.48703659 353.20953536 72.21742326 352.48093955 70.94775391 351.75244141 C61.73172716 346.45689572 52.56699492 341.07734309 43.4284668 335.64916992 C37.42085931 332.08228528 31.39170445 328.55250167 25.3616333 325.02380371 C15.18331909 319.06744875 5.02191268 313.08407081 -5.1184082 307.06323242 C-15.41730399 300.94954231 -25.74836144 294.8937075 -36.09887695 288.86791992 C-42.90491064 284.90474694 -49.69977123 280.92259893 -56.4934082 276.93823242 C-57.10021423 276.58238068 -57.70702026 276.22652893 -58.33221436 275.8598938 C-61.4216786 274.04810404 -64.51104072 272.23614024 -67.6003418 270.42407227 C-71.86233339 267.92424354 -76.12487786 265.42535838 -80.38763428 262.92683411 C-83.38362853 261.17078714 -86.37943323 259.41441893 -89.37475586 257.65722656 C-95.04116712 254.33351901 -100.70962073 251.01342973 -106.384552 247.70428467 C-109.06723348 246.13970991 -111.74886681 244.57334363 -114.43041992 243.00683594 C-115.71000702 242.26000714 -116.99010809 241.51405819 -118.27075195 240.76904297 C-120.04549466 239.73651229 -121.81844949 238.70097296 -123.59106445 237.66479492 C-124.60048096 237.07649902 -125.60989746 236.48820313 -126.64990234 235.88208008 C-127.52638428 235.34373535 -128.40286621 234.80539062 -129.3059082 234.25073242 C-130.00743641 233.84894933 -130.70896461 233.44716623 -131.43175125 233.03320789 C-133.3059082 231.25073242 -133.3059082 231.25073242 -133.86513901 228.50000286 C-133.89262348 227.3779284 -133.92010796 226.25585394 -133.94842529 225.09977722 C-133.98860779 223.81169159 -134.02879028 222.52360596 -134.07019043 221.19648743 C-134.09431133 219.76560383 -134.11785128 218.33471035 -134.14086914 216.90380859 C-134.17902895 215.39897178 -134.21859388 213.89417004 -134.25946045 212.3894043 C-134.38502425 207.44126022 -134.46610693 202.49284772 -134.5402832 197.54370117 C-134.56006713 196.27877504 -134.56006713 196.27877504 -134.58025074 194.98829484 C-134.7034441 187.02618904 -134.81022102 179.06402118 -134.87792587 171.1012373 C-134.96539168 160.93494092 -135.13277902 150.77714278 -135.41167617 140.61424464 C-135.60132882 133.45823817 -135.69774562 126.30450743 -135.72671342 119.14606839 C-135.74646432 114.87481454 -135.80582 110.61312538 -135.96569061 106.34462547 C-136.88783382 80.52408319 -136.88783382 80.52408319 -131.00175476 73.50180435 C-125.35840812 68.89087976 -119.1605616 66.07364471 -112.38605213 63.51051044 C-107.48712272 61.50684966 -103.09379552 58.73979248 -98.6184082 55.93823242 C-97.62558838 55.35066162 -96.63276855 54.76309082 -95.60986328 54.15771484 C-94.81475342 53.68696533 -94.01964355 53.21621582 -93.20043945 52.73120117 C-86.4134412 48.71863742 -79.60950382 44.7350541 -72.8059082 40.75073242 C-61.51741953 34.13921292 -50.24500248 27.50106846 -38.98706055 20.83764648 C-36.15221595 19.15976542 -33.31703487 17.48245455 -30.48168945 15.80541992 C-29.51730957 15.23476807 -28.55292969 14.66411621 -27.55932617 14.07617188 C-25.67045261 12.96031061 -23.78019602 11.84678648 -21.88842773 10.73583984 C-18.03891922 8.47375391 -14.20204176 6.20646974 -10.43481445 3.80932617 C-8.85506836 2.82125977 -8.85506836 2.82125977 -7.2434082 1.81323242 C-5.95756836 0.97985352 -5.95756836 0.97985352 -4.64575195 0.12963867 C-2.3059082 -0.74926758 -2.3059082 -0.74926758 0 0 Z " fill="#FEFEFE" transform="translate(777.305908203125,713.749267578125)"/>
<path d="M0 0 C1.60526533 0.79749007 3.20994553 1.59615802 4.81437683 2.39532471 C6.15487988 3.06227293 6.15487988 3.06227293 7.5224638 3.74269485 C10.22757058 5.11548798 12.83575931 6.59298898 15.42578125 8.171875 C16.37179199 8.74478271 17.31780273 9.31769043 18.29248047 9.90795898 C19.28908691 10.51583252 20.28569336 11.12370605 21.3125 11.75 C23.52916416 13.09114002 25.74664538 14.43093029 27.96484375 15.76953125 C28.53724792 16.11512589 29.1096521 16.46072052 29.69940186 16.81678772 C36.22348275 20.74912212 42.79804423 24.59449706 49.375 28.4375 C61.14795906 35.32072037 72.89004297 42.25382532 84.6171875 49.21484375 C88.72253464 51.6514261 92.83150491 54.0816359 96.9453125 56.50390625 C97.89543213 57.06368164 98.84555176 57.62345703 99.82446289 58.20019531 C101.53908834 59.20985973 103.25432384 60.21848969 104.97045898 61.22558594 C106.58359305 62.17596964 108.18153366 63.15259834 109.76350594 64.15399456 C112.32735846 65.61634413 114.70237509 66.72395243 117.41459465 67.83481312 C123.26560832 70.45715088 129.44262206 73.2655686 132.03299379 79.4770124 C133.70029606 87.0732303 133.25355305 94.85015986 133.04345703 102.57495117 C133.03837577 105.18737434 133.04123743 107.79982319 133.05142212 110.41223145 C133.0608275 116.02305181 133.00473426 121.63008334 132.90314102 127.23995018 C132.75636608 135.35001424 132.70992926 143.4582606 132.68735717 151.56950871 C132.64803463 164.73072569 132.52845401 177.88992593 132.35791016 191.05004883 C132.19249266 203.82794149 132.06518022 216.60528492 131.98876953 229.3840332 C131.981676 230.56702901 131.981676 230.56702901 131.97443916 231.77392372 C131.95094718 235.73072218 131.92820075 239.68752451 131.9058249 243.64432943 C131.71945185 276.4310208 131.40262455 309.21523981 131 342 C131.93126709 342.29769287 132.86253418 342.59538574 133.82202148 342.90209961 C137.26603795 344.09190848 139.96664882 345.64028864 143.0625 347.5625 C144.38430954 348.37290231 145.70734265 349.18131056 147.03125 349.98828125 C147.79566406 350.45443848 148.56007813 350.9205957 149.34765625 351.40087891 C154.25935443 354.36218442 159.21588397 357.24768274 164.16720581 360.14205933 C167.35329271 362.00456451 170.53801495 363.86939941 173.72265625 365.734375 C174.34902481 366.10114853 174.97539337 366.46792206 175.6207428 366.84580994 C181.0891493 370.04927137 186.5464878 373.27125018 192 376.5 C200.48633175 381.52341335 208.99029056 386.51634016 217.5 391.5 C226.88323036 396.99523209 236.25578092 402.5079062 245.61328125 408.046875 C253.22994178 412.55219104 260.86385694 417.02782815 268.5 421.5 C281.55580996 429.14675306 294.5864656 436.83537492 307.60644531 444.54296875 C309.31591091 445.5547583 311.02662882 446.56443586 312.73876476 447.5717001 C314.52131215 448.63116526 316.2953601 449.70518766 318.05686665 450.79927921 C322.74563582 453.6725235 327.37605077 456.23351823 332.46485144 458.33826143 C353.28589101 467.00459028 353.28589101 467.00459028 357.61764908 476.57335281 C360.23981563 486.06613343 359.42561311 496.29971917 358.9404242 506.02270627 C358.75730293 510.32008517 358.74196872 514.61825257 358.70768738 518.91893005 C358.61804189 527.03768357 358.38089202 535.14491696 358.08855218 543.25862592 C357.76273965 552.50508859 357.60456826 561.75214645 357.45938456 571.00293267 C357.15740526 590.0084544 356.64842569 609.00329747 356 628 C352.57726603 626.65980463 349.45073064 625.20573731 346.28125 623.33984375 C345.36448486 622.80254639 344.44771973 622.26524902 343.50317383 621.71166992 C342.51212646 621.12619385 341.5210791 620.54071777 340.5 619.9375 C339.44901123 619.32044189 338.39802246 618.70338379 337.31518555 618.06762695 C335.04962812 616.73721944 332.7847957 615.40565456 330.52099609 614.07226562 C327.01306079 612.0066398 323.5011715 609.94781025 319.98828125 607.890625 C315.13320003 605.04712998 310.27893799 602.20224731 305.42578125 599.35546875 C298.72036445 595.42229669 292.01406621 591.49063016 285.3074646 587.55947876 C282.28826922 585.78972162 279.26913789 584.01985522 276.25 582.25 C275.04166697 581.54166614 273.83333364 580.83333281 272.625 580.125 C207.37499999 541.875 207.37499999 541.875 205.56253052 540.81251526 C204.35409852 540.10412584 203.14566346 539.39574165 201.93722534 538.68736267 C198.91787646 536.91743021 195.89858069 535.14740728 192.87939453 533.37719727 C187.42425006 530.17885458 181.96872228 526.98117527 176.51121521 523.78686523 C173.46554884 522.00418962 170.4202057 520.2209624 167.375 518.4375 C166.47447403 517.91014252 166.47447403 517.91014252 165.55575562 517.37213135 C156.78955525 512.23715189 148.04600602 507.06543618 139.3125 501.875 C129.39032764 495.97970914 119.41640858 490.18079523 109.41064453 484.42871094 C101.75062819 480.02138749 94.12836945 475.55470255 86.52685547 471.04736328 C79.58614837 466.93273782 72.62856425 462.84751186 65.66497803 458.77178955 C31.77253402 438.93391707 31.77253402 438.93391707 26.03376198 435.23988628 C22.98157156 433.39923125 19.967928 432.27386513 16.58827782 431.15616322 C9.94339211 428.6374493 4.35038473 425.76775403 0 420 C-4.01120486 408.33241931 -2.8363064 395.14317115 -2.55344367 382.98309124 C-2.45804634 377.83878004 -2.49061346 372.69504202 -2.5072937 367.5500946 C-2.51880659 358.6463192 -2.45004617 349.74610184 -2.32606125 340.84322166 C-2.14692811 327.9719514 -2.08993769 315.10239395 -2.06232543 302.23001233 C-2.0142261 281.34434303 -1.86796163 260.46056865 -1.65966797 239.57592773 C-1.45759436 219.29379735 -1.30193762 199.01218242 -1.20849609 178.72924805 C-1.20271618 177.47812531 -1.19693626 176.22700257 -1.19098119 174.93796702 C-1.16226947 168.66117858 -1.13446811 162.3843865 -1.10711932 156.10759199 C-0.87920982 104.07041864 -0.49186386 52.03530193 0 0 Z " fill="#FEFEFE" transform="translate(419,923)"/>
<path d="M0 0 C0.61833459 53.23232848 1.09392563 106.4642934 1.3787639 159.69950825 C1.41253197 165.98782908 1.44747877 172.27614284 1.4831543 178.56445312 C1.49377787 180.44224498 1.49377787 180.44224498 1.50461606 182.35797203 C1.62202568 202.61435807 1.83485976 222.86867004 2.08312549 243.12382662 C2.33584312 263.91600254 2.48563208 284.70709426 2.54038936 305.50074291 C2.57739626 318.32752487 2.69412984 331.14844521 2.91374461 343.97342169 C3.05675687 352.77469154 3.09954533 361.5729436 3.06453719 370.37529027 C3.04727433 375.45255434 3.07319172 380.51960642 3.21854782 385.59503937 C4.04762241 416.0450849 4.04762241 416.0450849 -2.58245444 423.12534714 C-8.62650439 428.55265315 -15.92976574 431.64178953 -23.44498956 434.53074455 C-29.41227674 436.99697337 -34.78919608 440.36007598 -40.3125 443.6875 C-42.47664769 444.93796346 -44.64300703 446.18461473 -46.8125 447.42578125 C-53.39666458 451.22002832 -59.94070232 455.07980004 -66.47753906 458.95483398 C-73.99269187 463.40913048 -81.52471549 467.83416502 -89.0625 472.25 C-90.29646897 472.97306166 -91.53043707 473.69612482 -92.7644043 474.41918945 C-98.34899517 477.69120798 -103.93444889 480.9617507 -109.52050781 484.23126221 C-112.55561985 486.00786123 -115.59037615 487.78506725 -118.625 489.5625 C-119.52457428 490.08931366 -119.52457428 490.08931366 -120.44232178 490.62677002 C-129.20916579 495.76211171 -137.95335908 500.93418649 -146.6875 506.125 C-156.60967236 512.02029086 -166.58359142 517.81920477 -176.58935547 523.57128906 C-184.24937181 527.97861251 -191.87163055 532.44529745 -199.47314453 536.95263672 C-207.02933028 541.43213338 -214.60633455 545.87548743 -222.1875 550.3125 C-231.70707917 555.88418832 -241.20584622 561.48893628 -250.6875 567.125 C-260.60962127 573.02037563 -270.58359272 578.81920551 -280.58935547 584.57128906 C-288.23912802 588.97271857 -295.85186508 593.43232852 -303.44238281 597.93505859 C-308.7386514 601.07582446 -314.0436973 604.20083005 -319.359375 607.30859375 C-319.99675095 607.68139465 -320.63412689 608.05419556 -321.29081726 608.43829346 C-323.82164953 609.9183963 -326.35250446 611.39844986 -328.88516235 612.87542725 C-336.83508694 617.50445816 -336.83508694 617.50445816 -344.69091797 622.29052734 C-345.5858622 622.84845222 -345.5858622 622.84845222 -346.49888611 623.41764832 C-348.15246882 624.45309248 -349.80183052 625.49526864 -351.45092773 626.5378418 C-354 628 -354 628 -356 628 C-356 576.85 -356 525.7 -356 473 C-343.13 465.575 -343.13 465.575 -330 458 C-320.63647116 452.38190574 -320.63647116 452.38190574 -311.28125 446.75 C-303.82195669 442.27442402 -296.2763266 437.95237368 -288.73046875 433.625 C-281.26762379 429.33498134 -273.86893737 424.94916973 -266.5 420.5 C-256.97886362 414.75138936 -247.37833738 409.15782789 -237.73046875 403.625 C-230.26762379 399.33498134 -222.86893737 394.94916973 -215.5 390.5 C-207.05487964 385.40105941 -198.55769532 380.40764806 -190 375.5 C-181.29687461 370.5088761 -172.65468091 365.42983315 -164.0625 360.25 C-156.41985475 355.64593177 -148.76887918 351.05930824 -141.0625 346.5625 C-140.2691626 346.09553711 -139.4758252 345.62857422 -138.65844727 345.14746094 C-133.23519519 342 -133.23519519 342 -131 342 C-131.00759441 341.44382468 -131.01518881 340.88764937 -131.02301335 340.31462026 C-131.47096502 307.3217732 -131.81392044 274.32969063 -132.02130659 241.33448233 C-132.04631953 237.36930472 -132.07220609 233.40413327 -132.09863281 229.43896484 C-132.10387902 228.64959965 -132.10912523 227.86023447 -132.11453041 227.04694912 C-132.20146608 214.27947299 -132.35909947 201.51380516 -132.54305592 188.74740043 C-132.73035482 175.63931162 -132.84122926 162.532167 -132.8817699 149.42279506 C-132.9091636 141.33787034 -132.99551288 133.25805592 -133.15832934 125.17470577 C-133.27697094 118.96673476 -133.28904346 112.76262437 -133.26215363 106.5536747 C-133.26764332 104.01378034 -133.30727379 101.4736877 -133.3841095 98.93494987 C-133.92209172 80.23773591 -133.92209172 80.23773591 -129.02189732 74.80822277 C-124.21431914 70.97038044 -118.9619127 68.35554244 -113.30904341 65.99051619 C-110.43518191 64.75770856 -107.82515178 63.21403967 -105.18359375 61.546875 C-103.60195619 60.61391559 -102.01993073 59.68161345 -100.4375 58.75 C-98.59234799 57.66162773 -96.74730099 56.57307741 -94.90234375 55.484375 C-93.47510986 54.64229492 -93.47510986 54.64229492 -92.01904297 53.78320312 C-87.08621131 50.86961729 -82.15833094 47.94768435 -77.23034668 45.02590942 C-65.72345581 38.20356109 -54.20999221 31.39242544 -42.69140625 24.58984375 C-38.96099917 22.3862506 -35.23150091 20.18112129 -31.50195312 17.97607422 C-28.75175013 16.35047714 -26.00094795 14.72589852 -23.25 13.1015625 C-19.78953986 11.05825535 -16.33144368 9.01103064 -12.875 6.9609375 C-11.31253418 6.03640057 -9.75003601 5.1119183 -8.1875 4.1875 C-7.46973389 3.76057861 -6.75196777 3.33365723 -6.01245117 2.89379883 C-1.11333781 0 -1.11333781 0 0 0 Z " fill="#FEFEFE" transform="translate(1581,923)"/>
<path d="M0 0 C2.55761719 1.25244141 2.55761719 1.25244141 5.296875 2.8515625 C6.32490234 3.44775391 7.35292969 4.04394531 8.41210938 4.65820312 C9.51361328 5.30724609 10.61511719 5.95628906 11.75 6.625 C12.91444705 7.30449335 14.0791653 7.98352214 15.24414062 8.66210938 C24.07689929 13.81938848 32.84413485 19.0859951 41.60058594 24.37158203 C49.01607207 28.83875634 56.49029471 33.19335898 64 37.5 C73.60727312 43.00954731 83.12477738 48.65080898 92.60546875 54.375 C100.01975255 58.84031521 107.49201404 63.19434497 115 67.5 C124.60727312 73.00954731 134.12477738 78.65080898 143.60546875 84.375 C151.01975404 88.84031611 158.49204878 93.19428249 166 97.5 C175.65475981 103.0377346 185.22348248 108.70261463 194.75488281 114.44970703 C204.70190354 120.44070367 214.73175287 126.28414433 224.77050781 132.11962891 C230.72885814 135.58887703 236.67709241 139.0753873 242.625 142.5625 C243.55185608 143.10580963 243.55185608 143.10580963 244.49743652 143.66009521 C253.21398636 148.77037725 261.91867973 153.90039917 270.61376953 159.04711914 C278.23021789 163.55243726 285.86401374 168.02791998 293.5 172.5 C303.03047494 178.08197375 312.55783407 183.66900525 322.05712891 189.30395508 C326.7730291 192.10067586 331.50095523 194.87421581 336.24609375 197.62109375 C337.270979 198.21760742 338.29586426 198.81412109 339.35180664 199.42871094 C341.33058572 200.57989599 343.31273266 201.72531611 345.29858398 202.86425781 C346.61644897 203.63334473 346.61644897 203.63334473 347.9609375 204.41796875 C348.74259277 204.86938232 349.52424805 205.3207959 350.32958984 205.78588867 C350.8808252 206.18654541 351.43206055 206.58720215 352 207 C352 207.66 352 208.32 352 209 C350.11354765 210.27999088 348.1593127 211.46028483 346.18359375 212.59765625 C345.27910995 213.12277046 345.27910995 213.12277046 344.35635376 213.65849304 C342.38721843 214.79990761 340.41238691 215.93107141 338.4375 217.0625 C337.0840698 217.84519191 335.7311236 218.62872133 334.37866211 219.41308594 C331.7405284 220.94276363 329.10083602 222.46968958 326.45996094 223.99462891 C322.63795322 226.20983998 318.84048204 228.46077063 315.0625 230.75 C306.35747357 236.00129204 297.59661148 241.15766553 288.84082031 246.32373047 C281.56710827 250.61569565 274.29624776 254.91248628 267.02636719 259.2109375 C264.30295307 260.82090674 261.57906874 262.43007808 258.8551178 264.03913879 C256.46661501 265.45046462 254.07874407 266.86285707 251.69100952 268.27548218 C250.00255283 269.27402804 248.31342354 270.27143631 246.62426758 271.26879883 C245.56103271 271.89810303 244.49779785 272.52740723 243.40234375 273.17578125 C242.35546387 273.79275879 241.30858398 274.40973633 240.22998047 275.04541016 C237.94599818 276.42753882 235.70725998 277.83130174 233.47705078 279.29443359 C232.89580948 279.66996872 232.31456818 280.04550385 231.7157135 280.43241882 C230.09576533 281.48337437 228.48613954 282.55019131 226.87719727 283.61791992 C224 285 224 285 221.45141602 284.89208984 C218.69385737 283.88859225 216.30794441 282.66621843 213.7734375 281.18359375 C212.75596436 280.59271973 211.73849121 280.0018457 210.69018555 279.39306641 C209.59617432 278.74772949 208.50216309 278.10239258 207.375 277.4375 C206.21360803 276.75907104 205.05189927 276.08118413 203.88989258 275.40380859 C200.25344101 273.28016187 196.62581833 271.14173836 193 269 C191.88061035 268.33919434 190.7612207 267.67838867 189.60791016 266.99755859 C184.04241378 263.70822123 178.48282868 260.40905524 172.92578125 257.10546875 C165.7609433 252.85061337 158.56894027 248.64289444 151.375 244.4375 C142.31778443 239.14247544 133.29652204 233.79371943 124.3125 228.375 C114.61673001 222.52787926 104.83829588 216.83685643 95.02001953 211.19824219 C88.98455991 207.72983915 82.97936234 204.22635807 77.02636719 200.61816406 C70.43392747 196.63364265 63.77502278 192.76226773 57.125 188.875 C47.67291877 183.34907897 38.25466778 177.77323886 28.875 172.125 C26.84652976 170.90856131 24.81788808 169.69240845 22.7890625 168.4765625 C19.90697858 166.74923675 17.02834007 165.01727292 14.15917969 163.26855469 C11.53024128 161.66626927 8.89143731 160.08156638 6.25 158.5 C5.48155762 158.02449707 4.71311523 157.54899414 3.92138672 157.05908203 C3.20998535 156.63739746 2.49858398 156.21571289 1.765625 155.78125 C1.15493164 155.41064453 0.54423828 155.04003906 -0.08496094 154.65820312 C-2.7347706 153.74745774 -4.33828121 154.20481054 -7 155 C-9.08775503 155.98410109 -9.08775503 155.98410109 -11.08984375 157.265625 C-12.24818726 157.97187012 -12.24818726 157.97187012 -13.42993164 158.69238281 C-14.2574292 159.20639648 -15.08492676 159.72041016 -15.9375 160.25 C-17.7469076 161.35496656 -19.55682085 162.45910544 -21.3671875 163.5625 C-22.30014648 164.13355469 -23.23310547 164.70460938 -24.19433594 165.29296875 C-28.62490562 167.98863036 -33.09307576 170.61943627 -37.5625 173.25 C-39.40767723 174.33832952 -41.25272599 175.42687688 -43.09765625 176.515625 C-44.04914551 177.07701172 -45.00063477 177.63839844 -45.98095703 178.21679688 C-50.91378869 181.13038271 -55.84166906 184.05231565 -60.76965332 186.97409058 C-72.28389075 193.80079463 -83.80467009 200.61634093 -95.33056641 207.42333984 C-99.88748494 210.11481413 -104.44370119 212.80747679 -109 215.5 C-110.83333009 216.58333881 -112.66666342 217.66667215 -114.5 218.75 C-115.86125 219.554375 -115.86125 219.554375 -117.25 220.375 C-125.5 225.25 -125.5 225.25 -128.2487793 226.87426758 C-130.0861946 227.96002039 -131.92359689 229.04579521 -133.76098633 230.1315918 C-138.28176042 232.80308561 -142.80274334 235.47422455 -147.32421875 238.14453125 C-158.53562438 244.76647259 -169.74083676 251.39879475 -180.94067383 258.0402832 C-186.33972405 261.24122322 -191.74066742 264.4388098 -197.1484375 267.625 C-198.11015869 268.19202637 -199.07187988 268.75905273 -200.06274414 269.34326172 C-201.90729163 270.4299098 -203.75280046 271.51492802 -205.59936523 272.59814453 C-209.46813649 274.87500026 -213.3095445 277.17132423 -217.07421875 279.6171875 C-217.67443848 280.00390625 -218.2746582 280.390625 -218.89306641 280.7890625 C-220.41792405 281.78095586 -221.93037033 282.79186288 -223.44140625 283.8046875 C-226.62025426 285.28976764 -227.66572356 284.94850507 -231 284 C-232.91859429 283.04811788 -234.79965926 282.01875049 -236.6484375 280.9375 C-237.72834961 280.31020996 -238.80826172 279.68291992 -239.92089844 279.03662109 C-241.07239682 278.35796995 -242.22376128 277.67909154 -243.375 277 C-244.56252012 276.30628033 -245.75034751 275.61308639 -246.93847656 274.92041016 C-254.06357121 270.75908762 -261.15894762 266.54841606 -268.21875 262.27734375 C-272.8758576 259.46367458 -277.56388539 256.70249035 -282.25 253.9375 C-291.247023 248.62765263 -300.23707392 243.30615688 -309.22338867 237.97821045 C-316.13268229 233.88191632 -323.04461187 229.79018165 -329.96240234 225.70825195 C-332.66112516 224.11497025 -335.35805512 222.5186915 -338.0546875 220.921875 C-341.26099831 219.02377891 -344.47463372 217.13922582 -347.6953125 215.265625 C-349.08860973 214.44803264 -350.48184343 213.63033201 -351.875 212.8125 C-352.50631836 212.44970947 -353.13763672 212.08691895 -353.78808594 211.71313477 C-355.22618802 210.86407765 -356.61943929 209.93972746 -358 209 C-358 208.34 -358 207.68 -358 207 C-356.14599609 205.6940918 -356.14599609 205.6940918 -353.5234375 204.19921875 C-352.55446533 203.64129639 -351.58549316 203.08337402 -350.5871582 202.50854492 C-348.99713989 201.60712769 -348.99713989 201.60712769 -347.375 200.6875 C-345.14677582 199.40687548 -342.91891841 198.12561261 -340.69140625 196.84375 C-339.56234863 196.19664062 -338.43329102 195.54953125 -337.27001953 194.8828125 C-332.59397086 192.19043626 -327.95195473 189.44229855 -323.3125 186.6875 C-317.23570806 183.08715756 -311.1520177 179.49905447 -305.0546875 175.93359375 C-304.45513245 175.58295364 -303.85557739 175.23231354 -303.237854 174.87104797 C-302.63213562 174.51681259 -302.02641724 174.16257721 -301.40234375 173.79760742 C-300.16404983 173.07342661 -298.92576865 172.34922402 -297.6875 171.625 C-297.07197266 171.26499908 -296.45644531 170.90499817 -295.82226562 170.53408813 C-287.28416999 165.53793319 -278.78350774 160.48438991 -270.3125 155.375 C-260.6167352 149.52787051 -250.83829576 143.83685636 -241.02001953 138.19824219 C-234.98455991 134.72983915 -228.97936234 131.22635807 -223.02636719 127.61816406 C-216.43392648 123.63364205 -209.77499101 119.7623235 -203.125 115.875 C-193.77815066 110.41021955 -184.46164795 104.90018515 -175.1875 99.3125 C-164.25606532 92.72912847 -153.24818218 86.28481056 -142.21630859 79.87158203 C-136.3264292 76.44423913 -130.44305836 73.00580766 -124.5625 69.5625 C-123.64439041 69.02502136 -123.64439041 69.02502136 -122.70773315 68.47668457 C-113.18476854 62.89873076 -103.7153226 57.23618153 -94.2644043 51.53686523 C-85.57879326 46.31409488 -76.80850653 41.2454507 -68.02001953 36.19824219 C-61.40493402 32.39674502 -54.83943611 28.53294281 -48.3125 24.58203125 C-40.72916126 20.01706089 -33.06784408 15.58076221 -25.42651367 11.11376953 C-24.8218074 10.75980103 -24.21710114 10.40583252 -23.59407043 10.0411377 C-22.40242909 9.34454889 -21.20972422 8.64977597 -20.01591492 7.95690918 C-17.32881493 6.39234594 -14.67981861 4.79391419 -12.06494141 3.11083984 C-10.75855713 2.27286865 -10.75855713 2.27286865 -9.42578125 1.41796875 C-8.68368408 0.92449951 -7.94158691 0.43103027 -7.17700195 -0.07739258 C-4.30112722 -1.29618036 -2.95058318 -0.95795958 0 0 Z " fill="#FEFEFE" transform="translate(1003,318)"/>
<path d="M0 0 C2.48168945 1.26831055 2.48168945 1.26831055 5.11328125 2.88671875 C6.10102539 3.48790527 7.08876953 4.0890918 8.10644531 4.70849609 C9.16444336 5.36156738 10.22244141 6.01463867 11.3125 6.6875 C13.58387204 8.07028916 15.85600053 9.45177113 18.12890625 10.83203125 C18.99447647 11.35917725 18.99447647 11.35917725 19.87753296 11.89697266 C25.46103329 15.29362405 31.09782803 18.59432533 36.75 21.875 C38.73181833 23.02726206 40.71358814 24.17960758 42.6953125 25.33203125 C43.71012695 25.92193848 44.72494141 26.5118457 45.77050781 27.11962891 C51.72885763 30.58887674 57.67715855 34.07527534 63.625 37.5625 C64.24223938 37.92437408 64.85947876 38.28624817 65.49542236 38.65908813 C76.02166048 44.83150307 86.5344924 51.02632507 97.03369141 57.24462891 C99.82891944 58.89875974 102.62553297 60.55051748 105.42260742 62.20152283 C107.93599679 63.68540755 110.44862378 65.17058 112.96112061 66.65597534 C114.18921296 67.38168468 115.41760369 68.10688933 116.64630127 68.83157349 C118.35487305 69.83943755 120.06223137 70.84935787 121.76953125 71.859375 C123.24836792 72.73287598 123.24836792 72.73287598 124.75708008 73.62402344 C127 75 127 75 128 76 C128.09672695 77.99961455 128.1218703 80.00270193 128.12025452 82.00465393 C128.12231651 83.96300674 128.12231651 83.96300674 128.12442017 85.96092224 C128.12088055 87.42129539 128.11724573 88.88166831 128.11352539 90.34204102 C128.11324353 91.86926268 128.11340123 93.39648447 128.1139679 94.92370605 C128.11425591 99.08261688 128.10835855 103.24149911 128.10139394 107.40040326 C128.09516106 111.74194524 128.09455665 116.08348781 128.09336853 120.42503357 C128.09025502 128.65213582 128.08204137 136.87922486 128.07201904 145.10632128 C128.06085851 154.47013064 128.05534761 163.83394062 128.05032361 173.19775498 C128.03985877 192.46517749 128.02225895 211.73258769 128 231 C127.25127027 231.43152437 126.50254053 231.86304874 125.73112202 232.30764961 C122.92043617 233.92777274 120.10991926 235.54818845 117.29951191 237.16879463 C116.08927271 237.86659493 114.87896865 238.56428275 113.66859531 239.26185036 C105.30923293 244.07968411 96.97230951 248.9297712 88.6875 253.875 C79.20703259 259.51292311 69.70667321 265.11522469 60.1875 270.6875 C51.70224634 275.65634601 43.21803412 280.6268361 34.75 285.625 C33.89140381 286.13144043 33.03280762 286.63788086 32.14819336 287.15966797 C27.13404634 290.12446541 22.13915696 293.11975463 17.15625 296.13671875 C15.99514281 296.8384213 14.83401015 297.54008172 13.67285156 298.24169922 C11.42685982 299.59898747 9.18480306 300.96216 6.94433594 302.32861328 C5.93661133 302.93817871 4.92888672 303.54774414 3.890625 304.17578125 C2.99375977 304.72145752 2.09689453 305.26713379 1.17285156 305.8293457 C-1 307 -1 307 -3 307 C-3 256.18 -3 205.36 -3 153 C-5.97 152.01 -5.97 152.01 -9 151 C-10.79021277 150.04749367 -12.55086121 149.03776941 -14.28125 147.98046875 C-15.27664795 147.37702637 -16.2720459 146.77358398 -17.29760742 146.15185547 C-18.35439697 145.50361816 -19.41118652 144.85538086 -20.5 144.1875 C-22.75611358 142.81835629 -25.01263148 141.44987862 -27.26953125 140.08203125 C-27.83754959 139.73676392 -28.40556793 139.39149658 -28.99079895 139.0357666 C-34.36363279 135.77096328 -39.77039792 132.56563334 -45.1875 129.375 C-46.08573486 128.84519531 -46.98396973 128.31539062 -47.90942383 127.76953125 C-49.71287361 126.70591257 -51.51650183 125.64259638 -53.3203125 124.57958984 C-57.77787638 121.95199889 -62.23272347 119.31981298 -66.6875 116.6875 C-67.58235107 116.15882324 -68.47720215 115.63014648 -69.39916992 115.08544922 C-76.19321843 111.07048466 -82.98311474 107.048539 -89.77175903 103.02444458 C-98.92916402 97.59623516 -108.08724217 92.16917017 -117.25 86.75 C-118.13623047 86.22535156 -119.02246094 85.70070313 -119.93554688 85.16015625 C-124.60240349 82.40131626 -129.28513241 79.67600593 -134 77 C-131.17478575 73.95819011 -128.41243927 71.88932668 -124.80078125 69.85546875 C-123.2542688 68.97592529 -123.2542688 68.97592529 -121.67651367 68.07861328 C-120.0113269 67.14251221 -120.0113269 67.14251221 -118.3125 66.1875 C-115.93791052 64.83847064 -113.56645555 63.48398221 -111.1953125 62.12890625 C-110.59162338 61.784505 -109.98793427 61.44010376 -109.36595154 61.08526611 C-103.42047772 57.68569012 -97.54917358 54.16689107 -91.6875 50.625 C-82.70398505 45.20542288 -73.68181111 39.85820492 -64.625 34.5625 C-55.58287245 29.27333893 -46.54529047 23.97699032 -37.53051758 18.64129639 C-35.83431145 17.63790261 -34.13688977 16.63656461 -32.43945312 15.63525391 C-27.41284974 12.66055504 -22.4163305 9.6552354 -17.48828125 6.51953125 C-16.65772217 5.99472168 -15.82716309 5.46991211 -14.97143555 4.92919922 C-13.46056729 3.96869511 -11.95738197 2.99594131 -10.46411133 2.00830078 C-6.44243661 -0.54569238 -4.55009707 -1.38052481 0 0 Z " fill="#FEFEFE" transform="translate(1453,582)"/>
<path d="M0 0 C2.04236366 1.09080786 4.03653851 2.27283657 6 3.5 C7.33734985 4.3235531 8.6760142 5.1449735 10.015625 5.96484375 C10.78712891 6.43776855 11.55863281 6.91069336 12.35351562 7.39794922 C17.16437596 10.31020619 22.02655425 13.13561777 26.88256836 15.97167969 C37.10960499 21.94558473 47.31591401 27.95312849 57.5 34 C66.92018531 39.59243455 76.35873723 45.15209052 85.8125 50.6875 C94.6920154 55.88815852 103.57140617 61.08897755 112.4375 66.3125 C113.32477783 66.83352295 114.21205566 67.3545459 115.1262207 67.89135742 C119.50768391 70.47633068 123.8018954 73.12617555 128 76 C124.8317835 78.48761553 121.51850064 80.52851721 118.0390625 82.5546875 C117.46118988 82.89223053 116.88331726 83.22977356 116.28793335 83.57754517 C115.04756268 84.30171324 113.80654482 85.02477371 112.56494141 85.74682617 C109.92872262 87.27992044 107.29560023 88.818297 104.66229248 90.35638428 C103.32883422 91.1351819 101.99521569 91.91370516 100.66143799 92.69195557 C95.09527268 95.94051327 89.54460329 99.21477654 84 102.5 C78.03347651 106.03324232 72.06005859 109.55425947 66.07421875 113.0546875 C65.47320343 113.40620377 64.87218811 113.75772003 64.25296021 114.11988831 C63.64547943 114.47518112 63.03799866 114.83047394 62.41210938 115.1965332 C61.17056569 115.92267644 59.92902926 116.64883209 58.6875 117.375 C58.07318115 117.73427582 57.4588623 118.09355164 56.82592773 118.4637146 C47.25957463 124.06109898 37.7343677 129.72302656 28.26049805 135.47607422 C27.34953369 136.02666504 26.43856934 136.57725586 25.5 137.14453125 C24.13887085 138.02470161 24.13887085 138.02470161 22.75024414 138.9226532 C19.87976499 140.65108885 17.02469943 141.71338158 13.85127258 142.77598572 C7.63793184 145.12664081 2.22312082 147.72941792 -2 153 C-5.69068115 163.12498296 -4.64348166 174.70547779 -4.33120179 185.31380749 C-4.22741756 189.59769663 -4.24369392 193.88117174 -4.24674988 198.16607666 C-4.23452734 206.26408539 -4.11574519 214.35681359 -3.95778245 222.45314813 C-3.78308181 231.6766438 -3.72850016 240.8996589 -3.68355334 250.12455702 C-3.58850084 269.08555127 -3.34407587 288.04197069 -3 307 C-7.47642766 305.5720747 -11.14702386 303.88237689 -15.1484375 301.40234375 C-15.71782547 301.05235825 -16.28721344 300.70237274 -16.87385559 300.34178162 C-18.08488687 299.59689036 -19.29433299 298.84941663 -20.50228882 298.09954834 C-23.66393553 296.13769413 -26.8379287 294.19603313 -30.01171875 292.25390625 C-30.63079605 291.87459961 -31.24987335 291.49529297 -31.88771057 291.10449219 C-36.2685677 288.42734474 -40.68798467 285.84637374 -45.1875 283.375 C-51.7837569 279.74018298 -58.23839545 275.88942128 -64.6875 272 C-74.94110797 265.81658613 -85.24318686 259.72430652 -95.5847168 253.68945312 C-98.8984375 251.75390625 -98.8984375 251.75390625 -100.50887871 250.73950481 C-104.73221392 248.13118905 -108.98881211 246.14999315 -113.58494568 244.27033997 C-131.6513782 236.2428087 -131.6513782 236.2428087 -135.56543732 227.50548744 C-137.85810775 217.93758408 -137.57427107 208.1854022 -137.26454139 198.40800333 C-137.15408589 194.13810219 -137.18642181 189.8688554 -137.19844055 185.59786987 C-137.19724154 178.43495829 -137.09059383 171.27980317 -136.91577148 164.11914062 C-136.7151222 155.86167509 -136.66644928 147.61418557 -136.7019946 139.35458481 C-136.73421586 131.37301737 -136.67513168 123.39482827 -136.56937599 115.41396713 C-136.52519065 112.0333764 -136.50955843 108.65448259 -136.51694298 105.27362442 C-136.51795796 79.76127684 -136.51795796 79.76127684 -132.42642975 73.64943123 C-128.78858919 70.13653728 -124.80326713 68.26362065 -120.03458786 66.72632313 C-116.68449104 65.5303793 -113.87434193 63.65043958 -110.8671875 61.76171875 C-109.7146333 61.08279944 -108.55981345 60.40769816 -107.40185547 59.73803711 C-104.31930222 57.94586378 -101.23945955 56.14911888 -98.16067505 54.35047913 C-96.89429439 53.61073394 -95.62775569 52.87125925 -94.36105347 52.13206482 C-88.85502571 48.91857224 -83.36197356 45.68342322 -77.875 42.4375 C-77.00794434 41.92469482 -76.14088867 41.41188965 -75.24755859 40.88354492 C-66.84809871 35.9133637 -58.45238204 30.93684713 -50.05761719 25.95874023 C-44.65915667 22.75809181 -39.2587674 19.56085721 -33.8515625 16.375 C-32.88984131 15.80797363 -31.92812012 15.24094727 -30.93725586 14.65673828 C-29.09270837 13.5700902 -27.24719954 12.48507198 -25.40063477 11.40185547 C-21.53186351 9.12499974 -17.6904555 6.82867577 -13.92578125 4.3828125 C-13.32556152 3.99609375 -12.7253418 3.609375 -12.10693359 3.2109375 C-10.58207595 2.21904414 -9.06962967 1.20813712 -7.55859375 0.1953125 C-4.39483324 -1.28271913 -3.25968457 -1.17529459 0 0 Z " fill="#FEFEFE" transform="translate(553,582)"/>
<path d="M0 0 C4.834749 1.611583 7.96614374 3.01249995 12.1875 5.625 C13.51233434 6.43601831 14.83791982 7.2458103 16.1640625 8.0546875 C16.9159082 8.51456055 17.66775391 8.97443359 18.44238281 9.44824219 C23.04392234 12.24008881 27.67953859 14.97462276 32.31207275 17.71463013 C34.07542572 18.75764551 35.83831044 19.80144819 37.60107422 20.84545898 C48.39603386 27.23822668 59.19727085 33.62037279 70 40 C81.49515372 46.78854338 92.98779939 53.58130013 104.4737854 60.38534546 C106.19556191 61.40525318 107.91748079 62.42492055 109.6394043 63.44458008 C110.71230713 64.08032959 111.78520996 64.7160791 112.890625 65.37109375 C113.92251953 65.97808105 114.95441406 66.58506836 116.01757812 67.21044922 C117.97914122 68.38745131 119.92167463 69.59687143 121.84179688 70.84033203 C123.14987305 71.67927002 123.14987305 71.67927002 124.484375 72.53515625 C125.23944336 73.03539307 125.99451172 73.53562988 126.77246094 74.05102539 C129.66830334 75.28471011 131.03034271 74.96228207 134 74 C136.36195215 72.88527621 136.36195215 72.88527621 138.71875 71.4375 C139.6360791 70.89665771 140.5534082 70.35581543 141.49853516 69.79858398 C142.98426025 68.90828491 142.98426025 68.90828491 144.5 68 C146.66401011 66.71996351 148.82807503 65.44001968 150.9921875 64.16015625 C152.14429346 63.4755708 153.29631026 62.79083527 154.44824219 62.10595703 C158.04287048 59.97131269 161.64887308 57.85643154 165.2578125 55.74609375 C165.86344528 55.39191376 166.46907806 55.03773376 167.09306335 54.67282104 C168.3208873 53.95482833 169.54872648 53.23686165 170.77658081 52.5189209 C183.54056378 45.05133021 196.27464402 37.53318189 209 30 C215.27410124 26.2858449 221.55047852 22.57560668 227.83056641 18.87158203 C230.14119742 17.50713146 232.4507583 16.1409632 234.75927734 14.77294922 C238.09383682 12.79705635 241.4310215 10.8256596 244.76974487 8.85681152 C246.08537419 8.07995176 247.40009994 7.30155967 248.71389771 6.52160645 C250.55169404 5.43091675 252.39262383 4.34571302 254.234375 3.26171875 C255.29881836 2.63225342 256.36326172 2.00278809 257.45996094 1.35424805 C260 0 260 0 262 0 C262 50.82 262 101.64 262 154 C255.07 157.96 248.14 161.92 241 166 C237.49226319 168.05165087 233.99017865 170.10698707 230.5 172.1875 C228.66696174 173.27523699 226.83361088 174.36244731 225 175.44921875 C224.04222656 176.01688965 223.08445312 176.58456055 222.09765625 177.16943359 C216.24177072 180.62998133 210.36987185 184.06325249 204.5 187.5 C193.20959614 194.11223942 181.93605672 200.75239642 170.67675781 207.41748047 C167.85661491 209.08477035 165.0340352 210.74787485 162.2109375 212.41015625 C161.25179443 212.97557129 160.29265137 213.54098633 159.30444336 214.12353516 C157.42093468 215.23314199 155.53636267 216.34094619 153.65063477 217.44677734 C149.69913916 219.77220072 145.77527382 222.11332387 141.94140625 224.62890625 C141.34851807 225.01393311 140.75562988 225.39895996 140.14477539 225.7956543 C138.6388119 226.78390791 137.14675674 227.79327221 135.65625 228.8046875 C132.22770942 230.34753076 130.62887764 229.87668265 127 229 C124.18945312 227.62402344 124.18945312 227.62402344 121.28125 225.859375 C120.19545654 225.20751221 119.10966309 224.55564941 117.9909668 223.8840332 C116.82725285 223.17278426 115.66359868 222.4614375 114.5 221.75 C113.28811842 221.01877651 112.07562642 220.28856379 110.86254883 219.55932617 C108.40543483 218.08114741 105.9509906 216.59868702 103.49853516 215.11279297 C98.58489921 212.13978744 93.63658497 209.22598322 88.6875 206.3125 C86.89307771 205.2528606 85.09880607 204.19296606 83.3046875 203.1328125 C81.53647174 202.08851896 79.76824263 201.04424804 78 200 C66.73814425 193.34923237 55.47918933 186.69365224 44.22824097 180.02444458 C35.07083598 174.59623516 25.91275783 169.16917017 16.75 163.75 C15.86376953 163.22535156 14.97753906 162.70070313 14.06445312 162.16015625 C13.23365234 161.66902344 12.40285156 161.17789062 11.546875 160.671875 C10.47711426 160.03910645 10.47711426 160.03910645 9.38574219 159.39355469 C6.26997833 157.57358128 3.13293692 155.79024967 0 154 C0 103.18 0 52.36 0 0 Z " fill="#FEFEFE" transform="translate(869,1453)"/>
<path d="M0 0 C2.48168945 1.26831055 2.48168945 1.26831055 5.11328125 2.88671875 C6.10102539 3.48790527 7.08876953 4.0890918 8.10644531 4.70849609 C9.16444336 5.36156738 10.22244141 6.01463867 11.3125 6.6875 C13.58387204 8.07028916 15.85600053 9.45177113 18.12890625 10.83203125 C18.99447647 11.35917725 18.99447647 11.35917725 19.87753296 11.89697266 C25.46103329 15.29362405 31.09782803 18.59432533 36.75 21.875 C38.73181833 23.02726206 40.71358814 24.17960758 42.6953125 25.33203125 C43.71012695 25.92193848 44.72494141 26.5118457 45.77050781 27.11962891 C51.72885763 30.58887674 57.67715855 34.07527534 63.625 37.5625 C64.24223938 37.92437408 64.85947876 38.28624817 65.49542236 38.65908813 C75.11934218 44.30239828 84.73475681 49.95990692 94.33203125 55.6484375 C98.02267623 57.83494287 101.72010619 60.0094021 105.42260742 62.17573547 C107.93716256 63.6479197 110.44927923 65.12423512 112.96112061 66.6010437 C114.1884233 67.32126925 115.41680731 68.03965558 116.64630127 68.75613403 C118.35683269 69.75322787 120.06328153 70.75731557 121.76953125 71.76171875 C123.24836792 72.6273645 123.24836792 72.6273645 124.75708008 73.51049805 C127 75 127 75 128 77 C127.21858643 77.44315552 127.21858643 77.44315552 126.42138672 77.89526367 C115.49124024 84.10075851 104.60895563 90.37825765 93.79833984 96.78979492 C86.0474922 101.38607057 78.27632781 105.94704281 70.5 110.5 C59.20959614 117.11223942 47.93605672 123.75239642 36.67675781 130.41748047 C33.85661491 132.08477035 31.0340352 133.74787485 28.2109375 135.41015625 C27.25179443 135.97557129 26.29265137 136.54098633 25.30444336 137.12353516 C23.42093468 138.23314199 21.53636267 139.34094619 19.65063477 140.44677734 C15.69913916 142.77220072 11.77527382 145.11332387 7.94140625 147.62890625 C7.34851807 148.01393311 6.75562988 148.39895996 6.14477539 148.7956543 C4.6388119 149.78390791 3.14675674 150.79327221 1.65625 151.8046875 C-1.77229058 153.34753076 -3.37112236 152.87668265 -7 152 C-9.81054688 150.62402344 -9.81054688 150.62402344 -12.71875 148.859375 C-13.80454346 148.20751221 -14.89033691 147.55564941 -16.0090332 146.8840332 C-17.17274715 146.17278426 -18.33640132 145.4614375 -19.5 144.75 C-20.71188158 144.01877651 -21.92437358 143.28856379 -23.13745117 142.55932617 C-25.59456517 141.08114741 -28.0490094 139.59868702 -30.50146484 138.11279297 C-35.41510079 135.13978744 -40.36341503 132.22598322 -45.3125 129.3125 C-47.10692229 128.2528606 -48.90119393 127.19296606 -50.6953125 126.1328125 C-52.46352826 125.08851896 -54.23175737 124.04424804 -56 123 C-67.26185575 116.34923237 -78.52081067 109.69365224 -89.77175903 103.02444458 C-98.92916402 97.59623516 -108.08724217 92.16917017 -117.25 86.75 C-118.13623047 86.22535156 -119.02246094 85.70070313 -119.93554688 85.16015625 C-124.60240349 82.40131626 -129.28513241 79.67600593 -134 77 C-131.17478575 73.95819011 -128.41243927 71.88932668 -124.80078125 69.85546875 C-123.2542688 68.97592529 -123.2542688 68.97592529 -121.67651367 68.07861328 C-120.0113269 67.14251221 -120.0113269 67.14251221 -118.3125 66.1875 C-115.93791052 64.83847064 -113.56645555 63.48398221 -111.1953125 62.12890625 C-110.59162338 61.784505 -109.98793427 61.44010376 -109.36595154 61.08526611 C-103.42047772 57.68569012 -97.54917358 54.16689107 -91.6875 50.625 C-82.70398505 45.20542288 -73.68181111 39.85820492 -64.625 34.5625 C-55.58287245 29.27333893 -46.54529047 23.97699032 -37.53051758 18.64129639 C-35.83431145 17.63790261 -34.13688977 16.63656461 -32.43945312 15.63525391 C-27.41284974 12.66055504 -22.4163305 9.6552354 -17.48828125 6.51953125 C-16.65772217 5.99472168 -15.82716309 5.46991211 -14.97143555 4.92919922 C-13.46056729 3.96869511 -11.95738197 2.99594131 -10.46411133 2.00830078 C-6.44243661 -0.54569238 -4.55009707 -1.38052481 0 0 Z " fill="#FEFEFE" transform="translate(1003,582)"/>
<path d="M0 0 C0.56202886 19.96614399 0.98450462 39.930673 1.24349213 59.90310097 C1.36697792 69.17833284 1.53509697 78.44863684 1.81054688 87.72070312 C2.05068614 95.80805354 2.20479425 103.89183669 2.25812387 111.98265302 C2.28928799 116.26440269 2.36173899 120.53595507 2.53752136 124.81441116 C3.56354103 150.77385894 3.56354103 150.77385894 -2.34662819 157.78295708 C-8.0532481 162.42983708 -14.31210068 165.32846241 -21.16781044 167.89300728 C-24.96780482 169.37827725 -28.2144871 171.32510044 -31.66796875 173.48828125 C-32.74949219 174.1225 -33.83101562 174.75671875 -34.9453125 175.41015625 C-36.01523438 176.03792969 -37.08515625 176.66570312 -38.1875 177.3125 C-39.39972219 178.02346716 -40.61196237 178.73440364 -41.82421875 179.4453125 C-44.31435805 180.90564636 -46.8044241 182.36610498 -49.29443359 183.82666016 C-52.95246863 185.97224418 -56.61092823 188.11710341 -60.26953125 190.26171875 C-60.86687576 190.61187546 -61.46422028 190.96203217 -62.07966614 191.32279968 C-65.08700276 193.08563542 -68.09438935 194.84838588 -71.10180664 196.61108398 C-77.26933209 200.22610167 -83.43608298 203.84243142 -89.6015625 207.4609375 C-100.47590886 213.84254735 -111.35080068 220.2234061 -122.25 226.5625 C-123.03648926 227.02188965 -123.82297852 227.4812793 -124.63330078 227.95458984 C-129.88371774 231 -129.88371774 231 -131 231 C-131.58564017 211.18165685 -132.02561527 191.3650818 -132.2953043 171.53986263 C-132.42389755 162.33278622 -132.59893835 153.13110226 -132.88598633 143.92749023 C-133.1362603 135.89909061 -133.29668835 127.8745944 -133.35221237 119.84240252 C-133.38465697 115.59205459 -133.45997761 111.35286373 -133.64325142 107.10612297 C-134.70960814 81.40644335 -134.70960814 81.40644335 -128.60715866 74.15767288 C-122.72407175 69.30109617 -116.2425725 66.21165492 -109.20635796 63.37399483 C-104.11621482 61.19275666 -99.50989425 58.28601067 -94.8125 55.375 C-93.00238887 54.30194957 -91.19016742 53.23244362 -89.375 52.16796875 C-84.01869102 49.01143377 -78.66509375 45.85033026 -73.3125 42.6875 C-72.41764893 42.15882324 -71.52279785 41.63014648 -70.60083008 41.08544922 C-63.23024307 36.7297774 -55.86470929 32.36560049 -48.5 28 C-37.43450763 21.44115803 -26.36811592 14.88387298 -15.28808594 8.34960938 C-13.83002073 7.48958115 -12.37230103 6.6289667 -10.91503906 5.76757812 C-9.17380948 4.73871026 -7.43074987 3.7129411 -5.6875 2.6875 C-4.78386719 2.15511719 -3.88023438 1.62273437 -2.94921875 1.07421875 C-1 0 -1 0 0 0 Z " fill="#FEFEFE" transform="translate(1356,1055)"/>
<path d="M0 0 C3.5354853 1.3790918 6.69398018 2.90262063 9.9375 4.87890625 C10.89962402 5.46148193 11.86174805 6.04405762 12.85302734 6.64428711 C13.89152832 7.27729736 14.9300293 7.91030762 16 8.5625 C18.26225029 9.93098689 20.52507298 11.29846115 22.7890625 12.6640625 C23.37692535 13.01893234 23.96478821 13.37380219 24.57046509 13.73942566 C31.13771433 17.69729603 37.7546142 21.56940817 44.375 25.4375 C46.82186371 26.86806393 49.26846473 28.29907612 51.71484375 29.73046875 C52.31968094 30.08436172 52.92451813 30.4382547 53.54768372 30.8028717 C62.26562036 35.90760106 70.94947761 41.0698315 79.63671875 46.2265625 C84.48434139 49.10371969 89.33827822 51.96984114 94.19848633 54.82568359 C95.96877815 55.86953116 97.73227197 56.92545755 99.47657967 58.01216888 C104.21310343 60.91818855 108.82829793 63.41200072 114.00209045 65.45266724 C120.58331905 68.2883358 126.4572781 71.31977905 131 77 C134.8459025 87.20738064 133.75683635 98.79951907 133.33206058 109.51659536 C133.18716557 113.7944884 133.17468786 118.07284581 133.1474762 122.35281372 C133.07629332 130.43774653 132.8880431 138.51543095 132.65643793 146.59718621 C132.3983424 155.80549542 132.2726569 165.01417231 132.15744293 174.22520423 C131.9177392 193.15422969 131.5138532 212.07653024 131 231 C129.11808314 230.0720507 127.23768675 229.14101752 125.35791016 228.20874023 C124.31059723 227.69061264 123.2632843 227.17248505 122.18423462 226.63865662 C117.09984754 224.02215202 112.24899338 221.04765262 107.375 218.0625 C98.68244051 212.79172993 89.9440139 207.61886856 81.125 202.5625 C72.20691399 197.44568619 63.33567936 192.25784696 54.5 187 C44.44473601 181.01670242 34.34409501 175.12338272 24.18945312 169.31054688 C22.2399187 168.19233779 20.30928183 167.04032327 18.4021759 165.85119629 C15.03660637 163.85975125 15.03660637 163.85975125 11.16447449 162.90283203 C6.35727104 161.33356655 2.75574719 159.35657018 0 155 C-2.75554225 144.68603289 -1.79020458 133.36544141 -1.52090907 122.78844523 C-1.42680329 118.46864875 -1.418303 114.1486815 -1.40052795 109.82801819 C-1.3539994 101.65640104 -1.23105175 93.48781268 -1.08028561 85.3175264 C-0.9123181 76.01199917 -0.83007705 66.70632317 -0.75485408 57.39965618 C-0.59828062 38.26472344 -0.33464098 19.13260561 0 0 Z " fill="#FEFEFE" transform="translate(644,1055)"/>
</svg>
