<?xml version="1.0" encoding="UTF-8"?>
<svg version="1.1" xmlns="http://www.w3.org/2000/svg" width="1280" height="1280">
<path d="M0 0 C1.24388489 0.00060425 2.48776978 0.0012085 3.76934814 0.00183105 C22.18205763 0.02611012 40.42105658 0.29595507 58.75 2.1875 C59.40176208 2.25302063 60.05352417 2.31854126 60.72503662 2.38604736 C104.23951558 6.76380544 147.00380331 15.1271765 188.75 28.1875 C189.98379395 28.57131836 191.21758789 28.95513672 192.48876953 29.35058594 C264.73155741 52.04277588 332.78386945 88.70779209 391.75 136.1875 C392.6678125 136.92226562 393.585625 137.65703125 394.53125 138.4140625 C406.06065111 147.73931339 417.22676605 157.52165236 428.07470703 167.62988281 C429.27332917 168.74431144 430.47520033 169.85524964 431.67919922 170.96386719 C441.54646441 180.05023613 450.96427096 189.41501279 460.02294922 199.30761719 C461.68264985 201.11418983 463.35585505 202.90696577 465.03515625 204.6953125 C470.40808635 210.43062246 475.56328089 216.26086539 480.484375 222.39453125 C482.50887274 224.8902483 484.58266253 227.33455763 486.6809082 229.76831055 C493.43373879 237.62135492 499.62628725 245.83907482 505.75 254.1875 C506.53528076 255.24928467 506.53528076 255.24928467 507.33642578 256.33251953 C524.66001166 279.76969216 539.90463064 304.55372791 553.75 330.1875 C554.4296582 331.43611816 554.4296582 331.43611816 555.12304688 332.70996094 C592.88062704 402.34654054 616.26557095 479.87224226 627.9375 626.4375 C627.93689575 627.68138489 627.9362915 628.92526978 627.93566895 630.20684814 C627.91138988 648.61955763 627.64154493 666.85855658 625.75 685.1875 C625.68447937 685.83926208 625.61895874 686.49102417 625.55145264 687.16253662 C621.17369456 730.67701558 612.8103235 773.44130331 599.75 815.1875 C599.17427246 817.03819092 599.17427246 817.03819092 598.58691406 818.92626953 C577.51716561 886.00385753 544.38538767 949.323047 501.75 1005.1875 C500.96109375 1006.23292969 500.1721875 1007.27835938 499.359375 1008.35546875 C494.2378667 1015.1132255 488.90303016 1021.64342822 483.38671875 1028.08203125 C481.02889771 1030.84002903 478.76109619 1033.66196369 476.5 1036.5 C470.92172414 1043.34877285 464.80987483 1049.68895914 458.73046875 1056.08935547 C456.77403629 1058.16203552 454.8372568 1060.25128972 452.90625 1062.34765625 C446.04955957 1069.77588455 439.04865745 1076.87973619 431.5390625 1083.6484375 C429.32054163 1085.66809935 427.204779 1087.71636682 425.125 1089.875 C421.536709 1093.53417082 417.55172026 1096.66627935 413.5625 1099.875 C410.94034106 1102.03099735 408.43391432 1104.26317103 405.9375 1106.5625 C400.36484483 1111.6325581 394.46627284 1116.23469891 388.50390625 1120.83203125 C386.85071649 1122.10966343 385.20552864 1123.39684159 383.5625 1124.6875 C363.62506222 1140.23870147 342.49599614 1154.30299729 320.75 1167.1875 C319.57824219 1167.88262695 319.57824219 1167.88262695 318.3828125 1168.59179688 C246.62333248 1210.91595621 166.55602715 1238.66506048 1.5 1254.375 C0.25644745 1254.37439575 -0.9871051 1254.3737915 -2.26834106 1254.37316895 C-20.67912552 1254.3488848 -38.9239423 1254.09581614 -57.25 1252.1875 C-58.52037109 1252.05859375 -59.79074219 1251.9296875 -61.09960938 1251.796875 C-149.36102077 1242.67658293 -235.80840021 1215.99192671 -377.25 1128.1875 C-378.29542969 1127.39859375 -379.34085938 1126.6096875 -380.41796875 1125.796875 C-387.17424819 1120.67648631 -393.70295618 1115.34266372 -400.140625 1109.828125 C-402.92214811 1107.45031619 -405.7657635 1105.15900549 -408.625 1102.875 C-415.12709939 1097.5773416 -421.17621906 1091.81926876 -427.26318359 1086.05664062 C-429.24192825 1084.19509367 -431.23706313 1082.35296924 -433.23828125 1080.515625 C-442.06454047 1072.38716603 -450.40027998 1063.92841428 -458.50683594 1055.08349609 C-460.1735828 1053.27061708 -461.85333526 1051.47100437 -463.5390625 1049.67578125 C-468.91051607 1043.94165195 -474.06445233 1038.11267452 -478.984375 1031.98046875 C-481.00894547 1029.48466204 -483.0828012 1027.04026003 -485.18115234 1024.60644531 C-505.63582652 1000.81857751 -523.27961126 974.14174261 -539.25 947.1875 C-539.71341797 946.40632812 -540.17683594 945.62515625 -540.65429688 944.8203125 C-582.97820485 873.06125865 -610.72444947 792.99680025 -625.25 673.1875 C-625.39356934 671.35203613 -625.39356934 671.35203613 -625.54003906 669.47949219 C-626.47572541 655.85335021 -626.49350416 642.21599497 -626.5 628.5625 C-626.50067474 627.28226959 -626.50134949 626.00203918 -626.50204468 624.68301392 C-626.4837479 602.71781295 -625.69865638 581.01648377 -623.25 559.1875 C-623.12271515 558.04102997 -623.12271515 558.04102997 -622.99285889 556.87139893 C-615.49672734 490.04322081 -597.49862408 425.21810811 -569.25 364.1875 C-568.77739746 363.16398437 -568.30479492 362.14046875 -567.81787109 361.0859375 C-552.72430441 328.59067273 -535.03653881 297.38825381 -514.25 268.1875 C-513.70891602 267.42260254 -513.16783203 266.65770508 -512.61035156 265.86962891 C-505.43856268 255.74710108 -498.03350939 245.84736383 -490.25 236.1875 C-489.50363281 235.25808594 -488.75726563 234.32867187 -487.98828125 233.37109375 C-478.68019091 221.89055863 -469.01584281 210.75192071 -458.9140625 199.96484375 C-457.07485404 198.00043096 -455.24056773 196.03147995 -453.40625 194.0625 C-452.08360648 192.64557831 -450.76069333 191.22890826 -449.4375 189.8125 C-448.52230591 188.83144287 -448.52230591 188.83144287 -447.58862305 187.83056641 C-437.07165718 176.60579659 -437.07165718 176.60579659 -431.25 171.6875 C-428.64352391 169.4419206 -426.16065479 167.14198488 -423.75 164.6875 C-420.08736624 160.97559314 -416.21592736 157.57078695 -412.25 154.1875 C-411.30253906 153.37410156 -410.35507812 152.56070313 -409.37890625 151.72265625 C-395.15017899 139.5548712 -380.43387431 128.13926037 -365.25 117.1875 C-364.45464844 116.61241699 -363.65929687 116.03733398 -362.83984375 115.44482422 C-288.26628598 61.74276828 -200.75650002 25.22392101 -45.25 1.1875 C-43.95433105 1.09251221 -42.65866211 0.99752441 -41.32373047 0.8996582 C-27.56111388 -0.02474247 -13.78818182 -0.01236875 0 0 Z " fill="#0B53BF" transform="translate(639.25,12.8125)"/>
<path d="M0 0 C32.10933139 5.35155523 63.95618599 18.91055987 93 33 C94.87622819 33.89208251 96.75252807 34.78401427 98.62890625 35.67578125 C125.75926536 48.73675113 151.49035718 65.19228575 175 84 C175.84046875 84.66 176.6809375 85.32 177.546875 86 C193.43076178 98.54523541 208.28988355 112.10246346 222.59472656 126.40942383 C224.25828808 128.07077708 225.92975104 129.7239069 227.6015625 131.37695312 C234.20091608 137.94226529 240.21161034 144.70045555 246 152 C246.94700724 153.12477877 247.90023903 154.24438834 248.86328125 155.35546875 C293.92832658 207.46417347 326.04961016 272.46919479 343 339 C343.26264648 340.02206543 343.52529297 341.04413086 343.79589844 342.09716797 C349.82760154 365.89965519 354.00901315 390.5131799 356 415 C356.08612549 415.99990967 356.17225098 416.99981934 356.26098633 418.0300293 C357.15347194 429.57988991 357.19890089 441.10879941 357.1875 452.6875 C357.18709213 454.24428467 357.18709213 454.24428467 357.18667603 455.83251953 C357.05785965 562.92530471 321.06307382 666.59006482 239.1953125 767.59375 C237.99783425 768.90628844 236.80790211 770.22657969 235.65893555 771.58178711 C230.22538376 777.9625721 224.30810448 783.84316374 218.37573242 789.75463867 C216.56639067 791.55862085 214.76245681 793.36788665 212.95898438 795.17773438 C207.14469124 800.99608322 201.32184546 806.72736658 195 812 C194.35877197 812.54261475 193.71754395 813.08522949 193.05688477 813.64428711 C162.24987607 839.59397824 128.92617031 860.84782974 93 879 C92.19095215 879.40992188 91.3819043 879.81984375 90.54833984 880.2421875 C77.67625594 886.70670151 64.37606737 891.87757427 50.88916016 896.91015625 C48.47988343 897.81897924 46.08655225 898.75426493 43.69921875 899.71875 C29.71703705 905.27028149 14.83874817 909.52687531 0 912 C0 885.27 0 858.54 0 831 C9.57 827.7 19.14 824.4 29 821 C41.59984587 815.75539411 53.98104815 810.29830856 66.07861328 803.99755859 C68.0759144 802.96058625 70.08241284 801.94298687 72.08984375 800.92578125 C102.95538093 785.12518129 133.21140871 763.62181858 157.375 738.625 C159 737 159 737 162.0625 734.5 C165.13324276 731.88660191 167.61645176 729.08977659 170.22265625 726.02734375 C171.86880511 724.14964868 173.57735116 722.41872302 175.375 720.6875 C179.50487992 716.61244149 183.07163303 712.13143829 186.69287109 707.60595703 C188.04716009 705.94205845 189.43512307 704.31183106 190.83203125 702.68359375 C205.4853875 685.41835257 218.11675935 665.84074867 229 646 C229.46035645 645.16678223 229.92071289 644.33356445 230.39501953 643.47509766 C244.33226642 618.0633553 254.32372113 591.56462897 263 564 C263.29132813 563.08782715 263.58265625 562.1756543 263.8828125 561.23583984 C268.01328082 548.16236412 270.1803462 534.71160695 272.45092773 521.21191406 C272.96849113 518.18431777 273.51741993 515.16439163 274.078125 512.14453125 C291.23925511 418.30020114 264.51933474 314.81242251 211.25 236.875 C198.80769672 218.912416 185.35992774 200.75233437 169.5625 185.5625 C167.82934402 183.82934402 166.26793953 181.99811352 164.6875 180.125 C161.2897403 176.18995535 157.55673963 172.77430112 153.65625 169.34375 C150.97810097 166.98067733 148.36608535 164.5564205 145.75 162.125 C139.43654249 156.38710313 132.77024833 151.18055885 126 146 C125.36932617 145.51241211 124.73865234 145.02482422 124.08886719 144.52246094 C108.3377351 132.3543745 91.7547555 122.0078327 74.37451172 112.32666016 C72.34677667 111.19374712 70.33025473 110.04401862 68.31640625 108.88671875 C60.39375595 104.46285737 52.18943143 100.75336733 43.875 97.125 C42.84109131 96.66738281 41.80718262 96.20976562 40.74194336 95.73828125 C27.39287438 90.02357699 13.82215352 85.76625984 0 81 C0 54.27 0 27.54 0 0 Z " fill="#FEFEFE" transform="translate(753,184)"/>
<path d="M0 0 C0 26.73 0 53.46 0 81 C-8.91 83.97 -17.82 86.94 -27 90 C-34.73561424 93.22981832 -42.39091234 96.50235653 -50 100 C-51.52452076 100.68668395 -53.04924824 101.37290918 -54.57421875 102.05859375 C-84.01517814 115.44480007 -110.9845484 133.60323535 -136 154 C-136.52964355 154.42522949 -137.05928711 154.85045898 -137.60498047 155.28857422 C-147.4634315 163.25726454 -156.40176725 172.19178864 -165.375 181.125 C-165.98096008 181.72569305 -166.58692017 182.32638611 -167.21124268 182.94528198 C-174.62485418 190.30907454 -181.52722959 197.78614148 -188 206 C-189.10753924 207.34091916 -190.21914378 208.6784974 -191.3359375 210.01171875 C-198.78860391 218.99399789 -205.60609197 228.2379128 -212 238 C-212.47791992 238.72525879 -212.95583984 239.45051758 -213.44824219 240.19775391 C-247.7278764 292.47589086 -268.56357445 350.98950648 -276 413 C-276.11859375 413.9679248 -276.2371875 414.93584961 -276.359375 415.93310547 C-280.8803289 454.26029946 -278.79833074 494.79259147 -270.5546875 532.43408203 C-269.96119122 535.17952478 -269.40094911 537.93056581 -268.84375 540.68359375 C-266.29895064 553.08496668 -263.10977213 565.03134149 -259 577 C-258.65340332 578.0322168 -258.30680664 579.06443359 -257.94970703 580.12792969 C-252.05066005 597.63953403 -245.16027377 614.42224409 -237 631 C-236.55043945 631.9182959 -236.10087891 632.8365918 -235.63769531 633.78271484 C-222.81430692 659.73843168 -206.73952827 683.9420136 -188 706 C-187.10402424 707.07019327 -186.20819976 708.14051321 -185.3125 709.2109375 C-170.02836491 727.3684383 -153.61162044 744.23291402 -135 759 C-133.84904861 759.94122846 -132.69938476 760.88403279 -131.55078125 761.828125 C-122.69555083 769.07139376 -113.55441312 775.71096358 -104 782 C-103.28392578 782.47405273 -102.56785156 782.94810547 -101.83007812 783.43652344 C-78.85934113 798.55842022 -54.44865537 811.30790341 -28.8125 821.25 C-27.78012207 821.65049561 -26.74774414 822.05099121 -25.68408203 822.46362305 C-17.19368747 825.68510834 -8.71145738 828.27766957 0 831 C0 857.73 0 884.46 0 912 C-17.3321132 908.53357736 -17.3321132 908.53357736 -24 906.3125 C-24.78721436 906.0554126 -25.57442871 905.7983252 -26.38549805 905.53344727 C-28.06504284 904.98114015 -29.74301209 904.42402063 -31.41943359 903.86230469 C-33.14646067 903.28521295 -34.87600341 902.71559822 -36.60791016 902.15332031 C-86.5704913 885.92991752 -133.6504489 860.31498333 -175 828 C-176.35544922 826.94619141 -176.35544922 826.94619141 -177.73828125 825.87109375 C-194.06846417 812.97884408 -209.15626115 798.92781508 -223.875 784.25 C-224.42119995 783.70647888 -224.9673999 783.16295776 -225.53015137 782.60296631 C-231.57057829 776.58499872 -237.51843744 770.53983268 -243 764 C-243.81645996 763.03562012 -243.81645996 763.03562012 -244.64941406 762.05175781 C-270.59781471 731.23141255 -291.81998204 697.92071779 -310 662 C-310.39928711 661.21753906 -310.79857422 660.43507813 -311.20996094 659.62890625 C-330.27790005 621.98915828 -341.90126816 581.22710601 -350 540 C-350.17305664 539.11940918 -350.34611328 538.23881836 -350.52441406 537.33154297 C-352.60028213 526.60921364 -353.93982956 515.86392221 -355 505 C-355.0854155 504.14241089 -355.17083099 503.28482178 -355.25883484 502.40124512 C-356.6890342 487.78354411 -357.31850849 473.29436874 -357.26074219 458.60839844 C-357.24997991 455.36895147 -357.26074534 452.1300559 -357.2734375 448.890625 C-357.28207868 435.93259759 -356.63518672 423.1821084 -355.24700928 410.29919434 C-354.91577917 407.21606163 -354.6236419 404.12933045 -354.32421875 401.04296875 C-352.86340773 387.22417691 -350.65280242 373.69893818 -347.68261719 360.12548828 C-347.00281499 357.01288896 -346.34894429 353.89552889 -345.6953125 350.77734375 C-336.05630735 305.91809486 -318.82919709 262.7479948 -296 223 C-295.51031738 222.14712402 -295.02063477 221.29424805 -294.51611328 220.41552734 C-273.47322048 184.03969914 -247.2419281 150.99921378 -217.5012207 121.37084961 C-215.79976222 119.67480274 -214.10378737 117.97340179 -212.40820312 116.27148438 C-206.77480754 110.63434653 -201.09802186 105.13927391 -195 100 C-193.97830204 99.11167054 -192.95742311 98.22239791 -191.9375 97.33203125 C-183.57380689 90.1583849 -174.90688032 83.48437594 -166 77 C-165.31921387 76.5035498 -164.63842773 76.00709961 -163.93701172 75.49560547 C-118.47775356 42.49976954 -67.20935679 17.02393638 -12.8125 2.75 C-11.26900879 2.34418701 -11.26900879 2.34418701 -9.69433594 1.93017578 C-8.72915039 1.67993652 -7.76396484 1.42969727 -6.76953125 1.171875 C-5.89917236 0.9459668 -5.02881348 0.72005859 -4.13208008 0.48730469 C-2 0 -2 0 0 0 Z " fill="#FEFEFE" transform="translate(527,184)"/>
<path d="M0 0 C25.74 0 51.48 0 78 0 C78 20.79 78 41.58 78 63 C80.31 63.33 82.62 63.66 85 64 C120.15042197 71.75133541 152.31820385 91.28506962 172.0625 121.875 C183.0181656 139.4808244 188.89505895 157.75991471 193 178 C193.2165625 179.04285156 193.433125 180.08570313 193.65625 181.16015625 C194.13070758 185.07982282 194 189.0517224 194 193 C167.93 193 141.86 193 115 193 C113.55090005 188.65270015 112.41304986 184.55854007 111.375 180.125 C107.15131133 163.73594144 98.79422829 149.6186749 84.5625 140.0625 C70.60360514 131.90160983 55.75019213 127.89176464 39.65234375 127.796875 C38.87798477 127.79117493 38.10362579 127.78547485 37.30580139 127.77960205 C35.67466571 127.77021552 34.0435116 127.76364356 32.41235352 127.75976562 C29.96790744 127.75011999 27.52432558 127.71906095 25.08007812 127.6875 C6.04585148 127.55876738 -11.68450045 130.94713327 -27 143 C-28.26457031 143.93392578 -28.26457031 143.93392578 -29.5546875 144.88671875 C-32.1736103 147.15003701 -33.79282045 149.32185916 -35.625 152.25 C-36.47964844 153.58804688 -36.47964844 153.58804688 -37.3515625 154.953125 C-41.24245681 162.14482538 -42.53296447 168.12697643 -42.4375 176.3125 C-42.4228772 177.70625854 -42.4228772 177.70625854 -42.40795898 179.12817383 C-42.11645058 190.40411418 -39.34349266 197.61988742 -31.40625 205.7890625 C-27.83806872 209.06761868 -24.21893671 211.62644055 -20 214 C-19.05253906 214.55171875 -18.10507812 215.1034375 -17.12890625 215.671875 C6.16947147 228.31397191 34.41069984 232.50455501 60.1027832 237.74804688 C95.30884314 244.95340174 95.30884314 244.95340174 110.82958984 250.26220703 C113.38638695 251.13134549 115.95313611 251.96823113 118.51953125 252.80859375 C130.20054932 256.68976206 141.22411289 261.04594853 152 267 C153.08667969 267.58652344 154.17335938 268.17304687 155.29296875 268.77734375 C162.0951619 272.57933003 168.05346471 276.98195882 174 282 C174.59039063 282.44472656 175.18078125 282.88945313 175.7890625 283.34765625 C189.87415414 294.26193342 199.29062824 312.18081513 204 329 C204.31904297 330.07314453 204.31904297 330.07314453 204.64453125 331.16796875 C207.30553642 340.75907372 207.21249906 350.7788321 207.24023438 360.65722656 C207.24991989 362.732833 207.28104003 364.8074376 207.3125 366.8828125 C207.54506453 396.47604558 194.78230565 424.03027333 174.75390625 445.34375 C150.52045307 468.71786087 112.03179442 487 78 487 C78 507.13 78 527.26 78 548 C52.26 548 26.52 548 0 548 C0 527.54 0 507.08 0 486 C-3.63 485.67 -7.26 485.34 -11 485 C-14.37579025 484.36176466 -17.668971 483.68535447 -21 482.875 C-21.89936279 482.65690674 -22.79872559 482.43881348 -23.7253418 482.21411133 C-50.79759881 475.38971078 -74.28180828 462.59994522 -95 444 C-95.65226562 443.43152344 -96.30453125 442.86304688 -96.9765625 442.27734375 C-117.8642457 422.92406382 -129.46022304 393.45513613 -134 366 C-134.11569336 365.30664551 -134.23138672 364.61329102 -134.35058594 363.89892578 C-135.27786806 358.2072846 -136 352.77364797 -136 347 C-110.26 347 -84.52 347 -58 347 C-56.30969966 352.07090101 -54.72341511 356.94879305 -53.3125 362.0625 C-46.79869409 383.15834869 -34.42151564 398.88459046 -14.82763672 409.26879883 C-8.44986175 412.47376339 -1.92764999 414.30171687 5 416 C6.12792969 416.3403125 7.25585938 416.680625 8.41796875 417.03125 C29.81725432 422.81862494 54.49956858 421.32761173 76 417 C77.14726563 416.77183594 78.29453125 416.54367187 79.4765625 416.30859375 C94.76961126 412.85086309 111.22921168 405.50244099 120.7890625 392.58203125 C126.07212785 384.18898408 128.58941586 376.10118852 128.5625 366.1875 C128.5610498 364.88026978 128.5610498 364.88026978 128.55957031 363.54663086 C128.29258919 353.68752992 124.46696351 346.3408775 118 339 C93.02874489 318.80524376 57.98434817 312.75331056 27.375 306.125 C10.37011373 302.4389743 -6.35266277 298.0619005 -23 293 C-23.96276855 292.70802734 -24.92553711 292.41605469 -25.91748047 292.11523438 C-61.58715186 281.0628459 -93.49359309 262.40449008 -111.65625 228.94921875 C-124.94711331 202.26577635 -125.66991552 169.59286079 -116.90234375 141.48046875 C-106.64230358 112.71757649 -85.69170787 90.13965778 -58.32495117 76.68481445 C-47.46210994 71.7450498 -36.41262958 67.50467264 -24.875 64.4375 C-23.98917236 64.19837891 -23.10334473 63.95925781 -22.19067383 63.71289062 C-14.61547838 61.8325976 -8.06708063 61.57622004 0 61 C0 40.87 0 20.74 0 0 Z " fill="#FEFEFE" transform="translate(601,366)"/>
</svg>
