<?xml version="1.0" encoding="UTF-8"?>
<svg version="1.1" xmlns="http://www.w3.org/2000/svg" width="2000" height="2000">
<path d="M0 0 C0.76666992 0.18804199 1.53333984 0.37608398 2.32324219 0.56982422 C24.00695003 6.00155414 42.80292803 16.77885573 61.86572266 28.14257812 C67.17455243 31.28867385 72.52566266 34.3609589 77.875 37.4375 C80.05995917 38.69650467 82.24485481 39.95561961 84.4296875 41.21484375 C85.51475586 41.83987793 86.59982422 42.46491211 87.71777344 43.10888672 C93.14659942 46.23680148 98.57319281 49.36858448 104 52.5 C106.16665583 53.75001879 108.3333225 55.00001878 110.5 56.25 C149.49999999 78.74999999 149.49999999 78.74999999 152.74951172 80.62475586 C154.91776264 81.8756448 157.08605697 83.12645852 159.25439453 84.37719727 C164.64717915 87.48798335 170.03922093 90.60004238 175.4296875 93.71484375 C187.23629484 100.53502637 199.06027 107.3232326 210.90472412 114.07736206 C219.94329428 119.23335445 228.94277138 124.45320673 237.92236328 129.71118164 C245.58602252 134.19189393 253.28694638 138.60515756 261 143 C270.67481219 148.51263835 280.31282137 154.08424567 289.921875 159.7109375 C297.5857377 164.19166146 305.28678835 168.60506752 313 173 C322.67481219 178.51263835 332.31282137 184.08424567 341.921875 189.7109375 C349.5857377 194.19166146 357.28678835 198.60506752 365 203 C373.69401686 207.95378823 382.36497229 212.94378369 391 218 C399.5951729 223.0318979 408.22312222 228.00389124 416.875 232.9375 C429.20025196 239.96603507 441.49722067 247.04240434 453.78222656 254.14111328 C459.18670645 257.26324605 464.59347412 260.38141204 470 263.5 C472.1666775 264.74998122 474.33334417 265.99998121 476.5 267.25 C477.5725 267.86875 478.645 268.4875 479.75 269.125 C561 316 642.25 362.875 723.5 409.75 C724.57338623 410.3692334 725.64677246 410.9884668 726.75268555 411.62646484 C728.91049803 412.87141282 731.06821353 414.1165289 733.22583008 415.36181641 C738.77716592 418.56552651 744.33036541 421.7659363 749.88671875 424.9609375 C756.26437406 428.62933938 762.63429881 432.31090073 769 436 C769.79067871 436.45632813 770.58135742 436.91265625 771.39599609 437.3828125 C784.00314654 444.67701099 795.40540885 452.96750131 806 463 C806.82242187 463.76957031 807.64484375 464.53914063 808.4921875 465.33203125 C836.889051 492.71156164 851.59145565 531.5858609 852.31305126 570.65613344 C852.41989608 578.38188116 852.40458709 586.10820924 852.38540266 593.83447167 C852.37771677 598.28559261 852.38760197 602.73668298 852.39513266 607.18779945 C852.40591701 614.97098625 852.40567043 622.75411051 852.39799118 630.53730011 C852.38660276 642.11153922 852.39246615 653.68572596 852.4016161 665.25996476 C852.41738428 685.93639506 852.41605574 706.61279748 852.40737936 727.28923041 C852.39982394 745.38384295 852.39786667 763.47844529 852.4014473 781.57305908 C852.40167645 782.77468963 852.40190561 783.97632018 852.40214171 785.21436377 C852.40307577 790.09253427 852.40403097 794.97070477 852.405021 799.84887526 C852.41419194 845.58238754 852.40588723 891.31588211 852.38973031 937.04939166 C852.37549417 977.65468205 852.37676808 1018.25994422 852.39111328 1058.86523438 C852.40718741 1104.51667654 852.41354146 1150.16810305 852.40427649 1195.81954765 C852.40331438 1200.68867874 852.40237586 1205.55780983 852.4014473 1210.42694092 C852.40109145 1212.22521371 852.40109145 1212.22521371 852.40072841 1214.05981524 C852.39732022 1232.14024327 852.40129893 1250.22065997 852.40888596 1268.30108643 C852.41747241 1288.86539186 852.41530072 1309.42966514 852.39904372 1329.99396658 C852.39025154 1341.49408486 852.3896357 1352.99413346 852.40098225 1364.49424989 C852.40773243 1372.18597062 852.40348128 1379.87763574 852.39046794 1387.56934827 C852.38336501 1391.94494964 852.38082121 1396.32041307 852.39168589 1400.69600987 C852.50763712 1451.12744294 841.5092523 1494.05681493 805.28515625 1530.75 C792.4058142 1542.85393379 777.50791236 1551.42077846 762.24707031 1560.14257812 C759.02170702 1561.98758293 755.80280762 1563.84335665 752.5859375 1565.703125 C744.96506508 1570.10888773 737.33696297 1574.50206376 729.70898438 1578.89550781 C726.43068938 1580.78398493 723.15271515 1582.67301666 719.875 1584.5625 C718.79605469 1585.18447266 717.71710938 1585.80644531 716.60546875 1586.44726562 C708.45762352 1591.14869978 700.33348443 1595.88982449 692.21435547 1600.640625 C686.67691225 1603.8743821 681.124755 1607.08068824 675.5546875 1610.2578125 C674.92499054 1610.61700272 674.29529358 1610.97619293 673.64651489 1611.3462677 C670.57872881 1613.09514069 667.50935917 1614.84117102 664.43798828 1616.58374023 C659.67143443 1619.29522194 654.9309513 1622.00666755 650.3125 1624.96484375 C647 1627 647 1627 645 1627 C644.67 1627.99 644.34 1628.98 644 1630 C641.9440918 1631.46362305 641.9440918 1631.46362305 639.19921875 1633.01171875 C638.1736084 1633.59638916 637.14799805 1634.18105957 636.09130859 1634.78344727 C634.96805176 1635.41178467 633.84479492 1636.04012207 632.6875 1636.6875 C631.5133222 1637.35318223 630.33966537 1638.01978413 629.16650391 1638.68725586 C626.69904665 1640.08944166 624.22885432 1641.48662051 621.75634766 1642.87988281 C616.36798049 1645.91781396 610.99890664 1648.98946155 605.62905884 1652.05996704 C603.86221009 1653.06981008 602.09462497 1654.0783541 600.3269043 1655.08666992 C591.87895356 1659.90818042 583.47146751 1664.79619751 575.07763672 1669.71118164 C566.82076358 1674.53872836 558.51905969 1679.28548671 550.20898438 1684.02050781 C542.11255867 1688.63502804 534.04193491 1693.29095255 526 1698 C516.77813472 1703.39996924 507.51370588 1708.72191879 498.22711182 1714.00942993 C488.7690737 1719.39527081 479.35425479 1724.85167595 469.98828125 1730.39648438 C463.31257116 1734.32309337 456.4966559 1737.81400193 449.53417969 1741.19873047 C443.2267449 1744.30027924 437.1719428 1747.73255833 431.125 1751.3125 C420.7266509 1757.42535423 410.27538173 1763.4375281 399.79345703 1769.40551758 C398.69114746 1770.03353271 397.58883789 1770.66154785 396.453125 1771.30859375 C395.38642578 1771.91558105 394.31972656 1772.52256836 393.22070312 1773.14794922 C388.9041975 1775.63013627 384.62638927 1778.17651416 380.35449219 1780.73461914 C378 1782 378 1782 376 1782 C375.67 1782.99 375.34 1783.98 375 1785 C373.15600586 1786.31176758 373.15600586 1786.31176758 370.71484375 1787.64453125 C369.34936401 1788.40117065 369.34936401 1788.40117065 367.95629883 1789.1730957 C366.96009521 1789.71409912 365.9638916 1790.25510254 364.9375 1790.8125 C362.81423372 1791.98801246 360.69186414 1793.1651458 358.5703125 1794.34375 C357.4762207 1794.94960937 356.38212891 1795.55546875 355.25488281 1796.1796875 C350.23328177 1798.98804764 345.27283958 1801.89771275 340.3125 1804.8125 C331.57450122 1809.93339038 322.79992392 1814.98661614 314 1820 C305.30589744 1824.95363554 296.63502541 1829.94378504 288 1835 C279.4048271 1840.0318979 270.77687778 1845.00389124 262.125 1849.9375 C249.82026426 1856.9543356 237.54378083 1864.0189388 225.27929688 1871.10595703 C221.85903194 1873.08141976 218.43754365 1875.05474772 215.015625 1877.02734375 C213.85042131 1877.69913413 212.68521947 1878.37092772 211.52001953 1879.04272461 C209.33880563 1880.30022438 207.15749843 1881.55756235 204.97607422 1882.81469727 C203.97592285 1883.39147217 202.97577148 1883.96824707 201.9453125 1884.5625 C200.96820312 1885.12590088 199.99109375 1885.68930176 198.984375 1886.26977539 C195.85911137 1888.08168175 192.7464034 1889.91421639 189.6328125 1891.74609375 C185.73628899 1894.02165334 181.83843575 1896.1467439 177.75 1898.0625 C167.95582435 1902.88441323 158.64747174 1908.55547742 149.24707031 1914.09423828 C143.89014474 1917.23831054 138.50778564 1920.33797616 133.125 1923.4375 C132.04573242 1924.05947266 130.96646484 1924.68144531 129.85449219 1925.32226562 C127.66385034 1926.5846694 125.473095 1927.84687623 123.28222656 1929.10888672 C117.85340058 1932.23680148 112.42680719 1935.36858448 107 1938.5 C104.83334417 1939.75001879 102.6666775 1941.00001878 100.5 1942.25 C99.4275 1942.86875 98.355 1943.4875 97.25 1944.125 C94 1946 90.75 1947.875 87.5 1949.75 C86.42669434 1950.36931396 85.35338867 1950.98862793 84.24755859 1951.62670898 C82.08937693 1952.8716141 79.93085033 1954.11592142 77.77197266 1955.35961914 C72.22244851 1958.55765711 66.68002211 1961.76711171 61.1484375 1964.99609375 C17.50181027 1990.43318054 -25.43970858 2004.19803228 -76.09423828 1991.05151367 C-95.56805846 1985.63257143 -112.29116266 1976.21712801 -129.62109375 1965.98779297 C-135.05952776 1962.78839054 -140.53081224 1959.64643529 -146 1956.5 C-148.16683476 1955.25029141 -150.33350124 1954.00029099 -152.5 1952.75 C-153.5725 1952.13125 -154.645 1951.5125 -155.75 1950.875 C-191.50000001 1930.24999999 -191.50000001 1930.24999999 -194.75244141 1928.37353516 C-196.91090498 1927.12830516 -199.06943323 1925.88318728 -201.22802734 1924.63818359 C-206.77074741 1921.44113663 -212.31220008 1918.24192405 -217.8515625 1915.0390625 C-228.82290849 1908.69761666 -239.80616595 1902.38383497 -250.86474609 1896.19580078 C-264.20203141 1888.72655501 -277.47987754 1881.16603547 -290.67041016 1873.44042969 C-298.37741248 1868.93197584 -306.1184242 1864.48492064 -313.875 1860.0625 C-326.2003733 1853.03417892 -338.49722214 1845.95759481 -350.78222656 1838.85888672 C-356.18670645 1835.73675395 -361.59347412 1832.61858796 -367 1829.5 C-369.1666775 1828.25001878 -371.33334417 1827.00001879 -373.5 1825.75 C-374.5725 1825.13125 -375.645 1824.5125 -376.75 1823.875 C-380 1822 -383.25 1820.125 -386.5 1818.25 C-387.57378906 1817.6305249 -388.64757812 1817.0110498 -389.75390625 1816.37280273 C-391.9076172 1815.13023981 -394.06126367 1813.88756511 -396.21484375 1812.64477539 C-401.23684262 1809.74685377 -406.25942807 1806.84996651 -411.28442383 1803.95724487 C-413.05045522 1802.94052802 -414.81627431 1801.92344342 -416.58203125 1800.90625 C-418.78734155 1799.63599127 -420.99304216 1798.36640982 -423.19921875 1797.09765625 C-427.93007416 1794.37181126 -432.63943707 1791.62200194 -437.3046875 1788.78515625 C-441.16733074 1786.45657154 -445.05058545 1784.43238453 -449.125 1782.5 C-458.16115387 1778.09361571 -466.75578451 1772.97151581 -475.41015625 1767.8671875 C-480.02302891 1765.14880019 -484.65548096 1762.46891229 -489.30859375 1759.8203125 C-489.92399017 1759.46994934 -490.5393866 1759.11958618 -491.1734314 1758.75860596 C-494.15386583 1757.06309211 -497.1361777 1755.37098332 -500.12011719 1753.68164062 C-506.86617212 1749.84654104 -513.50475757 1745.88364803 -520.09936523 1741.79492188 C-523.60154754 1739.6277605 -527.13305923 1737.5174638 -530.6875 1735.4375 C-531.3791626 1735.03168701 -532.0708252 1734.62587402 -532.78344727 1734.20776367 C-542.69438507 1728.40616088 -552.65304305 1722.68641662 -562.60498047 1716.95556641 C-568.0716998 1713.80667946 -573.53574887 1710.65316736 -579 1707.5 C-581.16665311 1706.2499765 -583.33331979 1704.99997653 -585.5 1703.75 C-607.16666667 1691.25 -628.83333333 1678.75 -650.5 1666.25 C-651.57306396 1665.63092773 -652.64612793 1665.01185547 -653.75170898 1664.37402344 C-655.91268988 1663.12729744 -658.07365998 1661.88055273 -660.23461914 1660.63378906 C-666.85992913 1656.81136035 -673.48552014 1652.98941995 -680.11181641 1649.16870117 C-682.30348279 1647.90425351 -684.49457777 1646.63881483 -686.68505859 1645.37231445 C-691.73062604 1642.45574547 -696.782176 1639.55170674 -701.85546875 1636.68359375 C-702.75015869 1636.17473633 -703.64484863 1635.66587891 -704.56665039 1635.14160156 C-706.23033014 1634.19600784 -707.89733008 1633.25622384 -709.56811523 1632.32324219 C-711.41186707 1631.2715492 -713.21198957 1630.14389583 -715 1629 C-715 1628.34 -715 1627.68 -715 1627 C-716.05900513 1626.60409668 -716.05900513 1626.60409668 -717.1394043 1626.20019531 C-720.16859058 1624.92926592 -722.92080195 1623.43237207 -725.76953125 1621.796875 C-726.89294922 1621.15363281 -728.01636719 1620.51039062 -729.17382812 1619.84765625 C-730.38678495 1619.14855234 -731.59967384 1618.44933056 -732.8125 1617.75 C-734.07606103 1617.02454649 -735.33973448 1616.29928874 -736.60351562 1615.57421875 C-745.39931183 1610.52219693 -754.16379738 1605.4170285 -762.91723633 1600.29199219 C-770.58243398 1595.80992366 -778.28527105 1591.39596222 -786 1587 C-795.71300106 1581.46483869 -805.39712747 1575.88340682 -815.04052734 1570.22753906 C-820.26795339 1567.16447834 -825.51097175 1564.13336527 -830.78125 1561.14453125 C-871.95231954 1537.75945736 -903.51309908 1507.50778334 -916.9484994 1460.95473128 C-922.54542364 1440.2634794 -922.43826318 1419.31008176 -922.38540266 1398.04326213 C-922.37771043 1393.59194876 -922.38760441 1389.14066578 -922.39513266 1384.68935686 C-922.40591247 1376.90738279 -922.40567327 1369.12547128 -922.39799118 1361.34349442 C-922.38659859 1349.77107465 -922.39246828 1338.19870723 -922.4016161 1326.62628777 C-922.4173809 1305.95289762 -922.41605713 1285.27953536 -922.40737936 1264.60614258 C-922.399823 1246.51477996 -922.39786712 1228.42342755 -922.4014473 1210.33206367 C-922.40167645 1209.13050187 -922.40190561 1207.92894006 -922.40214171 1206.69096729 C-922.40307577 1201.8130481 -922.40403098 1196.93512892 -922.405021 1192.05720975 C-922.41419108 1146.33014172 -922.40588849 1100.60309141 -922.38973031 1054.87602612 C-922.37549335 1014.27728592 -922.37676894 973.67857394 -922.39111328 933.07983398 C-922.40718738 887.43314559 -922.41354156 841.78647284 -922.40427649 796.13978201 C-922.40331438 791.2712282 -922.40237586 786.40267438 -922.4014473 781.53412056 C-922.40121006 780.33541853 -922.40097283 779.13671651 -922.40072841 777.90169018 C-922.3973203 759.82390525 -922.40129877 741.74613166 -922.40888596 723.66834831 C-922.41747232 703.1077269 -922.41530087 682.54713764 -922.39904372 661.98652022 C-922.39025157 650.4886186 -922.38963566 638.99078668 -922.40098225 627.49288691 C-922.40773243 619.80267918 -922.40348128 612.11252708 -922.39046794 604.42232757 C-922.38336504 600.04760798 -922.38082116 595.67302636 -922.39168589 591.29831135 C-922.43981322 570.39780094 -922.46951653 549.50854793 -916.3125 529.3125 C-915.93121948 528.02835205 -915.93121948 528.02835205 -915.54223633 526.71826172 C-902.13106929 483.24536768 -871.80234022 454.78739901 -833.23095703 432.84130859 C-828.93196039 430.39132879 -824.64930022 427.91350893 -820.3659668 425.4362793 C-813.8183967 421.65077267 -807.26276338 417.87923553 -800.70898438 414.10449219 C-797.43068938 412.21601507 -794.15271515 410.32698334 -790.875 408.4375 C-789.79605469 407.81552734 -788.71710938 407.19355469 -787.60546875 406.55273438 C-780.43128049 402.41311552 -773.2744002 398.24475079 -766.125 394.0625 C-756.85500223 388.64078822 -747.54168248 383.29795085 -738.21154785 377.98077393 C-729.0871716 372.77954871 -719.99867226 367.51972122 -710.93310547 362.21655273 C-700.40915375 356.06233258 -689.84619863 349.97630004 -679.28222656 343.89111328 C-673.85340058 340.76319852 -668.42680719 337.63141552 -663 334.5 C-660.83334417 333.24998121 -658.6666775 331.99998122 -656.5 330.75 C-655.4275 330.13125 -654.355 329.5125 -653.25 328.875 C-435.5 203.25 -435.5 203.25 -432.24951172 201.37475586 C-430.08442929 200.12564482 -427.91939018 198.87645871 -425.75439453 197.62719727 C-420.31384294 194.48797691 -414.87252784 191.35009437 -409.4296875 188.21484375 C-398.97793801 182.19252671 -388.53700452 176.15330663 -378.125 170.0625 C-368.85500223 164.64078822 -359.54168248 159.29795085 -350.21154785 153.98077393 C-341.0871716 148.77954871 -331.99867226 143.51972122 -322.93310547 138.21655273 C-312.40915375 132.06233258 -301.84619863 125.97630004 -291.28222656 119.89111328 C-285.85340058 116.76319852 -280.42680719 113.63141552 -275 110.5 C-272.83334417 109.24998121 -270.6666775 107.99998122 -268.5 106.75 C-267.4275 106.13125 -266.355 105.5125 -265.25 104.875 C-227.33333333 83 -189.41666667 61.125 -151.5 39.25 C-150.42669434 38.63060547 -149.35338867 38.01121094 -148.24755859 37.37304688 C-146.0896587 36.12846651 -143.93113367 34.88496936 -141.77197266 33.64257812 C-136.21544484 30.44344143 -130.67239166 27.22385327 -125.1484375 23.96875 C-113.69678604 17.2419402 -102.43959711 10.71093414 -90 6 C-88.83597656 5.54496094 -87.67195312 5.08992187 -86.47265625 4.62109375 C-60.10507736 -4.96971942 -27.29524221 -7.09261752 0 0 Z " fill="#9CCBEC" transform="translate(1035,3)"/>
<path d="M0 0 C4.90668166 2.6215106 9.63418588 5.55863375 14.39160156 8.43847656 C19.36971629 11.41863584 24.40764471 14.29584684 29.4375 17.1875 C31.68625995 18.48296525 33.93495709 19.77853952 36.18359375 21.07421875 C37.87718018 22.0494751 37.87718018 22.0494751 39.60498047 23.04443359 C45.07169975 26.19332051 50.53577646 29.3467849 56 32.5 C62.52232439 36.26365365 69.04513763 40.02644623 75.5703125 43.78515625 C86.02206199 49.80747329 96.46299548 55.84669337 106.875 61.9375 C115.55262241 67.01275123 124.26605568 72.02258767 133 77 C142.72115617 82.5400173 152.40894658 88.13374809 162.06689453 93.78344727 C172.59084625 99.93766742 183.15380137 106.02369996 193.71777344 112.10888672 C199.14659942 115.23680148 204.57319281 118.36858448 210 121.5 C212.16665583 122.75001879 214.3333225 124.00001878 216.5 125.25 C281.5 162.75 346.5 200.25 411.5 237.75 C412.57266113 238.36883057 413.64532227 238.98766113 414.75048828 239.62524414 C416.91557071 240.87435518 419.08060982 242.12354129 421.24560547 243.37280273 C426.68615706 246.51202309 432.12747216 249.64990563 437.5703125 252.78515625 C448.02206199 258.80747329 458.46299548 264.84669337 468.875 270.9375 C477.55262241 276.01275123 486.26605568 281.02258767 495 286 C504.72115617 291.5400173 514.40894658 297.13374809 524.06689453 302.78344727 C534.59084625 308.93766742 545.15380137 315.02369996 555.71777344 321.10888672 C561.14659942 324.23680148 566.57319281 327.36858448 572 330.5 C574.16665583 331.75001879 576.3333225 333.00001878 578.5 334.25 C608.83333333 351.75 639.16666667 369.25 669.5 386.75 C670.57282227 387.36891113 671.64564453 387.98782227 672.75097656 388.62548828 C674.91447476 389.87371034 677.07788643 391.12208239 679.24121094 392.37060547 C684.70565017 395.52405256 690.17163645 398.67476096 695.640625 401.8203125 C701.05001336 404.9318653 706.45178946 408.05636846 711.8515625 411.18457031 C714.9976288 412.99863274 718.15425499 414.79318059 721.3125 416.5859375 C723.29194879 417.72346754 725.27112822 418.86146647 727.25 420 C728.14879883 420.50354004 729.04759766 421.00708008 729.97363281 421.52587891 C739.01805044 426.77080722 744.1692215 432.82109226 747 443 C747.55339086 447.86187445 747.53859396 452.70036815 747.50336456 457.58663177 C747.50754263 459.0568181 747.51347173 460.52700029 747.52098203 461.99717337 C747.53653083 466.03276191 747.52725331 470.06796668 747.51387022 474.10354883 C747.50371347 478.49560833 747.51676699 482.88760949 747.52684355 487.2796607 C747.54128836 494.97587626 747.54085327 502.67197958 747.53065491 510.3682003 C747.51553084 521.81269322 747.52325687 533.25709137 747.53548814 544.70158364 C747.55655918 565.14088095 747.55472232 585.58012828 747.54317249 606.01943035 C747.53311459 623.90608129 747.53048144 641.79271389 747.53526306 659.67936707 C747.53572137 661.45830789 747.53572137 661.45830789 747.53618894 663.2731869 C747.53743427 668.0872552 747.53870787 672.9013235 747.540028 677.71539178 C747.552267 722.88510909 747.54116538 768.05479454 747.51964041 813.22450694 C747.50065766 853.36469487 747.50235615 893.50483204 747.52148438 933.64501953 C747.54289783 978.73154622 747.55139906 1023.81804476 747.53903532 1068.90457582 C747.53775243 1073.70992819 747.53650107 1078.51528056 747.53526306 1083.32063293 C747.53494675 1084.50385366 747.53463044 1085.68707439 747.53430455 1086.90615029 C747.52975256 1104.78258997 747.53507966 1122.65900931 747.54518127 1140.53544617 C747.55660866 1160.8595289 747.5537796 1181.18355377 747.5320583 1201.50762928 C747.52029962 1212.88560321 747.5195659 1224.2634519 747.534643 1235.64142263 C747.5436002 1243.23807967 747.53805267 1250.83463612 747.52062392 1258.43127823 C747.5110936 1262.76182811 747.50788659 1267.09212884 747.52224785 1271.42267102 C747.5351846 1275.363798 747.52965806 1279.30445521 747.50952521 1283.24554806 C747.50550291 1284.66092314 747.50814449 1286.07633727 747.51834896 1287.49168129 C747.57434198 1295.85237781 746.859995 1302.51729639 743 1310 C742.66460639 1310.65215395 742.32921278 1311.3043079 741.98365572 1311.97622409 C738.78149018 1317.7077777 732.83691905 1320.54018747 727.32128906 1323.67871094 C724.60956787 1325.22223588 721.91032175 1326.78656338 719.2109375 1328.3515625 C714.7507687 1330.9339808 710.28532214 1333.5069692 705.81640625 1336.07421875 C699.56891481 1339.66650429 693.34421612 1343.29655105 687.125 1346.9375 C677.86345896 1352.35472927 668.56060348 1357.69697405 659.23571777 1363.00411987 C652.78838008 1366.67357236 646.3549631 1370.36325316 639.9609375 1374.125 C638.85105469 1374.77726562 637.74117187 1375.42953125 636.59765625 1376.1015625 C634.49119168 1377.34246163 632.38692394 1378.58709955 630.28515625 1379.8359375 C629.35316406 1380.38507813 628.42117188 1380.93421875 627.4609375 1381.5 C626.64415527 1381.9846875 625.82737305 1382.469375 624.98583984 1382.96875 C623 1384 623 1384 621 1384 C620.81446564 1383.48240616 620.62893127 1382.96481232 620.43777466 1382.43153381 C611.38582464 1357.18438465 602.28223558 1331.95784838 593.01168823 1306.79006958 C587.02710329 1290.54224746 581.09398943 1274.2763663 575.1875 1258 C568.39044753 1239.27032598 561.53069337 1220.56487295 554.625 1201.875 C547.17838732 1181.72025157 539.83586332 1161.53021757 532.5625 1141.3125 C523.88496336 1117.192392 523.88496336 1117.192392 515.0625 1093.125 C509.01784918 1076.78708265 503.03339627 1060.4274835 497.0625 1044.0625 C496.56731533 1042.70542263 496.07212693 1041.34834663 495.57693481 1039.99127197 C493.56555513 1034.4789641 491.55435084 1028.96659227 489.54347229 1023.45410156 C486.10193084 1014.01969478 482.65902439 1004.58578737 479.21484375 995.15234375 C478.97870424 994.50556734 478.74256474 993.85879093 478.49926949 993.19241524 C477.30901323 989.93237665 476.1187307 986.67234765 474.92843628 983.412323 C472.77524675 977.51504447 470.62229151 971.61768041 468.46931648 965.72032356 C467.27122038 962.43854561 466.07310945 959.15677308 464.875 955.875 C464.39583326 954.56250003 463.9166666 953.25000003 463.4375 951.9375 C463.2003125 951.2878125 462.963125 950.638125 462.71875 949.96875 C439 885 415.28125 820.03125 390.84374619 753.09373951 C390.36459227 751.78127446 389.88543832 750.46880943 389.40628433 749.15634441 C388.20817228 745.87455971 387.01006085 742.59277478 385.81195068 739.31098938 C383.65803449 733.41112415 381.50411403 727.51126048 379.35017014 721.61140537 C378.15531867 718.33859429 376.96047087 715.06578187 375.765625 711.79296875 C375.52892342 711.14461752 375.29222183 710.49626629 375.04834747 709.82826805 C372.38563871 702.53480297 369.72301102 695.24130829 367.06054688 687.94775391 C366.81715167 687.28100301 366.57375647 686.61425211 366.32298565 685.92729664 C365.09400189 682.56063446 363.86505822 679.19395766 362.63618469 675.82725525 C360.22026748 669.20861643 357.80363921 662.59023875 355.38549805 655.97241211 C354.44312007 653.39309436 353.50082648 650.81374581 352.55859375 648.234375 C352.32749594 647.60176821 352.09639812 646.96916142 351.85829735 646.31738472 C348.83995616 638.05378681 345.83143807 629.78668892 342.83273315 621.51594543 C341.07627926 616.67264215 339.31643532 611.83057406 337.55627441 606.98861694 C336.7372193 604.73243722 335.91987344 602.47563613 335.10437012 600.21817017 C333.98664592 597.12433364 332.86309643 594.03267043 331.73828125 590.94140625 C331.41642349 590.04548767 331.09456573 589.14956909 330.76295471 588.22650146 C326.54551186 576.0548183 326.54551186 576.0548183 317 568 C311.09117327 567.37421794 306.1520861 567.82948548 301 571 C296.02417781 576.99181881 293.72750692 584.55432337 291.19140625 591.7890625 C290.51273746 593.68697924 289.83406644 595.58489518 289.15529633 597.48277569 C288.44094373 599.48575795 287.73122886 601.49032643 287.0229187 603.49545288 C285.54576798 607.67659128 284.05560519 611.85301348 282.56274414 616.02856445 C282.06234455 617.42853661 281.56196303 618.82851524 281.06159973 620.22850037 C280.81514017 620.91804747 280.56868061 621.60759457 280.31475258 622.31803703 C279.57168606 624.39849802 278.82986463 626.47939889 278.08842468 628.56044006 C274.44076921 638.7954993 270.72051864 649.0017307 266.9375 659.1875 C261.12588238 674.86611063 255.43281156 690.58680183 249.75 706.3125 C243.19338732 724.45512203 236.60271502 742.58445837 229.9375 760.6875 C223.71765666 777.58679961 217.5175423 794.49317858 211.35305786 811.41275024 C210.4586452 813.86666095 209.56337606 816.32025967 208.66720581 818.77352905 C207.42158169 822.18409183 206.17911887 825.5957899 204.9375 829.0078125 C204.5675441 830.01903671 204.1975882 831.03026093 203.81642151 832.0721283 C198.12909347 847.7368556 197.0272127 860.32048424 203.1875 875.9375 C203.67052539 877.22256295 204.15077472 878.5086718 204.62866211 879.7956543 C205.74126406 882.78055456 206.86886218 885.75928816 208.00488281 888.73535156 C210.30628734 894.78348573 212.54032216 900.85607143 214.7734375 906.9296875 C215.19758438 908.08314163 215.62173126 909.23659576 216.05873108 910.42500305 C216.94133287 912.82554153 217.82382293 915.22612109 218.70620728 917.6267395 C220.07551836 921.34787772 221.44867934 925.06757379 222.82299805 928.78686523 C228.62669103 944.49686601 234.35051728 960.23385435 240 976 C246.32191096 993.63975934 252.75218367 1011.23679627 259.25 1028.8125 C266.65480323 1048.84244398 273.96088796 1068.90529585 281.1875 1089 C288.10575822 1108.23645299 295.07764476 1127.45159293 302.14816284 1146.63272095 C308.41182094 1163.62829514 314.59409898 1180.65265022 320.75 1197.6875 C326.74445221 1214.27458332 332.7600919 1230.8525417 338.87875366 1247.39422607 C344.59437754 1262.84928662 350.21664139 1278.33781353 355.83810425 1293.82733154 C362.37823484 1311.84307063 368.98354525 1329.83389175 375.625 1347.8125 C382.53347036 1366.51517002 389.35397519 1385.24655123 396.08068848 1404.01531982 C404.505136 1427.51211383 413.14315604 1450.92930601 421.80453491 1474.33958435 C422.52122792 1476.27767576 423.23672978 1478.2162082 423.9508667 1480.15524292 C424.68291717 1482.14022018 425.41930383 1484.12360132 426.15899658 1486.10574341 C426.52627869 1487.09766693 426.89356079 1488.08959045 427.27197266 1489.11157227 C427.6039566 1490.00296402 427.93594055 1490.89435577 428.27798462 1491.8127594 C429 1494 429 1494 429 1496 C426.35921766 1497.52352827 423.71843269 1499.047052 421.07763672 1500.57055664 C418.74328358 1501.91732423 416.40896765 1503.26415607 414.07470703 1504.61108398 C408.16021511 1508.02377298 402.24511559 1511.43539406 396.328125 1514.84375 C381.85733024 1523.18155963 367.41667725 1531.56897618 353 1540 C350.63402065 1537.63402065 350.06584396 1535.82389722 348.94726562 1532.67553711 C348.54432281 1531.55057327 348.14138 1530.42560944 347.72622681 1529.26655579 C347.29063446 1528.03261581 346.85504211 1526.79867584 346.40625 1525.52734375 C345.94361201 1524.23016649 345.48041444 1522.93318869 345.01669312 1521.63639832 C344.02480429 1518.85969396 343.03622708 1516.08184213 342.05023193 1513.30303955 C339.69873939 1506.67704031 337.32958309 1500.05735016 334.96163559 1493.43721771 C334.16143627 1491.19968775 333.36185806 1488.96193643 332.56228638 1486.72418213 C328.07197923 1474.16441312 323.49488906 1461.63768343 318.875 1449.125 C312.35083834 1431.44020444 305.90536558 1413.72816644 299.5 1396 C293.04939019 1378.14824426 286.56172056 1360.31122096 280 1342.5 C272.98281582 1323.45246257 266.05530336 1304.37350946 259.15673828 1285.28271484 C253.15271916 1268.67050164 247.10625515 1252.07489962 241 1235.5 C233.98281582 1216.45246257 227.05530336 1197.37350946 220.15673828 1178.28271484 C213.79709204 1160.68653516 207.38386906 1143.11119592 200.91482544 1125.55496216 C196.41855815 1113.34958122 191.95184508 1101.13391251 187.52734375 1088.90234375 C187.29458363 1088.25894169 187.0618235 1087.61553963 186.82201004 1086.95264053 C184.32493352 1080.04917604 181.83157974 1073.14437994 179.34179688 1066.23828125 C177.30576247 1060.59382017 175.25980806 1054.95305083 173.20574951 1049.31512451 C172.38716253 1047.06447647 171.57171684 1044.81268391 170.75909424 1042.55987549 C169.55839449 1039.23563878 168.34518299 1035.91622018 167.12890625 1032.59765625 C166.77142807 1031.60044052 166.41394989 1030.60322479 166.04563904 1029.57579041 C163.73607865 1023.32679805 161.79937972 1018.56119254 155.75 1015.1875 C149.92437956 1013.34272019 145.38945924 1012.9570521 139.875 1015.625 C128.6403568 1023.9454099 125.00358844 1046.59671548 120.46775436 1059.30379868 C118.50242108 1064.80396388 116.52550961 1070.29998972 114.5503521 1075.79663277 C114.04996486 1077.18929326 113.54972748 1078.5820076 113.04963875 1079.97477531 C108.40774614 1092.9020372 103.6910905 1105.80087952 98.9375 1118.6875 C92.41758403 1136.37376777 85.97046635 1154.08536823 79.5625 1171.8125 C72.7348092 1190.69720906 65.89003399 1209.57543601 59 1228.4375 C58.60807465 1229.51086609 58.21614929 1230.58423218 57.81234741 1231.69012451 C53.89319954 1242.41975065 49.95832735 1253.14299756 45.9609375 1263.84375 C45.65053528 1264.67536148 45.34013306 1265.50697296 45.02032471 1266.36378479 C43.60013065 1270.16655064 42.17553987 1273.96755493 40.7421875 1277.76538086 C40.25252123 1279.07142073 39.76293261 1280.37748972 39.2734375 1281.68359375 C38.85497559 1282.79275146 38.43651367 1283.90190918 38.00537109 1285.04467773 C32.23387486 1302.01018572 37.39529907 1317.11869843 43.6875 1333 C44.50562645 1335.13215089 45.32023127 1337.26565588 46.1315918 1339.40039062 C47.41507565 1342.77530697 48.7009906 1346.14910625 49.99781799 1349.5189209 C54.50684537 1361.23914093 58.76256197 1373.04680541 63.00622559 1384.86514282 C70.38072628 1405.38553003 77.8774483 1425.85986487 85.4375 1446.3125 C92.9538691 1466.64729665 100.35724196 1487.02026046 107.69070053 1507.4214859 C115.04781093 1527.88738172 122.50988555 1548.31192658 130.05264282 1568.71032715 C137.30597163 1588.33047281 144.43837325 1607.9919491 151.49316406 1627.68432617 C151.85112564 1628.68290146 152.20908722 1629.68147675 152.57789612 1630.71031189 C153.24123005 1632.56158517 153.90367857 1634.41317605 154.56504822 1636.26515198 C154.85835526 1637.08418503 155.15166229 1637.90321808 155.45385742 1638.74707031 C155.7220932 1639.49686157 155.99032898 1640.24665283 156.26669312 1641.01916504 C156.86817707 1642.64391516 157.53182248 1644.24552503 158.2121582 1645.83886719 C159 1648 159 1648 159 1652 C158.2879541 1652.40613525 157.5759082 1652.81227051 156.84228516 1653.23071289 C140.60954545 1662.49191534 124.39940195 1671.7907986 108.21777344 1681.14111328 C102.81329355 1684.26324605 97.40652588 1687.38141204 92 1690.5 C89.8333225 1691.74998122 87.66665583 1692.99998121 85.5 1694.25 C66 1705.5 66 1705.5 46.5 1716.75 C45.4260498 1717.36963623 44.35209961 1717.98927246 43.24560547 1718.62768555 C41.09376086 1719.86903475 38.94174452 1721.11008629 36.78955078 1722.35083008 C31.74447938 1725.25980003 26.70111579 1728.17160523 21.66400146 1731.09432983 C19.88319999 1732.1274294 18.10184142 1733.15956171 16.3203125 1734.19140625 C14.08742917 1735.48506088 11.8555909 1736.78052164 9.625 1738.078125 C-10.32520427 1749.62690737 -10.32520427 1749.62690737 -21 1748 C-25.94958588 1746.1869164 -30.44278816 1743.61805748 -35 1741 C-35.84336914 1740.51692383 -36.68673828 1740.03384766 -37.55566406 1739.53613281 C-42.56185049 1736.65549781 -47.54726612 1733.74073416 -52.5234375 1730.80859375 C-58.9517352 1727.02101042 -65.40921373 1723.28563892 -71.875 1719.5625 C-72.95426758 1718.94052734 -74.03353516 1718.31855469 -75.14550781 1717.67773438 C-77.33614966 1716.4153306 -79.526905 1715.15312377 -81.71777344 1713.89111328 C-87.14659942 1710.76319852 -92.57319281 1707.63141552 -98 1704.5 C-100.16665583 1703.24998121 -102.3333225 1701.99998122 -104.5 1700.75 C-108.83333333 1698.25 -113.16666667 1695.75 -117.5 1693.25 C-118.57266113 1692.63116943 -119.64532227 1692.01233887 -120.75048828 1691.37475586 C-122.91557071 1690.12564482 -125.08060982 1688.87645871 -127.24560547 1687.62719727 C-133.78140175 1683.85601627 -140.31864308 1680.08736099 -146.85766602 1676.32177734 C-149.01834079 1675.07571234 -151.17770758 1673.82737627 -153.33569336 1672.57666016 C-158.84618326 1669.38347738 -164.37245748 1666.22536516 -169.93359375 1663.12109375 C-171.04653809 1662.49211182 -172.15948242 1661.86312988 -173.30615234 1661.21508789 C-175.43047485 1660.01468163 -177.56206448 1658.82701975 -179.70166016 1657.65405273 C-180.64702637 1657.11594971 -181.59239258 1656.57784668 -182.56640625 1656.0234375 C-183.40115479 1655.55856934 -184.23590332 1655.09370117 -185.09594727 1654.61474609 C-187 1653 -187 1653 -187.97094727 1650.89990234 C-188.01567736 1646.43516262 -186.45195318 1642.72551213 -184.8984375 1638.578125 C-184.55491241 1637.63124817 -184.21138733 1636.68437134 -183.85745239 1635.70880127 C-182.70846692 1632.5514069 -181.54176793 1629.40086209 -180.375 1626.25 C-179.55689584 1624.01275233 -178.73985958 1621.7751139 -177.92382812 1619.53710938 C-175.74373298 1613.56907129 -173.54781126 1607.60699103 -171.34655762 1601.64672852 C-170.01979431 1598.05360668 -168.69548216 1594.45959183 -167.37207031 1590.86523438 C-163.85946193 1581.32561214 -160.34537394 1571.78654647 -156.82177734 1562.25097656 C-151.13782183 1546.86102535 -145.53498289 1531.44410889 -140 1516 C-133.16010338 1496.91482661 -126.18537757 1477.88213931 -119.15673828 1458.86572266 C-113.02527393 1442.27167943 -106.96837031 1425.65337775 -101 1409 C-94.16010338 1389.91482661 -87.18537757 1370.88213931 -80.15673828 1351.86572266 C-74.02527393 1335.27167943 -67.96837031 1318.65337775 -62 1302 C-55.16010338 1282.91482661 -48.18537757 1263.88213931 -41.15673828 1244.86572266 C-35.02527393 1228.27167943 -28.96837031 1211.65337775 -23 1195 C-16.16010338 1175.91482661 -9.18537757 1156.88213931 -2.15673828 1137.86572266 C3.97472607 1121.27167943 10.03162969 1104.65337775 16 1088 C22.83989662 1068.91482661 29.81462243 1049.88213931 36.84326172 1030.86572266 C42.97472607 1014.27167943 49.03162969 997.65337775 55 981 C61.83989662 961.91482661 68.81462243 942.88213931 75.84326172 923.86572266 C81.97472607 907.27167943 88.03162969 890.65337775 94 874 C100.83989662 854.91482661 107.81462243 835.88213931 114.84326172 816.86572266 C120.97472607 800.27167943 127.03162969 783.65337775 133 767 C139.83989662 747.91482661 146.81462243 728.88213931 153.84326172 709.86572266 C159.97472607 693.27167943 166.03162969 676.65337775 172 660 C178.83989662 640.91482661 185.81462243 621.88213931 192.84326172 602.86572266 C198.97472607 586.27167943 205.03162969 569.65337775 211 553 C217.4041374 535.13071345 223.91925851 517.3049917 230.5 499.5 C239.54833926 475.01717639 248.45684765 450.48611982 257.24023438 425.90698242 C258.34363457 422.82169941 259.45816173 419.74101935 260.58789062 416.6652832 C260.94258423 415.69313118 260.94258423 415.69313118 261.30444336 414.70133972 C261.91249658 413.03680519 262.52534118 411.37402296 263.13867188 409.71142578 C264.82372712 404.40694066 264.48549541 400.61831804 262.875 395.25 C260.64204626 391.37954685 258.9207548 390.11299606 255 388 C252.1447419 387.62176015 249.68255005 387.45798755 246.83564758 387.49206543 C246.02973889 387.48582547 245.2238302 387.4795855 244.39350003 387.47315645 C241.70124201 387.45724084 239.0098912 387.46982508 236.31762695 387.48242188 C234.38387017 387.4769999 232.45011752 387.46987682 230.51637268 387.46118164 C225.26811985 387.4429483 220.02018163 387.45001757 214.7719233 387.46269798 C209.27308578 387.47283278 203.774275 387.46343029 198.2754364 387.45715332 C189.0358701 387.44987527 179.79643165 387.45946561 170.55688477 387.47851562 C159.89140679 387.50025241 149.22623507 387.49325679 138.56076461 387.47121 C129.39364203 387.45302207 120.22661136 387.45051523 111.05947655 387.46096468 C105.58907731 387.4671851 100.11882166 387.46807588 94.64843178 387.45481873 C89.49944651 387.44321265 84.35085321 387.45137268 79.20191002 387.47439575 C77.31822737 387.47965888 75.43451142 387.47821042 73.55084229 387.46934509 C61.52422722 387.41798846 50.0134632 387.44147261 40.625 396.125 C39.85414063 396.80820312 39.08328125 397.49140625 38.2890625 398.1953125 C32.28419666 405.55281023 29.35619535 414.99306643 26.18359375 423.82421875 C25.51033302 425.6753553 25.51033302 425.6753553 24.82347107 427.56388855 C23.60783545 430.90650071 22.39950512 434.25171047 21.19246674 437.597435 C19.91364755 441.13774359 18.62762949 444.67543531 17.34228516 448.21337891 C15.23526857 454.01550004 13.13192233 459.81893747 11.03173828 465.62353516 C7.0615112 476.59639202 3.07716628 487.56410872 -0.90957642 498.53097534 C-2.1345841 501.90136898 -3.35867029 505.27209647 -4.58276367 508.64282227 C-10.89249424 526.00745905 -17.28290824 543.34173935 -23.68551636 560.67230225 C-30.60731307 579.41705766 -37.42437429 598.19760873 -44.1875 617 C-50.71472675 635.14578635 -57.27297809 653.2790592 -63.9375 671.375 C-64.2945401 672.34451599 -64.6515802 673.31403198 -65.0194397 674.31292725 C-65.55762833 675.77427094 -65.55762833 675.77427094 -66.10668945 677.26513672 C-66.84328991 679.2652891 -67.57986186 681.26545198 -68.31640625 683.265625 C-68.68675491 684.27130524 -69.05710358 685.27698547 -69.43867493 686.31314087 C-74.1941881 699.23412158 -78.91561247 712.16757128 -83.63634872 725.10128784 C-84.37473452 727.12427267 -85.11321939 729.14722131 -85.85171509 731.17016602 C-90.96868919 745.18784807 -96.07885648 759.20796806 -101.171875 773.234375 C-101.79104797 774.93950256 -101.79104797 774.93950256 -102.42272949 776.67907715 C-104.88920645 783.47157968 -104.88920645 783.47157968 -107.35546875 790.26416016 C-114.07113879 808.7562373 -120.86764395 827.21770307 -127.68551636 845.67230225 C-134.60731307 864.41705766 -141.42437429 883.19760873 -148.1875 902 C-154.71472654 920.14578576 -161.2728983 938.27908896 -167.9375 956.375 C-168.29553711 957.34717468 -168.65357422 958.31934937 -169.02246094 959.32098389 C-169.38243164 960.2983551 -169.74240234 961.27572632 -170.11328125 962.28271484 C-170.85159424 964.28742321 -171.58987514 966.29214339 -172.328125 968.296875 C-172.69909302 969.30420685 -173.07006104 970.3115387 -173.45227051 971.34939575 C-178.38984737 984.76514249 -183.28751175 998.19549163 -188.1875 1011.625 C-188.67451811 1012.95969709 -189.16153797 1014.29439354 -189.64855957 1015.62908936 C-191.61440428 1021.0166526 -193.58012986 1026.4042593 -195.54559326 1031.79196167 C-198.74319402 1040.55696964 -201.94281988 1049.32123581 -205.14406013 1058.08491516 C-207.32539493 1064.05654137 -209.50645776 1070.02826693 -211.6875 1076 C-211.92662739 1076.65471786 -212.16575478 1077.30943573 -212.41212845 1077.98399353 C-217.66949279 1092.37870347 -222.92220682 1106.77505584 -228.15234375 1121.1796875 C-228.56654068 1122.320392 -228.98073761 1123.4610965 -229.40748596 1124.6363678 C-230.23584627 1126.91778331 -231.06420019 1129.19920114 -231.89254761 1131.48062134 C-232.2992569 1132.6007663 -232.70596619 1133.72091125 -233.125 1134.875 C-233.53017853 1135.99103607 -233.93535706 1137.10707214 -234.35281372 1138.25692749 C-241.15907431 1156.99850726 -248.04661164 1175.70939399 -254.95504761 1194.41351318 C-261.48937518 1212.11139715 -267.9295089 1229.84085942 -274.2989502 1247.59869385 C-280.12373389 1263.83514206 -286.03180365 1280.03915305 -291.99407959 1296.22558594 C-297.97674148 1312.46818932 -303.90791723 1328.72885843 -309.8125 1345 C-316.69268936 1363.95888548 -323.6364805 1382.89329293 -330.625 1401.8125 C-337.60509028 1420.70995054 -344.49744226 1439.636269 -351.2989502 1458.59869385 C-357.12373389 1474.83514206 -363.03180365 1491.03915305 -368.99407959 1507.22558594 C-374.97674164 1523.46818975 -380.90784374 1539.72888479 -386.8125 1556 C-394.8422701 1578.12548527 -402.95375974 1600.21994721 -411.1105957 1622.29882812 C-413.41247901 1628.53056628 -415.70956741 1634.76404399 -418 1641 C-418.28949524 1641.78719421 -418.57899048 1642.57438843 -418.8772583 1643.38543701 C-419.60089329 1645.35828158 -420.31942879 1647.33286932 -421.03515625 1649.30859375 C-421.40133057 1650.31591553 -421.76750488 1651.3232373 -422.14477539 1652.36108398 C-422.96658055 1654.89687957 -423.53856821 1657.37685734 -424 1660 C-434.82089787 1654.93246684 -445.04615313 1648.96379163 -455.3359375 1642.90625 C-463.58135208 1638.05629665 -471.89459408 1633.32687918 -480.20751953 1628.59399414 C-487.49818974 1624.44015638 -494.76063649 1620.24260754 -502 1616 C-495.19566863 1596.45638037 -488.20600059 1576.98475555 -481.0625 1557.5625 C-480.67784576 1556.51647614 -480.29319153 1555.47045227 -479.8968811 1554.39273071 C-476.02205678 1543.8612584 -472.13229207 1533.33554506 -468.203125 1522.82421875 C-467.91034164 1522.03999039 -467.61755829 1521.25576202 -467.31590271 1520.44776917 C-465.98980115 1516.89628166 -464.66054194 1513.34608244 -463.32250977 1509.79907227 C-460.61340591 1502.58168255 -458.0866809 1495.32257965 -455.67578125 1488 C-451.82639266 1476.32335069 -447.61859768 1464.78812927 -443.375 1453.25 C-442.54671971 1450.99048388 -441.71868233 1448.7308787 -440.89086914 1446.47119141 C-436.51721588 1434.54009157 -432.12292943 1422.61661636 -427.72265625 1410.6953125 C-426.40205336 1407.1172415 -425.08146464 1403.53916528 -423.76095581 1399.96105957 C-422.87623483 1397.56380377 -421.9914076 1395.16658718 -421.10647583 1392.76940918 C-414.55289277 1375.01045993 -408.09246446 1357.22012503 -401.70132446 1339.40213013 C-395.87645376 1323.1654053 -389.96829651 1306.96111887 -384.00592041 1290.77441406 C-378.02325851 1274.53181064 -372.0920922 1258.27113815 -366.1875 1242 C-359.39044735 1223.27032547 -352.53061132 1204.5649035 -345.625 1185.875 C-338.2632108 1165.94884803 -331.00231459 1145.98864325 -323.8125 1126 C-317.28527346 1107.85421424 -310.7271017 1089.72091104 -304.0625 1071.625 C-303.52544434 1070.16673798 -303.52544434 1070.16673798 -302.97753906 1068.67901611 C-302.61756836 1067.7016449 -302.25759766 1066.72427368 -301.88671875 1065.71728516 C-301.14840576 1063.71257679 -300.41012486 1061.70785661 -299.671875 1059.703125 C-299.30090698 1058.69579315 -298.92993896 1057.6884613 -298.54772949 1056.65060425 C-293.61015243 1043.23485697 -288.7125853 1029.80447337 -283.8125 1016.375 C-283.32447752 1015.03761638 -282.83645057 1013.70023438 -282.34841919 1012.362854 C-280.37901903 1006.96590253 -278.4097639 1001.56889817 -276.44081116 996.17178345 C-271.84503996 983.57428158 -267.24646372 970.97780466 -262.64737511 958.3815136 C-260.97572124 953.80305631 -259.30422525 949.22454141 -257.6328125 944.64599609 C-253.04865823 932.08860269 -248.46383858 919.53145304 -243.87731171 906.97492599 C-241.93089788 901.64611481 -239.98473456 896.31721214 -238.03862762 890.98828888 C-237.55471903 889.66324623 -237.07079672 888.33820858 -236.58686066 887.01317596 C-231.32989247 872.6193877 -226.07745103 858.22400289 -220.84765625 843.8203125 C-220.43364059 842.68010651 -220.01962494 841.53990051 -219.59306335 840.36514282 C-218.76488629 838.0842308 -217.93671547 835.80331651 -217.10855103 833.5223999 C-216.70147919 832.40125793 -216.29440735 831.28011597 -215.875 830.125 C-215.26523819 828.44546234 -215.26523819 828.44546234 -214.64315796 826.73199463 C-207.9279402 808.24120154 -201.13188428 789.78101994 -194.31448364 771.32769775 C-187.39268693 752.58294234 -180.57562571 733.80239127 -173.8125 715 C-167.28527346 696.85421424 -160.7271017 678.72091104 -154.0625 660.625 C-153.70446289 659.65282532 -153.34642578 658.68065063 -152.97753906 657.67901611 C-152.61756836 656.7016449 -152.25759766 655.72427368 -151.88671875 654.71728516 C-151.14840576 652.71257679 -150.41012486 650.70785661 -149.671875 648.703125 C-149.30090698 647.69579315 -148.92993896 646.6884613 -148.54772949 645.65060425 C-143.61015243 632.23485697 -138.7125853 618.80447337 -133.8125 605.375 C-133.32447752 604.03761638 -132.83645057 602.70023438 -132.34841919 601.362854 C-130.37901903 595.96590253 -128.4097639 590.56889817 -126.44081116 585.17178345 C-123.03856262 575.84585524 -119.63504624 566.52039073 -116.23046875 557.1953125 C-115.99367653 556.54673594 -115.75688431 555.89815937 -115.51291656 555.22992897 C-113.3663309 549.35043296 -111.21964226 543.47097456 -109.07293701 537.59152222 C-107.64364013 533.6769136 -106.21438381 529.76229018 -104.78515625 525.84765625 C-104.54903374 525.20092642 -104.31291122 524.55419659 -104.06963348 523.88786888 C-101.11826531 515.80405785 -98.1677965 507.71991939 -95.21873569 499.6352663 C-93.95227495 496.16335177 -92.68563273 492.69150374 -91.41850281 489.21983337 C-89.19574127 483.12963183 -86.97374752 477.03916374 -84.7581358 470.94635677 C-80.39306105 458.94406104 -76.0092534 446.95188848 -71.4453125 435.0234375 C-70.77189303 433.2502043 -70.09878418 431.4768531 -69.42602539 429.70336914 C-68.24080327 426.57912957 -67.03214439 423.4657023 -65.80639648 420.35717773 C-62.39474337 411.50034114 -59.58895543 402.62577066 -63.5 393.5 C-68.21122377 388.78877623 -73.45822055 386.55928799 -80.10663581 386.4865374 C-81.20334236 386.50473497 -81.20334236 386.50473497 -82.32220459 386.52330017 C-83.12094946 386.52043819 -83.91969433 386.51757622 -84.74264359 386.51462752 C-87.39881193 386.51006992 -90.05391105 386.53413901 -92.70996094 386.55834961 C-94.62267895 386.56115726 -96.5354001 386.56226226 -98.44812012 386.5617981 C-103.6302976 386.56602109 -108.81203076 386.59585649 -113.99407482 386.63169551 C-118.32773577 386.659311 -122.66140307 386.67431546 -126.99512315 386.6893273 C-137.22508447 386.72493783 -147.45478788 386.7812152 -157.68457031 386.85083008 C-168.21819267 386.92219504 -178.75157065 386.96096085 -189.28540206 386.98320192 C-198.34567191 387.00336843 -207.40571622 387.04283719 -216.46584153 387.09784323 C-221.86971693 387.13052627 -227.27338645 387.15628413 -232.67736053 387.16389275 C-237.76334941 387.17198365 -242.84863327 387.20435492 -247.93437195 387.25488663 C-249.7934071 387.26943681 -251.65252981 387.27570668 -253.51161957 387.27276421 C-266.15855379 387.25957166 -277.88516072 388.12427044 -287.56401062 397.36546326 C-293.04657288 403.6060731 -295.73274439 411.01064215 -298.44921875 418.74609375 C-298.85904495 419.88816788 -299.26887115 421.030242 -299.69111633 422.20692444 C-300.80048108 425.30253668 -301.90175134 428.40088541 -302.99981689 431.5005188 C-304.16377489 434.77901254 -305.3388529 438.0535107 -306.51367188 441.328125 C-306.99156143 442.66048663 -307.46943615 443.99285359 -307.94729614 445.32522583 C-308.18457554 445.98676792 -308.42185493 446.64831001 -308.66632462 447.32989883 C-309.38891451 449.34597005 -310.1102625 451.36248165 -310.83126831 453.37911987 C-314.79684222 464.46668551 -318.84092515 475.52437007 -322.91885376 486.57107544 C-329.85231252 505.35445264 -336.69527487 524.16963776 -343.5 543 C-349.91348662 560.74584192 -356.35702266 578.4797565 -362.875 596.1875 C-369.71115059 614.76222375 -376.52385659 633.34536806 -383.3125 651.9375 C-383.55422062 652.59943611 -383.79594124 653.26137222 -384.04498672 653.943367 C-391.86751785 675.36592055 -399.64295936 696.80523648 -407.39660645 718.25280762 C-412.8440592 733.31886808 -418.32252449 748.37229896 -423.88012695 763.39807129 C-429.59531201 778.85184332 -435.21710558 794.33909258 -440.83810425 809.82733154 C-447.37823529 827.84307186 -453.98373018 845.83382274 -460.625 863.8125 C-467.20158595 881.61875563 -473.71345063 899.44614127 -480.125 917.3125 C-486.1424718 934.07911665 -492.19672734 950.83146071 -498.3125 967.5625 C-498.89791061 969.16416519 -498.89791061 969.16416519 -499.49514771 970.79818726 C-504.05544266 983.26977952 -508.63556113 995.73396703 -513.234375 1008.19140625 C-513.89177422 1009.9722612 -513.89177422 1009.9722612 -514.56245422 1011.78909302 C-515.00179794 1012.9792099 -515.44114166 1014.16932678 -515.89379883 1015.39550781 C-516.78338814 1017.80533033 -517.67295518 1020.21516106 -518.5625 1022.625 C-519.00306732 1023.81847046 -519.44363464 1025.01194092 -519.89755249 1026.24157715 C-526.04656467 1042.90592576 -532.12494007 1059.5939587 -538.125 1076.3125 C-544.14257334 1093.07908064 -550.19672708 1109.83145998 -556.3125 1126.5625 C-556.70277374 1127.63027679 -557.09304749 1128.69805359 -557.49514771 1129.79818726 C-562.05544266 1142.26977952 -566.63556113 1154.73396703 -571.234375 1167.19140625 C-571.67264114 1168.37864288 -572.11090729 1169.56587952 -572.56245422 1170.78909302 C-573.2214698 1172.57426834 -573.2214698 1172.57426834 -573.89379883 1174.39550781 C-574.78338814 1176.80533033 -575.67295518 1179.21516106 -576.5625 1181.625 C-577.00306732 1182.81847046 -577.44363464 1184.01194092 -577.89755249 1185.24157715 C-584.04656467 1201.90592576 -590.12494007 1218.5939587 -596.125 1235.3125 C-607.16783595 1266.08081623 -618.38884998 1296.78321952 -629.69140625 1327.45703125 C-629.92952089 1328.10325754 -630.16763554 1328.74948383 -630.41296577 1329.41529274 C-632.95975473 1336.32656997 -635.50843585 1343.23714405 -638.05981445 1350.14672852 C-638.6953701 1351.86947746 -638.6953701 1351.86947746 -639.34376526 1353.62702942 C-640.15784463 1355.83244481 -640.97325672 1358.03736881 -641.79014587 1360.241745 C-643.44247208 1364.71139855 -645.07974686 1369.18065197 -646.60253906 1373.69628906 C-646.83059235 1374.36661163 -647.05864563 1375.0369342 -647.29360962 1375.72756958 C-647.85702302 1377.40090544 -648.40521001 1379.07934879 -648.95166016 1380.75830078 C-649.2976123 1381.49806152 -649.64356445 1382.23782227 -650 1383 C-653 1384 -653 1384 -655.5300293 1382.86694336 C-656.53461182 1382.28050049 -657.53919434 1381.69405762 -658.57421875 1381.08984375 C-659.70424316 1380.43685303 -660.83426758 1379.7838623 -661.99853516 1379.11108398 C-663.2283056 1378.38675204 -664.45795755 1377.66221888 -665.6875 1376.9375 C-666.95829584 1376.19839538 -668.22962411 1375.46020552 -669.50146484 1374.72290039 C-672.73272865 1372.84661607 -675.95709197 1370.95881903 -679.17950439 1369.06738281 C-681.87527872 1367.48681147 -684.57631505 1365.91532096 -687.27734375 1364.34375 C-691.19267472 1362.06426539 -695.10508519 1359.77988076 -699.015625 1357.4921875 C-705.28897909 1353.82618328 -711.58016889 1350.19147319 -717.875 1346.5625 C-718.94451904 1345.94560303 -720.01403809 1345.32870605 -721.1159668 1344.69311523 C-726.1635406 1341.78299 -731.21312677 1338.87644823 -736.2677002 1335.97850037 C-738.02480482 1334.97078041 -739.78129524 1333.9619982 -741.53759766 1332.95288086 C-743.72745055 1331.6950442 -745.91844441 1330.4391908 -748.11083984 1329.18579102 C-772.28566973 1315.28982402 -772.28566973 1315.28982402 -776.34965128 1302.80605143 C-777.66510459 1297.13028157 -777.41036516 1291.33209655 -777.38031673 1285.53641605 C-777.38375312 1284.0673975 -777.38850186 1282.59838154 -777.3944377 1281.12937096 C-777.40694124 1277.09241625 -777.40080014 1273.05567301 -777.39160402 1269.01871736 C-777.38489511 1264.62685785 -777.3955599 1260.23503475 -777.40399987 1255.84318298 C-777.41637799 1248.14577226 -777.41757426 1240.44842249 -777.41144943 1232.75100517 C-777.40236592 1221.30470446 -777.41038432 1209.8584602 -777.42174067 1198.41216382 C-777.44142126 1177.96983539 -777.44375235 1157.5275323 -777.43854547 1137.08519666 C-777.43399089 1119.19529771 -777.43458424 1101.3054088 -777.44038582 1083.41551018 C-777.44114268 1081.01714862 -777.44189866 1078.61878706 -777.44265376 1076.2204255 C-777.44379894 1072.60645807 -777.44494881 1068.99249064 -777.44611301 1065.37852321 C-777.45682024 1031.77306979 -777.46154093 998.16761971 -777.45364285 964.56216526 C-777.45334567 963.29500035 -777.4530485 962.02783543 -777.45274232 960.72227158 C-777.4502933 950.43153945 -777.44768176 940.14080737 -777.44505819 929.85007528 C-777.43495441 889.70333834 -777.44331275 849.55664322 -777.46655273 809.40991211 C-777.49261268 764.31863379 -777.50547672 719.22738064 -777.49836498 674.13609451 C-777.49764891 669.33016487 -777.49697452 664.52423523 -777.49632454 659.71830559 C-777.49615473 658.53493836 -777.49598492 657.35157113 -777.49580997 656.13234429 C-777.49350503 638.2532597 -777.5014932 620.37419845 -777.51461601 602.49511909 C-777.52950937 582.16735537 -777.53039439 561.83964645 -777.5125451 541.51188392 C-777.50296435 530.13169075 -777.50445316 518.75162529 -777.52177979 507.37144058 C-777.53224245 499.77327327 -777.52820678 492.17520358 -777.51229975 484.57704594 C-777.50363971 480.24561207 -777.50131204 475.91442906 -777.51656907 471.58300776 C-777.53032338 467.64107176 -777.52560868 463.69960195 -777.50628388 459.75769326 C-777.50255408 458.34202029 -777.505492 456.92630962 -777.51599697 455.51067071 C-777.5927884 444.39462919 -776.07760795 435.17713593 -768.1796875 426.90234375 C-764.22905753 423.45439251 -759.82450113 420.89239371 -755.28027344 418.30078125 C-752.60851318 416.77667647 -749.94895002 415.23223076 -747.2890625 413.6875 C-742.26881201 410.77737253 -737.24057879 407.88142382 -732.20835876 404.99205017 C-726.13365341 401.5037918 -720.06672925 398.0021051 -714 394.5 C-711.83336859 393.24993888 -709.66670186 391.999939 -707.5 390.75 C-706.4275 390.13125 -705.355 389.5125 -704.25 388.875 C-616.5 338.25 -616.5 338.25 -613.24951172 336.37475586 C-611.08442929 335.12564482 -608.91939018 333.87645871 -606.75439453 332.62719727 C-601.31384294 329.48797691 -595.87252784 326.35009437 -590.4296875 323.21484375 C-579.97793801 317.19252671 -569.53700452 311.15330663 -559.125 305.0625 C-549.85500223 299.64078822 -540.54168248 294.29795085 -531.21154785 288.98077393 C-522.0871716 283.77954871 -512.99867226 278.51972122 -503.93310547 273.21655273 C-493.40915375 267.06233258 -482.84619863 260.97630004 -472.28222656 254.89111328 C-466.85340058 251.76319852 -461.42680719 248.63141552 -456 245.5 C-453.83334417 244.24998121 -451.6666775 242.99998122 -449.5 241.75 C-448.4275 241.13125 -447.355 240.5125 -446.25 239.875 C-254.5 129.25 -254.5 129.25 -251.24951172 127.37475586 C-249.08442929 126.12564482 -246.91939018 124.87645871 -244.75439453 123.62719727 C-239.31384294 120.48797691 -233.87252784 117.35009437 -228.4296875 114.21484375 C-217.97793801 108.19252671 -207.53700452 102.15330663 -197.125 96.0625 C-187.85500223 90.64078822 -178.54168248 85.29795085 -169.21154785 79.98077393 C-160.0871716 74.77954871 -150.99867226 69.51972122 -141.93310547 64.21655273 C-131.40915375 58.06233258 -120.84619863 51.97630004 -110.28222656 45.89111328 C-104.85340058 42.76319852 -99.42680719 39.63141552 -94 36.5 C-91.83334417 35.24998121 -89.6666775 33.99998122 -87.5 32.75 C-86.4275 32.13125 -85.355 31.5125 -84.25 30.875 C-81 29 -77.75 27.125 -74.5 25.25 C-73.42613037 24.63036377 -72.35226074 24.01072754 -71.24584961 23.37231445 C-69.0933539 22.13068304 -66.94052529 20.88962856 -64.78735352 19.64916992 C-59.74854974 16.74535539 -54.71311104 13.83617747 -49.68978882 10.90567017 C-47.91707339 9.87187117 -46.14327499 8.83995547 -44.36914062 7.80859375 C-42.1482208 6.51674397 -39.92932931 5.22139811 -37.71289062 3.921875 C-23.50072871 -4.33151833 -15.46397175 -7.14898076 0 0 Z " fill="#213147" transform="translate(1015,128)"/>
<path d="M0 0 C1.94098565 -0.00706725 3.88196579 -0.01581564 5.82293701 -0.02610779 C11.06648123 -0.04851321 16.30972238 -0.04568395 21.55329609 -0.03678632 C25.93732794 -0.03166112 30.3213036 -0.03898087 34.70532966 -0.04625839 C45.04579103 -0.06322705 55.38610469 -0.05971951 65.7265625 -0.04296875 C76.38715858 -0.02602272 87.04734592 -0.04192303 97.70789742 -0.07419163 C106.87421323 -0.10088396 116.04040177 -0.1081653 125.20675254 -0.09967655 C130.6758735 -0.09474974 136.14474818 -0.0969509 141.6138382 -0.11746407 C146.75226948 -0.13581732 151.89011145 -0.12986663 157.02851105 -0.10526466 C158.91226914 -0.10025703 160.79607215 -0.10374529 162.67979431 -0.11641312 C165.25451136 -0.13235691 167.82729047 -0.11738217 170.4019165 -0.09474182 C171.14443106 -0.10657755 171.88694561 -0.11841328 172.65196061 -0.13060766 C178.2109523 -0.03151543 181.78585083 1.72571077 185.68652344 5.53344727 C188.91877482 11.05955446 189.65534514 16.52975163 188.15740967 22.72003174 C187.39370172 25.11445595 186.55398423 27.46657964 185.67871094 29.82250977 C185.36207993 30.70552261 185.04544891 31.58853546 184.71922302 32.49830627 C183.67887087 35.38960117 182.62043708 38.27390425 181.56152344 41.15844727 C180.8224761 43.20015544 180.08445299 45.24223462 179.34741211 47.28466797 C177.14497895 53.37418132 174.91877321 59.45481108 172.68652344 65.53344727 C172.08870144 67.16381726 171.49088221 68.79418828 170.89306641 70.42456055 C168.71114265 76.36936133 166.52191376 82.31142646 164.32177734 88.24951172 C158.95058131 102.75417835 153.69238281 117.2991565 148.43652344 131.84594727 C141.90297311 149.92691947 135.33280294 167.99357233 128.68652344 186.03344727 C122.12472633 203.84464131 115.63732938 221.6817622 109.18652344 239.53344727 C102.37710991 258.37752766 95.51877261 277.20231309 88.59228516 296.00366211 C82.39686523 312.82531629 76.27872202 329.67415691 70.18652344 346.53344727 C63.37710991 365.37752766 56.51877261 384.20231309 49.59228516 403.00366211 C43.39686523 419.82531629 37.27872202 436.67415691 31.18652344 453.53344727 C24.37710991 472.37752766 17.51877261 491.20231309 10.59228516 510.00366211 C4.39686523 526.82531629 -1.72127798 543.67415691 -7.81347656 560.53344727 C-14.62289009 579.37752766 -21.48122739 598.20231309 -28.40771484 617.00366211 C-34.60313477 633.82531629 -40.72127798 650.67415691 -46.81347656 667.53344727 C-53.62289009 686.37752766 -60.48122739 705.20231309 -67.40771484 724.00366211 C-73.60313477 740.82531629 -79.72127798 757.67415691 -85.81347656 774.53344727 C-92.62155417 793.37383069 -99.47826217 812.19503153 -106.40368652 830.99258423 C-112.68503063 848.04658439 -118.88670034 865.12884532 -125.06347656 882.22094727 C-131.03268928 898.73868865 -137.02548824 915.24621637 -143.12182617 931.71746826 C-148.67689039 946.73337117 -154.1220115 961.78856585 -159.56347656 976.84594727 C-166.09754552 994.92673386 -172.66719579 1012.99356888 -179.31347656 1031.03344727 C-185.87527367 1048.84464131 -192.36267062 1066.6817622 -198.81347656 1084.53344727 C-205.62289009 1103.37752766 -212.48122739 1122.20231309 -219.40771484 1141.00366211 C-225.60313477 1157.82531629 -231.72127798 1174.67415691 -237.81347656 1191.53344727 C-244.26428292 1209.38513348 -250.75183197 1227.22219643 -257.31347656 1245.03344727 C-264.84231674 1265.47082577 -272.27088196 1285.94360632 -279.67285156 1306.42724609 C-283.69575473 1317.55729682 -287.72511005 1328.68466875 -291.80175781 1339.79516602 C-292.14816818 1340.73953522 -292.49457855 1341.68390442 -292.85148621 1342.65689087 C-294.43387641 1346.96860053 -296.01921754 1351.27919375 -297.60913086 1355.58813477 C-301.01847006 1364.8498462 -304.25532879 1374.14931717 -307.31347656 1383.53344727 C-311.23295154 1382.32488926 -314.64382181 1380.93632112 -318.16503906 1378.83813477 C-319.08414063 1378.29543945 -320.00324219 1377.75274414 -320.95019531 1377.19360352 C-322.42939453 1376.30995117 -322.42939453 1376.30995117 -323.93847656 1375.40844727 C-326.09661117 1374.13379069 -328.25549612 1372.86040387 -330.41503906 1371.58813477 C-332.10741699 1370.58991699 -332.10741699 1370.58991699 -333.83398438 1369.5715332 C-339.04252399 1366.51158483 -344.29418271 1363.52713106 -349.5446167 1360.53985596 C-359.81257536 1354.69780874 -370.04083548 1348.79202587 -380.23535156 1342.82250977 C-387.89921426 1338.34178581 -395.60026492 1333.92837975 -403.31347656 1329.53344727 C-412.98828875 1324.02080891 -422.62629793 1318.4492016 -432.23535156 1312.82250977 C-440.48542079 1307.99905659 -448.78009557 1303.25599303 -457.08334351 1298.52502441 C-467.55052748 1292.55952173 -477.96742855 1286.51144872 -488.36425781 1280.42407227 C-492.33290075 1278.10118466 -496.31548045 1275.80541196 -500.31347656 1273.53344727 C-499.78748088 1266.52607963 -497.73762444 1260.58681265 -495.25488281 1254.04125977 C-494.83926086 1252.92375336 -494.42363892 1251.80624695 -493.99542236 1250.65487671 C-492.86528444 1247.61931132 -491.72789204 1244.58658244 -490.58771133 1241.55477905 C-488.64964256 1236.39102766 -486.73413538 1231.21881452 -484.81349754 1226.0485611 C-484.07605247 1224.06430553 -483.33757201 1222.08043758 -482.59895325 1220.09661865 C-478.01475121 1207.77554266 -473.55688971 1195.41035834 -469.12597656 1183.03344727 C-462.9345185 1165.76264582 -456.66099379 1148.52407747 -450.31939697 1131.30786133 C-444.33673509 1115.06525795 -438.40555933 1098.80458884 -432.50097656 1082.53344727 C-425.62078721 1063.57456179 -418.67699606 1044.64015434 -411.68847656 1025.72094727 C-404.70838628 1006.82349672 -397.8160343 987.89717826 -391.01452637 968.93475342 C-385.18974267 952.69830521 -379.28167291 936.49429421 -373.31939697 920.30786133 C-367.33673509 904.06525795 -361.40555933 887.80458884 -355.50097656 871.53344727 C-348.62078721 852.57456179 -341.67699606 833.64015434 -334.68847656 814.72094727 C-327.70838628 795.82349672 -320.8160343 776.89717826 -314.01452637 757.93475342 C-308.18974267 741.69830521 -302.28167291 725.49429421 -296.31939697 709.30786133 C-290.33673509 693.06525795 -284.40555933 676.80458884 -278.50097656 660.53344727 C-271.62078721 641.57456179 -264.67699606 622.64015434 -257.68847656 603.72094727 C-250.70838628 584.82349672 -243.8160343 565.89717826 -237.01452637 546.93475342 C-231.18974267 530.69830521 -225.28167291 514.49429421 -219.31939697 498.30786133 C-213.33673509 482.06525795 -207.40555933 465.80458884 -201.50097656 449.53344727 C-194.62078721 430.57456179 -187.67699606 411.64015434 -180.68847656 392.72094727 C-173.70801965 373.82250412 -166.81497031 354.89530383 -160.01351929 335.93173218 C-154.21576273 319.76929968 -148.33128281 303.6407407 -142.39382935 287.52914429 C-136.28580429 270.95074626 -130.24938595 254.34721297 -124.2447319 237.73111343 C-118.35054168 221.42074149 -112.45264456 205.11252472 -106.43847656 188.84594727 C-100.62395521 173.11827755 -94.86222901 157.37155216 -89.11434937 141.61943054 C-88.37789425 139.60120261 -87.64135164 137.58300663 -86.90478516 135.56481934 C-82.06318193 122.29860746 -77.22386077 109.0315641 -72.38717556 95.76355839 C-70.31800432 90.08751219 -68.24810875 84.41173042 -66.17778111 78.73610592 C-64.95375541 75.38038155 -63.73013963 72.02450908 -62.50759888 68.66824341 C-60.2851169 62.56740152 -58.05805038 56.46832897 -55.81835938 50.3737793 C-54.14323705 45.81512879 -52.49474513 41.2480277 -50.86328125 36.67358398 C-50.08398797 34.5212838 -49.30438099 32.36909717 -48.52441406 30.21704102 C-48.18624664 29.25097427 -47.84807922 28.28490753 -47.49966431 27.28956604 C-43.85370823 17.32576469 -37.65238571 8.54254356 -28.16507339 3.35981846 C-18.96529957 -0.43648295 -9.77750087 -0.03756567 0 0 Z " fill="#FEFEFE" transform="translate(1091.3134765625,514.466552734375)"/>
<path d="M0 0 C3.12067878 6.721462 2.31684442 14.19150523 0.04638672 21.12670898 C-0.68099463 23.09063759 -1.42934968 25.04688874 -2.1953125 26.99609375 C-2.60159378 28.07836243 -3.00787506 29.1606311 -3.4264679 30.2756958 C-4.7669368 33.83647442 -6.1337626 37.38653855 -7.5 40.9375 C-8.45168881 43.4552741 -9.40151489 45.97364637 -10.34790039 48.4934082 C-10.83470834 49.78893408 -11.3215402 51.08445098 -11.80839539 52.37995911 C-12.17416467 53.35342254 -12.17416467 53.35342254 -12.54732323 54.3465519 C-13.29867168 56.3432807 -14.05261577 58.33901239 -14.8072052 60.33451843 C-19.81854392 73.59859874 -24.62698059 86.93349736 -29.41152954 100.2807312 C-31.72623196 106.73765223 -34.05051002 113.19112863 -36.375 119.64453125 C-36.81423294 120.86419083 -37.25346588 122.0838504 -37.70600891 123.34046936 C-41.20010449 133.03407568 -44.73695476 142.71117184 -48.3125 152.375 C-54.35715059 168.71291673 -60.34172049 185.07247425 -66.3125 201.4375 C-66.80668029 202.79189084 -67.30086161 204.1462813 -67.79504395 205.50067139 C-69.80286759 211.00359125 -71.81054259 216.50656532 -73.81793213 222.00964355 C-77.05533294 230.88447396 -80.29481981 239.75853996 -83.53615761 248.63193321 C-85.71178802 254.58788865 -87.88715816 260.54393916 -90.0625 266.5 C-90.30136051 267.15398396 -90.54022102 267.80796791 -90.78631973 268.48176956 C-96.04396282 282.87721744 -101.29693796 297.27431431 -106.52734375 311.6796875 C-107.14836723 313.38999649 -107.14836723 313.38999649 -107.78193665 315.13485718 C-108.61011371 317.4157692 -109.43828453 319.69668349 -110.26644897 321.9776001 C-110.67352081 323.09874207 -111.08059265 324.21988403 -111.5 325.375 C-111.90650787 326.49469177 -112.31301575 327.61438354 -112.73184204 328.76800537 C-119.4470598 347.25879846 -126.24311572 365.71898006 -133.06051636 384.17230225 C-139.98231307 402.91705766 -146.79937429 421.69760873 -153.5625 440.5 C-160.08972654 458.64578576 -166.6478983 476.77908896 -173.3125 494.875 C-173.67053711 495.84717468 -174.02857422 496.81934937 -174.39746094 497.82098389 C-174.75743164 498.7983551 -175.11740234 499.77572632 -175.48828125 500.78271484 C-176.22659424 502.78742321 -176.96487514 504.79214339 -177.703125 506.796875 C-178.07409302 507.80420685 -178.44506104 508.8115387 -178.82727051 509.84939575 C-183.76484757 523.26514303 -188.6624147 536.69552663 -193.5625 550.125 C-194.05052248 551.46238362 -194.53854943 552.79976562 -195.02658081 554.137146 C-196.99598097 559.53409747 -198.9652361 564.93110183 -200.93418884 570.32821655 C-205.52996004 582.92571842 -210.12853628 595.52219534 -214.72762489 608.1184864 C-216.39927876 612.69694369 -218.07077475 617.27545859 -219.7421875 621.85400391 C-224.32634177 634.41139731 -228.91116142 646.96854696 -233.49768829 659.52507401 C-235.44410212 664.85388519 -237.39026544 670.18278786 -239.33637238 675.51171112 C-239.82028097 676.83675377 -240.30420328 678.16179142 -240.78813934 679.48682404 C-246.04510753 693.8806123 -251.29754897 708.27599711 -256.52734375 722.6796875 C-257.14836723 724.38999649 -257.14836723 724.38999649 -257.78193665 726.13485718 C-258.61011371 728.4157692 -259.43828453 730.69668349 -260.26644897 732.9776001 C-260.67352081 734.09874207 -261.08059265 735.21988403 -261.5 736.375 C-261.90650787 737.49469177 -262.31301575 738.61438354 -262.73184204 739.76800537 C-269.4470598 758.25879846 -276.24311572 776.71898006 -283.06051636 795.17230225 C-289.98231307 813.91705766 -296.79937429 832.69760873 -303.5625 851.5 C-310.08972654 869.64578576 -316.6478983 887.77908896 -323.3125 905.875 C-323.67053711 906.84717468 -324.02857422 907.81934937 -324.39746094 908.82098389 C-324.75743164 909.7983551 -325.11740234 910.77572632 -325.48828125 911.78271484 C-326.22659424 913.78742321 -326.96487514 915.79214339 -327.703125 917.796875 C-328.07409302 918.80420685 -328.44506104 919.8115387 -328.82727051 920.84939575 C-333.7648474 934.26514258 -338.66249551 947.69549749 -343.5625 961.125 C-344.04817487 962.45600463 -344.53385196 963.78700846 -345.01953125 965.11801147 C-346.98068149 970.49264862 -348.94170772 975.86733099 -350.90246582 981.24211121 C-354.39650826 990.81969428 -357.89292957 1000.39640668 -361.390625 1009.97265625 C-366.62597807 1024.30654308 -371.85861686 1038.64141837 -377.08935547 1052.97698975 C-378.32745504 1056.36971407 -379.56600758 1059.76227268 -380.8046875 1063.15478516 C-382.64288474 1068.18970631 -384.47929297 1073.22527632 -386.3142395 1078.26138306 C-386.95938574 1080.03127021 -387.60507928 1081.800958 -388.25143433 1083.57040405 C-391.66457493 1092.91548771 -395.00611936 1102.28103276 -398.2578125 1111.68359375 C-402.47194415 1123.86069214 -406.8764502 1135.96478612 -411.3125 1148.0625 C-412.1332947 1150.30498546 -412.9540127 1152.547499 -413.7746582 1154.79003906 C-421.92382203 1177.04547761 -430.13937643 1199.27643249 -438.375 1221.5 C-442.00760345 1220.13527177 -445.28461407 1218.5019884 -448.63671875 1216.55078125 C-449.65958984 1215.9578125 -450.68246094 1215.36484375 -451.73632812 1214.75390625 C-453.3827832 1213.79291016 -453.3827832 1213.79291016 -455.0625 1212.8125 C-456.22440348 1212.1376662 -457.38651671 1211.46319344 -458.54882812 1210.7890625 C-460.9622404 1209.38892911 -463.3747446 1207.98724981 -465.78662109 1206.58447266 C-471.30767051 1203.37508743 -476.84198832 1200.18870098 -482.375 1197 C-484.54434422 1195.74882514 -486.71361484 1194.49752268 -488.8828125 1193.24609375 C-489.95563477 1192.62718262 -491.02845703 1192.00827148 -492.13378906 1191.37060547 C-495.35801005 1189.50980544 -498.58144874 1187.64765709 -501.8046875 1185.78515625 C-513.61129484 1178.96497363 -525.43527 1172.1767674 -537.27972412 1165.42263794 C-546.31829428 1160.26664555 -555.31777138 1155.04679327 -564.29736328 1149.78881836 C-572.54722537 1144.9653708 -580.84177715 1140.22245566 -589.14486694 1135.49157715 C-599.61205092 1129.52607447 -610.02895199 1123.47800146 -620.42578125 1117.390625 C-624.39442419 1115.06773739 -628.37700388 1112.77196469 -632.375 1110.5 C-625.22118274 1090.12958298 -617.85493602 1069.84460538 -610.36503601 1049.59564209 C-605.71899617 1037.02952194 -601.10974646 1024.4498407 -596.49386597 1011.87261963 C-595.36723229 1008.80301687 -594.24027242 1005.73353402 -593.11328125 1002.6640625 C-592.77948456 1001.75418579 -592.44568787 1000.84430908 -592.10177612 999.90686035 C-590.72883859 996.16780016 -589.35184475 992.43090291 -587.94335938 988.70507812 C-585.74121103 982.84668534 -583.65223316 976.94698043 -581.54296875 971.0546875 C-580.82626754 969.05514157 -580.10929729 967.05569223 -579.39231586 965.05624676 C-578.89122399 963.65883295 -578.39019174 962.26139775 -577.88921642 960.86394215 C-562.96960512 919.24668015 -562.96960512 919.24668015 -556.375 901.4375 C-555.98556213 900.38553436 -555.98556213 900.38553436 -555.58825684 899.31231689 C-555.32420044 898.59904236 -555.06014404 897.88576782 -554.78808594 897.15087891 C-554.23496797 895.65659702 -553.68190952 894.16229309 -553.12890625 892.66796875 C-552.70549454 891.52385529 -552.70549454 891.52385529 -552.27352905 890.35662842 C-547.58305835 877.66795438 -542.95166112 864.95750171 -538.3125 852.25 C-538.06722187 851.57824738 -537.82194374 850.90649475 -537.56923294 850.21438599 C-529.66760932 828.57347948 -521.81206291 806.91620165 -513.97949219 785.25021362 C-508.53167253 770.18314633 -503.05284725 755.12870608 -497.49487305 740.10192871 C-491.77968799 724.64815668 -486.15789442 709.16090742 -480.53689575 693.67266846 C-473.99676471 675.65692814 -467.39126982 657.66617726 -460.75 639.6875 C-454.17341405 621.88124437 -447.66154937 604.05385873 -441.25 586.1875 C-435.2325282 569.42088335 -429.17827266 552.66853929 -423.0625 535.9375 C-422.47708939 534.33583481 -422.47708939 534.33583481 -421.87985229 532.70181274 C-417.31955734 520.23022048 -412.73943887 507.76603297 -408.140625 495.30859375 C-407.70235886 494.12135712 -407.26409271 492.93412048 -406.81254578 491.71090698 C-406.1535302 489.92573166 -406.1535302 489.92573166 -405.48120117 488.10449219 C-404.59161186 485.69466967 -403.70204482 483.28483894 -402.8125 480.875 C-402.37193268 479.68152954 -401.93136536 478.48805908 -401.47744751 477.25842285 C-395.32843533 460.59407424 -389.25005993 443.9060413 -383.25 427.1875 C-377.23242666 410.42091936 -371.17827292 393.66854002 -365.0625 376.9375 C-364.47708939 375.33583481 -364.47708939 375.33583481 -363.87985229 373.70181274 C-359.31955734 361.23022048 -354.73943887 348.76603297 -350.140625 336.30859375 C-349.70235886 335.12135712 -349.26409271 333.93412048 -348.81254578 332.71090698 C-348.37320206 331.5207901 -347.93385834 330.33067322 -347.48120117 329.10449219 C-346.59161186 326.69466967 -345.70204482 324.28483894 -344.8125 321.875 C-344.37193268 320.68152954 -343.93136536 319.48805908 -343.47744751 318.25842285 C-337.32843533 301.59407424 -331.25005993 284.9060413 -325.25 268.1875 C-319.23242666 251.42091936 -313.17827292 234.66854002 -307.0625 217.9375 C-306.47708939 216.33583481 -306.47708939 216.33583481 -305.87985229 214.70181274 C-301.31955734 202.23022048 -296.73943887 189.76603297 -292.140625 177.30859375 C-291.48322578 175.5277388 -291.48322578 175.5277388 -290.81254578 173.71090698 C-290.37320206 172.5207901 -289.93385834 171.33067322 -289.48120117 170.10449219 C-288.59161186 167.69466967 -287.70204482 165.28483894 -286.8125 162.875 C-286.15164902 161.08479431 -286.15164902 161.08479431 -285.47744751 159.25842285 C-278.95459336 141.58093053 -272.5204691 123.87352141 -266.15579224 106.13851929 C-260.63950464 90.76842296 -255.08634325 75.41231698 -249.48590088 60.07266235 C-248.67918067 57.86303623 -247.8729646 55.65322596 -247.06732178 53.44320679 C-244.51956714 46.45605155 -241.95575671 39.47503203 -239.375 32.5 C-239.01014496 31.51105743 -238.64528992 30.52211487 -238.26937866 29.50320435 C-237.19845173 26.60878724 -236.11835864 23.71796746 -235.03515625 20.828125 C-234.71654633 19.96507248 -234.3979364 19.10201996 -234.06967163 18.21281433 C-230.3043541 8.24381209 -224.96650346 1.4379035 -215.375 -3.5 C-209.71457451 -5.91784 -205.24862216 -6.94070213 -199.12631226 -6.90545654 C-197.94022084 -6.91648513 -197.94022084 -6.91648513 -196.73016798 -6.92773652 C-194.10172891 -6.94859627 -191.47373012 -6.94844284 -188.84521484 -6.94824219 C-186.9523088 -6.95890412 -185.05940964 -6.97085488 -183.16651917 -6.98399353 C-178.04071466 -7.01579438 -172.91501073 -7.02922601 -167.78912306 -7.03904247 C-162.42004734 -7.0521711 -157.05105711 -7.08130794 -151.68203735 -7.10845947 C-142.66890187 -7.15172688 -133.65578288 -7.18385822 -124.64257812 -7.20849609 C-113.07680651 -7.2401729 -101.51119281 -7.29039035 -89.94551659 -7.34641647 C-79.99529981 -7.39444904 -70.04505124 -7.43375394 -60.09479189 -7.47177219 C-56.89908069 -7.48437246 -53.70337662 -7.49821063 -50.50767136 -7.51222992 C-45.48604729 -7.53372145 -40.46443347 -7.54976099 -35.44277763 -7.56158638 C-33.60051979 -7.56669106 -31.75826579 -7.57352063 -29.91602135 -7.58220482 C-27.40057374 -7.59373454 -24.8851902 -7.59892514 -22.36972046 -7.60247803 C-21.64170144 -7.60723546 -20.91368243 -7.61199289 -20.16360223 -7.61689448 C-11.50962658 -7.61233697 -6.1110943 -6.43273084 0 0 Z " fill="#FEFEFE" transform="translate(952.375,521.5)"/>
<path d="M0 0 C5.52870027 4.75725372 7.82404402 9.58605073 10.20703125 16.3046875 C10.53778656 17.21232849 10.86854187 18.11996948 11.20932007 19.05511475 C12.3151473 22.09608386 13.40738714 25.14176054 14.5 28.1875 C15.29175834 30.3719325 16.08450817 32.55600585 16.87817383 34.73974609 C18.58898254 39.45052922 20.29470263 44.16311326 21.99707031 48.87695312 C24.70787597 56.37721963 27.44082937 63.86932026 30.1796875 71.359375 C30.64806744 72.64047196 31.11644614 73.92156937 31.58482361 75.20266724 C32.29514236 77.14544627 33.00548325 79.0882172 33.71589565 81.03096199 C36.40156683 88.37605121 39.08164211 95.72318054 41.76171875 103.0703125 C42.7517588 105.7841912 43.74183799 108.49805563 44.73193359 111.21191406 C44.97676578 111.88300516 45.22159796 112.55409626 45.4738493 113.24552345 C48.1338797 120.53645425 50.79533322 127.82686537 53.45703125 135.1171875 C53.69363653 135.76524479 53.93024181 136.41330208 54.17401695 137.08099747 C55.36767102 140.35037153 56.56134803 143.61973722 57.7550354 146.88909912 C59.90963252 152.79030804 62.06402548 158.6915915 64.21843529 164.5928688 C65.41644863 167.87441554 66.61447497 171.15595753 67.8125 174.4375 C68.29166673 175.74999998 68.7708334 177.06249998 69.25 178.375 C69.4871875 179.0246875 69.724375 179.674375 69.96875 180.34375 C93.6875 245.3125 117.40625 310.28125 233.125 627.25 C233.36218844 627.89969002 233.59937689 628.54938004 233.84375286 629.21875763 C234.32291017 630.53123213 234.8020673 631.8437067 235.28122425 633.15618134 C236.47928264 636.43782196 237.67734413 639.71946146 238.87541199 643.00109863 C241.02997291 648.90268288 243.18451242 654.80427494 245.3389349 660.70590973 C246.53453491 663.98102879 247.73015325 667.25614116 248.92578125 670.53125 C249.16260431 671.17996567 249.39942738 671.82868134 249.6434269 672.49705505 C253.03134741 681.77727538 256.42031081 691.05711435 259.8098793 700.33673286 C261.99847787 706.32857307 264.18678015 712.32052148 266.375 718.3125 C266.61180984 718.96093494 266.84861969 719.60936989 267.09260559 720.27745438 C272.5617035 735.25328453 278.02496108 750.23121315 283.47265625 765.21484375 C283.70590292 765.85637012 283.93914959 766.4978965 284.17946434 767.15886307 C286.61526652 773.85871407 289.04984239 780.55900975 291.4831543 787.25976562 C291.88034164 788.35309708 292.27752899 789.44642853 292.68675232 790.57289124 C293.41999327 792.59134522 294.15290128 794.60992021 294.88539124 796.62864685 C295.21228439 797.52841751 295.53917755 798.42818817 295.87597656 799.35522461 C296.18140884 800.19685654 296.48684113 801.03848846 296.80152893 801.90562439 C297.6514375 804.21453071 298.5330517 806.5093109 299.41870117 808.8046875 C300.6875 812.3125 300.6875 812.3125 300.84765625 815.03515625 C298.98702159 818.68751317 295.64827112 819.97750632 292.125 821.75 C290.46329333 822.62858428 288.80321728 823.51025752 287.14453125 824.39453125 C286.25588379 824.86455566 285.36723633 825.33458008 284.45166016 825.81884766 C279.66806458 828.40372998 274.99646956 831.17743518 270.3125 833.9375 C261.51110694 839.09823003 252.67606676 844.19698716 243.8125 849.25 C225.39372551 859.75401682 207.02877722 870.34890107 188.72119141 881.0456543 C175.94005262 888.5088254 163.10982749 895.8869911 150.28369141 903.27246094 C148.01240014 904.58043937 145.74132091 905.88878607 143.47045898 907.19750977 C141.26625579 908.4674641 139.06135678 909.73621161 136.85571289 911.00366211 C132.00420626 913.79656957 127.16936141 916.6086559 122.3828125 919.51171875 C121.19473999 920.22847778 121.19473999 920.22847778 119.98266602 920.9597168 C118.54018258 921.83372453 117.10274958 922.71614765 115.67163086 923.60864258 C114.05447437 924.58705679 112.37506973 925.46126684 110.6875 926.3125 C107.6875 925.3125 107.6875 925.3125 106.6083374 923.22445679 C106.27577942 922.29751007 105.94322144 921.37056335 105.60058594 920.41552734 C105.21366074 919.35514252 104.82673553 918.29475769 104.42808533 917.20223999 C104.01353592 916.02948517 103.59898651 914.85673035 103.171875 913.6484375 C102.72836197 912.42339508 102.28484894 911.19835266 101.82789612 909.93618774 C100.86106298 907.26566117 99.90157735 904.59264838 98.94766235 901.91748047 C97.42328269 897.64270265 95.88323944 893.37367676 94.34057617 889.10546875 C92.46037467 883.90037122 90.58382394 878.69398687 88.71190548 873.48590469 C85.41943873 864.32707651 82.09705435 855.17950408 78.75390625 846.0390625 C78.51478012 845.38520065 78.27565399 844.73133881 78.02928162 844.05766296 C76.8309046 840.78125269 75.63202259 837.50502749 74.43292236 834.22888184 C72.03348062 827.67221691 69.63965682 821.11350029 67.24609375 814.5546875 C67.0118721 813.91294083 66.77765045 813.27119415 66.53633118 812.61000061 C63.19480383 803.4537696 59.86165328 794.29451611 56.53515625 785.1328125 C56.12095932 783.992108 55.70676239 782.8514035 55.28001404 781.6761322 C54.45165373 779.39471669 53.62329981 777.11329886 52.79495239 774.83187866 C52.18488846 773.15166122 52.18488846 773.15166122 51.5625 771.4375 C51.15732147 770.32146393 50.75214294 769.20542786 50.33468628 768.05557251 C43.52744696 749.31129771 36.6390682 730.59766285 29.72943115 711.89093018 C23.2615617 694.37377135 16.88909427 676.82484112 10.58868408 659.24682617 C4.63049484 642.63003606 -1.44117817 626.05733763 -7.5625 609.5 C-14.96730323 589.47005602 -22.27338796 569.40720415 -29.5 549.3125 C-36.41825822 530.07604701 -43.39014476 510.86090707 -50.46066284 491.67977905 C-56.72432094 474.68420486 -62.90659898 457.65984978 -69.0625 440.625 C-74.79034998 424.77562438 -80.52926901 408.9313218 -86.375 393.125 C-92.17721841 377.43560412 -97.90946989 361.7211775 -103.625 346 C-104.04202179 344.85334869 -104.45904358 343.70669739 -104.88870239 342.52529907 C-108.23275442 333.32901133 -108.23275442 333.32901133 -109.73959351 329.16047668 C-111.76383463 323.56090409 -113.80855457 317.9703545 -115.89086914 312.39208984 C-116.30648605 311.26736771 -116.72210297 310.14264557 -117.15031433 308.98384094 C-117.9364538 306.85682151 -118.73051565 304.73270584 -119.53413391 302.61222839 C-126.0320766 284.92559116 -120.28352959 270.2498844 -113.9609375 253.33203125 C-113.54969635 252.22196213 -113.1384552 251.11189301 -112.7147522 249.96818542 C-111.83356771 247.58999321 -110.95091135 245.21234592 -110.06689453 242.83520508 C-107.68979488 236.44143811 -105.3249665 230.04314034 -102.9609375 223.64453125 C-102.60081699 222.67024359 -102.60081699 222.67024359 -102.23342133 221.67627335 C-97.51793714 208.91520568 -92.89948776 196.1202708 -88.3125 183.3125 C-81.47542001 164.23163152 -74.50198938 145.20374234 -67.47427368 126.19232178 C-61.61544989 110.33859248 -55.82087611 94.46406561 -50.11724854 78.55383301 C-44.29738644 62.32053505 -38.45727196 46.09468866 -32.48843384 29.91546631 C-31.79639457 28.0367898 -31.10701383 26.15713151 -30.42050171 24.27642822 C-29.47810695 21.69700572 -28.5256535 19.1215258 -27.5703125 16.546875 C-27.29819443 15.79620758 -27.02607635 15.04554016 -26.74571228 14.27212524 C-24.5311639 8.36114425 -21.937083 2.65209615 -16.3125 -0.6875 C-10.66299776 -2.37996692 -5.30675746 -2.70344248 0 0 Z " fill="#12A9FE" transform="translate(1335.3125,696.6875)"/>
<path d="M0 0 C7.28326902 3.44996954 9.90131567 11.6867842 12.42616272 18.73742676 C12.84627121 19.9455603 13.2663797 21.15369385 13.69921875 22.3984375 C14.15708558 23.68863948 14.6160098 24.97846664 15.07591248 26.26794434 C16.05303483 29.01369041 17.02348619 31.7616632 17.98858643 34.51165771 C19.51797185 38.86876525 21.06272346 43.22031843 22.61083984 47.57080078 C23.13446372 49.04257086 23.65808432 50.5143421 24.18170166 51.9861145 C24.57073544 53.07945791 24.57073544 53.07945791 24.96762848 54.19488907 C25.75534619 56.41029974 26.54164025 58.62621112 27.32757568 60.84225464 C31.77160516 73.3667507 36.33010372 85.84718785 40.9375 98.3125 C47.46334723 115.99666633 53.90713941 133.70934738 60.3125 151.4375 C66.76311022 169.28925688 73.25093178 187.12622232 79.8125 204.9375 C86.3508863 222.68709911 92.81924436 240.46112756 99.25 258.25 C105.91217642 276.67595515 112.5880227 295.09667698 119.3125 313.5 C119.88952667 315.07930801 119.88952667 315.07930801 120.47821045 316.69052124 C124.97747754 329.00018959 129.49618588 341.30257219 134.03515625 353.59765625 C134.69352982 355.38113213 134.69352982 355.38113213 135.36520386 357.20063782 C135.80542877 358.3931163 136.24565369 359.58559479 136.69921875 360.81420898 C137.5911568 363.23030194 138.48308387 365.64639895 139.375 368.0625 C139.81650391 369.25835724 140.25800781 370.45421448 140.71289062 371.68630981 C147.19367277 389.2473732 153.58159369 406.83952598 159.89593506 424.46105957 C164.33105853 436.83425749 168.80891203 449.19076908 173.35546875 461.5234375 C173.70833639 462.4806155 173.70833639 462.4806155 174.06833267 463.45713043 C176.58895029 470.29244415 179.11554579 477.12553166 181.64648438 483.95703125 C184.04891 490.44551506 186.43522014 496.93976601 188.8125 503.4375 C189.18167542 504.44139771 189.55085083 505.44529541 189.93121338 506.47961426 C190.96028991 509.28757859 191.97648133 512.09983433 192.98828125 514.9140625 C193.29291794 515.74070404 193.59755463 516.56734558 193.91142273 517.41903687 C195.9274172 523.09274841 195.9274172 523.09274841 194.8125 526.4375 C192.72485352 527.91699219 192.72485352 527.91699219 189.94140625 529.484375 C188.90564453 530.07412109 187.86988281 530.66386719 186.80273438 531.27148438 C185.67158203 531.90376953 184.54042969 532.53605469 183.375 533.1875 C182.19411359 533.85645566 181.01378302 534.5263934 179.83398438 535.19726562 C177.37991044 536.59171893 174.92348596 537.98189313 172.46533203 539.36914062 C166.89170501 542.51917162 161.35392826 545.73128813 155.8125 548.9375 C153.64600437 550.18779642 151.47933705 551.43779538 149.3125 552.6875 C147.70375 553.615625 147.70375 553.615625 146.0625 554.5625 C58.3125 605.1875 58.3125 605.1875 55.05810547 607.06494141 C52.9059787 608.30661527 50.75395927 609.54847522 48.60205078 610.79052734 C43.56219023 613.69916823 38.52132508 616.60601898 33.47650146 619.50604248 C31.69500422 620.53025665 29.91385678 621.55507651 28.1328125 622.58007812 C25.90173375 623.86383375 23.67000427 625.14645939 21.4375 626.42773438 C16.97036352 628.99946371 12.53634605 631.586975 8.1953125 634.3671875 C4.8125 636.4375 4.8125 636.4375 2.8125 636.4375 C2.59604324 635.83744644 2.37958649 635.23739288 2.15657043 634.61915588 C-0.68438053 626.74505354 -3.52857769 618.87212595 -6.375 611 C-6.72702925 610.02639212 -6.72702925 610.02639212 -7.0861702 609.03311539 C-14.19641756 589.37120506 -21.37539501 569.73604256 -28.625 550.125 C-36.14229146 529.78818819 -43.54636182 509.41311951 -50.88043213 489.00976562 C-58.1282693 468.84731027 -65.48232718 448.72662242 -72.91732788 428.63226318 C-78.02287035 414.82672612 -83.08216374 401.00626929 -88.0546875 387.15234375 C-88.42359982 386.12476802 -88.42359982 386.12476802 -88.7999649 385.07643318 C-91.26817129 378.19962077 -93.73085409 371.32086972 -96.18258286 364.43816471 C-100.71239503 351.7256064 -105.28429748 339.04067427 -110.1953125 326.46875 C-110.95738848 324.49988101 -111.71935507 322.53096967 -112.48120117 320.56201172 C-113.84415372 317.04402607 -115.24350697 313.54421982 -116.66918945 310.05126953 C-119.70860167 302.38299302 -121.7601947 295.38622076 -121.84765625 287.0859375 C-121.8565538 286.40786041 -121.86545135 285.72978333 -121.87461853 285.03115845 C-121.51362392 273.82818346 -116.33537067 262.80947396 -112.50390625 252.42578125 C-111.81701819 250.55072719 -111.13013197 248.67567246 -110.44331741 246.80059147 C-109.71591648 244.81657724 -108.98691044 242.83315983 -108.25741577 240.84991455 C-105.92774245 234.51586582 -103.60835276 228.17804764 -101.2878437 221.84063721 C-100.48903676 219.65936513 -99.68983582 217.47823768 -98.89060974 215.29711914 C-94.11719793 202.26620547 -89.39155747 189.21832927 -84.67672729 176.16610718 C-77.54269731 156.41677737 -70.35979992 136.68663369 -63.09893799 116.98358154 C-57.44841966 101.64763701 -51.86795946 86.28710846 -46.31815434 70.91450882 C-33.05895477 34.18952826 -33.05895477 34.18952826 -27.625 19.6875 C-27.21451416 18.57729492 -26.80402832 17.46708984 -26.38110352 16.32324219 C-21.23843511 2.75252677 -21.23843511 2.75252677 -14.10546875 -0.8671875 C-9.06643228 -2.69396651 -4.76967904 -2.07104484 0 0 Z " fill="#12A9FE" transform="translate(1171.1875,1142.5625)"/>
<path d="M0 0 C0 0.99 0 1.98 0 3 C-12.77316706 10.3851896 -25.55441776 17.75505345 -38.37194824 25.06298828 C-48.58931164 30.88847198 -58.77282859 36.76815001 -68.92236328 42.71118164 C-77.17923642 47.53872836 -85.48094031 52.28548671 -93.79101562 57.02050781 C-101.88744133 61.63502804 -109.95806509 66.29095255 -118 71 C-127.22186528 76.39996924 -136.48629412 81.72191879 -145.77288818 87.00942993 C-155.2309263 92.39527081 -164.64574521 97.85167595 -174.01171875 103.39648438 C-179.89267439 106.855624 -185.85594755 110.03267361 -192 113 C-190.69204145 109.07612434 -189.2626032 108.7265064 -185.69140625 106.734375 C-184.56524902 106.09943115 -183.4390918 105.4644873 -182.27880859 104.81030273 C-181.04005672 104.12350331 -179.8012867 103.4367366 -178.5625 102.75 C-177.28668728 102.03367412 -176.01146657 101.31629291 -174.73681641 100.59790039 C-172.1093667 99.11756612 -169.47988874 97.64093264 -166.84912109 96.16650391 C-161.16255855 92.97305523 -155.51904247 89.70533167 -149.875 86.4375 C-147.72926223 85.19775126 -145.58342873 83.95816818 -143.4375 82.71875 C-141.84808594 81.80029297 -141.84808594 81.80029297 -140.2265625 80.86328125 C-136.96475993 78.9796495 -133.70138156 77.09877679 -130.4375 75.21875 C-119.98286968 69.19560214 -109.53957993 63.15466632 -99.125 57.0625 C-89.30861542 51.32246579 -79.44534506 45.66676663 -69.56738281 40.03369141 C-58.45641173 33.69669442 -47.37633933 27.30675614 -36.30126953 20.90722656 C-30.47297454 17.54007374 -24.6426826 14.17638302 -18.8125 10.8125 C-17.73145996 10.18851318 -16.65041992 9.56452637 -15.53662109 8.92163086 C-10.36397856 5.93672004 -5.18839214 2.95745691 0 0 Z " fill="#19ACFD" transform="translate(1679,1630)"/>
</svg>
