<?xml version="1.0" encoding="UTF-8"?>
<svg version="1.1" xmlns="http://www.w3.org/2000/svg" width="2500" height="2500">
<path d="M0 0 C1.04365534 -0.00282738 2.08731068 -0.00565475 3.16259193 -0.00856781 C8.71215678 -0.02343867 14.26169656 -0.03273799 19.8112793 -0.03710938 C24.27327891 -0.04144227 28.73507949 -0.05514788 33.19702148 -0.078125 C131.48742133 -0.57350594 229.33293928 11.39798947 524.53222656 101.38464355 C526.37825265 102.19597057 528.22600027 103.00325177 530.07421875 103.80957031 C549.15226133 112.15364969 567.90435804 121.11631164 586.58276367 130.31188965 C588.2658405 131.13982011 589.9502489 131.96504217 591.63476562 132.79003906 C604.45076536 139.07131513 617.04954822 145.68832251 629.52880859 152.61425781 C632.46563595 154.24254819 635.40848006 155.85961018 638.3515625 157.4765625 C678.47179497 179.62234223 717.08076781 204.62042695 754.39453125 231.203125 C755.16055664 231.74775391 755.92658203 232.29238281 756.71582031 232.85351562 C767.78865178 240.74062752 778.6459276 248.88077215 789.39453125 257.203125 C790.15862305 257.79303223 790.92271484 258.38293945 791.70996094 258.99072266 C803.53552944 268.12244521 815.17029184 277.43451578 826.55322266 287.11352539 C830.02751174 290.06352018 833.53942492 292.96006289 837.08203125 295.828125 C841.53356933 299.45146995 845.8183558 303.22276372 850.0625 307.0859375 C852.15277014 308.98363669 854.2643924 310.85045915 856.39453125 312.703125 C860.2498025 316.06293971 864.05232976 319.47895517 867.84765625 322.90625 C869.45817765 324.35868341 871.07230982 325.80713176 872.69140625 327.25 C887.31546377 340.30368893 901.318072 353.96460267 915.16137695 367.83959961 C917.03948175 369.72131268 918.9188655 371.6016054 920.80102539 373.47924805 C923.56536337 376.23738528 926.32619168 378.99898743 929.0859375 381.76171875 C929.91831436 382.59207138 930.75069122 383.42242401 931.60829163 384.27793884 C935.8754678 388.56216945 939.98674799 392.92019922 943.93101501 397.50379944 C945.60907311 399.45223496 947.34472066 401.33665823 949.11328125 403.203125 C950.04720703 404.193125 950.04720703 404.193125 951 405.203125 C951.62519531 405.863125 952.25039062 406.523125 952.89453125 407.203125 C957.85108645 412.43561214 962.6876571 417.74454562 967.39453125 423.203125 C967.8829248 423.7693457 968.37131836 424.33556641 968.87451172 424.91894531 C970.27978858 426.55298817 971.68157412 428.18995012 973.08203125 429.828125 C974.12364024 431.04562226 975.16530866 432.26306868 976.20703125 433.48046875 C976.73296875 434.09519043 977.25890625 434.70991211 977.80078125 435.34326172 C979.37076813 437.17539408 980.94450556 439.00422977 982.51953125 440.83203125 C988.58282554 447.87299686 994.56207321 454.96854015 1000.39453125 462.203125 C1000.85327637 462.77144043 1001.31202148 463.33975586 1001.78466797 463.92529297 C1048.76103118 522.17722242 1090.47977186 584.55548579 1126.39453125 650.203125 C1126.97589844 651.26289551 1127.55726563 652.32266602 1128.15625 653.41455078 C1171.91782562 733.4265639 1206.65770667 818.22698846 1274.64453125 1139.828125 C1274.7603656 1141.12319473 1274.7603656 1141.12319473 1274.87854004 1142.44442749 C1275.45834255 1149.0258179 1275.94387014 1155.61171797 1276.39453125 1162.203125 C1276.52533585 1164.07352951 1276.52533585 1164.07352951 1276.65878296 1165.98171997 C1278.41736674 1191.59290949 1278.73960207 1217.16152923 1278.71020508 1242.8269043 C1278.70559637 1247.17954914 1278.7124353 1251.53191294 1278.73071289 1255.88452148 C1279.13774358 1353.86178965 1267.12530784 1451.45074565 1177.2130127 1746.34082031 C1176.40168568 1748.1868464 1175.59440448 1750.03459402 1174.78808594 1751.8828125 C1166.44400656 1770.96085508 1157.48134461 1789.71295179 1148.2857666 1808.39135742 C1147.45783614 1810.07443425 1146.63261408 1811.75884265 1145.80761719 1813.44335938 C1139.52634112 1826.25935911 1132.90933374 1838.85814197 1125.98339844 1851.33740234 C1124.35510806 1854.2742297 1122.73804607 1857.21707381 1121.12109375 1860.16015625 C1098.97531402 1900.28038872 1073.9772293 1938.88936156 1047.39453125 1976.203125 C1046.84990234 1976.96915039 1046.30527344 1977.73517578 1045.74414062 1978.52441406 C1037.85702873 1989.59724553 1029.7168841 2000.45452135 1021.39453125 2011.203125 C1020.50967041 2012.3492627 1020.50967041 2012.3492627 1019.60693359 2013.51855469 C1010.47521104 2025.34412319 1001.16314047 2036.97888559 991.48413086 2048.36181641 C988.53413607 2051.83610549 985.63759336 2055.34801867 982.76953125 2058.890625 C979.1461863 2063.34216308 975.37489253 2067.62694955 971.51171875 2071.87109375 C969.61401956 2073.96136389 967.7471971 2076.07298615 965.89453125 2078.203125 C962.53471654 2082.05839625 959.11870108 2085.86092351 955.69140625 2089.65625 C954.23897284 2091.2667714 952.79052449 2092.88090357 951.34765625 2094.5 C938.29396732 2109.12405752 924.63305358 2123.12666575 910.75805664 2136.9699707 C908.87634357 2138.8480755 906.99605085 2140.72745925 905.1184082 2142.60961914 C902.36027097 2145.37395712 899.59866882 2148.13478543 896.8359375 2150.89453125 C896.00558487 2151.72690811 895.17523224 2152.55928497 894.31971741 2153.41688538 C890.0354868 2157.68406155 885.67745703 2161.79534174 881.09385681 2165.73960876 C879.14542129 2167.41766686 877.26099802 2169.15331441 875.39453125 2170.921875 C874.73453125 2171.54449219 874.07453125 2172.16710938 873.39453125 2172.80859375 C872.73453125 2173.43378906 872.07453125 2174.05898437 871.39453125 2174.703125 C866.16204411 2179.6596802 860.85311063 2184.49625085 855.39453125 2189.203125 C854.82831055 2189.69151855 854.26208984 2190.17991211 853.67871094 2190.68310547 C852.04466808 2192.08838233 850.40770613 2193.49016787 848.76953125 2194.890625 C847.55203399 2195.93223399 846.33458757 2196.97390241 845.1171875 2198.015625 C844.19510498 2198.80453125 844.19510498 2198.80453125 843.25439453 2199.609375 C841.42226217 2201.17936188 839.59342648 2202.75309931 837.765625 2204.328125 C830.72465939 2210.39141929 823.6291161 2216.37066696 816.39453125 2222.203125 C815.82621582 2222.66187012 815.25790039 2223.12061523 814.67236328 2223.59326172 C756.42043383 2270.56962493 694.04217046 2312.28836561 628.39453125 2348.203125 C627.33476074 2348.78449219 626.27499023 2349.36585938 625.18310547 2349.96484375 C545.17109235 2393.72641937 460.37066779 2428.46630042 138.76953125 2496.453125 C137.47446152 2496.56895935 137.47446152 2496.56895935 136.15322876 2496.68713379 C129.57183835 2497.2669363 122.98593828 2497.75246389 116.39453125 2498.203125 C114.52412674 2498.3339296 114.52412674 2498.3339296 112.61593628 2498.46737671 C87.00474676 2500.22596049 61.43612702 2500.54819582 35.77075195 2500.51879883 C31.41810711 2500.51419012 27.06574331 2500.52102905 22.71313477 2500.53930664 C-75.2641334 2500.94633733 -172.8530894 2488.93390159 -467.74316406 2399.02160645 C-469.58919015 2398.21027943 -471.43693777 2397.40299823 -473.28515625 2396.59667969 C-492.36319883 2388.25260031 -511.11529554 2379.28993836 -529.79370117 2370.09436035 C-531.476778 2369.26642989 -533.1611864 2368.44120783 -534.84570312 2367.61621094 C-547.66170286 2361.33493487 -560.26048572 2354.71792749 -572.73974609 2347.79199219 C-575.67657345 2346.16370181 -578.61941756 2344.54663982 -581.5625 2342.9296875 C-621.68273247 2320.78390777 -660.29170531 2295.78582305 -697.60546875 2269.203125 C-698.37149414 2268.65849609 -699.13751953 2268.11386719 -699.92675781 2267.55273438 C-710.99958928 2259.66562248 -721.8568651 2251.52547785 -732.60546875 2243.203125 C-733.36956055 2242.61321777 -734.13365234 2242.02331055 -734.92089844 2241.41552734 C-746.74646694 2232.28380479 -758.38122934 2222.97173422 -769.76416016 2213.29272461 C-773.23844924 2210.34272982 -776.75036242 2207.44618711 -780.29296875 2204.578125 C-784.74450683 2200.95478005 -789.0292933 2197.18348628 -793.2734375 2193.3203125 C-795.36370764 2191.42261331 -797.4753299 2189.55579085 -799.60546875 2187.703125 C-803.46074 2184.34331029 -807.26326726 2180.92729483 -811.05859375 2177.5 C-812.66911515 2176.04756659 -814.28324732 2174.59911824 -815.90234375 2173.15625 C-830.52640127 2160.10256107 -844.5290095 2146.44164733 -858.37231445 2132.56665039 C-860.25041925 2130.68493732 -862.129803 2128.8046446 -864.01196289 2126.92700195 C-866.77630087 2124.16886472 -869.53712918 2121.40726257 -872.296875 2118.64453125 C-873.12925186 2117.81417862 -873.96162872 2116.98382599 -874.81922913 2116.12831116 C-879.08402407 2111.8464713 -883.19093618 2107.49016773 -887.13298035 2102.90919495 C-888.8561787 2100.91264481 -890.64620954 2098.99211583 -892.47265625 2097.08984375 C-893.45262573 2096.06250122 -893.45262573 2096.06250122 -894.45239258 2095.0144043 C-895.12165771 2094.31355713 -895.79092285 2093.61270996 -896.48046875 2092.890625 C-901.72720011 2087.36077289 -906.72754243 2081.77799985 -911.46875 2075.80859375 C-913.90644635 2072.83611941 -916.48738231 2070.01542617 -919.10546875 2067.203125 C-923.36413011 2062.62049095 -927.38527172 2057.90367131 -931.30859375 2053.02734375 C-933.33101632 2050.54058946 -935.39766864 2048.09982295 -937.48803711 2045.67016602 C-942.79142081 2039.49566769 -947.78825476 2033.13078009 -952.69824219 2026.63989258 C-956.25355351 2021.94585263 -959.8934841 2017.33634322 -963.60546875 2012.765625 C-969.70293745 2005.22111209 -975.35021669 1997.37778145 -980.97753906 1989.47949219 C-982.55930723 1987.2676736 -984.15365617 1985.06566191 -985.75390625 1982.8671875 C-998.01444163 1966.01867967 -1010.03877151 1949.00014 -1021.20410156 1931.40234375 C-1022.69840985 1929.057269 -1024.20954511 1926.7236076 -1025.72265625 1924.390625 C-1041.31654768 1900.25144584 -1055.78337593 1875.39341806 -1069.60546875 1850.203125 C-1070.14913086 1849.21876465 -1070.69279297 1848.2344043 -1071.25292969 1847.22021484 C-1088.13167176 1816.61071059 -1103.61887886 1785.23634022 -1117.60546875 1753.203125 C-1118.08503021 1752.10541779 -1118.08503021 1752.10541779 -1118.57427979 1750.98553467 C-1154.48733666 1668.61008542 -1181.03895885 1582.68556715 -1219.80859375 1334.1171875 C-1219.87502579 1333.22473328 -1219.94145782 1332.33227905 -1220.00990295 1331.41278076 C-1221.25991149 1313.81110478 -1221.77533694 1296.24047233 -1221.80859375 1278.59765625 C-1221.81142113 1277.55400091 -1221.8142485 1276.51034557 -1221.81716156 1275.43506432 C-1221.83203242 1269.88549947 -1221.84133174 1264.33595969 -1221.84570312 1258.78637695 C-1221.85003602 1254.32437734 -1221.86374163 1249.86257676 -1221.88671875 1245.40063477 C-1222.38209969 1147.11023492 -1210.41060428 1049.26471697 -1120.4239502 754.06542969 C-1119.61262318 752.2194036 -1118.80534198 750.37165598 -1117.99902344 748.5234375 C-1109.6626954 729.46311772 -1100.70672897 710.73095426 -1091.52209473 692.06890869 C-1090.13500372 689.24549778 -1088.75815683 686.41709125 -1087.37890625 683.58984375 C-1081.57684769 671.76783108 -1075.36472474 660.25191701 -1068.80859375 648.83203125 C-1066.22563778 644.32426145 -1063.74061008 639.7724113 -1061.28955078 635.19189453 C-1040.61193331 596.6035318 -1015.98807227 559.83233244 -990.60546875 524.203125 C-990.06083984 523.43709961 -989.51621094 522.67107422 -988.95507812 521.88183594 C-981.06796623 510.80900447 -972.9278216 499.95172865 -964.60546875 489.203125 C-963.72060791 488.0569873 -963.72060791 488.0569873 -962.81787109 486.88769531 C-955.86897821 477.88888833 -948.8577459 468.96036816 -941.60546875 460.203125 C-940.53709683 458.89767821 -939.46944628 457.59164088 -938.40234375 456.28515625 C-928.40707256 444.06514466 -918.17431762 432.07981634 -907.5703125 420.3828125 C-905.78720211 418.4047298 -904.03532106 416.404567 -902.29296875 414.390625 C-898.29336034 409.80391811 -894.16067129 405.34132534 -890.01879883 400.88354492 C-887.89410148 398.59545302 -885.77628595 396.30141778 -883.66577148 394.00024414 C-874.06038202 383.56995513 -864.08109269 373.52555529 -854.04443359 363.51171875 C-851.68192232 361.15371686 -849.32279363 358.79244197 -846.96550941 356.42922211 C-844.67345855 354.13266261 -842.3775738 351.83994354 -840.08203125 349.546875 C-839.24854156 348.71136108 -838.41505188 347.87584717 -837.55630493 347.01501465 C-833.26550321 342.74122417 -828.90106173 338.62452885 -824.31030273 334.67437744 C-822.31409148 332.95166971 -820.39404238 331.16198364 -818.4921875 329.3359375 C-817.80729248 328.68262451 -817.12239746 328.02931152 -816.41674805 327.35620117 C-815.71590088 326.68693604 -815.01505371 326.0176709 -814.29296875 325.328125 C-808.76311664 320.08139364 -803.1803436 315.08105132 -797.2109375 310.33984375 C-794.23846316 307.9021474 -791.41776992 305.32121144 -788.60546875 302.703125 C-784.0228347 298.44446364 -779.30601506 294.42332203 -774.4296875 290.5 C-771.94293321 288.47757743 -769.5021667 286.41092511 -767.07250977 284.32055664 C-760.89801144 279.01717294 -754.53312384 274.02033899 -748.04223633 269.11035156 C-743.34819638 265.55504024 -738.73868697 261.91510965 -734.16796875 258.203125 C-726.62345584 252.1056563 -718.7801252 246.45837706 -710.88183594 240.83105469 C-708.67001735 239.24928652 -706.46800566 237.65493758 -704.26953125 236.0546875 C-687.42102342 223.79415212 -670.40248375 211.76982224 -652.8046875 200.60449219 C-650.45961275 199.1101839 -648.12595135 197.59904864 -645.79296875 196.0859375 C-621.65378959 180.49204607 -596.79576181 166.02521782 -571.60546875 152.203125 C-570.12892822 151.38763184 -570.12892822 151.38763184 -568.62255859 150.55566406 C-538.01305434 133.67692199 -506.63868397 118.18971489 -474.60546875 104.203125 C-473.87366394 103.88341736 -473.14185913 103.56370972 -472.38787842 103.23431396 C-390.01242917 67.32125709 -304.0879109 40.7696349 -55.51953125 2 C-54.62707703 1.93356796 -53.7346228 1.86713593 -52.81512451 1.7986908 C-35.21344853 0.54868226 -17.64281608 0.03325681 0 0 Z " fill="#627EEA" transform="translate(1221.60546875,-0.203125)"/>
<path d="M0 0 C0.66 0 1.32 0 2 0 C3.18237305 1.63867188 3.18237305 1.63867188 4.51171875 3.96875 C5.26533691 5.27126709 5.26533691 5.27126709 6.03417969 6.60009766 C6.57977539 7.55706543 7.12537109 8.5140332 7.6875 9.5 C12.40475283 17.63296671 17.23542328 25.67187733 22.25 33.625 C27.79148048 42.43033384 33.2394698 51.28637973 38.625 60.1875 C44.12078144 69.26918139 49.65596674 78.32407493 55.25830078 87.34057617 C59.20887734 93.70498335 63.11210661 100.09713392 67 106.5 C71.46605714 113.85473567 75.9614686 121.18976208 80.5 128.5 C85.63798745 136.77578514 90.71359095 145.08794448 95.76953125 153.4140625 C99.64840586 159.7957143 103.56098879 166.15531208 107.5 172.5 C111.97398446 179.70729557 116.40862343 186.93715494 120.8125 194.1875 C128.48894843 206.82419746 136.24223166 219.41311367 144 232 C152.34230192 245.53528508 160.66821662 259.07944396 168.92236328 272.66870117 C173.27811208 279.8325495 177.68400572 286.9641904 182.10620117 294.0871582 C186.7048456 301.50277695 191.24055739 308.95575235 195.76953125 316.4140625 C199.64840586 322.7957143 203.56098879 329.15531208 207.5 335.5 C211.97398446 342.70729557 216.40862343 349.93715494 220.8125 357.1875 C228.48894843 369.82419746 236.24223166 382.41311367 244 395 C252.34230192 408.53528508 260.66821662 422.07944396 268.92236328 435.66870117 C273.27811208 442.8325495 277.68400572 449.9641904 282.10620117 457.0871582 C286.7048456 464.50277695 291.24055739 471.95575235 295.76953125 479.4140625 C299.64840586 485.7957143 303.56098879 492.15531208 307.5 498.5 C311.97398446 505.70729557 316.40862343 512.93715494 320.8125 520.1875 C328.48894843 532.82419746 336.24223166 545.41311367 344 558 C352.34230192 571.53528508 360.66821662 585.07944396 368.92236328 598.66870117 C373.27811208 605.8325495 377.68400572 612.9641904 382.10620117 620.0871582 C386.7048456 627.50277695 391.24055739 634.95575235 395.76953125 642.4140625 C399.64840586 648.7957143 403.56098879 655.15531208 407.5 661.5 C411.97398446 668.70729557 416.40862343 675.93715494 420.8125 683.1875 C428.48894843 695.82419746 436.24223166 708.41311367 444 721 C452.34230192 734.53528508 460.66821662 748.07944396 468.92236328 761.66870117 C473.27811208 768.8325495 477.68400572 775.9641904 482.10620117 783.0871582 C486.7048456 790.50277695 491.24055739 797.95575235 495.76953125 805.4140625 C499.64840586 811.7957143 503.56098879 818.15531208 507.5 824.5 C511.97398446 831.70729557 516.40862343 838.93715494 520.8125 846.1875 C528.48894843 858.82419746 536.24223166 871.41311367 544 884 C552.37682737 897.5913022 560.74863373 911.18508916 569.03222656 924.83349609 C571.77640395 929.35430138 574.53129055 933.86755691 577.31640625 938.36328125 C577.83356201 939.20052734 578.35071777 940.03777344 578.88354492 940.90039062 C579.85268868 942.46777324 580.8253176 944.03300816 581.80200195 945.59570312 C585 950.77671536 585 950.77671536 585 953 C578.86626535 951.07928434 573.03382696 948.80231269 567.19921875 946.11328125 C565.96748177 945.55261459 565.96748177 945.55261459 564.71086121 944.98062134 C562.9506307 944.17893465 561.19129891 943.3752722 559.43280029 942.5697937 C554.71596785 940.40957693 549.99227866 938.26443368 545.26953125 936.1171875 C544.31344971 935.68202316 543.35736816 935.24685883 542.37231445 934.79850769 C533.56303624 930.79220532 524.72411476 926.85484307 515.875 922.9375 C503.22997675 917.33567139 490.60816811 911.68428711 478 906 C465.1198149 900.19359472 452.22674706 894.417765 439.3125 888.6875 C428.74189487 883.99703434 418.17596147 879.29704761 407.625 874.5625 C406.46653564 874.04268555 405.30807129 873.52287109 404.11450195 872.98730469 C402.31695875 872.18065027 400.51941594 871.37399498 398.72190857 870.56726074 C390.8165913 867.01957336 382.90883848 863.47732994 375 859.9375 C374.21109375 859.58437744 373.4221875 859.23125488 372.609375 858.86743164 C358.33976642 852.48160863 344.05289668 846.13496925 329.76394653 839.79257202 C315.47140901 833.44712499 301.20090883 827.05435213 286.94537354 820.62625122 C274.58064368 815.0512744 262.19677711 809.52135112 249.79760742 804.0234375 C237.65903083 798.63987986 225.54368196 793.20598777 213.4375 787.75 C201.37063295 782.31194015 189.29633902 776.89279371 177.1965332 771.52832031 C167.82955955 767.37399523 158.47673828 763.18846659 149.125 759 C135.91980982 753.08581125 122.70295372 747.19844678 109.47793579 741.32873535 C93.29107685 734.14442609 77.12307539 726.92042412 60.97860718 719.64135742 C48.64630976 714.08173157 36.29961985 708.55550733 23.9375 703.0625 C23.17315643 702.72271118 22.40881287 702.38292236 21.62130737 702.03283691 C19.46527433 701.07462609 17.30889735 700.11719484 15.15234375 699.16015625 C14.52815552 698.88287186 13.90396729 698.60558746 13.26086426 698.31990051 C9.18673061 696.51398505 5.09681539 694.75577803 1 693 C1 891.33 1 1089.66 1 1294 C-2.75307485 1292.49877006 -5.87723639 1291.02264097 -9.33203125 1289.015625 C-10.36537598 1288.41741943 -11.3987207 1287.81921387 -12.46337891 1287.20288086 C-13.56858887 1286.55843018 -14.67379883 1285.91397949 -15.8125 1285.25 C-16.97819845 1284.57338299 -18.14405383 1283.89703627 -19.31005859 1283.22094727 C-22.30061581 1281.48565246 -25.28870216 1279.74615498 -28.27581787 1278.00494385 C-29.90961395 1277.05268174 -31.54390393 1276.10126717 -33.17822266 1275.14990234 C-41.11033706 1270.53231971 -49.03498357 1265.90199475 -56.95898438 1261.27050781 C-69.38082591 1254.01146858 -81.82158421 1246.78695829 -94.28857422 1239.60571289 C-102.52969191 1234.85585468 -110.7486691 1230.06904959 -118.9609375 1225.26953125 C-126.29283723 1220.98777878 -133.64267238 1216.73789061 -141 1212.5 C-150.33863207 1207.1208592 -159.65640317 1201.70740553 -168.9609375 1196.26953125 C-176.29283764 1191.98777854 -183.64270807 1187.73795309 -191 1183.5 C-204.35015665 1175.80882531 -217.65733128 1168.0451704 -230.95898438 1160.27050781 C-243.38082591 1153.01146858 -255.82158421 1145.78695829 -268.28857422 1138.60571289 C-276.52969191 1133.85585468 -284.7486691 1129.06904959 -292.9609375 1124.26953125 C-300.29283764 1119.98777854 -307.64270807 1115.73795309 -315 1111.5 C-328.35015665 1103.80882531 -341.65733128 1096.0451704 -354.95898438 1088.27050781 C-367.38082591 1081.01146858 -379.82158421 1073.78695829 -392.28857422 1066.60571289 C-400.52969191 1061.85585468 -408.7486691 1057.06904959 -416.9609375 1052.26953125 C-424.29283723 1047.98777878 -431.64267238 1043.73789061 -439 1039.5 C-448.34091379 1034.11954491 -457.66145879 1028.70560871 -466.9675293 1023.26513672 C-474.23205189 1019.02169905 -481.51921992 1014.81877283 -488.8125 1010.625 C-497.7090132 1005.50721336 -506.55646839 1000.31342418 -515.375 995.0625 C-525.74566356 988.88966478 -536.18661381 982.85602848 -546.67724609 976.89038086 C-555.67103795 971.77274192 -564.61747869 966.58052653 -573.53979492 961.33935547 C-574.4651001 960.79682129 -575.39040527 960.25428711 -576.34375 959.6953125 C-577.15005859 959.22109863 -577.95636719 958.74688477 -578.78710938 958.25830078 C-580.82800625 957.09779962 -582.88932633 956.0269935 -585 955 C-583.76360314 951.72401259 -582.38520645 948.79538731 -580.5234375 945.83203125 C-580.02593994 945.03490723 -579.52844238 944.2377832 -579.01586914 943.41650391 C-578.47438232 942.55718262 -577.93289551 941.69786133 -577.375 940.8125 C-576.19358681 938.92083741 -575.0126174 937.02889761 -573.83203125 935.13671875 C-573.2076416 934.13817871 -572.58325195 933.13963867 -571.93994141 932.11083984 C-568.62544132 926.79579326 -565.34399723 921.46046407 -562.0625 916.125 C-561.38904541 915.03074707 -560.71559082 913.93649414 -560.02172852 912.80908203 C-555.01418638 904.66620045 -550.04104165 896.50279861 -545.07836914 888.33251953 C-540.72239189 881.1682546 -536.3162446 874.0362128 -531.89379883 866.9128418 C-527.89408232 860.46303399 -523.93913233 853.98695965 -520 847.5 C-515.00724193 839.27793041 -509.96827097 831.08636347 -504.89453125 822.9140625 C-500.89460869 816.46382418 -496.9393787 809.98736536 -493 803.5 C-488.00724193 795.27793041 -482.96827097 787.08636347 -477.89453125 778.9140625 C-473.89460869 772.46382418 -469.9393787 765.98736536 -466 759.5 C-461.00724193 751.27793041 -455.96827097 743.08636347 -450.89453125 734.9140625 C-446.89460869 728.46382418 -442.9393787 721.98736536 -439 715.5 C-434.00724193 707.27793041 -428.96827097 699.08636347 -423.89453125 690.9140625 C-419.89460869 684.46382418 -415.9393787 677.98736536 -412 671.5 C-407.00724193 663.27793041 -401.96827097 655.08636347 -396.89453125 646.9140625 C-392.89460869 640.46382418 -388.9393787 633.98736536 -385 627.5 C-380.00724193 619.27793041 -374.96827097 611.08636347 -369.89453125 602.9140625 C-365.89460869 596.46382418 -361.9393787 589.98736536 -358 583.5 C-353.00724193 575.27793041 -347.96827097 567.08636347 -342.89453125 558.9140625 C-338.89460869 552.46382418 -334.9393787 545.98736536 -331 539.5 C-326.00724193 531.27793041 -320.96827097 523.08636347 -315.89453125 514.9140625 C-311.89460869 508.46382418 -307.9393787 501.98736536 -304 495.5 C-299.00724193 487.27793041 -293.96827097 479.08636347 -288.89453125 470.9140625 C-284.89460869 464.46382418 -280.9393787 457.98736536 -277 451.5 C-272.00724193 443.27793041 -266.96827097 435.08636347 -261.89453125 426.9140625 C-257.89460869 420.46382418 -253.9393787 413.98736536 -250 407.5 C-245.00724193 399.27793041 -239.96827097 391.08636347 -234.89453125 382.9140625 C-230.89460869 376.46382418 -226.9393787 369.98736536 -223 363.5 C-218.00724193 355.27793041 -212.96827097 347.08636347 -207.89453125 338.9140625 C-203.89460869 332.46382418 -199.9393787 325.98736536 -196 319.5 C-191.00724193 311.27793041 -185.96827097 303.08636347 -180.89453125 294.9140625 C-176.89460869 288.46382418 -172.9393787 281.98736536 -169 275.5 C-164.53392616 268.14527354 -160.03847976 260.81027056 -155.5 253.5 C-151.02601554 246.29270443 -146.59137657 239.06284506 -142.1875 231.8125 C-133.8378531 218.06760706 -125.39707757 204.37918184 -116.95898438 190.68847656 C-109.29782406 178.25653617 -101.65862904 165.8123049 -94.07763672 153.33129883 C-89.72188792 146.1674505 -85.31599428 139.0358096 -80.89379883 131.9128418 C-76.89408232 125.46303399 -72.93913233 118.98695965 -69 112.5 C-64.00724193 104.27793041 -58.96827097 96.08636347 -53.89453125 87.9140625 C-49.89460869 81.46382418 -45.9393787 74.98736536 -42 68.5 C-37.53392636 61.14527388 -33.03851504 53.81024855 -28.5 46.5 C-23.85799501 39.02275417 -19.25947199 31.52027014 -14.6875 24 C-14.09936523 23.03441162 -13.51123047 22.06882324 -12.90527344 21.07397461 C-10.39148264 16.94504114 -7.88364399 12.81337862 -5.41015625 8.66015625 C-5.03737549 8.03947266 -4.66459473 7.41878906 -4.28051758 6.77929688 C-3.3330728 5.20089562 -2.39275219 3.6182238 -1.453125 2.03515625 C-0.97359375 1.36355469 -0.4940625 0.69195312 0 0 Z " fill="#BFCAF6" transform="translate(1288,313)"/>
<path d="M0 0 C3.47953075 1.31260033 6.62361333 2.84039734 9.82421875 4.73046875 C10.75685547 5.27832031 11.68949219 5.82617188 12.65039062 6.390625 C13.65263672 6.98359375 14.65488281 7.5765625 15.6875 8.1875 C17.85771479 9.46284919 20.02830042 10.73756751 22.19921875 12.01171875 C23.32118652 12.67091309 24.4431543 13.33010742 25.59912109 14.00927734 C31.05034822 17.20018229 36.525207 20.34975769 42 23.5 C55.35054142 31.19050022 68.65733642 38.95483261 81.95898438 46.72949219 C94.38082591 53.98853142 106.82158421 61.21304171 119.28857422 68.39428711 C127.52969191 73.14414532 135.7486691 77.93095041 143.9609375 82.73046875 C151.29283723 87.01222122 158.64267238 91.26210939 166 95.5 C175.33863207 100.8791408 184.65640317 106.29259447 193.9609375 111.73046875 C201.29283723 116.01222122 208.64267238 120.26210939 216 124.5 C225.33863207 129.8791408 234.65640317 135.29259447 243.9609375 140.73046875 C251.29283723 145.01222122 258.64267238 149.26210939 266 153.5 C275.33863207 158.8791408 284.65640317 164.29259447 293.9609375 169.73046875 C301.29283764 174.01222146 308.64270807 178.26204691 316 182.5 C329.35015665 190.19117469 342.65733128 197.9548296 355.95898438 205.72949219 C368.38082591 212.98853142 380.82158421 220.21304171 393.28857422 227.39428711 C401.52969191 232.14414532 409.7486691 236.93095041 417.9609375 241.73046875 C425.29283723 246.01222122 432.64267238 250.26210939 440 254.5 C449.33863207 259.8791408 458.65640317 265.29259447 467.9609375 270.73046875 C475.29283723 275.01222122 482.64267238 279.26210939 490 283.5 C499.33863207 288.8791408 508.65640317 294.29259447 517.9609375 299.73046875 C526.37152628 304.6421643 534.8074293 309.50922606 543.24731445 314.37036133 C551.90709922 319.36139811 560.54538898 324.38858094 569.17382812 329.43359375 C570.98416803 330.49183002 572.79759787 331.54480636 574.61474609 332.59130859 C576.10518135 333.47153494 577.5763385 334.38632145 579.01416016 335.35009766 C580.96938491 336.69183556 580.96938491 336.69183556 584 338 C588.26615131 336.93683585 591.76441906 335.13390747 595.5078125 332.8671875 C596.56250732 332.23409668 597.61720215 331.60100586 598.70385742 330.94873047 C599.2601181 330.61145935 599.81637878 330.27418823 600.38949585 329.92669678 C603.39629364 328.10460978 606.4152698 326.30290753 609.43359375 324.5 C610.05810928 324.12648407 610.68262482 323.75296814 611.32606506 323.36813354 C617.89585982 319.4478572 624.53587881 315.65421447 631.1875 311.875 C640.84725125 306.38090803 650.47161206 300.83057502 660.06323242 295.21826172 C667.35954574 290.95093777 674.67528197 286.7183643 682 282.5 C690.34802448 277.69155277 698.68248303 272.86102905 707 268 C716.4099033 262.50054464 725.84470563 257.04550804 735.2890625 251.60546875 C742.5395149 247.42650872 749.77488269 243.22259494 757 239 C766.4099033 233.50054464 775.84470563 228.04550804 785.2890625 222.60546875 C792.5395149 218.42650872 799.77488269 214.22259494 807 210 C816.4099033 204.50054464 825.84470563 199.04550804 835.2890625 193.60546875 C842.5395149 189.42650872 849.77488269 185.22259494 857 181 C866.4099033 175.50054464 875.84470563 170.04550804 885.2890625 164.60546875 C892.5395149 160.42650872 899.77488269 156.22259494 907 152 C916.4099033 146.50054464 925.84470563 141.04550804 935.2890625 135.60546875 C942.5395149 131.42650872 949.77488269 127.22259494 957 123 C966.4099033 117.50054464 975.84470563 112.04550804 985.2890625 106.60546875 C992.5395149 102.42650872 999.77488269 98.22259494 1007 94 C1016.4099033 88.50054464 1025.84470563 83.04550804 1035.2890625 77.60546875 C1042.5395149 73.42650872 1049.77488269 69.22259494 1057 65 C1066.4099033 59.50054464 1075.84470563 54.04550804 1085.2890625 48.60546875 C1092.5395149 44.42650872 1099.77488269 40.22259494 1107 36 C1116.39092153 30.51163821 1125.80656173 25.06737927 1135.23193359 19.63842773 C1146.51356702 13.13609206 1157.75967764 6.57345822 1169 0 C1169 4.3856756 1166.34690394 6.80538592 1163.75 10.125 C1162.63727286 11.57655577 1161.5266572 13.02973217 1160.41796875 14.484375 C1159.84739746 15.23267578 1159.27682617 15.98097656 1158.68896484 16.75195312 C1156.0691996 20.23891444 1153.56197617 23.80127911 1151.0625 27.375 C1145.33042193 35.55228931 1139.49618469 43.6519399 1133.63671875 51.73828125 C1132.01490936 53.97939733 1130.39734868 56.22351315 1128.78125 58.46875 C1123.1692164 66.26238925 1117.52007023 74.02599206 1111.8125 81.75 C1106.99713071 88.26722873 1102.24135527 94.82113315 1097.546875 101.42578125 C1094.61457267 105.54889574 1091.65151724 109.64965194 1088.6875 113.75 C1088.13956787 114.50804932 1087.59163574 115.26609863 1087.02709961 116.04711914 C1085.90927547 117.59333097 1084.79135496 119.13947313 1083.67333984 120.68554688 C1080.94736861 124.45593019 1078.22378466 128.22803694 1075.5 132 C1074.41667856 133.50000859 1073.33334521 135.00000858 1072.25 136.5 C1071.71375 137.2425 1071.1775 137.985 1070.625 138.75 C1025.66666667 201 980.70833333 263.25 935.75 325.5 C935.21383057 326.24241943 934.67766113 326.98483887 934.12524414 327.74975586 C933.04121584 329.2506555 931.95706858 330.75146922 930.87280273 332.25219727 C928.17412345 335.98773967 925.47748688 339.72472254 922.78515625 343.46484375 C917.17096822 351.25915847 911.52114617 359.024536 905.8125 366.75 C900.99713071 373.26722873 896.24135527 379.82113315 891.546875 386.42578125 C888.61457267 390.54889574 885.65151724 394.64965194 882.6875 398.75 C881.86560181 399.88707397 881.86560181 399.88707397 881.02709961 401.04711914 C879.90927547 402.59333097 878.79135496 404.13947313 877.67333984 405.68554688 C874.94736861 409.45593019 872.22378466 413.22803694 869.5 417 C868.41667856 418.50000859 867.33334521 420.00000858 866.25 421.5 C865.71375 422.2425 865.1775 422.985 864.625 423.75 C819.66666667 486 774.70833333 548.25 729.75 610.5 C729.21383057 611.24241943 728.67766113 611.98483887 728.12524414 612.74975586 C727.04121584 614.2506555 725.95706858 615.75146922 724.87280273 617.25219727 C722.17412345 620.98773967 719.47748688 624.72472254 716.78515625 628.46484375 C711.17096822 636.25915847 705.52114617 644.024536 699.8125 651.75 C694.99713071 658.26722873 690.24135527 664.82113315 685.546875 671.42578125 C682.61457267 675.54889574 679.65151724 679.64965194 676.6875 683.75 C676.13956787 684.50804932 675.59163574 685.26609863 675.02709961 686.04711914 C673.90927547 687.59333097 672.79135496 689.13947313 671.67333984 690.68554688 C668.94736861 694.45593019 666.22378466 698.22803694 663.5 702 C662.41667856 703.50000859 661.33334521 705.00000858 660.25 706.5 C659.71375 707.2425 659.1775 707.985 658.625 708.75 C614.75 769.5 614.75 769.5 613.12329102 771.75219727 C612.04544013 773.24471841 610.96780166 774.73739297 609.89038086 776.23022461 C607.0999328 780.09596868 604.30528707 783.95857579 601.50390625 787.81640625 C600.92769531 788.61111328 600.35148437 789.40582031 599.7578125 790.22460938 C598.6693606 791.72561966 597.57962685 793.22570171 596.48828125 794.72460938 C593.26823158 799.16877587 590.22352291 803.68557505 587.29467773 808.32788086 C586.86743408 808.87968018 586.44019043 809.43147949 586 810 C585.34 810 584.68 810 584 810 C582.14456396 807.57719922 580.40471589 805.14374755 578.6875 802.625 C577.59731607 801.05271802 576.5061379 799.48112504 575.4140625 797.91015625 C574.84977539 797.09562988 574.28548828 796.28110352 573.70410156 795.44189453 C571.03456682 791.61658128 568.30090982 787.83867114 565.5625 784.0625 C565.02326904 783.31758301 564.48403809 782.57266602 563.9284668 781.80517578 C562.83299708 780.29192702 561.73721257 778.77890609 560.64111328 777.26611328 C557.92351827 773.513552 555.21205527 769.75656581 552.5 766 C551.41669638 764.49997854 550.33336304 762.99997854 549.25 761.5 C495.625 687.25 442 613 138.12524414 192.25024414 C137.04121584 190.7493445 135.95706858 189.24853078 134.87280273 187.74780273 C132.17412345 184.01226033 129.47748688 180.27527746 126.78515625 176.53515625 C121.17096822 168.74084153 115.52114617 160.975464 109.8125 153.25 C104.99713071 146.73277127 100.24135527 140.17886685 95.546875 133.57421875 C92.61457267 129.45110426 89.65151724 125.35034806 86.6875 121.25 C86.13956787 120.49195068 85.59163574 119.73390137 85.02709961 118.95288086 C83.90927547 117.40666903 82.79135496 115.86052687 81.67333984 114.31445312 C78.94736861 110.54406981 76.22378466 106.77196306 73.5 103 C72.41667856 101.49999141 71.33334521 99.99999142 70.25 98.5 C55.08333333 77.5 39.91666667 56.5 24.75 35.5 C24.21286377 34.75637207 23.67572754 34.01274414 23.12231445 33.24658203 C22.04755197 31.7582503 20.97316555 30.26964692 19.89916992 28.78076172 C17.06285136 24.84983717 14.21865329 20.92492389 11.36328125 17.0078125 C10.47189453 15.78191406 10.47189453 15.78191406 9.5625 14.53125 C8.42297164 12.9643985 7.28115871 11.39920513 6.13671875 9.8359375 C5.62367188 9.12953125 5.110625 8.423125 4.58203125 7.6953125 C4.13061768 7.07672363 3.6792041 6.45813477 3.21411133 5.82080078 C1.96317278 3.94477029 0.96505847 2.03575361 0 0 Z " fill="#FEFEFE" transform="translate(704,1377)"/>
<path d="M0 0 C0.33 0 0.66 0 1 0 C1 228.36 1 456.72 1 692 C-17.34170256 701.17085128 -17.34170256 701.17085128 -24.0546875 704.05078125 C-24.82747543 704.38713089 -25.60026337 704.72348053 -26.39646912 705.07002258 C-28.03892541 705.78475028 -29.68213774 706.49774299 -31.32608032 707.20904541 C-35.81716129 709.15328239 -40.30128064 711.11343311 -44.78515625 713.07421875 C-46.17383156 713.68130676 -46.17383156 713.68130676 -47.59056091 714.30065918 C-57.53610127 718.6577993 -67.42672033 723.13429449 -77.3125 727.625 C-90.22751024 733.48918671 -103.15681245 739.31679557 -116.125 745.0625 C-128.95714466 750.74847371 -141.7666088 756.48289505 -154.5625 762.25 C-169.33288638 768.9056958 -184.12117431 775.51822088 -198.93212891 782.08325195 C-206.8518585 785.59430091 -214.77006885 789.10877146 -222.6875 792.625 C-223.65214172 793.05339172 -224.61678345 793.48178345 -225.61065674 793.92315674 C-240.1100887 800.36409435 -254.58834282 806.85067 -269.05160522 813.37237549 C-281.42035575 818.94917128 -293.8082721 824.48084453 -306.2114563 829.98059082 C-318.15944474 835.27967522 -330.08443606 840.62843254 -342 846 C-356.38551285 852.48485544 -370.791388 858.92185642 -385.21508789 865.32128906 C-394.13152523 869.27772945 -403.0393097 873.25263168 -411.9375 877.25 C-423.24692541 882.33002397 -434.57462106 887.36811939 -445.90655518 892.39770508 C-461.4767313 899.3084812 -477.03302194 906.24821929 -492.5625 913.25 C-522.30498131 926.65810924 -552.14283951 939.84958462 -582 953 C-583 950 -583 950 -582.17407227 948.14428711 C-581.72604248 947.4456958 -581.2780127 946.74710449 -580.81640625 946.02734375 C-580.05565796 944.82198975 -580.05565796 944.82198975 -579.27954102 943.59228516 C-578.42960571 942.2781665 -578.42960571 942.2781665 -577.5625 940.9375 C-576.35346169 939.02778989 -575.14516144 937.11761236 -573.9375 935.20703125 C-573.29425781 934.19592285 -572.65101563 933.18481445 -571.98828125 932.14306641 C-568.63001005 926.83432581 -565.34873844 921.47851727 -562.0625 916.125 C-561.05268066 914.4838623 -561.05268066 914.4838623 -560.02246094 912.80957031 C-555.01400822 904.66693492 -550.04117952 896.5030256 -545.07836914 888.33251953 C-540.72239189 881.1682546 -536.3162446 874.0362128 -531.89379883 866.9128418 C-527.89408232 860.46303399 -523.93913233 853.98695965 -520 847.5 C-515.00724193 839.27793041 -509.96827097 831.08636347 -504.89453125 822.9140625 C-500.89460869 816.46382418 -496.9393787 809.98736536 -493 803.5 C-488.00724193 795.27793041 -482.96827097 787.08636347 -477.89453125 778.9140625 C-473.89460869 772.46382418 -469.9393787 765.98736536 -466 759.5 C-461.00724193 751.27793041 -455.96827097 743.08636347 -450.89453125 734.9140625 C-446.89460869 728.46382418 -442.9393787 721.98736536 -439 715.5 C-434.00724193 707.27793041 -428.96827097 699.08636347 -423.89453125 690.9140625 C-419.89460869 684.46382418 -415.9393787 677.98736536 -412 671.5 C-407.00724193 663.27793041 -401.96827097 655.08636347 -396.89453125 646.9140625 C-392.89460869 640.46382418 -388.9393787 633.98736536 -385 627.5 C-380.00724193 619.27793041 -374.96827097 611.08636347 -369.89453125 602.9140625 C-365.89460869 596.46382418 -361.9393787 589.98736536 -358 583.5 C-353.00724193 575.27793041 -347.96827097 567.08636347 -342.89453125 558.9140625 C-338.89460869 552.46382418 -334.9393787 545.98736536 -331 539.5 C-326.00724193 531.27793041 -320.96827097 523.08636347 -315.89453125 514.9140625 C-311.89460869 508.46382418 -307.9393787 501.98736536 -304 495.5 C-299.00724193 487.27793041 -293.96827097 479.08636347 -288.89453125 470.9140625 C-284.89460869 464.46382418 -280.9393787 457.98736536 -277 451.5 C-272.00724193 443.27793041 -266.96827097 435.08636347 -261.89453125 426.9140625 C-257.89460869 420.46382418 -253.9393787 413.98736536 -250 407.5 C-245.00724193 399.27793041 -239.96827097 391.08636347 -234.89453125 382.9140625 C-230.89460869 376.46382418 -226.9393787 369.98736536 -223 363.5 C-218.00724193 355.27793041 -212.96827097 347.08636347 -207.89453125 338.9140625 C-203.89460869 332.46382418 -199.9393787 325.98736536 -196 319.5 C-191.00724193 311.27793041 -185.96827097 303.08636347 -180.89453125 294.9140625 C-176.89460869 288.46382418 -172.9393787 281.98736536 -169 275.5 C-164.53392616 268.14527354 -160.03847976 260.81027056 -155.5 253.5 C-151.02601554 246.29270443 -146.59137657 239.06284506 -142.1875 231.8125 C-133.8378531 218.06760706 -125.39707757 204.37918184 -116.95898438 190.68847656 C-109.29782406 178.25653617 -101.65862904 165.8123049 -94.07763672 153.33129883 C-89.72188792 146.1674505 -85.31599428 139.0358096 -80.89379883 131.9128418 C-76.89408232 125.46303399 -72.93913233 118.98695965 -69 112.5 C-64.00724193 104.27793041 -58.96827097 96.08636347 -53.89453125 87.9140625 C-49.89460869 81.46382418 -45.9393787 74.98736536 -42 68.5 C-37.53392636 61.14527388 -33.03851504 53.81024855 -28.5 46.5 C-23.85799775 39.02275859 -19.2590241 31.52053938 -14.6875 24 C-14.10009033 23.03441162 -13.51268066 22.06882324 -12.9074707 21.07397461 C-10.39229018 16.93865367 -7.87975155 12.80180208 -5.375 8.66015625 C-4.64598105 7.46084769 -3.91682846 6.26162036 -3.1875 5.0625 C-2.58292969 4.06347656 -1.97835937 3.06445312 -1.35546875 2.03515625 C-0.90816406 1.36355469 -0.46085937 0.69195312 0 0 Z " fill="#FEFEFE" transform="translate(1288,313)"/>
<path d="M0 0 C10.11706102 3.37235367 10.11706102 3.37235367 14.640625 5.43359375 C15.68710205 5.90692139 16.7335791 6.38024902 17.81176758 6.86791992 C18.94638428 7.38588135 20.08100098 7.90384277 21.25 8.4375 C23.84146636 9.61154855 26.43447966 10.78216717 29.02734375 11.953125 C29.72667526 12.26944382 30.42600677 12.58576263 31.14653015 12.91166687 C39.72333611 16.7872405 48.32991498 20.59571076 56.93374634 24.41079712 C73.32901325 31.68195921 89.70226346 39.00005796 106.05215454 46.37265015 C118.42072396 51.94934933 130.80845936 57.48092757 143.2114563 62.98059082 C155.15944474 68.27967522 167.08443606 73.62843254 179 79 C193.38551285 85.48485544 207.791388 91.92185642 222.21508789 98.32128906 C231.13152523 102.27772945 240.0393097 106.25263168 248.9375 110.25 C260.24692541 115.33002397 271.57462106 120.36811939 282.90655518 125.39770508 C299.30886066 132.67781933 315.69307536 139.99591481 332.05215454 147.37265015 C344.42072396 152.94934933 356.80845936 158.48092757 369.2114563 163.98059082 C382.00877304 169.65636309 394.77845885 175.39205697 407.54101562 181.14550781 C419.34503872 186.46595086 431.16375129 191.75165453 443 197 C455.68562268 202.62496885 468.34923296 208.29707932 481 214 C495.14859682 220.37773536 509.31413263 226.71543388 523.50317383 233.00268555 C531.47258535 236.53533357 539.43168999 240.08954371 547.37890625 243.671875 C549.11764397 244.45441638 550.85641324 245.23688768 552.59521484 246.01928711 C555.11228104 247.15190412 557.62868854 248.2858573 560.1428833 249.42483521 C562.45160964 250.47068995 564.76212503 251.51239357 567.07421875 252.55078125 C567.78495544 252.87031265 568.49569214 253.18984406 569.22796631 253.51905823 C572.94390174 255.1663796 576.62491539 256.60611847 580.51953125 257.79296875 C582.24236328 258.39044922 582.24236328 258.39044922 584 259 C584.33 259.99 584.66 260.98 585 262 C584.33806641 262.3810791 583.67613281 262.7621582 582.99414062 263.15478516 C570.97898337 270.07404382 558.9705646 277.00377176 547 284 C537.5901056 289.49947067 528.15529431 294.954492 518.7109375 300.39453125 C511.4604851 304.57349128 504.22511731 308.77740506 497 313 C488.68248208 317.8610296 480.34794347 322.69141103 472 327.5 C459.63977482 334.62086408 447.31532673 341.80183378 435 349 C421.59241282 356.83657983 408.16840721 364.64278608 394.71142578 372.39428711 C387.46078014 376.57327594 380.22527414 380.7773134 373 385 C364.68248208 389.8610296 356.34794347 394.69141103 348 399.5 C335.63977482 406.62086408 323.31532673 413.80183378 311 421 C297.59241282 428.83657983 284.16840721 436.64278608 270.71142578 444.39428711 C263.46078014 448.57327594 256.22527414 452.7773134 249 457 C240.68248208 461.8610296 232.34794347 466.69141103 224 471.5 C211.63977482 478.62086408 199.31532673 485.80183378 187 493 C173.59241282 500.83657983 160.16840721 508.64278608 146.71142578 516.39428711 C139.46078014 520.57327594 132.22527414 524.7773134 125 529 C116.68248208 533.8610296 108.34794347 538.69141103 100 543.5 C87.63977482 550.62086408 75.31532673 557.80183378 63 565 C49.38164452 572.95977147 35.74871994 580.89285593 22.07861328 588.76342773 C21.06782715 589.34552002 20.05704102 589.9276123 19.015625 590.52734375 C18.03271484 591.09308105 17.04980469 591.65881836 16.03710938 592.24169922 C11.7745999 594.7094318 7.53229833 597.21137425 3.29199219 599.71704102 C1 601 1 601 0 601 C0 402.67 0 204.34 0 0 Z " fill="#8197EE" transform="translate(1289,1006)"/>
<path d="M0 0 C0 4.3856756 -2.65309606 6.80538592 -5.25 10.125 C-6.36272714 11.57655577 -7.4733428 13.02973217 -8.58203125 14.484375 C-9.43788818 15.60682617 -9.43788818 15.60682617 -10.31103516 16.75195312 C-12.9308004 20.23891444 -15.43802383 23.80127911 -17.9375 27.375 C-23.66957807 35.55228931 -29.50381531 43.6519399 -35.36328125 51.73828125 C-36.98509064 53.97939733 -38.60265132 56.22351315 -40.21875 58.46875 C-45.8307836 66.26238925 -51.47992977 74.02599206 -57.1875 81.75 C-62.00286929 88.26722873 -66.75864473 94.82113315 -71.453125 101.42578125 C-74.38542733 105.54889574 -77.34848276 109.64965194 -80.3125 113.75 C-80.86043213 114.50804932 -81.40836426 115.26609863 -81.97290039 116.04711914 C-83.09072453 117.59333097 -84.20864504 119.13947313 -85.32666016 120.68554688 C-88.05263139 124.45593019 -90.77621534 128.22803694 -93.5 132 C-94.58332144 133.50000859 -95.66665479 135.00000858 -96.75 136.5 C-97.28625 137.2425 -97.8225 137.985 -98.375 138.75 C-143.33333333 201 -188.29166667 263.25 -233.25 325.5 C-233.78616943 326.24241943 -234.32233887 326.98483887 -234.87475586 327.74975586 C-235.95878416 329.2506555 -237.04293142 330.75146922 -238.12719727 332.25219727 C-240.82587655 335.98773967 -243.52251312 339.72472254 -246.21484375 343.46484375 C-251.82903178 351.25915847 -257.47885383 359.024536 -263.1875 366.75 C-268.00286929 373.26722873 -272.75864473 379.82113315 -277.453125 386.42578125 C-280.38542733 390.54889574 -283.34848276 394.64965194 -286.3125 398.75 C-286.86043213 399.50804932 -287.40836426 400.26609863 -287.97290039 401.04711914 C-289.09072453 402.59333097 -290.20864504 404.13947313 -291.32666016 405.68554688 C-294.05263139 409.45593019 -296.77621534 413.22803694 -299.5 417 C-300.58332144 418.50000859 -301.66665479 420.00000858 -302.75 421.5 C-303.28625 422.2425 -303.8225 422.985 -304.375 423.75 C-349.33333333 486 -394.29166667 548.25 -439.25 610.5 C-439.78616943 611.24241943 -440.32233887 611.98483887 -440.87475586 612.74975586 C-441.95878416 614.2506555 -443.04293142 615.75146922 -444.12719727 617.25219727 C-446.82587655 620.98773967 -449.52251312 624.72472254 -452.21484375 628.46484375 C-457.82903178 636.25915847 -463.47885383 644.024536 -469.1875 651.75 C-474.00286929 658.26722873 -478.75864473 664.82113315 -483.453125 671.42578125 C-486.38542733 675.54889574 -489.34848276 679.64965194 -492.3125 683.75 C-492.86043213 684.50804932 -493.40836426 685.26609863 -493.97290039 686.04711914 C-495.09072453 687.59333097 -496.20864504 689.13947313 -497.32666016 690.68554688 C-500.05263139 694.45593019 -502.77621534 698.22803694 -505.5 702 C-506.58332144 703.50000859 -507.66665479 705.00000858 -508.75 706.5 C-509.28625 707.2425 -509.8225 707.985 -510.375 708.75 C-554.25 769.5 -554.25 769.5 -555.87670898 771.75219727 C-556.95455987 773.24471841 -558.03219834 774.73739297 -559.10961914 776.23022461 C-561.9000672 780.09596868 -564.69471293 783.95857579 -567.49609375 787.81640625 C-568.07230469 788.61111328 -568.64851563 789.40582031 -569.2421875 790.22460938 C-570.3306394 791.72561966 -571.42037315 793.22570171 -572.51171875 794.72460938 C-576.13963518 799.73169506 -579.60321809 804.83354224 -583 810 C-583.66 809.67 -584.32 809.34 -585 809 C-585.28129664 764.37543989 -585.53578496 719.75076344 -585.64553833 675.12541199 C-585.64716585 674.46463008 -585.64879337 673.80384818 -585.6504702 673.12304258 C-585.68567938 658.76143157 -585.71598946 644.39981412 -585.74125498 630.03818225 C-585.75367553 622.99493546 -585.76717832 615.95169093 -585.78125 608.90844727 C-585.78263186 608.20757107 -585.78401371 607.50669487 -585.78543744 606.78458 C-585.83071093 584.07908012 -585.94740445 561.37463211 -586.10125751 538.66963012 C-586.26349999 514.66916789 -586.34410286 490.66966684 -586.33897984 466.66863936 C-586.338541 452.29375641 -586.40314728 437.92219133 -586.55106683 423.54805686 C-586.64627369 413.69006621 -586.66036671 403.83403366 -586.61086051 393.97571603 C-586.58468308 388.28693134 -586.59408308 382.60410536 -586.69989586 376.91611481 C-587.28572908 343.63690526 -587.28572908 343.63690526 -581.8298707 335.9374578 C-576.72119273 331.28129973 -571.1536224 328.79349114 -564.5861876 326.82802236 C-561.00342762 325.68092639 -558.17728483 323.95173778 -555.0078125 321.94140625 C-553.04749302 320.81402884 -551.08656525 319.68770844 -549.125 318.5625 C-540.73398528 313.73541089 -532.35725733 308.88530344 -524 304 C-514.59015408 298.50044714 -505.15529369 293.04550765 -495.7109375 287.60546875 C-488.4604851 283.42650872 -481.22511731 279.22259494 -474 275 C-464.5900967 269.50054464 -455.15529437 264.04550804 -445.7109375 258.60546875 C-438.4604851 254.42650872 -431.22511731 250.22259494 -424 246 C-414.5900967 240.50054464 -405.15529437 235.04550804 -395.7109375 229.60546875 C-388.4604851 225.42650872 -381.22511731 221.22259494 -374 217 C-364.5900967 211.50054464 -355.15529437 206.04550804 -345.7109375 200.60546875 C-338.4604851 196.42650872 -331.22511731 192.22259494 -324 188 C-315.68248208 183.1389704 -307.34794347 178.30858897 -299 173.5 C-286.63977482 166.37913592 -274.31532673 159.19816622 -262 152 C-248.59241282 144.16342017 -235.16840721 136.35721392 -221.71142578 128.60571289 C-214.46078014 124.42672406 -207.22527414 120.2226866 -200 116 C-190.5900967 110.50054464 -181.15529437 105.04550804 -171.7109375 99.60546875 C-164.4604851 95.42650872 -157.22511731 91.22259494 -150 87 C-140.5900967 81.50054464 -131.15529437 76.04550804 -121.7109375 70.60546875 C-114.4604851 66.42650872 -107.22511731 62.22259494 -100 58 C-90.5900967 52.50054464 -81.15529437 47.04550804 -71.7109375 41.60546875 C-63.47883395 36.86071217 -55.26872098 32.07926497 -47.06542969 27.28491211 C-38.42131779 22.23680216 -29.75322856 17.23092285 -21.078125 12.23632812 C-14.03779405 8.18185182 -7.01356256 4.10060873 0 0 Z " fill="#BFCAF6" transform="translate(1873,1377)"/>
</svg>
