<?xml version="1.0" encoding="UTF-8"?>
<svg version="1.1" xmlns="http://www.w3.org/2000/svg" width="980" height="980">
<path d="M0 0 C1.91484813 -0.00187062 3.82969587 -0.00417232 5.74454302 -0.00686532 C10.98248535 -0.01295875 16.22041167 -0.01285263 21.45835674 -0.01167095 C27.1170513 -0.01146632 32.7757408 -0.01699167 38.43443298 -0.02172852 C49.51237066 -0.03002231 60.59030301 -0.03278279 71.66824353 -0.03334089 C80.6771395 -0.03381669 89.68603371 -0.03587461 98.69492912 -0.03904152 C120.10267303 -0.04641338 141.51041521 -0.05256671 162.91816044 -0.05204296 C163.60211912 -0.05202738 164.2860778 -0.0520118 164.99076249 -0.05199575 C168.4569567 -0.05191265 171.92315091 -0.05181361 175.38934512 -0.05171105 C176.42184929 -0.05168113 176.42184929 -0.05168113 177.47521214 -0.05165061 C178.867195 -0.05161017 180.25917787 -0.05156837 181.65116073 -0.05152521 C203.29677969 -0.05091278 224.94238297 -0.05841468 246.58799744 -0.07209778 C270.93588053 -0.08748294 295.2837507 -0.09604987 319.63163942 -0.09513456 C332.51223649 -0.09480311 345.39281588 -0.09752733 358.27340889 -0.10831261 C369.24167579 -0.11743806 380.209917 -0.11957611 391.17818607 -0.11280318 C396.76835183 -0.1095482 402.35846836 -0.1094442 407.94862938 -0.11815643 C413.07793033 -0.1260678 418.20714336 -0.1245431 423.33644228 -0.1158723 C425.18028601 -0.11434745 427.02413646 -0.11611461 428.86797226 -0.12173238 C444.90295196 -0.1673052 460.84516465 0.78218186 476.53160095 4.32121277 C477.48953552 4.53479431 478.44747009 4.74837585 479.43443298 4.96842957 C488.96897548 7.19536651 498.01597215 10.33912242 507.03160095 14.13371277 C507.74477478 14.43116394 508.45794861 14.72861511 509.19273376 15.03507996 C526.54763441 22.40235077 542.06067613 32.52190509 556.03160095 45.13371277 C557.48872353 46.38512393 558.94689466 47.63531634 560.40660095 48.88371277 C591.53011053 76.43354171 611.63832207 117.13413235 617.03160095 158.13371277 C617.16368521 159.07800317 617.16368521 159.07800317 617.29843783 160.04137015 C618.38097174 169.0565892 618.17686257 178.11891473 618.17204285 187.18309021 C618.17462922 189.13119749 618.17764313 191.07930424 618.18104625 193.02741027 C618.18908779 198.36669191 618.19090423 203.70596009 618.19164371 209.04524708 C618.19349928 214.80969412 618.20104922 220.57413425 618.20777893 226.33857727 C618.22134334 238.93823305 618.22738425 251.53788563 618.23178959 264.13754749 C618.23455566 272.01173533 618.23879372 279.88592194 618.24329376 287.76010895 C618.2554848 309.58038385 618.26581923 331.40065761 618.26916885 353.22093582 C618.26939048 354.63079659 618.26961227 356.04065735 618.26983421 357.45051812 C618.27005484 358.86367392 618.27027532 360.27682971 618.27049565 361.68998551 C618.27093819 364.52474356 618.27138531 367.3595016 618.27183533 370.19425964 C618.27194472 370.89710952 618.27205411 371.59995939 618.27216681 372.32410775 C618.27579419 395.09337448 618.2917032 417.8626093 618.31502569 440.63186382 C618.33967164 464.73752717 618.35333723 488.84317217 618.35453677 512.94884849 C618.35545153 526.07606233 618.36115339 539.20323441 618.37935638 552.33043671 C618.39480777 563.51240497 618.39984828 574.69431856 618.39161828 585.87629548 C618.38772935 591.5741814 618.38855483 597.27195738 618.40267563 602.96982956 C618.4155208 608.20117433 618.41412512 613.43232775 618.40208492 618.66367266 C618.40014611 620.54127815 618.40312063 622.41889771 618.41192928 624.29648355 C618.55419481 656.71201778 611.26442824 686.57942917 596.03160095 715.13371277 C595.54820251 716.05047791 595.54820251 716.05047791 595.05503845 716.98576355 C588.53635636 729.25135286 580.45456921 739.73276294 571.0511322 749.92668152 C569.29255188 751.84853429 567.6234032 753.81018766 565.96910095 755.82121277 C562.6619063 759.68408783 558.95239521 762.90630657 555.03160095 766.13371277 C554.04417908 766.95871277 553.0567572 767.78371277 552.03941345 768.63371277 C522.99117041 792.46574281 484.58633534 809.34343406 446.57106781 809.26793385 C445.75354288 809.27028608 444.93601795 809.27263831 444.09371954 809.27506182 C441.36063813 809.28170646 438.62760477 809.28129497 435.89451599 809.28088379 C433.91243687 809.28418527 431.93035841 809.28791143 429.94828081 809.29202527 C424.50572918 809.30202155 419.06318858 809.30575825 413.62062907 809.30841458 C407.74840374 809.31232481 401.87618707 809.3219028 396.00396729 809.33062744 C382.49271339 809.3494406 368.98145885 809.35964619 355.47019511 809.36808812 C348.78524237 809.37230043 342.10029051 809.37752174 335.41533851 809.38277265 C312.50752847 809.40066329 289.59971815 809.4156554 266.69190216 809.42309284 C265.25449027 809.42356759 263.81707837 809.42404348 262.37966648 809.4245205 C261.66687482 809.42475688 260.95408317 809.42499326 260.21969177 809.4252368 C256.60865498 809.42643793 252.9976182 809.4276534 249.38658142 809.42887878 C248.31166985 809.42923901 248.31166985 809.42923901 247.2150429 809.42960651 C224.0098635 809.43748969 200.80473538 809.460901 177.59957836 809.49343473 C153.0354769 809.52781043 128.47140539 809.54745128 103.90727949 809.55073708 C101.20520495 809.55115458 98.50313043 809.55163413 95.80105591 809.55216026 C95.13578438 809.55228345 94.47051285 809.55240665 93.78508158 809.55253357 C83.78143793 809.55471293 73.77785669 809.56803837 63.77423096 809.58719826 C52.37596867 809.60897929 40.97780001 809.61691948 29.57951927 809.60723148 C23.77200305 809.60270788 17.96467969 809.60445916 12.15719032 809.62399292 C-47.3450675 809.81285062 -96.62220244 796.99933846 -140.03089905 754.44621277 C-163.74696202 730.68215872 -180.1007204 699.29640385 -187.21839905 666.57121277 C-187.36970276 665.87689148 -187.52100647 665.18257019 -187.67689514 664.46720886 C-190.61859048 649.83185904 -191.26247942 635.27943513 -191.22909546 620.40113831 C-191.23212298 618.46420064 -191.23601544 616.52726416 -191.24068803 614.59032977 C-191.2508996 609.3143822 -191.24880379 604.03850312 -191.24450743 598.76255012 C-191.24202765 593.0541002 -191.2510699 587.34566625 -191.25854492 581.63722229 C-191.27125982 570.4710582 -191.27308958 559.3049182 -191.27074466 548.13874809 C-191.26895755 539.05611016 -191.27071955 529.9734795 -191.2749691 520.89084244 C-191.27556429 519.59536661 -191.27615948 518.29989078 -191.2767727 516.96515811 C-191.27798453 514.33288601 -191.27919866 511.70061391 -191.28041508 509.06834181 C-191.28819578 491.40822318 -191.29212608 473.74810794 -191.28809834 456.0879879 C-191.28794196 455.39844587 -191.28778558 454.70890385 -191.28762447 453.99846661 C-191.28681878 450.50423563 -191.28597301 447.01000466 -191.28511117 443.5157737 C-191.28494008 442.82190937 -191.28476899 442.12804504 -191.28459272 441.41315453 C-191.28424606 440.00999428 -191.28389753 438.60683404 -191.28354713 437.2036738 C-191.27819293 415.38264866 -191.2861155 393.56166396 -191.30458069 371.74064636 C-191.32534218 347.17770542 -191.33598434 322.61479187 -191.3320052 298.05184138 C-191.33009755 285.06387254 -191.33253795 272.07594053 -191.34671974 259.08797836 C-191.35867313 248.02953878 -191.35999432 236.97115868 -191.34792957 225.91271822 C-191.34206826 220.27947082 -191.34086472 214.64633201 -191.35293198 209.01309204 C-191.4557663 157.52020789 -191.4557663 157.52020789 -185.15589905 135.13371277 C-184.89728088 134.18423767 -184.63866272 133.23476257 -184.37220764 132.2565155 C-174.80499011 98.11644154 -153.95649545 64.28122144 -125.96839905 42.13371277 C-125.45422424 41.71831238 -124.94004944 41.30291199 -124.41029358 40.87492371 C-97.64930556 19.39148618 -65.24229353 4.85210698 -30.96839905 1.13371277 C-30.21546163 1.05149512 -29.46252421 0.96927748 -28.6867705 0.88456839 C-19.12260228 -0.04033322 -9.59772655 -0.0089244 0 0 Z " fill="#EDEFF8" transform="translate(274.96839904785156,94.86628723144531)"/>
<path d="M0 0 C1.16865601 -0.00426498 2.33731201 -0.00852997 3.54138184 -0.01292419 C4.83057526 -0.01247101 6.11976868 -0.01201782 7.44802856 -0.0115509 C8.81487114 -0.0145423 10.18171286 -0.01794478 11.54855347 -0.02172852 C15.27280413 -0.03058851 18.99703183 -0.03290785 22.72129202 -0.0335443 C25.05554155 -0.03425527 27.38978527 -0.03639078 29.72403336 -0.03904152 C37.89082457 -0.04831122 46.05759945 -0.05237559 54.22439575 -0.05158997 C61.79373381 -0.05099317 69.36299967 -0.06146176 76.93231952 -0.07733363 C83.45491486 -0.09051457 89.97748697 -0.09576928 96.50009549 -0.09513456 C100.38406028 -0.09488205 104.26796135 -0.09759242 108.15191269 -0.10831261 C151.50291961 -0.21944578 151.50291961 -0.21944578 170.50320435 6.13371277 C172.20433747 6.65938772 173.90621941 7.18264297 175.6086731 7.70402527 C191.66397622 12.70896332 203.61305187 19.26128034 215.50320435 31.13371277 C216.11035278 31.72925964 216.71750122 32.32480652 217.3430481 32.93840027 C230.18492746 46.63186315 233.78739057 64.70625477 233.4236145 82.7775116 C232.7267772 93.93654951 232.7267772 93.93654951 236.98757935 103.70011902 C240.06536651 105.90127277 243.07862774 107.53906259 246.50320435 109.13371277 C257.37535693 117.29808396 263.55876146 132.04771083 265.50320435 145.13371277 C265.71557789 149.34049365 265.68831407 153.5470468 265.69070435 157.75871277 C265.70295044 158.87117371 265.71519653 159.98363464 265.72781372 161.12980652 C265.7838378 193.21293105 252.78161756 227.40118743 230.2571106 250.43058777 C204.91867177 275.30179297 171.58777189 281.71427998 137.30178833 282.70451355 C129.88804614 282.97460929 122.99252642 283.64439069 117.50320435 289.13371277 C111.04820963 298.79169221 110.83323811 311.60574518 109.5930481 322.84757996 C108.92686541 328.86025725 108.07955004 334.79606018 107.04983521 340.7565155 C106.39611644 344.79532374 105.85198797 348.84304414 105.3196106 352.89933777 C105.16624489 354.05489418 105.16624489 354.05489418 105.00978088 355.23379517 C104.58643996 358.42470137 104.1638449 361.61560246 103.75588989 364.80851746 C103.45250233 367.17336006 103.13702624 369.53634246 102.8196106 371.89933777 C102.73199966 372.60785889 102.64438873 373.31638 102.55412292 374.04637146 C101.62698215 380.80885725 100.12500843 387.74167833 94.50320435 392.13371277 C91.03655723 393.28926181 88.29084267 393.28916604 84.63259888 393.32658386 C83.93793518 393.33476135 83.24327148 393.34293884 82.52755737 393.35136414 C80.23038589 393.3761623 77.93327588 393.39271806 75.63601685 393.40715027 C74.85066433 393.41247395 74.06531181 393.41779762 73.25616074 393.42328262 C69.10072557 393.44998758 64.94532021 393.46937253 60.78982544 393.48381042 C57.35205541 393.49716036 53.91487746 393.52503503 50.47732544 393.56584167 C46.3240909 393.61514138 42.17139414 393.63992758 38.01787949 393.64703751 C36.43661501 393.65375114 34.8553626 393.66897636 33.27426529 393.69292831 C31.05974028 393.72456716 28.84729076 393.72462035 26.63259888 393.71720886 C24.74421799 393.72933914 24.74421799 393.72933914 22.81768799 393.74171448 C18.59571822 392.96724548 17.19125373 391.40344829 14.50320435 388.13371277 C9.48890903 380.61226979 12.94542085 368.53633729 14.50320435 360.13371277 C15.01810726 357.66029044 15.5428588 355.18889794 16.0774231 352.71965027 C16.34514526 351.48005554 16.61286743 350.24046082 16.88870239 348.96330261 C17.09148804 348.02953796 17.29427368 347.09577332 17.50320435 346.13371277 C16.53933807 346.14481583 15.5754718 346.15591888 14.58239746 346.1673584 C5.48979458 346.26880678 -3.60269317 346.34371273 -12.69573402 346.39277363 C-17.37038422 346.41884471 -22.04457679 346.45419692 -26.71896362 346.51091003 C-31.23179992 346.56531917 -35.74419663 346.59515204 -40.25733566 346.60809898 C-41.9773386 346.61732295 -43.69731802 346.63533566 -45.41713333 346.66236305 C-47.83044271 346.69877348 -50.2419463 346.70365338 -52.65548706 346.70133972 C-53.36327301 346.7193161 -54.07105896 346.73729248 -54.80029297 346.7558136 C-60.43740759 346.69751011 -62.66137978 344.95420302 -66.49679565 341.13371277 C-70.32727743 336.19115563 -69.55643346 331.46734313 -69.0163269 325.54777527 C-68.49679565 322.13371277 -68.49679565 322.13371277 -67.55636597 318.49797058 C-66.41420083 313.99883676 -65.69525861 309.48127944 -65.0241394 304.89152527 C-64.8961647 304.04194244 -64.76819 303.19235962 -64.63633728 302.31703186 C-64.23198569 299.63145991 -63.83258709 296.9451897 -63.43429565 294.25871277 C-63.03224862 291.5508431 -62.62902925 288.84318036 -62.22154236 286.13612366 C-61.96899421 284.45832293 -61.71956944 282.78004847 -61.47358704 281.10127258 C-60.60944889 275.35901924 -60.60944889 275.35901924 -59.49679565 273.13371277 C-59.17162962 271.31688879 -58.88976815 269.49222823 -58.62960815 267.66496277 C-58.46758911 266.54404236 -58.30557007 265.42312195 -58.13864136 264.26823425 C-57.88280273 262.46914612 -57.88280273 262.46914612 -57.62179565 260.63371277 C-56.4070179 252.27011496 -55.18567813 243.90995692 -53.80929565 235.57121277 C-53.69021851 234.83515808 -53.57114136 234.09910339 -53.44845581 233.34074402 C-52.61833555 228.37679256 -52.61833555 228.37679256 -51.49679565 226.13371277 C-51.17162962 224.31688879 -50.88976815 222.49222823 -50.62960815 220.66496277 C-50.46758911 219.54404236 -50.30557007 218.42312195 -50.13864136 217.26823425 C-49.96808228 216.06884216 -49.79752319 214.86945007 -49.62179565 213.63371277 C-48.4070179 205.27011496 -47.18567813 196.90995692 -45.80929565 188.57121277 C-45.69021851 187.83515808 -45.57114136 187.09910339 -45.44845581 186.34074402 C-44.61833555 181.37679256 -44.61833555 181.37679256 -43.49679565 179.13371277 C-43.15992384 177.24657117 -42.86631116 175.35162338 -42.5944519 173.45402527 C-42.42622925 172.29644714 -42.25800659 171.13886902 -42.08468628 169.94621277 C-41.91130737 168.72933777 -41.73792847 167.51246277 -41.55929565 166.25871277 C-37.92335095 140.98682337 -37.92335095 140.98682337 -36.49679565 138.13371277 C-36.20308519 136.50513419 -35.95281846 134.86862849 -35.72409058 133.22966003 C-35.5762764 132.19389328 -35.42846222 131.15812653 -35.27616882 130.0909729 C-35.11565536 128.95136612 -34.95514191 127.81175934 -34.7897644 126.63761902 C-32.6060735 111.53045931 -30.1085224 96.48330857 -27.55026245 81.43571472 C-26.92076948 77.73247192 -26.29687771 74.02830797 -25.67434406 70.32388973 C-25.18850555 67.43685408 -24.69967368 64.55033157 -24.20992088 61.6639576 C-23.9781025 60.29535342 -23.74725663 58.92658414 -23.51741982 57.5576458 C-23.20023521 55.67094046 -22.87853912 53.78499522 -22.55661011 51.89909363 C-22.37548172 50.83025436 -22.19435333 49.7614151 -22.00773621 48.66018677 C-21.49679565 46.13371277 -21.49679565 46.13371277 -20.49679565 44.13371277 C-20.16002605 42.19953083 -19.86638088 40.2577583 -19.5944519 38.31340027 C-19.42622925 37.13777527 -19.25800659 35.96215027 -19.08468628 34.75090027 C-18.7377283 32.2796308 -18.39136251 29.80827811 -18.04562378 27.33683777 C-15.47841896 9.41521019 -15.47841896 9.41521019 -10.99679565 4.69621277 C-10.0841394 3.70814636 -10.0841394 3.70814636 -9.15304565 2.70011902 C-6.16176474 -0.12889901 -4.01279268 0.00659725 0 0 Z " fill="#002B8A" transform="translate(406.4967956542969,191.8662872314453)"/>
<path d="M0 0 C13.3694778 4.72562359 22.33416282 16.90901255 28.45703125 29.08203125 C32.46430183 38.51584057 33.46331185 47.84131404 33.3125 58 C33.31572266 59.08539063 33.31894531 60.17078125 33.32226562 61.2890625 C33.1121701 93.29998099 20.23787356 127.30892302 -2.24609375 150.296875 C-27.58453258 175.1680802 -60.91543246 181.58056722 -95.20141602 182.57080078 C-102.6151582 182.84089652 -109.51067792 183.51067792 -115 189 C-121.45499472 198.65797944 -121.66996623 211.47203241 -122.91015625 222.71386719 C-123.57633894 228.72654448 -124.42365431 234.66234741 -125.45336914 240.62280273 C-126.1070879 244.66161097 -126.65121638 248.70933137 -127.18359375 252.765625 C-127.28583755 253.53599594 -127.38808136 254.30636688 -127.49342346 255.1000824 C-127.91676439 258.2909886 -128.33935945 261.48188969 -128.74731445 264.67480469 C-129.05070202 267.03964729 -129.36617811 269.40262969 -129.68359375 271.765625 C-129.77120468 272.47414612 -129.85881561 273.18266724 -129.94908142 273.91265869 C-130.8762222 280.67514448 -132.37819592 287.60796556 -138 292 C-141.46664712 293.15554904 -144.21236167 293.15545327 -147.87060547 293.19287109 C-148.56526917 293.20104858 -149.25993286 293.20922607 -149.97564697 293.21765137 C-152.27281846 293.24244953 -154.56992847 293.25900529 -156.8671875 293.2734375 C-157.65254002 293.27876118 -158.43789253 293.28408485 -159.24704361 293.28956985 C-163.40247877 293.31627482 -167.55788414 293.33565976 -171.71337891 293.35009766 C-175.15114894 293.36344759 -178.58832689 293.39132226 -182.02587891 293.43212891 C-186.17911345 293.48142861 -190.3318102 293.50621481 -194.48532486 293.51332474 C-196.06658933 293.52003837 -197.64784175 293.53526359 -199.22893906 293.55921555 C-201.44346406 293.59085439 -203.65591359 293.59090758 -205.87060547 293.58349609 C-207.75898636 293.59562637 -207.75898636 293.59562637 -209.68551636 293.60800171 C-213.90748613 292.83353271 -215.31195061 291.26973552 -218 288 C-220.23295365 284.65056952 -220.27098874 283.53939942 -220.25 279.625 C-220.25515625 278.68914062 -220.2603125 277.75328125 -220.265625 276.7890625 C-219.48522464 265.65688089 -217.02257504 254.67746928 -214.85546875 243.75 C-212.86314374 233.58058645 -211.28153728 223.37836789 -209.96069336 213.10131836 C-208.64123552 202.87671959 -206.89082552 192.79384951 -204.90625 182.6796875 C-203.42373504 175.10741089 -202.325787 167.49614929 -201.3203125 159.84765625 C-199.0119414 142.33519742 -199.0119414 142.33519742 -197.5625 134.5 C-197.35753906 133.3759375 -197.15257812 132.251875 -196.94140625 131.09375 C-195.01283526 124.75587356 -191.24492695 120.74637639 -186 117 C-182.45080941 116.04763386 -179.10160623 115.86502964 -175.4375 115.875 C-174.04337891 115.87113281 -174.04337891 115.87113281 -172.62109375 115.8671875 C-169.59262965 115.97826385 -166.63204292 116.21202078 -163.6171875 116.49609375 C-156.68350649 117.09514833 -149.77311376 117.18610062 -142.81958008 117.18530273 C-140.70047816 117.18748663 -138.58190105 117.20571812 -136.46289062 117.22460938 C-115.85611815 117.31173434 -92.55132979 114.45602504 -74 105 C-73.42378906 104.71785645 -72.84757813 104.43571289 -72.25390625 104.14501953 C-63.09740362 99.65005241 -54.93341689 94.46384039 -47 88 C-46.22269531 87.38769531 -45.44539062 86.77539062 -44.64453125 86.14453125 C-19.52145369 65.29015359 -6.9512478 30.91362375 0 0 Z " fill="#019AE0" transform="translate(639,292)"/>
<path d="M0 0 C1.4946151 -0.00845947 1.4946151 -0.00845947 3.01942444 -0.01708984 C4.10670837 -0.01304138 5.19399231 -0.00899292 6.31422424 -0.00482178 C7.46435501 -0.00832642 8.61448578 -0.01183105 9.79946899 -0.01544189 C13.61117043 -0.02426065 17.42268684 -0.01840593 21.23439026 -0.01165771 C23.88796214 -0.01300515 26.5415284 -0.01494359 29.19509888 -0.01745605 C34.76607768 -0.02109588 40.33700349 -0.01630097 45.90797424 -0.0067749 C52.31871087 0.00406164 58.72931979 0.00061931 65.14005321 -0.01042771 C70.66217072 -0.01955785 76.18425016 -0.02075667 81.7063728 -0.01555037 C84.99595845 -0.01245572 88.28547222 -0.01275272 91.57505608 -0.01862335 C95.2577286 -0.02374913 98.94016301 -0.01589164 102.62281799 -0.00482178 C103.69188385 -0.00887024 104.76094971 -0.0129187 105.8624115 -0.01708984 C123.3459032 0.07940835 140.79787039 3.58753199 156.05079651 12.25396729 C157.86745281 38.14131951 140.24046962 68.99650579 124.05079651 88.25396729 C123.34439026 89.12408447 122.63798401 89.99420166 121.91017151 90.89068604 C108.84237041 106.3058514 91.03487022 116.81386598 72.05079651 123.25396729 C71.16005432 123.57365479 70.26931213 123.89334229 69.35157776 124.22271729 C64.74134675 125.66307348 60.06987958 126.73967265 55.36329651 127.81646729 C53.96820862 128.14807861 53.96820862 128.14807861 52.54493713 128.48638916 C41.31059175 131.06335958 30.25991843 131.41809602 18.78102112 131.38433838 C16.62022358 131.37898445 14.45963461 131.38431274 12.29884338 131.39068604 C5.00943764 131.39396953 -2.19992495 131.1742186 -9.46263123 130.4854126 C-21.79182837 129.29811806 -21.79182837 129.29811806 -32.92576599 133.72271729 C-34.65612637 135.18421689 -36.32098741 136.68019004 -37.94920349 138.25396729 C-38.07619012 133.54916812 -37.70761498 129.46505303 -36.60935974 124.89459229 C-34.75198662 116.65365789 -33.55537505 108.36609318 -32.38670349 100.00396729 C-32.07288707 97.77540885 -31.75754284 95.54709682 -31.43896484 93.31921387 C-31.15186514 91.30932994 -30.8695767 89.29876041 -30.58763123 87.28814697 C-30.15235519 84.37232607 -29.60154206 81.49744797 -29.00169373 78.61114502 C-27.7175577 72.31743776 -26.83461339 65.97410401 -25.92576599 59.61724854 C-25.54107483 56.9927901 -25.15566394 54.36844532 -24.76951599 51.74420166 C-24.16728795 47.64397502 -23.56948616 43.54323089 -22.98631287 39.44024658 C-22.6029223 36.74517585 -22.21183437 34.05144286 -21.81208801 31.35874939 C-21.43771684 28.83617896 -21.07426305 26.31195703 -20.72328186 23.786026 C-19.59345523 16.3045084 -18.30272009 9.32745967 -11.94920349 4.44146729 C-7.79104439 1.40947627 -5.17867015 0.00451783 0 0 Z " fill="#001F6A" transform="translate(481.94920349121094,278.74603271484375)"/>
<path d="M0 0 C1.21193527 -0.00615326 2.42387054 -0.01230652 3.67253113 -0.01864624 C5.63347466 0.00291031 5.63347466 0.00291031 7.6340332 0.02490234 C8.99680914 0.02728931 10.3595884 0.02819156 11.72236633 0.02767944 C14.57976887 0.03080603 17.4366692 0.04734943 20.29394531 0.07421875 C23.93409985 0.10803733 27.57369891 0.11585163 31.21399212 0.11432838 C34.03067713 0.11487599 36.84724367 0.12590773 39.66388893 0.14033127 C41.65169973 0.14969124 43.63953521 0.15323608 45.62736511 0.15664673 C58.02951709 0.28554491 67.83947709 2.03165429 77.30200195 10.56396484 C83.73436366 17.30262949 86.05855847 23.30156404 86.43481445 32.54833984 C85.99959104 48.10757675 80.51874575 63.88981114 69.99731445 75.48583984 C59.20540183 84.78147342 47.3986044 88.41148854 33.4152832 88.62646484 C32.23643555 88.64580078 31.05758789 88.66513672 29.84301758 88.68505859 C27.38485349 88.71918153 24.92641714 88.73716238 22.46801758 88.73974609 C20.70941406 88.77648437 20.70941406 88.77648437 18.9152832 88.81396484 C17.85075928 88.82331055 16.78623535 88.83265625 15.68945312 88.84228516 C12.85563529 89.24318141 12.85563529 89.24318141 11.20532227 91.55493164 C9.77620086 95.02231289 9.19076289 98.35873664 8.7512207 102.05224609 C8.55161296 103.52168276 8.35173504 104.99108274 8.15161133 106.46044922 C7.85226915 108.75950537 7.55846644 111.05910919 7.27050781 113.35961914 C6.98676179 115.59265984 6.68253801 117.82220649 6.3762207 120.05224609 C6.25725182 121.08050255 6.25725182 121.08050255 6.13587952 122.12953186 C5.70147109 125.23505329 5.10237053 127.33538022 3.2980957 129.91943359 C0.30640283 131.9562228 -1.59012442 131.98805419 -5.1940918 131.98193359 C-6.38583008 131.98257813 -7.57756836 131.98322266 -8.80541992 131.98388672 C-10.04614258 131.96390625 -11.28686523 131.94392578 -12.56518555 131.92333984 C-14.43207031 131.93397461 -14.43207031 131.93397461 -16.33666992 131.94482422 C-25.48033637 131.88046706 -25.48033637 131.88046706 -27.86083984 130.08203125 C-30.00180717 127.08916309 -29.22904029 124.05092708 -29.00268555 120.48583984 C-28.50768555 119.49583984 -28.50768555 119.49583984 -28.00268555 118.48583984 C-27.63409988 115.6523375 -27.30123388 112.8267138 -27.00268555 109.98583984 C-26.13782068 101.75611011 -26.13782068 101.75611011 -25.00268555 99.48583984 C-24.65542518 96.7982197 -24.34656044 94.1178476 -24.06518555 91.42333984 C-23.48455831 86.15458426 -22.78711379 81.06718116 -21.50268555 75.91943359 C-20.52981947 71.18431199 -20.09866682 66.3496713 -19.56518555 61.54833984 C-19.21367433 58.69881106 -18.68235187 55.95241927 -18.02612305 53.15771484 C-16.84567737 48.0562694 -16.24157632 42.93095185 -15.62768555 37.73583984 C-14.6187613 29.7238712 -13.48534671 21.74844403 -12.06518555 13.79833984 C-11.91968262 12.92016602 -11.77417969 12.04199219 -11.62426758 11.13720703 C-11.39586182 9.91179199 -11.39586182 9.91179199 -11.1628418 8.66162109 C-11.03530518 7.94917236 -10.90776855 7.23672363 -10.77636719 6.50268555 C-8.72688972 1.16007483 -5.4121031 -0.01447791 0 0 Z " fill="#022F8A" transform="translate(217.002685546875,626.51416015625)"/>
<path d="M0 0 C1.18876236 -0.00622879 2.37752472 -0.01245758 3.60231018 -0.01887512 C4.88975632 -0.00966537 6.17720245 -0.00045563 7.50366211 0.0090332 C8.84305318 0.00955229 10.18244501 0.0090327 11.52183533 0.00752258 C14.33384536 0.00761234 17.14556897 0.01804005 19.95751953 0.03613281 C23.53593442 0.05866717 27.11392533 0.05939239 30.6923914 0.05261517 C33.46278039 0.04924577 36.2330755 0.05596309 39.00344658 0.0657444 C40.95631507 0.07139618 42.90919964 0.07016923 44.86207581 0.06877136 C56.80342959 0.16277744 65.30693604 1.59350867 75.21850586 8.37231445 C76.14663086 8.97043945 77.07475586 9.56856445 78.03100586 10.18481445 C84.94718515 17.10099374 86.43370129 24.98062818 86.46850586 34.43481445 C86.43000871 50.10817468 81.32965027 63.921038 70.38256836 75.4387207 C60.83855232 83.96631627 49.25756934 87.42158327 36.64819336 87.5480957 C35.42229492 87.57194336 34.19639648 87.59579102 32.93334961 87.62036133 C30.36581279 87.66345833 27.79804926 87.69463844 25.23022461 87.71411133 C24.0069043 87.74182617 22.78358398 87.76954102 21.52319336 87.7980957 C19.85232666 87.81996948 19.85232666 87.81996948 18.14770508 87.84228516 C14.47030829 88.50769843 13.35796992 89.32162577 11.21850586 92.37231445 C10.26169067 95.73703082 10.26169067 95.73703082 9.83959961 99.55200195 C9.7413942 100.24238556 9.64318878 100.93276917 9.54200745 101.64407349 C9.23079174 103.84330631 8.94164677 106.04462531 8.65600586 108.24731445 C8.36466025 110.44242381 8.06827443 112.63643263 7.7592926 114.82913208 C7.47913931 116.82349627 7.21638439 118.82028164 6.95458984 120.81713867 C6.20060848 124.45875613 5.1173683 127.18467068 3.21850586 130.37231445 C-1.12443024 132.5437825 -6.94872974 131.60198301 -11.71899414 131.62231445 C-13.52787109 131.65325195 -13.52787109 131.65325195 -15.37329102 131.68481445 C-16.52764648 131.6899707 -17.68200195 131.69512695 -18.87133789 131.70043945 C-19.93215576 131.70978516 -20.99297363 131.71913086 -22.0859375 131.72875977 C-24.78149414 131.37231445 -24.78149414 131.37231445 -26.63037109 130.00244141 C-28.24248294 127.71949956 -28.11293969 126.07489074 -28.03149414 123.30981445 C-28.01602539 122.43196289 -28.00055664 121.55411133 -27.98461914 120.6496582 C-27.78149414 118.37231445 -27.78149414 118.37231445 -26.78149414 116.37231445 C-26.33988144 112.95445485 -25.96918947 109.53672866 -25.61938477 106.10864258 C-25.21467394 102.38727719 -24.69112054 98.77467469 -23.83398438 95.12866211 C-22.82759062 90.68833759 -22.0459084 86.24070923 -21.34399414 81.7434082 C-21.1555896 80.5542556 -21.1555896 80.5542556 -20.96337891 79.34107971 C-20.69987393 77.67324183 -20.437765 76.00518284 -20.17700195 74.33691406 C-19.78615566 71.83959924 -19.3896336 69.34323468 -18.99243164 66.84692383 C-17.77710808 59.14984283 -16.63702399 51.45853528 -15.71899414 43.7199707 C-15.14055434 38.9211624 -14.41964614 34.28288875 -13.27709961 29.59008789 C-12.66645558 26.85753107 -12.24035362 24.11649782 -11.81665039 21.34887695 C-11.65616211 20.30860352 -11.49567383 19.26833008 -11.33032227 18.1965332 C-11.00270749 16.04138061 -10.68254135 13.88508409 -10.36938477 11.7277832 C-10.20760742 10.69524414 -10.04583008 9.66270508 -9.87915039 8.59887695 C-9.67044312 7.20016357 -9.67044312 7.20016357 -9.45751953 5.77319336 C-7.97047381 0.49200605 -5.15585532 -0.00310004 0 0 Z " fill="#039BE1" transform="translate(550.781494140625,626.627685546875)"/>
<path d="M0 0 C0.94875 0.63164063 1.8975 1.26328125 2.875 1.9140625 C3.57625 2.39617188 4.2775 2.87828125 5 3.375 C5.12375 2.59125 5.2475 1.8075 5.375 1 C6 -1.625 6 -1.625 8 -3.625 C10.58203125 -3.88378906 10.58203125 -3.88378906 13.8125 -3.890625 C14.97007812 -3.89320313 16.12765625 -3.89578125 17.3203125 -3.8984375 C18.53460938 -3.89070312 19.74890625 -3.88296875 21 -3.875 C22.21429688 -3.88273438 23.42859375 -3.89046875 24.6796875 -3.8984375 C26.41605469 -3.89457031 26.41605469 -3.89457031 28.1875 -3.890625 C29.25355469 -3.88836914 30.31960938 -3.88611328 31.41796875 -3.88378906 C34 -3.625 34 -3.625 36 -1.625 C37.37321298 6.74201863 35.23104488 15.31844304 33.63867188 23.51123047 C32.09858163 31.51024304 30.98769588 39.5213346 30.03979492 47.6105957 C29.55109345 51.66061389 29.01554968 55.58265158 27.9609375 59.52734375 C27.2624356 62.32419079 26.81229059 64.65580461 26.578125 67.48046875 C26.49304688 68.49077148 26.49304688 68.49077148 26.40625 69.52148438 C26.30127494 70.89272111 26.21297429 72.26532722 26.140625 73.63867188 C25.79429596 77.38696226 25.01282548 79.35857819 22.6875 82.3359375 C17.99711252 85.70601045 12.2675606 84.97959952 6.75 84.8125 C5.64914062 84.80669922 4.54828125 84.80089844 3.4140625 84.79492188 C-4.70475281 84.67024719 -4.70475281 84.67024719 -7 82.375 C-7.625 80.25 -7.625 80.25 -8 78.375 C-12.50187091 80.12527531 -16.82990457 82.16686037 -21.18359375 84.25390625 C-30.38704358 87.91741541 -42.76390246 87.89945799 -52.125 84.625 C-61.74243883 80.47658236 -68.07647666 74.27250537 -72.4375 64.6875 C-74.31642086 58.96974946 -74.38628301 53.27704224 -74.4375 47.3125 C-74.44773193 46.39057861 -74.45796387 45.46865723 -74.46850586 44.51879883 C-74.30115779 31.37787965 -69.15844006 18.99696881 -60.16796875 9.3515625 C-44.24521504 -5.16539854 -19.39910051 -13.09439284 0 0 Z " fill="#022F8A" transform="translate(369,673.625)"/>
<path d="M0 0 C2.64192074 1.357282 5.17664845 2.81987636 7.69921875 4.38671875 C8.54613281 2.9171875 8.54613281 2.9171875 9.41015625 1.41796875 C11.35772806 -0.91527443 12.3855687 -1.55220263 15.40722656 -2.140625 C18.73025352 -2.27689078 22.00067892 -2.23386319 25.32421875 -2.11328125 C26.46890625 -2.10296875 27.61359375 -2.09265625 28.79296875 -2.08203125 C37.23444121 -1.92313294 37.23444121 -1.92313294 40.69921875 0.38671875 C40.32370247 8.67397468 39.41705311 16.56779598 37.78808594 24.68554688 C36.90621144 29.11875381 36.2854682 33.47066708 36.0078125 37.98046875 C35.64587977 40.80262775 34.90393903 43.48195598 34.19165039 46.23242188 C33.38756149 49.75016132 33.05199844 53.30012521 32.69921875 56.88671875 C32.13985379 62.57359581 31.14333537 67.8547287 29.69921875 73.38671875 C29.25281617 75.98364806 28.84169269 78.58080495 28.45703125 81.1875 C27.45694856 84.08980181 26.31261994 84.81074688 23.69921875 86.38671875 C21.07373047 86.77490234 21.07373047 86.77490234 18.12890625 86.78515625 C16.53755859 86.79095703 16.53755859 86.79095703 14.9140625 86.796875 C13.26083984 86.77947266 13.26083984 86.77947266 11.57421875 86.76171875 C10.46433594 86.77332031 9.35445312 86.78492188 8.2109375 86.796875 C7.15261719 86.79300781 6.09429688 86.78914062 5.00390625 86.78515625 C4.03437012 86.78177246 3.06483398 86.77838867 2.06591797 86.77490234 C0.89440186 86.58275146 0.89440186 86.58275146 -0.30078125 86.38671875 C-2.45272495 83.1588032 -2.50164568 82.10271066 -2.30078125 78.38671875 C-2.955625 78.7734375 -3.61046875 79.16015625 -4.28515625 79.55859375 C-17.48160865 87.0887728 -30.44995538 91.21003074 -45.67578125 87.26171875 C-54.42202869 84.13805895 -60.29981255 79.11402199 -65.30078125 71.38671875 C-66.16703125 70.14921875 -66.16703125 70.14921875 -67.05078125 68.88671875 C-72.23428648 58.51970829 -71.78433363 44.3784024 -68.73828125 33.44921875 C-66.49648208 27.15310194 -63.20445286 21.78218249 -59.30078125 16.38671875 C-58.55828125 15.33484375 -57.81578125 14.28296875 -57.05078125 13.19921875 C-50.17895647 6.17121614 -42.53626308 1.57028075 -33.30078125 -1.61328125 C-32.55570313 -1.96777344 -31.810625 -2.32226562 -31.04296875 -2.6875 C-21.04951007 -6.06135998 -9.41270874 -4.09729674 0 0 Z " fill="#039BE1" transform="translate(699.30078125,671.61328125)"/>
<path d="M0 0 C1.72283203 -0.00386719 1.72283203 -0.00386719 3.48046875 -0.0078125 C4.68574219 -0.00007812 5.89101563 0.00765625 7.1328125 0.015625 C8.33035156 0.00789062 9.52789062 0.00015625 10.76171875 -0.0078125 C11.91285156 -0.00523437 13.06398438 -0.00265625 14.25 0 C15.30558105 0.00225586 16.36116211 0.00451172 17.44873047 0.00683594 C20.28275634 0.26792297 21.90337826 0.69811308 24.2578125 2.265625 C26.8883972 6.59646567 28.27858658 11.2299399 29.6328125 16.078125 C29.94762573 17.17278076 29.94762573 17.17278076 30.26879883 18.28955078 C30.93706022 20.61344156 31.59802656 22.93931494 32.2578125 25.265625 C33.14695717 28.39258834 34.04401667 31.51714549 34.9453125 34.640625 C35.14753418 35.35968018 35.34975586 36.07873535 35.55810547 36.81958008 C36.48889508 40.0447932 37.3784912 42.44664304 39.2578125 45.265625 C41.67771487 41.80954594 44.09347172 38.35059137 46.5078125 34.890625 C47.23202393 33.85381592 47.95623535 32.81700684 48.70239258 31.7487793 C52.13020745 26.82519066 55.53096068 21.89107378 58.81640625 16.87109375 C59.34911133 16.05753418 59.88181641 15.24397461 60.43066406 14.40576172 C61.41528156 12.8926503 62.39290821 11.37495861 63.36230469 9.85205078 C64.02794434 8.82893799 64.02794434 8.82893799 64.70703125 7.78515625 C65.08174561 7.19839111 65.45645996 6.61162598 65.8425293 6.00708008 C68.58344672 2.63447977 70.90576689 0.48353792 75.2722168 -0.22021484 C76.91057495 -0.20788818 76.91057495 -0.20788818 78.58203125 -0.1953125 C80.37157227 -0.18951172 80.37157227 -0.18951172 82.19726562 -0.18359375 C83.43412109 -0.15910156 84.67097656 -0.13460937 85.9453125 -0.109375 C87.19376953 -0.10808594 88.44222656 -0.10679687 89.72851562 -0.10546875 C98.97694735 -0.01524015 98.97694735 -0.01524015 101.2578125 2.265625 C101.75777294 6.29663435 100.93701143 8.32982375 98.58203125 11.56640625 C98.00727051 12.36989502 97.43250977 13.17338379 96.84033203 14.0012207 C96.21497559 14.85159912 95.58961914 15.70197754 94.9453125 16.578125 C93.64390734 18.39017707 92.34313243 20.20268195 91.04296875 22.015625 C90.39602051 22.91023437 89.74907227 23.80484375 89.08251953 24.7265625 C86.62869436 28.14103692 84.25001375 31.60331747 81.8828125 35.078125 C74.0408584 46.52661748 66.0865354 57.89749565 58.15527344 69.28417969 C56.08490334 72.25689494 54.01497398 75.22991635 51.9453125 78.203125 C50.94528198 79.63942261 50.94528198 79.63942261 49.92504883 81.10473633 C46.4789798 86.05816665 43.04649631 91.02027174 39.63818359 95.99975586 C37.51942984 99.09394576 35.38987712 102.18059877 33.2578125 105.265625 C32.87125488 105.82797852 32.48469727 106.39033203 32.08642578 106.96972656 C31.00715922 108.5332497 29.91410965 110.08723235 28.8203125 111.640625 C28.22347656 112.49398437 27.62664062 113.34734375 27.01171875 114.2265625 C24.44072448 117.21555807 22.38788164 118.16151642 18.44873047 118.52441406 C16.86535889 118.52779785 16.86535889 118.52779785 15.25 118.53125 C14.09886719 118.53382813 12.94773437 118.53640625 11.76171875 118.5390625 C9.96541016 118.52746094 9.96541016 118.52746094 8.1328125 118.515625 C6.32490234 118.52722656 6.32490234 118.52722656 4.48046875 118.5390625 C3.33191406 118.53648437 2.18335938 118.53390625 1 118.53125 C-0.57998779 118.52786621 -0.57998779 118.52786621 -2.19189453 118.52441406 C-4.7421875 118.265625 -4.7421875 118.265625 -6.7421875 116.265625 C-6.75924168 109.55480518 -3.58944511 105.62972856 0.3828125 100.453125 C0.9708667 99.65849854 1.5589209 98.86387207 2.16479492 98.04516602 C4.62462818 94.72294816 7.1221667 91.43830495 9.67578125 88.1875 C10.30097656 87.36765625 10.92617188 86.5478125 11.5703125 85.703125 C12.10269531 85.04183594 12.63507813 84.38054687 13.18359375 83.69921875 C16.18976189 76.88888147 13.85506748 69.78311745 11.4453125 63.140625 C11.18427734 62.38136719 10.92324219 61.62210938 10.65429688 60.83984375 C9.49365822 57.50981383 8.2609377 54.27271673 6.83764648 51.04296875 C5.07285971 46.95445339 3.71845655 42.76574208 2.375 38.5234375 C1.98539597 37.30997147 1.98539597 37.30997147 1.58792114 36.07199097 C0.76632678 33.51255486 -0.05092063 30.95176474 -0.8671875 28.390625 C-1.949622 24.99626188 -3.03613938 21.60324381 -4.125 18.2109375 C-4.3729129 17.42872833 -4.62082581 16.64651917 -4.87625122 15.84060669 C-5.79772121 12.27248065 -5.79772121 12.27248065 -7.7421875 9.265625 C-7.9296875 5.828125 -7.9296875 5.828125 -7.7421875 2.265625 C-5.06907044 -0.40749206 -3.73027324 0.00798896 0 0 Z " fill="#032F8A" transform="translate(423.7421875,669.734375)"/>
<path d="M0 0 C1.51883789 0.02018188 1.51883789 0.02018188 3.06835938 0.04077148 C4.72544922 0.05140625 4.72544922 0.05140625 6.41601562 0.06225586 C7.56972656 0.09512695 8.7234375 0.12799805 9.91210938 0.16186523 C11.64267578 0.17056641 11.64267578 0.17056641 13.40820312 0.17944336 C21.96953696 0.30431696 21.96953696 0.30431696 25.41210938 2.59936523 C25.84513134 7.62242003 25.28295146 11.52896689 23.91601562 16.40405273 C23.33077834 18.95369113 23.1118657 21.42913722 22.91210938 24.03686523 C22.5846988 28.28150949 21.88367335 32.22013121 20.88085938 36.34936523 C20.21841181 39.52911357 19.9771921 42.7100304 19.75585938 45.94702148 C19.37825862 48.86055456 18.63967127 51.620607 17.90234375 54.46044922 C17.09740359 57.97244163 16.76435431 61.51820844 16.41210938 65.09936523 C15.93150414 69.98551842 15.20625488 74.5504687 13.94750977 79.31201172 C12.20622019 86.75120099 11.42094346 94.43272301 10.44726562 102.00170898 C10.28677734 103.24114258 10.12628906 104.48057617 9.9609375 105.75756836 C9.6333197 108.30351395 9.31315473 110.85042836 9 113.39819336 C8.83822266 114.62860352 8.67644531 115.85901367 8.50976562 117.12670898 C8.37062744 118.22748779 8.23148926 119.3282666 8.08813477 120.46240234 C7.1858403 124.64932239 6.11635123 128.35918714 2.54541016 130.95776367 C0.03506838 131.71276232 -2.0981856 131.85832806 -4.72070312 131.86499023 C-5.69136719 131.86756836 -6.66203125 131.87014648 -7.66210938 131.87280273 C-8.66886719 131.86506836 -9.675625 131.85733398 -10.71289062 131.84936523 C-11.72738281 131.85709961 -12.741875 131.86483398 -13.78710938 131.87280273 C-14.75519531 131.87022461 -15.72328125 131.86764648 -16.72070312 131.86499023 C-17.6064502 131.86273437 -18.49219727 131.86047852 -19.40478516 131.8581543 C-21.58789062 131.59936523 -21.58789062 131.59936523 -23.58789062 129.59936523 C-24.86840599 120.82932396 -22.91272589 112.2000811 -21.15844727 103.64575195 C-19.81258424 97.03510176 -18.85641943 90.46391796 -18.18408203 83.75268555 C-17.67667906 78.7769421 -17.67667906 78.7769421 -16.58789062 76.59936523 C-16.14627793 73.18150563 -15.77558595 69.76377944 -15.42578125 66.33569336 C-15.02523343 62.65260733 -14.51215162 59.08124124 -13.65185547 55.47558594 C-12.49427878 50.36787831 -11.7161687 45.2335071 -10.96679688 40.05249023 C-10.66843225 38.05372307 -10.36959012 36.05502714 -10.0703125 34.05639648 C-9.60692548 30.94103644 -9.14690364 27.82530974 -8.69506836 24.70825195 C-8.25384821 21.67560675 -7.79891199 18.64527462 -7.34179688 15.61499023 C-7.21043839 14.68471008 -7.0790799 13.75442993 -6.94374084 12.79595947 C-5.16743572 1.19679761 -5.16743572 1.19679761 0 0 Z " fill="#049CE1" transform="translate(766.587890625,626.400634765625)"/>
<path d="M0 0 C5.60760772 2.34301158 9.32074479 5.51197876 12 11 C13.39596676 19.22457081 11.80547408 26.22645487 7 33 C2.53918793 37.90689327 -2.74860433 41.58988077 -9.4375 42.43359375 C-21.43307087 42.44674679 -21.43307087 42.44674679 -26 38 C-30.75308251 32.73307073 -31.31199943 28.73913042 -31.203125 21.84375 C-30.66111722 14.25564113 -27.57752093 10.02338886 -22.23046875 4.76171875 C-15.3361384 -0.68371556 -8.5162065 -1.1812188 0 0 Z " fill="#E9ECF6" transform="translate(692,693)"/>
<path d="M0 0 C4.36874295 2.51039707 7.52632391 5.39996413 9.53125 10.078125 C10.50355844 17.83633606 10.19469011 24.62934149 5.53125 31.078125 C1.00945734 36.79686278 -5.32618547 40.46675415 -12.5390625 41.53125 C-19.03143799 41.75905265 -23.34457306 41.13476508 -28.46875 37.078125 C-32.53334971 33.11774579 -32.76745869 29.59396697 -32.90625 24.140625 C-32.66506458 16.49504716 -31.3142313 11.32300383 -26.0234375 5.5 C-18.76590451 -1.13754273 -9.45184581 -3.52948672 0 0 Z " fill="#E7EAF5" transform="translate(359.46875,693.921875)"/>
<path d="M0 0 C1.03640625 -0.01740234 1.03640625 -0.01740234 2.09375 -0.03515625 C8.18515992 -0.00080619 12.83773409 1.45755786 17.6875 5.3125 C20.21524958 10.26688918 20.14622763 14.94248177 19.25 20.375 C16.80107743 26.41686736 13.37018929 29.85574324 7.53271484 32.60302734 C3.48513158 33.97184641 -0.45904497 33.83443473 -4.6875 33.6875 C-5.54923828 33.67783203 -6.41097656 33.66816406 -7.29882812 33.65820312 C-13.58065184 33.54434816 -13.58065184 33.54434816 -14.75 32.375 C-14.6981027 25.31696783 -13.51783998 18.26452919 -12.375 11.3125 C-12.26124023 10.57451172 -12.14748047 9.83652344 -12.03027344 9.07617188 C-11.55052724 6.31027516 -11.02372214 3.85832056 -9.6328125 1.40234375 C-6.56559203 -0.2712641 -3.40089853 -0.05585417 0 0 Z " fill="#E6EBF6" transform="translate(581.75,653.625)"/>
<path d="M0 0 C1.07217773 0.00483398 1.07217773 0.00483398 2.16601562 0.00976562 C2.86146484 -0.00634766 3.55691406 -0.02246094 4.2734375 -0.0390625 C10.3311973 -0.04471867 14.98198655 1.42555198 19.88476562 5.15039062 C22.97373465 9.35986802 22.0909539 14.35258419 21.47851562 19.32226562 C20.12146378 24.50450735 17.84791882 27.38334758 13.35351562 30.25976562 C9.84163314 32.21449267 7.43247602 33.44887961 3.38085938 33.45507812 C2.57970703 33.45636719 1.77855469 33.45765625 0.953125 33.45898438 C0.11587891 33.45511719 -0.72136719 33.45125 -1.58398438 33.44726562 C-2.42509766 33.45113281 -3.26621094 33.455 -4.1328125 33.45898438 C-10.39485756 33.44889244 -10.39485756 33.44889244 -11.52148438 32.32226562 C-11.87809586 25.67068619 -10.86528497 19.47346741 -9.64648438 12.94726562 C-9.47246094 11.95082031 -9.2984375 10.954375 -9.11914062 9.92773438 C-8.94511719 8.97769531 -8.77109375 8.02765625 -8.59179688 7.04882812 C-8.43469238 6.18854004 -8.27758789 5.32825195 -8.11572266 4.44189453 C-6.83833196 -0.11451714 -4.26333653 0.04420047 0 0 Z " fill="#E6E9F4" transform="translate(244.521484375,653.677734375)"/>
<path d="M0 0 C0.66 0.33 1.32 0.66 2 1 C-1.63 4.63 -5.26 8.26 -9 12 C-9.66 11.67 -10.32 11.34 -11 11 C-7.6189962 6.86378916 -4.33409466 3.18683431 0 0 Z " fill="#214797" transform="translate(316,677)"/>
<path d="M0 0 C0.66 0.33 1.32 0.66 2 1 C-1.96 4.96 -5.92 8.92 -10 13 C-10 8.83248505 -7.76127698 6.85829482 -5 4 C-3.36927384 2.62294236 -1.7133562 1.27277889 0 0 Z " fill="#1CA4E3" transform="translate(650,678)"/>
</svg>
