<?xml version="1.0" encoding="UTF-8"?>
<svg version="1.1" xmlns="http://www.w3.org/2000/svg" width="1254" height="1254">
<path d="M0 0 C1.05195742 -0.00145344 2.10391483 -0.00290688 3.18774974 -0.00440437 C6.70612907 -0.00804833 10.22446463 -0.00458537 13.74284363 -0.0011425 C16.29347411 -0.00229495 18.84410442 -0.00388331 21.39473438 -0.00586975 C26.93695953 -0.00917429 32.47917134 -0.00937583 38.02139664 -0.00682259 C46.26296055 -0.00303613 54.50451627 -0.00497591 62.74608013 -0.00803089 C77.46651789 -0.01329442 92.18695132 -0.01284112 106.90738949 -0.00995198 C119.78952254 -0.00743606 132.67165399 -0.00677989 145.55378723 -0.00797462 C146.83572273 -0.0080892 146.83572273 -0.0080892 148.14355592 -0.00820609 C151.6127838 -0.00851743 155.08201169 -0.00883584 158.55123957 -0.00916586 C191.09282139 -0.01222461 223.63440044 -0.00945179 256.17598183 -0.00406896 C285.08490795 0.00067661 313.99382966 0.00025198 342.90275574 -0.00452995 C375.38496182 -0.00988501 407.86716545 -0.01200768 440.34937191 -0.00891769 C443.8122654 -0.00859697 447.27515888 -0.00828413 450.73805237 -0.00797462 C451.59070013 -0.00789555 452.44334789 -0.00781647 453.32183347 -0.007735 C466.19562016 -0.0065977 479.06940508 -0.00792748 491.94319153 -0.01045418 C506.58178589 -0.01331294 521.22037524 -0.01259966 535.85896897 -0.00717343 C544.05086416 -0.004237 552.24274848 -0.0040457 560.43464339 -0.00781961 C566.55006832 -0.01032613 572.66547914 -0.00760774 578.78090322 -0.00284503 C581.25586663 -0.00172677 583.7308315 -0.00229897 586.20579398 -0.00472082 C589.56782995 -0.00775867 592.92980672 -0.00464516 596.2918396 0 C597.25419647 -0.00234117 598.21655334 -0.00468233 599.20807254 -0.00709444 C607.19862436 0.01499136 614.97233027 0.4109053 622.7084198 2.53209114 C625.35538681 3.17686516 628.01801149 3.66005525 630.70011902 4.13414192 C641.13623594 5.98217866 651.21807832 8.58485506 661.13273621 12.36705208 C663.02095836 13.07874192 664.92487849 13.74838236 666.82951355 14.41490364 C680.67939134 19.34378835 693.15680184 26.21028249 705.7084198 33.81334114 C706.43400085 34.25250862 707.15958191 34.6916761 707.90715027 35.14415169 C714.6679335 39.31332733 720.91080181 44.07248933 727.0834198 49.06334114 C730.31023861 51.67057108 733.57671871 54.20033494 736.8959198 56.68834114 C740.28417472 59.30518951 742.94416161 62.05339812 745.61857605 65.37974739 C747.32022495 67.32511071 749.16153029 68.90905801 751.1459198 70.56334114 C754.61367263 73.50166605 757.20630431 76.632928 759.8256073 80.33287239 C761.21544138 82.31419137 761.21544138 82.31419137 763.5209198 84.50084114 C764.0571698 85.03709114 764.5934198 85.57334114 765.1459198 86.12584114 C765.1459198 86.78584114 765.1459198 87.44584114 765.1459198 88.12584114 C765.8059198 88.12584114 766.4659198 88.12584114 767.1459198 88.12584114 C771.5501184 93.42063946 775.09427646 99.53036046 778.8334198 105.31334114 C779.38558167 106.16726448 779.38558167 106.16726448 779.94889832 107.0384388 C783.76659411 113.00192216 787.21260426 119.11190343 790.3959198 125.43834114 C790.91670105 126.46572395 791.4374823 127.49310677 791.9740448 128.55162239 C793.1459198 131.12584114 793.1459198 131.12584114 793.1459198 133.12584114 C793.8059198 133.12584114 794.4659198 133.12584114 795.1459198 133.12584114 C796.41997305 136.43711143 797.68955796 139.75007843 798.9584198 143.06334114 C799.31484558 143.98953255 799.67127136 144.91572395 800.03849792 145.86998177 C802.22202169 151.57919529 804.26011293 157.311928 806.1459198 163.12584114 C806.48494324 164.13388802 806.82396667 165.14193489 807.17326355 166.18052864 C815.13063387 190.8381311 816.45155687 215.61918896 816.40661621 241.35498238 C816.4096433 243.84040692 816.41353555 246.32583054 816.41820878 248.81125253 C816.42630283 254.17741792 816.42830971 259.54353208 816.42470551 264.90969849 C816.41935972 272.89024368 816.42553244 280.87075241 816.43378844 288.85129365 C816.44897076 303.94000297 816.45073943 319.02869542 816.44826541 334.11741079 C816.44642748 345.77618749 816.44820281 357.43495872 816.45248985 369.09373474 C816.45309227 370.77314211 816.45369347 372.45254948 816.45429346 374.13195686 C816.45520078 376.66317495 816.45610946 379.19439305 816.45702581 381.72561114 C816.46544682 405.23846456 816.46979698 428.75131593 816.46561909 452.26417065 C816.46546271 453.14924293 816.46530634 454.03431522 816.46514522 454.94620787 C816.46433953 459.43133678 816.46349376 463.91646569 816.46263192 468.40159459 C816.46246083 469.29223454 816.46228974 470.1828745 816.46211347 471.10050355 C816.46176681 472.90159136 816.46141828 474.70267916 816.46106788 476.50376697 C816.4557133 504.51509256 816.46363714 532.52638666 816.48210144 560.53770638 C816.5028592 592.06466447 816.5135369 623.59160306 816.50952595 655.11856836 C816.50913066 658.48612463 816.5087691 661.85368091 816.50842857 665.22123718 C816.50829248 666.46485026 816.50829248 666.46485026 816.50815363 667.73358684 C816.50699202 680.20044234 816.51360257 692.66727802 816.52424049 705.13412857 C816.53634094 719.32875455 816.53779609 733.52333714 816.52545033 747.71796382 C816.51886536 755.64177188 816.52035074 763.56547588 816.53403884 771.48927541 C816.54336232 777.4366529 816.53666055 783.38394778 816.52419104 789.33132153 C816.52156657 791.7140833 816.52383845 794.09685751 816.53192691 796.47960699 C816.66081219 837.33175859 816.66081219 837.33175859 811.1459198 854.12584114 C810.67845363 855.97772636 810.21985168 857.83187578 809.7709198 859.68834114 C806.19886221 873.99443177 801.49708498 887.11523468 795.3490448 900.50084114 C793.58003932 904.36048946 791.86224144 908.24254357 790.1459198 912.12584114 C789.4859198 912.12584114 788.8259198 912.12584114 788.1459198 912.12584114 C787.99316589 913.20672005 787.99316589 913.20672005 787.83732605 914.30943489 C787.06254888 917.46544809 785.87427732 919.48369755 784.0834198 922.18834114 C783.45564636 923.14353645 782.82787292 924.09873177 782.18107605 925.08287239 C781.50947449 926.08705208 780.83787292 927.09123177 780.1459198 928.12584114 C779.46400574 929.16095833 778.78209167 930.19607552 778.07951355 931.26255989 C776.1182983 934.22857233 774.13757234 937.18020376 772.1459198 940.12584114 C771.63545105 940.88896614 771.1249823 941.65209114 770.5990448 942.43834114 C769.50177674 944.0390616 768.33255387 945.59019705 767.1459198 947.12584114 C766.4859198 947.12584114 765.8259198 947.12584114 765.1459198 947.12584114 C764.4859198 948.77584114 763.8259198 950.42584114 763.1459198 952.12584114 C762.4859198 952.12584114 761.8259198 952.12584114 761.1459198 952.12584114 C760.80754089 952.93988411 760.80754089 952.93988411 760.46232605 953.77037239 C758.74541347 956.84247414 756.47635943 959.26454423 754.0834198 961.81334114 C753.35240051 962.60019295 753.35240051 962.60019295 752.60661316 963.40294075 C740.06818178 976.82720629 740.06818178 976.82720629 735.1459198 980.12584114 C734.4859198 980.12584114 733.8259198 980.12584114 733.1459198 980.12584114 C732.8159198 981.11584114 732.4859198 982.10584114 732.1459198 983.12584114 C730.81258647 983.45917447 729.47925313 983.79250781 728.1459198 984.12584114 C727.8159198 985.11584114 727.4859198 986.10584114 727.1459198 987.12584114 C724.5834198 988.31334114 724.5834198 988.31334114 722.1459198 989.12584114 C722.1459198 989.78584114 722.1459198 990.44584114 722.1459198 991.12584114 C719.82180541 992.74142131 717.50368362 994.2288244 715.0834198 995.68834114 C714.36114197 996.13016731 713.63886414 996.57199348 712.8946991 997.02720833 C711.38827026 997.94691932 709.8798494 998.86337468 708.36955261 999.77672005 C706.30464057 1001.02954218 704.25122231 1002.29901762 702.2006073 1003.57505989 C694.42054719 1008.38107242 686.54705525 1012.47561518 678.1459198 1016.12584114 C677.34670105 1016.49322395 676.5474823 1016.86060677 675.7240448 1017.23912239 C642.95719993 1032.28630824 607.28184151 1036.61426386 571.57693481 1036.51352119 C569.11550596 1036.51770681 566.65407905 1036.52319098 564.19265562 1036.52984101 C558.89425723 1036.54118601 553.5959769 1036.543481 548.29757881 1036.53729057 C540.41763298 1036.52810912 532.53776761 1036.53630315 524.65782789 1036.54758181 C510.57316946 1036.56714783 496.48854803 1036.56961549 482.40387925 1036.56438661 C470.07305604 1036.55981171 457.74224739 1036.56045058 445.41142464 1036.56622696 C443.75098013 1036.56698386 442.09053561 1036.56773984 440.4300911 1036.5684949 C437.92726683 1036.56964023 435.42444256 1036.57079012 432.92161829 1036.57195415 C409.68204535 1036.58264392 386.44247721 1036.58740021 363.20290279 1036.57948399 C361.89157437 1036.57903823 361.89157437 1036.57903823 360.55375446 1036.57858346 C353.45662886 1036.57613507 346.35950332 1036.57352321 339.26237778 1036.57089933 C311.5992678 1036.56080322 283.93621857 1036.56914644 256.27311707 1036.59239388 C225.11743153 1036.6185347 193.96178254 1036.63129607 162.80608565 1036.62420613 C159.47643221 1036.62349018 156.14677877 1036.62281578 152.81712532 1036.62216568 C151.58756502 1036.62191097 151.58756502 1036.62191097 150.33316511 1036.62165111 C138.02285638 1036.61935945 125.71258187 1036.62727065 113.40228081 1036.64045715 C99.38174576 1036.65544982 85.36129025 1036.65610374 71.34075677 1036.63838624 C64.20142426 1036.6297329 57.06223085 1036.62719179 49.92290688 1036.6430378 C2.51996982 1036.74217886 -41.08836129 1034.9520476 -84.7134552 1014.58677864 C-88.73782944 1012.71474386 -92.79051904 1010.91086801 -96.8540802 1009.12584114 C-96.8540802 1008.46584114 -96.8540802 1007.80584114 -96.8540802 1007.12584114 C-97.58111145 1007.01884895 -98.3081427 1006.91185677 -99.0572052 1006.80162239 C-104.28389351 1005.53874938 -108.45805548 1002.11893166 -112.8540802 999.12584114 C-113.4949054 998.69303841 -114.13573059 998.26023567 -114.79597473 997.8143177 C-124.45275444 991.26060455 -133.53731208 984.30172879 -142.25080872 976.53819466 C-143.99503062 975.00167513 -145.76912301 973.50394111 -147.54548645 972.00474739 C-149.9510293 969.94721792 -152.13489331 967.87527016 -154.1665802 965.43834114 C-157.00752687 962.09191072 -159.93750799 958.85019624 -162.9165802 955.62584114 C-166.85876455 951.30138437 -170.46604369 946.89121 -173.8540802 942.12584114 C-174.34005676 941.47357552 -174.82603333 940.82130989 -175.32673645 940.14927864 C-178.8540802 935.37410019 -178.8540802 935.37410019 -178.8540802 933.12584114 C-179.5140802 933.12584114 -180.1740802 933.12584114 -180.8540802 933.12584114 C-181.35036926 932.25443489 -181.84665833 931.38302864 -182.35798645 930.48521614 C-183.04415868 929.28207649 -183.73035871 928.07895269 -184.4165802 926.87584114 C-184.77792053 926.24121956 -185.13926086 925.60659798 -185.5115509 924.95274544 C-187.81190009 920.9212212 -190.16341723 916.92464515 -192.5415802 912.93834114 C-201.20891428 898.08288754 -201.20891428 898.08288754 -201.8540802 890.12584114 C-202.5140802 890.12584114 -203.1740802 890.12584114 -203.8540802 890.12584114 C-204.10802551 889.2918177 -204.36197083 888.45779427 -204.62361145 887.59849739 C-206.88601834 880.17239486 -206.88601834 880.17239486 -209.3540802 872.81334114 C-211.42716741 866.67294695 -212.86631046 860.35356192 -214.37654114 854.05699348 C-214.78851983 852.39096515 -215.24313721 850.73558698 -215.7056427 849.08287239 C-220.87284766 829.74499928 -220.1497634 808.72541503 -220.10804749 788.86451912 C-220.11035868 786.42442748 -220.11353958 783.98433655 -220.11750197 781.54424703 C-220.12405379 776.28955506 -220.12455736 771.03490059 -220.11940765 765.78020859 C-220.11177034 757.96553574 -220.11574726 750.15089703 -220.12182427 742.33622433 C-220.13230245 728.37001535 -220.13146429 714.40382477 -220.12566644 700.43761407 C-220.12061735 688.21363546 -220.11933026 675.98966357 -220.12171173 663.76568413 C-220.1218645 662.95199004 -220.12201727 662.13829595 -220.12217467 661.29994447 C-220.12279744 657.99612496 -220.12343425 654.69230546 -220.1240942 651.38848596 C-220.13020023 620.45084268 -220.12468453 589.51321106 -220.1139004 558.57556958 C-220.10441233 531.14765906 -220.10525834 503.71976712 -220.11482239 476.29185677 C-220.12555487 445.41055116 -220.12976525 414.52925584 -220.12359786 383.64794862 C-220.12295652 380.34984231 -220.12233083 377.051736 -220.12171173 373.75362968 C-220.12155358 372.94167068 -220.12139542 372.12971168 -220.12123247 371.29314786 C-220.11896692 359.08449957 -220.12160051 346.87585878 -220.12667084 334.66721153 C-220.1324139 320.77020037 -220.13090783 306.87321035 -220.12010935 292.97620179 C-220.1142788 285.21881865 -220.11379184 277.4614814 -220.1214017 269.70409955 C-220.12647787 263.88254823 -220.12089067 258.06104324 -220.11145255 252.23949914 C-220.10924504 249.90667316 -220.11029394 247.57384094 -220.11520413 245.24101909 C-220.13906585 232.94721251 -219.82917677 220.73488724 -218.96320724 208.46863556 C-218.88571732 207.33783197 -218.80822739 206.20702838 -218.72838928 205.04195801 C-218.29441738 199.45617858 -217.60457993 194.44601856 -215.8540802 189.12584114 C-215.34783322 186.50183849 -214.86802408 183.88373538 -214.4165802 181.25084114 C-213.35262144 175.32782072 -211.95867965 169.76037724 -209.8540802 164.12584114 C-209.41289424 162.77287087 -208.97557852 161.41863413 -208.5415802 160.06334114 C-204.21716815 147.22384968 -199.24569521 135.07604803 -192.8540802 123.12584114 C-192.53713196 122.53061653 -192.22018372 121.93539192 -191.89363098 121.3221302 C-186.88072143 112.00315993 -181.06160921 103.34541478 -174.96394348 94.71299934 C-173.90531058 93.19910307 -172.87878812 91.66290302 -171.8540802 90.12584114 C-171.1940802 90.12584114 -170.5340802 90.12584114 -169.8540802 90.12584114 C-169.65298645 89.44263802 -169.4518927 88.75943489 -169.2447052 88.05552864 C-167.36146558 84.08802943 -164.640405 81.38226336 -161.6040802 78.25084114 C-160.47251054 77.06724529 -159.34229772 75.88235075 -158.2134552 74.69615364 C-157.37572571 73.81793953 -157.37572571 73.81793953 -156.52107239 72.92198372 C-154.84912718 71.12050439 -153.25238323 69.27286586 -151.6665802 67.39537239 C-149.60939928 64.96933635 -147.53128664 62.75576255 -145.1040802 60.68834114 C-144.43247864 60.11599739 -143.76087708 59.54365364 -143.06892395 58.95396614 C-139.0377324 55.62663343 -134.95311604 52.36896085 -130.8540802 49.12584114 C-130.06517395 48.48388802 -129.2762677 47.84193489 -128.4634552 47.18052864 C-125.47651858 44.82853962 -122.40716754 42.61459145 -119.2915802 40.43834114 C-118.72761536 40.03550911 -118.16365051 39.63267708 -117.58259583 39.21763802 C-114.7440337 37.23562446 -112.32076682 35.62592552 -108.8540802 35.12584114 C-108.8540802 34.46584114 -108.8540802 33.80584114 -108.8540802 33.12584114 C-106.75391397 31.95142579 -104.64949265 30.78620102 -102.5415802 29.62584114 C-101.94667786 29.29197395 -101.35177551 28.95810677 -100.73884583 28.61412239 C-97.89579176 27.05759 -96.14747032 26.12584114 -92.8540802 26.12584114 C-92.8540802 25.46584114 -92.8540802 24.80584114 -92.8540802 24.12584114 C-64.71049631 11.84846039 -64.71049631 11.84846039 -50.8540802 8.12584114 C-50.18731262 7.94472786 -49.52054504 7.76361458 -48.83357239 7.57701302 C-40.99087272 5.46452611 -33.15803195 3.69331095 -25.1118927 2.52037239 C-22.82863956 2.23252858 -22.82863956 2.23252858 -20.8540802 1.12584114 C-13.94079833 0.04809032 -6.97994323 -0.0169804 0 0 Z " fill="#F3F3FB" transform="translate(326.8540802001953,121.87415885925293)"/>
<path d="M0 0 C27.67933063 -0.13596326 55.35838672 -0.24626933 83.03796768 -0.31087303 C95.89294729 -0.34168021 108.74770316 -0.38360666 121.60253906 -0.45263672 C132.81982901 -0.51284398 144.03695676 -0.55124432 155.25440383 -0.56453097 C161.18222015 -0.57228539 167.10957285 -0.59022905 173.03723907 -0.63438034 C207.13219788 -0.87804708 236.47528687 0.00089252 267 17 C268.11375 17.6084375 269.2275 18.216875 270.375 18.84375 C298.73388542 35.66122856 317.08127349 64.76837411 325.1171875 96.12109375 C327.9146358 108.41253694 328.36958129 120.46868862 328 133 C327.98195313 133.93972656 327.96390625 134.87945312 327.9453125 135.84765625 C327.20016446 149.67672718 323.13779458 164.64056119 317 177 C316.42507813 178.18722656 315.85015625 179.37445313 315.2578125 180.59765625 C305.05970184 201.04104253 289.14922577 217.68978343 270 230 C268.98164062 230.65613281 267.96328125 231.31226563 266.9140625 231.98828125 C251.01312439 241.73334437 229.8604995 248.79055375 211 247 C211 247.66 211 248.32 211 249 C211.66 249 212.32 249 213 249 C214.85543604 251.42280078 216.59528411 253.85625245 218.3125 256.375 C219.40268393 257.94728198 220.4938621 259.51887496 221.5859375 261.08984375 C222.15022461 261.90437012 222.71451172 262.71889648 223.29589844 263.55810547 C225.96543201 267.38341704 228.69901613 271.16138423 231.4375 274.9375 C232.53126108 276.44790865 233.62501102 277.95832536 234.71875 279.46875 C235.26144531 280.21769531 235.80414062 280.96664063 236.36328125 281.73828125 C237.98509064 283.97939733 239.60265132 286.22351315 241.21875 288.46875 C250.23767634 300.99442777 259.38543725 313.42275211 268.57421875 325.82421875 C274.65472408 334.0399907 280.66237307 342.29618272 286.53613281 350.66113281 C293.39463775 360.42462991 300.36234897 370.11244147 307.4765625 379.69140625 C313.96356713 388.42716713 320.27336805 397.23786814 326.3581543 406.25927734 C330.423255 412.25267082 334.74202959 417.97852659 339.26953125 423.62890625 C341 426 341 426 341 428 C328.7091521 428.44177773 316.42021335 428.77856614 304.12302113 428.98443127 C298.41125968 429.08328719 292.70495646 429.21711173 286.99633789 429.43334961 C281.47798156 429.64105288 275.96484174 429.75363019 270.44287682 429.80266762 C268.34551487 429.83756551 266.24841459 429.90573512 264.15329933 430.00887108 C248.18498672 430.76309336 248.18498672 430.76309336 242.86657333 426.14917374 C238.94692089 421.59678122 236.04588053 416.57731004 233.2630825 411.2757206 C231.47619053 408.05624217 229.32798241 405.34970244 227 402.5 C222.97451695 397.37369715 219.27388613 392.08755084 215.625 386.6875 C211.0258003 379.88365821 206.27088378 373.24502958 201.30688477 366.70336914 C197.30810618 361.43174177 193.44634827 356.07518548 189.6171875 350.6796875 C186.66430932 346.51932954 183.67672357 342.38428726 180.6875 338.25 C180.139729 337.49219238 179.59195801 336.73438477 179.02758789 335.95361328 C177.90961007 334.40715075 176.79152678 332.86076446 175.67333984 331.31445312 C172.94736861 327.54406981 170.22378466 323.77196306 167.5 320 C166.41667856 318.49999141 165.33334521 316.99999142 164.25 315.5 C162.08333333 312.5 159.91666667 309.5 157.75 306.5 C157.2135083 305.75717773 156.6770166 305.01435547 156.12426758 304.24902344 C155.04332809 302.75231299 153.96243599 301.25556832 152.8815918 299.75878906 C150.1370246 295.95817363 147.39158034 292.15819702 144.64453125 288.359375 C139.66839394 281.47688036 134.69472823 274.59261084 129.75 267.6875 C129.04359375 266.70136719 128.3371875 265.71523438 127.609375 264.69921875 C127.22972092 264.14495209 126.85006683 263.59068542 126.45890808 263.0196228 C125.30496989 261.42218159 124.06931338 259.883803 122.80732727 258.37026978 C115.9831817 249.67223342 114.76068653 242.59943849 115.12109375 231.63671875 C115.13792851 230.10834038 115.15071661 228.57991267 115.15968323 227.0514679 C115.19366931 223.07341878 115.28172421 219.09843779 115.38201904 215.12158203 C115.47492287 211.04566945 115.51536705 206.96924954 115.56054688 202.89257812 C115.65639874 194.92699412 115.80951648 186.96388109 116 179 C117.05076721 178.99191315 118.10153442 178.98382629 119.18414307 178.97549438 C129.12862233 178.89771784 139.07297007 178.80990137 149.01727676 178.71247292 C154.1286782 178.66271121 159.24006097 178.61638075 164.3515625 178.578125 C169.29241732 178.54101628 174.23310775 178.49458992 179.1738205 178.44193649 C181.05064739 178.42352753 182.92750934 178.40837085 184.80438995 178.39665604 C204.10784179 178.45063625 204.10784179 178.45063625 222.1875 172.375 C223.20638306 171.84386597 223.20638306 171.84386597 224.24584961 171.30200195 C237.13422296 164.34576078 244.94337838 154.01986834 249.56152344 140.12207031 C252.74631146 129.04478842 252.66631767 115.60873037 248 105 C247.54173828 103.81470703 247.54173828 103.81470703 247.07421875 102.60546875 C241.51500532 89.76873956 230.49605626 80.17119015 217.88190365 74.6303606 C206.98740958 70.5900705 196.91889066 70.28471146 185.38696289 70.34057617 C183.35520958 70.33210611 181.32346439 70.32145433 179.29173279 70.30880737 C173.82160616 70.28084994 168.3518742 70.28309904 162.88169789 70.29110122 C157.14816047 70.29424215 151.41474529 70.26914564 145.68125916 70.24714661 C134.84445022 70.20980452 124.00776675 70.19756444 113.17089981 70.1945222 C100.82489844 70.18982069 88.47902192 70.15686232 76.13307583 70.12162435 C50.7553673 70.04981911 25.37780857 70.01692274 0 70 C0 46.9 0 23.8 0 0 Z " fill="#141414" transform="translate(458,303)"/>
<path d="M0 0 C26.07 0 52.14 0 79 0 C79 106.26 79 212.52 79 322 C52.93 322 26.86 322 0 322 C0 215.74 0 109.48 0 0 Z " fill="#141414" transform="translate(458,409)"/>
<path d="M0 0 C1.35019618 1.16829119 2.68437656 2.35540887 4 3.5625 C4.67160156 4.1090625 5.34320312 4.655625 6.03515625 5.21875 C16.31204889 14.24815857 22.21653241 29.37714516 23.15527344 42.77929688 C24.17164551 63.35873131 18.96379608 79.74751084 5.0625 95.1875 C-7.46006814 107.1998107 -25.89926414 112.22322422 -42.86669922 112.03564453 C-60.20225169 111.38709505 -75.98807392 105.34546187 -88 92.5625 C-93.18026284 86.7347043 -96.66658089 80.67183185 -99.4375 73.4375 C-99.68467773 72.79288818 -99.93185547 72.14827637 -100.18652344 71.48413086 C-105.7855081 55.70354036 -104.55883603 36.76181774 -98 21.5625 C-95.95497942 17.63761489 -93.66839736 14.08962567 -91 10.5625 C-90.45472656 9.83546875 -89.90945313 9.1084375 -89.34765625 8.359375 C-68.40685181 -17.45940506 -25.79629574 -19.42518989 0 0 Z " fill="#161616" transform="translate(730,857.4375)"/>
<path d="M0 0 C11.4162228 9.74158972 18.04698896 21.55146504 20.5234375 36.41015625 C20.5234375 43.34015625 20.5234375 50.27015625 20.5234375 57.41015625 C-9.1765625 57.41015625 -38.8765625 57.41015625 -69.4765625 57.41015625 C-66.3968964 69.72882064 -64.31679981 77.73014963 -53.625 84.3515625 C-45.69067935 88.26101868 -33.51821347 87.79601291 -25.1796875 85.50390625 C-17.46856286 81.85864733 -14.27701865 77.01106855 -10.4765625 69.41015625 C-0.9065625 69.41015625 8.6634375 69.41015625 18.5234375 69.41015625 C16.38269964 84.39532129 9.29568623 94.1151613 -2.4765625 103.41015625 C-13.04125851 110.72417656 -25.04397162 112.04486259 -37.6015625 111.84765625 C-39.52162109 111.85829102 -39.52162109 111.85829102 -41.48046875 111.86914062 C-57.59273327 111.76194542 -71.47953478 107.06404433 -83.2265625 95.75 C-90.39102721 88.29945423 -94.18600747 81.23252463 -97.4765625 71.41015625 C-97.82114502 70.48944336 -98.16572754 69.56873047 -98.52075195 68.62011719 C-100.20499201 62.96382387 -99.8456326 57.20936094 -99.8515625 51.34765625 C-99.87605469 50.10048828 -99.90054687 48.85332031 -99.92578125 47.56835938 C-99.97757018 30.97000603 -94.09149223 16.55689882 -82.6953125 4.4375 C-61.1674776 -15.23318013 -23.39716528 -18.44334606 0 0 Z " fill="#151515" transform="translate(484.4765625,856.58984375)"/>
<path d="M0 0 C11.10158865 -0.090762 22.20292648 -0.16398042 33.30480385 -0.20724869 C38.46115653 -0.22802667 43.61723981 -0.25616319 48.7734375 -0.30175781 C53.75961286 -0.34556758 58.74553087 -0.3692105 63.731884 -0.37950897 C65.62387512 -0.38683782 67.51585389 -0.40114725 69.40773392 -0.42292023 C86.64494605 -0.61321069 103.04225114 1.42067261 116.3125 13.6875 C126.42364454 24.5652682 129.98618503 37.81379476 129.48046875 52.3125 C128.7016315 62.85407313 124.16171995 73.25215464 117 81 C116.54753906 81.57621094 116.09507812 82.15242187 115.62890625 82.74609375 C111.84890419 87.15445979 107.27696277 89.73733472 102.1875 92.375 C101.21031006 92.89416992 101.21031006 92.89416992 100.21337891 93.42382812 C94.8939996 96.03832729 89.88927094 96.71692747 84 97 C90.34461549 106.10266999 96.76553396 115.0874228 103.58203125 123.84375 C107.38033643 128.80179618 110.96723562 133.90469749 114.57714844 139.00048828 C117.34444881 142.88933352 120.14226964 146.75620812 122.9375 150.625 C123.49348877 151.39545654 124.04947754 152.16591309 124.62231445 152.9597168 C125.14784912 153.68715088 125.67338379 154.41458496 126.21484375 155.1640625 C126.91275024 156.13013428 126.91275024 156.13013428 127.62475586 157.11572266 C128.61300451 158.4697619 129.63361272 159.80040154 130.67407227 161.11474609 C132 163 132 163 132 165 C126.87747225 165.24862926 121.75850382 165.42927623 116.63134766 165.54931641 C114.89081623 165.59937808 113.15070064 165.66745696 111.41162109 165.75439453 C97.03225259 166.45482222 97.03225259 166.45482222 92.24267578 163.02612305 C90.17025297 160.45721831 88.5831998 157.89200591 87 155 C85.97561885 153.57017423 84.93225411 152.15368895 83.8671875 150.75390625 C82.8674269 149.35846203 81.87008802 147.96128006 80.875 146.5625 C76.29603784 140.17350104 71.67429068 133.81959934 67 127.5 C61.63503721 120.24594462 56.3324725 112.94959768 51.0859375 105.609375 C50.57804687 104.90167969 50.07015625 104.19398438 49.546875 103.46484375 C49.10182617 102.842146 48.65677734 102.21944824 48.19824219 101.57788086 C46.94840064 99.85807373 46.94840064 99.85807373 45 98 C44.77294922 95.20263672 44.77294922 95.20263672 44.8046875 91.6796875 C44.81113281 90.42285156 44.81757813 89.16601562 44.82421875 87.87109375 C44.84097656 86.55238281 44.85773438 85.23367188 44.875 83.875 C44.88503017 82.53516279 44.89415596 81.19531848 44.90234375 79.85546875 C44.92597925 76.57013427 44.95892766 73.28515535 45 70 C46.00264893 69.9906543 47.00529785 69.98130859 48.03833008 69.97167969 C51.80910371 69.93137712 55.57909544 69.86551415 59.34936523 69.79248047 C60.97165778 69.76450159 62.59408081 69.74317397 64.21655273 69.72900391 C79.31979581 69.85724007 79.31979581 69.85724007 92.69482422 63.62451172 C97.57219889 58.27698668 98.42961061 52.346105 98.2421875 45.390625 C97.63090016 39.35662742 94.37502549 36.08044168 90.01171875 32.296875 C84.9329717 29.02280894 79.67809447 28.69821665 73.79150391 28.68115234 C72.99083496 28.67110672 72.19016602 28.6610611 71.36523438 28.65071106 C68.73568395 28.61997884 66.10623489 28.60287181 63.4765625 28.5859375 C61.64666884 28.56721783 59.81678375 28.54764382 57.98690796 28.5272522 C53.1832993 28.47600946 48.37966269 28.43634173 43.57592773 28.39910889 C38.66903816 28.35901992 33.76226412 28.30794992 28.85546875 28.2578125 C19.23705241 28.1611462 9.61858806 28.07772724 0 28 C0 18.76 0 9.52 0 0 Z " fill="#151515" transform="translate(253,802)"/>
<path d="M0 0 C10.23 0 20.46 0 31 0 C31.01401855 3.36699097 31.01401855 3.36699097 31.02832031 6.80200195 C31.06222744 14.25402354 31.11785188 21.7057722 31.18390274 29.15757465 C31.22325687 33.67155126 31.25550408 38.18533632 31.27099609 42.69946289 C31.28624273 47.06340219 31.32082827 51.42681443 31.36830902 55.79051781 C31.38304082 57.4476581 31.39103626 59.10487368 31.39188385 60.76207924 C31.40281343 71.4253811 32.07130203 80.71408325 37.875 90 C42.68673025 94.52868729 47.50925937 95.48446862 53.9375 95.375 C54.61490234 95.38660156 55.29230469 95.39820313 55.99023438 95.41015625 C63.3776522 95.36765912 69.00874186 92.71557634 74.4296875 87.79296875 C82.83108953 78.20032315 82.31980169 64.20850888 82.4140625 52.24609375 C82.43280402 50.73436969 82.45237958 49.22265577 82.4727478 47.71095276 C82.52376027 43.76063043 82.56354979 39.8102743 82.60089111 35.85980225 C82.64821853 31.10465492 82.70968216 26.34967125 82.76873779 21.5946579 C82.85657288 14.39650579 82.92660628 7.19837902 83 0 C92.9 0 102.8 0 113 0 C113 39.6 113 79.2 113 120 C104.09 120 95.18 120 86 120 C85.67 115.71 85.34 111.42 85 107 C84.34 107 83.68 107 83 107 C82.505 108.485 82.505 108.485 82 110 C75.30052758 117.47409892 63.15403734 121.2247953 53.46484375 122.4453125 C50.25806493 122.49986281 47.18947199 122.32815145 44 122 C42.92105469 121.91492188 41.84210937 121.82984375 40.73046875 121.7421875 C30.05828085 120.55216892 19.19353305 116.28458305 12 108 C1.26285497 93.0251924 -0.30909225 77.83355143 -0.1953125 59.9609375 C-0.19157582 58.22645227 -0.18873195 56.49196491 -0.18673706 54.75747681 C-0.17915216 50.22342964 -0.15954868 45.68951348 -0.1373291 41.15551758 C-0.11675903 36.51645682 -0.10771162 31.87737461 -0.09765625 27.23828125 C-0.07629723 18.15878776 -0.04115787 9.07942534 0 0 Z " fill="#171717" transform="translate(815,847)"/>
<path d="M0 0 C10.56 0 21.12 0 32 0 C32.81984375 2.48273437 33.6396875 4.96546875 34.484375 7.5234375 C35.29125162 9.95971899 36.09918956 12.39564613 36.90722656 14.83154297 C37.46302168 16.50891074 38.01773383 18.1866378 38.57128906 19.86474609 C42.46712699 31.67850916 42.46712699 31.67850916 46.94091797 43.28125 C49.3198094 49.38805844 51.31151702 55.64130277 53.3737793 61.8605957 C54.19194938 64.32590688 55.01657504 66.78899463 55.84179688 69.25195312 C56.3675727 70.83060093 56.89297669 72.40937263 57.41796875 73.98828125 C57.6627446 74.71856033 57.90752045 75.44883942 58.15971375 76.20124817 C59.3405186 79.77641854 60.3707978 83.28512127 61 87 C61.33 87 61.66 87 62 87 C62.30292969 85.93523437 62.60585938 84.87046875 62.91796875 83.7734375 C65.29692785 75.49933914 67.84881655 67.36264267 70.8125 59.27734375 C72.27164004 55.25030922 73.60111342 51.18731489 74.91015625 47.109375 C75.79144596 44.59501439 76.74880559 42.16701107 77.765625 39.70703125 C80.77820668 32.24843398 83.18657232 24.57871988 85.6875 16.9375 C86.66715033 13.94547539 87.65074132 10.95478842 88.63671875 7.96484375 C88.85962082 7.27954086 89.08252289 6.59423798 89.31217957 5.88816833 C90.88724855 1.11275145 90.88724855 1.11275145 92 0 C94.29151417 -0.08790975 96.58572524 -0.10694038 98.87890625 -0.09765625 C99.90889992 -0.09553383 99.90889992 -0.09553383 100.95970154 -0.09336853 C103.16067801 -0.08775479 105.36155409 -0.07520007 107.5625 -0.0625 C109.05143083 -0.05748676 110.54036324 -0.05292355 112.02929688 -0.04882812 C115.68623075 -0.03778093 119.34310558 -0.02050713 123 0 C122.28813393 4.32456048 120.89495218 8.30515153 119.3671875 12.39453125 C119.09887115 13.12158264 118.83055481 13.84863403 118.55410767 14.59771729 C117.66482124 17.00405154 116.77003197 19.40829744 115.875 21.8125 C115.24391905 23.51546152 114.61306378 25.2185067 113.98242188 26.92163086 C111.99490582 32.28356118 109.99869695 37.64222875 108 43 C107.68276978 43.85053955 107.36553955 44.7010791 107.03869629 45.57739258 C97.7716848 70.41485283 88.39308939 95.20999089 79 120 C67.12 120 55.24 120 43 120 C39.62585034 111.00226757 39.62585034 111.00226757 38.33007812 107.45507812 C38.03967651 106.66065308 37.7492749 105.86622803 37.45007324 105.04772949 C37.14686157 104.21729126 36.8436499 103.38685303 36.53125 102.53125 C36.20966919 101.65150513 35.88808838 100.77176025 35.5567627 99.86535645 C34.19408697 96.13746853 32.83218586 92.40929776 31.47021484 88.68115234 C30.4699963 85.94358624 29.46938126 83.20616527 28.46875 80.46875 C28.16553833 79.63831177 27.86232666 78.80787354 27.54992676 77.95227051 C26.16731817 74.16999502 24.77580834 70.39163995 23.35888672 66.62207031 C22.06732089 63.17944175 20.83890785 59.72063587 19.625 56.25 C17.69327394 50.81810164 15.57309969 45.5096327 13.32421875 40.203125 C9.65594084 31.33000439 6.26627735 22.35712812 3.65625 13.11328125 C3.00964446 11.03105745 2.21434913 9.10823304 1.3125 7.125 C0 4 0 4 0 0 Z " fill="#151515" transform="translate(506,847)"/>
<path d="M0 0 C10.23 0 20.46 0 31 0 C31 10.56 31 21.12 31 32 C40.57 32 50.14 32 60 32 C60 40.58 60 49.16 60 58 C50.1 58 40.2 58 30 58 C30.0676154 66.12084224 30.13799384 74.24080071 30.2355423 82.36119843 C30.28016153 86.14287794 30.31960519 89.92444771 30.34643555 93.70629883 C30.37249018 97.35047178 30.41290709 100.99423095 30.46318626 104.63814735 C30.47984053 106.02671464 30.4913638 107.41535348 30.49761391 108.80400658 C30.50726972 110.7525102 30.53704261 112.70088242 30.56762695 114.64916992 C30.57873001 115.7572551 30.58983307 116.86534027 30.60127258 118.00700378 C31.05181768 121.38896275 31.93223243 123.30205712 34 126 C36.78676403 126.78001856 36.78676403 126.78001856 39.98046875 126.70703125 C41.02871826 126.73514893 42.07696777 126.7632666 43.15698242 126.79223633 C44.48705322 126.79892334 45.81712402 126.80561035 47.1875 126.8125 C51.415625 126.874375 55.64375 126.93625 60 127 C60 135.58 60 144.16 60 153 C54.77041565 153.09237735 49.54371836 153.17184382 44.31396484 153.21972656 C42.53912711 153.23970839 40.76435406 153.26690355 38.98974609 153.30175781 C17.90781816 153.70512616 17.90781816 153.70512616 9.16015625 146.73828125 C8.12181641 145.53751953 8.12181641 145.53751953 7.0625 144.3125 C6.35222656 143.52488281 5.64195312 142.73726562 4.91015625 141.92578125 C-0.2062935 134.08892877 -0.4239156 126.18727006 -0.34057617 117.04467773 C-0.34101425 115.77539932 -0.34145233 114.50612091 -0.34190369 113.19837952 C-0.34275871 109.74434699 -0.32521379 106.29063181 -0.30418181 102.83667254 C-0.28533203 99.21722731 -0.28365807 95.59777349 -0.28010559 91.97828674 C-0.27080936 85.136152 -0.24622871 78.29416235 -0.21605712 71.45209128 C-0.18243732 63.65761367 -0.16600812 55.86312887 -0.15097082 48.06859672 C-0.1196767 32.045633 -0.0646953 16.02286896 0 0 Z " fill="#171717" transform="translate(945,815)"/>
<path d="M0 0 C9.9 0 19.8 0 30 0 C30 54.12 30 108.24 30 164 C20.1 164 10.2 164 0 164 C0 109.88 0 55.76 0 0 Z " fill="#151515" transform="translate(768,803)"/>
<path d="M0 0 C5.22595672 3.06694314 9.02930314 6.45476032 12.375 11.5 C12.8803125 12.22058594 13.385625 12.94117188 13.90625 13.68359375 C19.28753404 23.02610077 19.4091402 36.4250798 16.81103516 46.73876953 C13.641015 55.89389423 7.66265715 62.62965642 -0.484375 67.64453125 C-8.19406104 71.25226895 -19.39009132 70.62718188 -27.47265625 68.4296875 C-37.11648716 64.26411263 -41.83156947 56.94858157 -45.625 47.5 C-47.07605898 43.14682305 -46.84987195 38.93574132 -46.875 34.375 C-46.895625 33.46234375 -46.91625 32.5496875 -46.9375 31.609375 C-46.99797458 20.99608674 -43.84429152 12.40237848 -36.625 4.5 C-26.03806735 -3.4361832 -12.24013916 -5.72447573 0 0 Z " fill="#F2F2F8" transform="translate(704.625,873.5)"/>
<path d="M0 0 C9.9 0 19.8 0 30 0 C30 40.59 30 81.18 30 123 C20.1 123 10.2 123 0 123 C0 82.41 0 41.82 0 0 Z " fill="#131414" transform="translate(254,844)"/>
<path d="M0 0 C6.56662086 3.92607491 11.97245348 8.80040928 14.21484375 16.32421875 C14.21484375 17.97421875 14.21484375 19.62421875 14.21484375 21.32421875 C-4.92515625 21.32421875 -24.06515625 21.32421875 -43.78515625 21.32421875 C-42.5417406 12.62030923 -39.71299305 7.33856729 -32.78515625 1.88671875 C-23.64271545 -4.79869109 -10.01754538 -4.7504167 0 0 Z " fill="#F1F1F6" transform="translate(460.78515625,871.67578125)"/>
<path d="M0 0 C28.71 0 57.42 0 87 0 C87.495 0.99 87.495 0.99 88 2 C59.62 2 31.24 2 2 2 C1.67 10.25 1.34 18.5 1 27 C26.74 27 52.48 27 79 27 C79 27.33 79 27.66 79 28 C52.93 28 26.86 28 0 28 C0 18.76 0 9.52 0 0 Z " fill="#414243" transform="translate(253,802)"/>
<path d="M0 0 C3.46752001 1.43051681 5.08786705 3.0847712 7.234375 6.1328125 C7.80800781 6.93847656 8.38164063 7.74414062 8.97265625 8.57421875 C9.55917969 9.41597656 10.14570312 10.25773438 10.75 11.125 C11.35199219 11.97449219 11.95398438 12.82398438 12.57421875 13.69921875 C14.05719456 15.79421632 15.5320309 17.89447301 17 20 C16.34 20.66 15.68 21.32 15 22 C14.67 20.68 14.34 19.36 14 18 C13.34 18 12.68 18 12 18 C12 17.34 12 16.68 12 16 C11.34 16 10.68 16 10 16 C8.74609375 14.57421875 8.74609375 14.57421875 7.4375 12.6875 C7.00308594 12.07261719 6.56867187 11.45773437 6.12109375 10.82421875 C5 9 5 9 4 6 C3.34 5.67 2.68 5.34 2 5 C2 4.01 2 3.02 2 2 C1.34 2 0.68 2 0 2 C0 1.34 0 0.68 0 0 Z " fill="#1E1E1E" transform="translate(669,553)"/>
<path d="M0 0 C0.33 0 0.66 0 1 0 C2.83150372 11.08713858 3.23135477 21.77929357 3 33 C2.67 33 2.34 33 2 33 C2 28.71 2 24.42 2 20 C1.34 20 0.68 20 0 20 C0 13.4 0 6.8 0 0 Z " fill="#515051" transform="translate(783,403)"/>
<path d="M0 0 C0.66 0.99 1.32 1.98 2 3 C0.71937515 4.7074998 -0.61767557 6.37373596 -2 8 C-2.66 8 -3.32 8 -4 8 C-4.226875 8.598125 -4.45375 9.19625 -4.6875 9.8125 C-6.36710046 12.61183411 -8.09105125 13.58100061 -11 15 C-11.99 15 -12.98 15 -14 15 C-13.07316406 14.08476563 -12.14632812 13.16953125 -11.19140625 12.2265625 C-9.98163961 11.0261739 -8.77201135 9.82564583 -7.5625 8.625 C-6.95083984 8.02171875 -6.33917969 7.4184375 -5.70898438 6.796875 C-5.12568359 6.21679688 -4.54238281 5.63671875 -3.94140625 5.0390625 C-3.40201416 4.50490723 -2.86262207 3.97075195 -2.30688477 3.42041016 C-0.89153023 2.01347612 -0.89153023 2.01347612 0 0 Z " fill="#D9D9DC" transform="translate(759,504)"/>
<path d="M0 0 C3.375 4.5 3.375 4.5 3.29296875 8.546875 C3.28330078 9.39121094 3.27363281 10.23554688 3.26367188 11.10546875 C3.23853516 11.97816406 3.21339844 12.85085938 3.1875 13.75 C3.17396484 14.63816406 3.16042969 15.52632813 3.14648438 16.44140625 C3.11121309 18.62822578 3.06192752 20.81379966 3 23 C2.34 23.33 1.68 23.66 1 24 C0.67 16.08 0.34 8.16 0 0 Z " fill="#E3E3E3" transform="translate(707,414)"/>
<path d="M0 0 C0.33 0 0.66 0 1 0 C1.30384048 10.75820351 1.46861792 20.65608586 -2 31 C-4.046875 27.28125 -4.046875 27.28125 -3.625 24.75 C-3.41875 24.1725 -3.2125 23.595 -3 23 C-2.34 23 -1.68 23 -1 23 C-1.185625 21.700625 -1.37125 20.40125 -1.5625 19.0625 C-1.87890625 16.84765625 -1.87890625 16.84765625 -2 15 C-1.67 14.67 -1.34 14.34 -1 14 C-0.76472227 11.65012738 -0.58613583 9.29443961 -0.4375 6.9375 C-0.35371094 5.64714844 -0.26992188 4.35679687 -0.18359375 3.02734375 C-0.12300781 2.02832031 -0.06242188 1.02929688 0 0 Z " fill="#535354" transform="translate(752,898)"/>
<path d="M0 0 C0.66 0.33 1.32 0.66 2 1 C0.05063872 3.38255267 -1.11691913 4.03741412 -4.125 5 C-5.548125 5.495 -5.548125 5.495 -7 6 C-7.33 6.99 -7.66 7.98 -8 9 C-11.87493656 10.07637127 -13.52452927 9.94566951 -17 8 C-16.19175781 7.67386719 -15.38351562 7.34773437 -14.55078125 7.01171875 C-12.94783203 6.35623047 -12.94783203 6.35623047 -11.3125 5.6875 C-10.25675781 5.25824219 -9.20101562 4.82898438 -8.11328125 4.38671875 C-4.98453004 3.07953207 -4.98453004 3.07953207 -2.23046875 1.26953125 C-1.49441406 0.85058594 -0.75835938 0.43164062 0 0 Z " fill="#D8D8DB" transform="translate(728,957)"/>
<path d="M0 0 C0.66 0.99 1.32 1.98 2 3 C-1.3 6.3 -4.6 9.6 -8 13 C-8.33 12.01 -8.66 11.02 -9 10 C-8.27683594 9.29423828 -8.27683594 9.29423828 -7.5390625 8.57421875 C-6.90742188 7.95160156 -6.27578125 7.32898438 -5.625 6.6875 C-4.68527344 5.76517578 -4.68527344 5.76517578 -3.7265625 4.82421875 C-1.81913393 2.91187472 -1.81913393 2.91187472 0 0 Z " fill="#E7E7EB" transform="translate(495,946)"/>
<path d="M0 0 C0.66 0.33 1.32 0.66 2 1 C0.68 1.33 -0.64 1.66 -2 2 C-2 2.99 -2 3.98 -2 5 C-8.6 4.67 -15.2 4.34 -22 4 C-22 3.67 -22 3.34 -22 3 C-20.24623047 2.92652344 -20.24623047 2.92652344 -18.45703125 2.8515625 C-16.90883196 2.77649829 -15.36065599 2.70095205 -13.8125 2.625 C-13.04357422 2.5940625 -12.27464844 2.563125 -11.48242188 2.53125 C-7.19885161 2.31063694 -3.97618343 1.72226401 0 0 Z " fill="#525355" transform="translate(461,941)"/>
<path d="M0 0 C0.99 0.33 1.98 0.66 3 1 C1.84414715 4.91211733 0.64465038 7.8745041 -2 11 C-2.99 10.67 -3.98 10.34 -5 10 C-3.35 6.7 -1.7 3.4 0 0 Z " fill="#2E2E2F" transform="translate(720,920)"/>
<path d="M0 0 C0.66 0.66 1.32 1.32 2 2 C1.67889311 5.53217579 1.12183498 8.63449506 0 12 C-0.99 12 -1.98 12 -3 12 C-2.68950274 10.56206608 -2.3765224 9.1246682 -2.0625 7.6875 C-1.88847656 6.88699219 -1.71445312 6.08648438 -1.53515625 5.26171875 C-1 3 -1 3 0 0 Z " fill="#303032" transform="translate(574,914)"/>
<path d="M0 0 C0.33 0 0.66 0 1 0 C1.31563182 5.26053037 0.66590937 8.44573816 -2 13 C-2.66 13 -3.32 13 -4 13 C-3.52140759 11.39566191 -3.04210442 9.79153584 -2.5625 8.1875 C-2.29566406 7.29417969 -2.02882813 6.40085937 -1.75390625 5.48046875 C-1.19612127 3.64526945 -0.60655425 1.81966274 0 0 Z " fill="#D7D7DB" transform="translate(593,943)"/>
<path d="M0 0 C-0.66 0.66 -1.32 1.32 -2 2 C-2.64767793 4.57061311 -2.64767793 4.57061311 -3 7 C-4.70884005 5.37660195 -6.37446717 3.70680947 -8 2 C-8 1.34 -8 0.68 -8 0 C-4.94736336 -0.98120464 -3.05263664 -0.98120464 0 0 Z " fill="#DCDDDF" transform="translate(345,899)"/>
<path d="M0 0 C0.66 0 1.32 0 2 0 C3.28006797 1.78398614 4.47660351 3.62853906 5.625 5.5 C6.57246094 7.03140625 6.57246094 7.03140625 7.5390625 8.59375 C8.02117188 9.3878125 8.50328125 10.181875 9 11 C8.34 11.66 7.68 12.32 7 13 C5.82786955 11.21190303 4.66244474 9.41940875 3.5 7.625 C2.8503125 6.62726562 2.200625 5.62953125 1.53125 4.6015625 C0 2 0 2 0 0 Z " fill="#1F1F20" transform="translate(703,599)"/>
<path d="M0 0 C0.8125 1.625 0.8125 1.625 1 4 C-0.46818136 6.24609835 -2.15852858 8.02378677 -4 10 C-5.32 9.67 -6.64 9.34 -8 9 C-7.50628906 8.51789062 -7.01257813 8.03578125 -6.50390625 7.5390625 C-5.86324219 6.90742187 -5.22257813 6.27578125 -4.5625 5.625 C-3.92441406 4.99851562 -3.28632812 4.37203125 -2.62890625 3.7265625 C-0.92117824 2.08276939 -0.92117824 2.08276939 0 0 Z " fill="#DBDBDF" transform="translate(741,944)"/>
<path d="M0 0 C-1.5625 1.5625 -1.5625 1.5625 -4 3 C-7.75 2.6875 -7.75 2.6875 -11 2 C-11 1.67 -11 1.34 -11 1 C-3.57142857 -1.42857143 -3.57142857 -1.42857143 0 0 Z M-10 3 C-7 4 -7 4 -7 4 Z " fill="#DDDDDF" transform="translate(475,965)"/>
<path d="M0 0 C0.33 1.32 0.66 2.64 1 4 C-1.64 6.31 -4.28 8.62 -7 11 C-7.66 10.67 -8.32 10.34 -9 10 C-8.43410156 9.44570313 -7.86820312 8.89140625 -7.28515625 8.3203125 C-6.55167969 7.59585938 -5.81820313 6.87140625 -5.0625 6.125 C-4.33160156 5.40570312 -3.60070312 4.68640625 -2.84765625 3.9453125 C-0.94332001 2.12972808 -0.94332001 2.12972808 0 0 Z " fill="#D7D7DA" transform="translate(373,878)"/>
<path d="M0 0 C1.485 0.99 1.485 0.99 3 2 C3.1875 5.125 3.1875 5.125 3 8 C2.01 8 1.02 8 0 8 C-1.125 2.25 -1.125 2.25 0 0 Z " fill="#D7D7D8" transform="translate(566,926)"/>
<path d="M0 0 C0.66 0 1.32 0 2 0 C2.33 2.64 2.66 5.28 3 8 C2.67 6.68 2.34 5.36 2 4 C0.02 4.33 -1.96 4.66 -4 5 C-2.71937515 3.2925002 -1.38232443 1.62626404 0 0 Z " fill="#C0C1C2" transform="translate(898,954)"/>
<path d="M0 0 C0.66 0 1.32 0 2 0 C2.99 3.3 3.98 6.6 5 10 C4.01 10.33 3.02 10.66 2 11 C2 8.36 2 5.72 2 3 C1.34 3 0.68 3 0 3 C0 2.01 0 1.02 0 0 Z " fill="#CBCBCC" transform="translate(531,921)"/>
<path d="M0 0 C1.16952466 3.50857397 0.76017128 5.42719497 0 9 C-0.33 9.66 -0.66 10.32 -1 11 C-1.66 11 -2.32 11 -3 11 C-2.69078116 9.54096742 -2.37751201 8.08279278 -2.0625 6.625 C-1.88847656 5.81289063 -1.71445312 5.00078125 -1.53515625 4.1640625 C-1 2 -1 2 0 0 Z " fill="#0F0E0F" transform="translate(587,879)"/>
<path d="M0 0 C0.66 0.66 1.32 1.32 2 2 C1.625 5.625 1.625 5.625 1 9 C0.01 9 -0.98 9 -2 9 C-1.34 6.03 -0.68 3.06 0 0 Z " fill="#E9E9EC" transform="translate(781,460)"/>
<path d="M0 0 C0.66 0.33 1.32 0.66 2 1 C2 1.66 2 2.32 2 3 C-0.3125 4.6875 -0.3125 4.6875 -3 6 C-3.99 5.67 -4.98 5.34 -6 5 C-4.02 3.35 -2.04 1.7 0 0 Z " fill="#DFDFE2" transform="translate(740,523)"/>
<path d="M0 0 C0.66 0.33 1.32 0.66 2 1 C0.125 6.75 0.125 6.75 -1 9 C-1.66 9 -2.32 9 -3 9 C-2.01 6.03 -1.02 3.06 0 0 Z " fill="#D8D7DA" transform="translate(588,957)"/>
<path d="M0 0 C0.66 0.33 1.32 0.66 2 1 C0.35 2.98 -1.3 4.96 -3 7 C-3.99 6.34 -4.98 5.68 -6 5 C-4.02 3.35 -2.04 1.7 0 0 Z " fill="#28282A" transform="translate(469,935)"/>
<path d="M0 0 C0.66 0.66 1.32 1.32 2 2 C1.625 4.625 1.625 4.625 1 7 C0.01 7.33 -0.98 7.66 -2 8 C-1.34 5.36 -0.68 2.72 0 0 Z " fill="#D5D5D9" transform="translate(778,469)"/>
</svg>
