<?xml version="1.0" encoding="UTF-8"?>
<svg xmlns="http://www.w3.org/2000/svg" version="1.1" width="1254" height="1254" viewBox="0 0 1254 1254" shape-rendering="geometricPrecision"><path d="M0 0 C1.05195742 -0.00145344 2.10391483 -0.00290688 3.18774974 -0.00440437 C6.70612907 -0.00804833 10.22446463 -0.00458537 13.74284363 -0.0011425 C16.29347411 -0.00229495 18.84410442 -0.00388331 21.39473438 -0.00586975 C26.93695953 -0.00917429 32.47917134 -0.00937583 38.02139664 -0.00682259 C46.26296055 -0.00303613 54.50451627 -0.00497591 62.74608013 -0.00803089 C77.46651789 -0.01329442 92.18695132 -0.01284112 106.90738949 -0.00995198 C119.78952254 -0.00743606 132.67165399 -0.00677989 145.55378723 -0.00797462 C146.83572273 -0.0080892 146.83572273 -0.0080892 148.14355592 -0.00820609 C151.6127838 -0.00851743 155.08201169 -0.00883584 158.55123957 -0.00916586 C191.09282139 -0.01222461 223.63440044 -0.00945179 256.17598183 -0.00406896 C285.08490795 0.00067661 313.99382966 0.00025198 342.90275574 -0.00452995 C375.38496182 -0.00988501 407.86716545 -0.01200768 440.34937191 -0.00891769 C443.8122654 -0.00859697 447.27515888 -0.00828413 450.73805237 -0.00797462 C451.59070013 -0.00789555 452.44334789 -0.00781647 453.32183347 -0.007735 C466.19562016 -0.0065977 479.06940508 -0.00792748 491.94319153 -0.01045418 C506.58178589 -0.01331294 521.22037524 -0.01259966 535.85896897 -0.00717343 C544.05086416 -0.004237 552.24274848 -0.0040457 560.43464339 -0.00781961 C566.55006832 -0.01032613 572.66547914 -0.00760774 578.78090322 -0.00284503 C581.25586663 -0.00172677 583.7308315 -0.00229897 586.20579398 -0.00472082 C589.56782995 -0.00775867 592.92980672 -0.00464516 596.2918396 0 C597.25419647 -0.00234117 598.21655334 -0.00468233 599.20807254 -0.00709444 C607.19862436 0.01499136 614.97233027 0.4109053 622.7084198 2.53209114 C625.35538681 3.17686516 628.01801149 3.66005525 630.70011902 4.13414192 C641.13623594 5.98217866 651.21807832 8.58485506 661.13273621 12.36705208 C663.02095836 13.07874192 664.92487849 13.74838236 666.82951355 14.41490364 C680.67939134 19.34378835 693.15680184 26.21028249 705.7084198 33.81334114 C706.43400085 34.25250862 707.15958191 34.6916761 707.90715027 35.14415169 C714.6679335 39.31332733 720.91080181 44.07248933 727.0834198 49.06334114 C730.31023861 51.67057108 733.57671871 54.20033494 736.8959198 56.68834114 C740.28417472 59.30518951 742.94416161 62.05339812 745.61857605 65.37974739 C747.32022495 67.32511071 749.16153029 68.90905801 751.1459198 70.56334114 C754.61367263 73.50166605 757.20630431 76.632928 759.8256073 80.33287239 C761.21544138 82.31419137 761.21544138 82.31419137 763.5209198 84.50084114 C764.0571698 85.03709114 764.5934198 85.57334114 765.1459198 86.12584114 C765.1459198 86.78584114 765.1459198 87.44584114 765.1459198 88.12584114 C765.8059198 88.12584114 766.4659198 88.12584114 767.1459198 88.12584114 C771.5501184 93.42063946 775.09427646 99.53036046 778.8334198 105.31334114 C779.38558167 106.16726448 779.38558167 106.16726448 779.94889832 107.0384388 C783.76659411 113.00192216 787.21260426 119.11190343 790.3959198 125.43834114 C790.91670105 126.46572395 791.4374823 127.49310677 791.9740448 128.55162239 C793.1459198 131.12584114 793.1459198 131.12584114 793.1459198 133.12584114 C793.8059198 133.12584114 794.4659198 133.12584114 795.1459198 133.12584114 C796.41997305 136.43711143 797.68955796 139.75007843 798.9584198 143.06334114 C799.31484558 143.98953255 799.67127136 144.91572395 800.03849792 145.86998177 C802.22202169 151.57919529 804.26011293 157.311928 806.1459198 163.12584114 C806.48494324 164.13388802 806.82396667 165.14193489 807.17326355 166.18052864 C815.13063387 190.8381311 816.45155687 215.61918896 816.40661621 241.35498238 C816.4096433 243.84040692 816.41353555 246.32583054 816.41820878 248.81125253 C816.42630283 254.17741792 816.42830971 259.54353208 816.42470551 264.90969849 C816.41935972 272.89024368 816.42553244 280.87075241 816.43378844 288.85129365 C816.44897076 303.94000297 816.45073943 319.02869542 816.44826541 334.11741079 C816.44642748 345.77618749 816.44820281 357.43495872 816.45248985 369.09373474 C816.45309227 370.77314211 816.45369347 372.45254948 816.45429346 374.13195686 C816.45520078 376.66317495 816.45610946 379.19439305 816.45702581 381.72561114 C816.46544682 405.23846456 816.46979698 428.75131593 816.46561909 452.26417065 C816.46546271 453.14924293 816.46530634 454.03431522 816.46514522 454.94620787 C816.46433953 459.43133678 816.46349376 463.91646569 816.46263192 468.40159459 C816.46246083 469.29223454 816.46228974 470.1828745 816.46211347 471.10050355 C816.46176681 472.90159136 816.46141828 474.70267916 816.46106788 476.50376697 C816.4557133 504.51509256 816.46363714 532.52638666 816.48210144 560.53770638 C816.5028592 592.06466447 816.5135369 623.59160306 816.50952595 655.11856836 C816.50913066 658.48612463 816.5087691 661.85368091 816.50842857 665.22123718 C816.50829248 666.46485026 816.50829248 666.46485026 816.50815363 667.73358684 C816.50699202 680.20044234 816.51360257 692.66727802 816.52424049 705.13412857 C816.53634094 719.32875455 816.53779609 733.52333714 816.52545033 747.71796382 C816.51886536 755.64177188 816.52035074 763.56547588 816.53403884 771.48927541 C816.54336232 777.4366529 816.53666055 783.38394778 816.52419104 789.33132153 C816.52156657 791.7140833 816.52383845 794.09685751 816.53192691 796.47960699 C816.66081219 837.33175859 816.66081219 837.33175859 811.1459198 854.12584114 C810.67845363 855.97772636 810.21985168 857.83187578 809.7709198 859.68834114 C806.19886221 873.99443177 801.49708498 887.11523468 795.3490448 900.50084114 C793.58003932 904.36048946 791.86224144 908.24254357 790.1459198 912.12584114 C789.4859198 912.12584114 788.8259198 912.12584114 788.1459198 912.12584114 C787.99316589 913.20672005 787.99316589 913.20672005 787.83732605 914.30943489 C787.06254888 917.46544809 785.87427732 919.48369755 784.0834198 922.18834114 C783.45564636 923.14353645 782.82787292 924.09873177 782.18107605 925.08287239 C781.50947449 926.08705208 780.83787292 927.09123177 780.1459198 928.12584114 C779.46400574 929.16095833 778.78209167 930.19607552 778.07951355 931.26255989 C776.1182983 934.22857233 774.13757234 937.18020376 772.1459198 940.12584114 C771.63545105 940.88896614 771.1249823 941.65209114 770.5990448 942.43834114 C769.50177674 944.0390616 768.33255387 945.59019705 767.1459198 947.12584114 C766.4859198 947.12584114 765.8259198 947.12584114 765.1459198 947.12584114 C764.4859198 948.77584114 763.8259198 950.42584114 763.1459198 952.12584114 C762.4859198 952.12584114 761.8259198 952.12584114 761.1459198 952.12584114 C760.80754089 952.93988411 760.80754089 952.93988411 760.46232605 953.77037239 C758.74541347 956.84247414 756.47635943 959.26454423 754.0834198 961.81334114 C753.35240051 962.60019295 753.35240051 962.60019295 752.60661316 963.40294075 C740.06818178 976.82720629 740.06818178 976.82720629 735.1459198 980.12584114 C734.4859198 980.12584114 733.8259198 980.12584114 733.1459198 980.12584114 C732.8159198 981.11584114 732.4859198 982.10584114 732.1459198 983.12584114 C730.81258647 983.45917447 729.47925313 983.79250781 728.1459198 984.12584114 C727.8159198 985.11584114 727.4859198 986.10584114 727.1459198 987.12584114 C724.5834198 988.31334114 724.5834198 988.31334114 722.1459198 989.12584114 C722.1459198 989.78584114 722.1459198 990.44584114 722.1459198 991.12584114 C719.82180541 992.74142131 717.50368362 994.2288244 715.0834198 995.68834114 C714.36114197 996.13016731 713.63886414 996.57199348 712.8946991 997.02720833 C711.38827026 997.94691932 709.8798494 998.86337468 708.36955261 999.77672005 C706.30464057 1001.02954218 704.25122231 1002.29901762 702.2006073 1003.57505989 C694.42054719 1008.38107242 686.54705525 1012.47561518 678.1459198 1016.12584114 C677.34670105 1016.49322395 676.5474823 1016.86060677 675.7240448 1017.23912239 C642.95719993 1032.28630824 607.28184151 1036.61426386 571.57693481 1036.51352119 C569.11550596 1036.51770681 566.65407905 1036.52319098 564.19265562 1036.52984101 C558.89425723 1036.54118601 553.5959769 1036.543481 548.29757881 1036.53729057 C540.41763298 1036.52810912 532.53776761 1036.53630315 524.65782789 1036.54758181 C510.57316946 1036.56714783 496.48854803 1036.56961549 482.40387925 1036.56438661 C470.07305604 1036.55981171 457.74224739 1036.56045058 445.41142464 1036.56622696 C443.75098013 1036.56698386 442.09053561 1036.56773984 440.4300911 1036.5684949 C437.92726683 1036.56964023 435.42444256 1036.57079012 432.92161829 1036.57195415 C409.68204535 1036.58264392 386.44247721 1036.58740021 363.20290279 1036.57948399 C361.89157437 1036.57903823 361.89157437 1036.57903823 360.55375446 1036.57858346 C353.45662886 1036.57613507 346.35950332 1036.57352321 339.26237778 1036.57089933 C311.5992678 1036.56080322 283.93621857 1036.56914644 256.27311707 1036.59239388 C225.11743153 1036.6185347 193.96178254 1036.63129607 162.80608565 1036.62420613 C159.47643221 1036.62349018 156.14677877 1036.62281578 152.81712532 1036.62216568 C151.58756502 1036.62191097 151.58756502 1036.62191097 150.33316511 1036.62165111 C138.02285638 1036.61935945 125.71258187 1036.62727065 113.40228081 1036.64045715 C99.38174576 1036.65544982 85.36129025 1036.65610374 71.34075677 1036.63838624 C64.20142426 1036.6297329 57.06223085 1036.62719179 49.92290688 1036.6430378 C2.51996982 1036.74217886 -41.08836129 1034.9520476 -84.7134552 1014.58677864 C-88.73782944 1012.71474386 -92.79051904 1010.91086801 -96.8540802 1009.12584114 C-96.8540802 1008.46584114 -96.8540802 1007.80584114 -96.8540802 1007.12584114 C-97.58111145 1007.01884895 -98.3081427 1006.91185677 -99.0572052 1006.80162239 C-104.28389351 1005.53874938 -108.45805548 1002.11893166 -112.8540802 999.12584114 C-113.4949054 998.69303841 -114.13573059 998.26023567 -114.79597473 997.8143177 C-124.45275444 991.26060455 -133.53731208 984.30172879 -142.25080872 976.53819466 C-143.99503062 975.00167513 -145.76912301 973.50394111 -147.54548645 972.00474739 C-149.9510293 969.94721792 -152.13489331 967.87527016 -154.1665802 965.43834114 C-157.00752687 962.09191072 -159.93750799 958.85019624 -162.9165802 955.62584114 C-166.85876455 951.30138437 -170.46604369 946.89121 -173.8540802 942.12584114 C-174.34005676 941.47357552 -174.82603333 940.82130989 -175.32673645 940.14927864 C-178.8540802 935.37410019 -178.8540802 935.37410019 -178.8540802 933.12584114 C-179.5140802 933.12584114 -180.1740802 933.12584114 -180.8540802 933.12584114 C-181.35036926 932.25443489 -181.84665833 931.38302864 -182.35798645 930.48521614 C-183.04415868 929.28207649 -183.73035871 928.07895269 -184.4165802 926.87584114 C-184.77792053 926.24121956 -185.13926086 925.60659798 -185.5115509 924.95274544 C-187.81190009 920.9212212 -190.16341723 916.92464515 -192.5415802 912.93834114 C-201.20891428 898.08288754 -201.20891428 898.08288754 -201.8540802 890.12584114 C-202.5140802 890.12584114 -203.1740802 890.12584114 -203.8540802 890.12584114 C-204.10802551 889.2918177 -204.36197083 888.45779427 -204.62361145 887.59849739 C-206.88601834 880.17239486 -206.88601834 880.17239486 -209.3540802 872.81334114 C-211.42716741 866.67294695 -212.86631046 860.35356192 -214.37654114 854.05699348 C-214.78851983 852.39096515 -215.24313721 850.73558698 -215.7056427 849.08287239 C-220.87284766 829.74499928 -220.1497634 808.72541503 -220.10804749 788.86451912 C-220.11035868 786.42442748 -220.11353958 783.98433655 -220.11750197 781.54424703 C-220.12405379 776.28955506 -220.12455736 771.03490059 -220.11940765 765.78020859 C-220.11177034 757.96553574 -220.11574726 750.15089703 -220.12182427 742.33622433 C-220.13230245 728.37001535 -220.13146429 714.40382477 -220.12566644 700.43761407 C-220.12061735 688.21363546 -220.11933026 675.98966357 -220.12171173 663.76568413 C-220.1218645 662.95199004 -220.12201727 662.13829595 -220.12217467 661.29994447 C-220.12279744 657.99612496 -220.12343425 654.69230546 -220.1240942 651.38848596 C-220.13020023 620.45084268 -220.12468453 589.51321106 -220.1139004 558.57556958 C-220.10441233 531.14765906 -220.10525834 503.71976712 -220.11482239 476.29185677 C-220.12555487 445.41055116 -220.12976525 414.52925584 -220.12359786 383.64794862 C-220.12295652 380.34984231 -220.12233083 377.051736 -220.12171173 373.75362968 C-220.12155358 372.94167068 -220.12139542 372.12971168 -220.12123247 371.29314786 C-220.11896692 359.08449957 -220.12160051 346.87585878 -220.12667084 334.66721153 C-220.1324139 320.77020037 -220.13090783 306.87321035 -220.12010935 292.97620179 C-220.1142788 285.21881865 -220.11379184 277.4614814 -220.1214017 269.70409955 C-220.12647787 263.88254823 -220.12089067 258.06104324 -220.11145255 252.23949914 C-220.10924504 249.90667316 -220.11029394 247.57384094 -220.11520413 245.24101909 C-220.13906585 232.94721251 -219.82917677 220.73488724 -218.96320724 208.46863556 C-218.88571732 207.33783197 -218.80822739 206.20702838 -218.72838928 205.04195801 C-218.29441738 199.45617858 -217.60457993 194.44601856 -215.8540802 189.12584114 C-215.34783322 186.50183849 -214.86802408 183.88373538 -214.4165802 181.25084114 C-213.35262144 175.32782072 -211.95867965 169.76037724 -209.8540802 164.12584114 C-209.41289424 162.77287087 -208.97557852 161.41863413 -208.5415802 160.06334114 C-204.21716815 147.22384968 -199.24569521 135.07604803 -192.8540802 123.12584114 C-192.53713196 122.53061653 -192.22018372 121.93539192 -191.89363098 121.3221302 C-186.88072143 112.00315993 -181.06160921 103.34541478 -174.96394348 94.71299934 C-173.90531058 93.19910307 -172.87878812 91.66290302 -171.8540802 90.12584114 C-171.1940802 90.12584114 -170.5340802 90.12584114 -169.8540802 90.12584114 C-169.65298645 89.44263802 -169.4518927 88.75943489 -169.2447052 88.05552864 C-167.36146558 84.08802943 -164.640405 81.38226336 -161.6040802 78.25084114 C-160.47251054 77.06724529 -159.34229772 75.88235075 -158.2134552 74.69615364 C-157.37572571 73.81793953 -157.37572571 73.81793953 -156.52107239 72.92198372 C-154.84912718 71.12050439 -153.25238323 69.27286586 -151.6665802 67.39537239 C-149.60939928 64.96933635 -147.53128664 62.75576255 -145.1040802 60.68834114 C-144.43247864 60.11599739 -143.76087708 59.54365364 -143.06892395 58.95396614 C-139.0377324 55.62663343 -134.95311604 52.36896085 -130.8540802 49.12584114 C-130.06517395 48.48388802 -129.2762677 47.84193489 -128.4634552 47.18052864 C-125.47651858 44.82853962 -122.40716754 42.61459145 -119.2915802 40.43834114 C-118.72761536 40.03550911 -118.16365051 39.63267708 -117.58259583 39.21763802 C-114.7440337 37.23562446 -112.32076682 35.62592552 -108.8540802 35.12584114 C-108.8540802 34.46584114 -108.8540802 33.80584114 -108.8540802 33.12584114 C-106.75391397 31.95142579 -104.64949265 30.78620102 -102.5415802 29.62584114 C-101.94667786 29.29197395 -101.35177551 28.95810677 -100.73884583 28.61412239 C-97.89579176 27.05759 -96.14747032 26.12584114 -92.8540802 26.12584114 C-92.8540802 25.46584114 -92.8540802 24.80584114 -92.8540802 24.12584114 C-64.71049631 11.84846039 -64.71049631 11.84846039 -50.8540802 8.12584114 C-50.18731262 7.94472786 -49.52054504 7.76361458 -48.83357239 7.57701302 C-40.99087272 5.46452611 -33.15803195 3.69331095 -25.1118927 2.52037239 C-22.82863956 2.23252858 -22.82863956 2.23252858 -20.8540802 1.12584114 C-13.94079833 0.04809032 -6.97994323 -0.0169804 0 0 Z " fill="#F0F2FA" transform="translate(326.8540802001953,121.87415885925293)" /><path d="M750 247 L749 248 L749 307 L750 308 L762 308 L763 307 L763 284 L764 283 L768 283 L769 284 L769 285 L770 286 L770 287 L771 288 L771 289 L773 291 L773 292 L774 293 L774 294 L776 296 L776 297 L777 298 L777 299 L779 301 L779 302 L780 303 L780 304 L781 305 L781 306 L783 308 L797 308 L797 307 L796 306 L796 305 L795 304 L795 303 L793 301 L793 300 L792 299 L792 298 L790 296 L790 295 L788 293 L788 292 L787 291 L787 290 L785 288 L785 287 L783 285 L783 284 L782 283 L782 281 L783 280 L784 280 L785 279 L786 279 L788 277 L789 277 L790 276 L790 275 L792 273 L792 272 L793 271 L793 266 L794 265 L794 264 L793 263 L793 259 L792 258 L792 257 L791 256 L791 255 L787 251 L786 251 L784 249 L782 249 L781 248 L776 248 L775 247 Z M762 259 L763 258 L775 258 L776 259 L777 259 L780 262 L780 268 L777 271 L776 271 L775 272 L763 272 L762 271 Z M691 247 L691 308 L730 308 L730 297 L705 297 L704 296 L704 282 L705 281 L726 281 L726 270 L705 270 L704 269 L704 259 L705 258 L730 258 L730 247 Z M672 247 L634 247 L634 308 L646 308 L647 307 L647 283 L648 282 L670 282 L670 271 L648 271 L647 270 L647 259 L648 258 L673 258 L673 248 Z M499 247 L499 308 L512 308 L512 271 L513 270 L514 271 L514 272 L516 274 L516 275 L518 277 L518 278 L520 280 L520 281 L522 283 L522 284 L525 287 L525 288 L527 290 L527 291 L529 293 L529 294 L531 296 L531 297 L533 299 L533 300 L535 302 L535 303 L537 305 L537 306 L539 308 L552 308 L552 247 L539 247 L539 284 L538 285 L536 283 L536 282 L534 280 L534 279 L532 277 L532 276 L530 274 L530 273 L528 271 L528 270 L526 268 L526 267 L523 264 L523 263 L521 261 L521 260 L519 258 L519 257 L517 255 L517 254 L515 252 L515 251 L513 249 L513 248 L512 247 Z M447 247 L447 249 L446 250 L446 252 L445 253 L445 254 L444 255 L444 257 L443 258 L443 260 L442 261 L442 263 L441 264 L441 265 L440 266 L440 268 L439 269 L439 271 L438 272 L438 274 L437 275 L437 276 L436 277 L436 279 L435 280 L435 282 L434 283 L434 285 L433 286 L433 287 L432 288 L432 290 L431 291 L431 293 L430 294 L430 296 L429 297 L429 298 L428 299 L428 301 L427 302 L427 304 L426 305 L426 307 L425 308 L439 308 L439 306 L440 305 L440 303 L441 302 L441 300 L442 299 L442 298 L443 297 L443 296 L444 295 L466 295 L467 296 L467 297 L468 298 L468 300 L469 301 L469 303 L470 304 L470 306 L471 307 L471 308 L485 308 L484 307 L484 305 L483 304 L483 302 L482 301 L482 300 L481 299 L481 297 L480 296 L480 294 L479 293 L479 291 L478 290 L478 289 L477 288 L477 286 L476 285 L476 283 L475 282 L475 280 L474 279 L474 278 L473 277 L473 275 L472 274 L472 272 L471 271 L471 269 L470 268 L470 267 L469 266 L469 264 L468 263 L468 261 L467 260 L467 258 L466 257 L466 256 L465 255 L465 253 L464 252 L464 250 L463 249 L463 248 L462 247 Z M455 262 L456 263 L456 265 L457 266 L457 268 L458 269 L458 271 L459 272 L459 274 L460 275 L460 277 L461 278 L461 280 L462 281 L462 283 L463 284 L462 285 L448 285 L447 284 L447 283 L448 282 L448 280 L449 279 L449 277 L450 276 L450 274 L451 273 L451 271 L452 270 L452 268 L453 267 L453 265 L454 264 L454 263 Z M364 247 L364 308 L377 308 L377 284 L378 283 L382 283 L385 286 L385 287 L386 288 L386 289 L387 290 L387 291 L389 293 L389 294 L390 295 L390 296 L392 298 L392 299 L393 300 L393 301 L394 302 L394 303 L396 305 L396 306 L397 307 L397 308 L412 308 L412 307 L411 306 L411 305 L409 303 L409 302 L408 301 L408 300 L406 298 L406 297 L404 295 L404 294 L403 293 L403 292 L401 290 L401 289 L399 287 L399 286 L398 285 L398 284 L396 282 L396 281 L397 280 L399 280 L400 279 L401 279 L406 274 L406 273 L407 272 L407 271 L408 270 L408 260 L407 259 L407 257 L405 255 L405 254 L402 251 L401 251 L400 250 L399 250 L398 249 L396 249 L395 248 L391 248 L390 247 Z M377 259 L378 258 L390 258 L391 259 L392 259 L394 261 L394 262 L395 263 L395 267 L394 268 L394 269 L392 271 L391 271 L390 272 L378 272 L377 271 Z M299 247 L299 258 L315 258 L316 259 L316 308 L329 308 L329 259 L330 258 L347 258 L347 247 Z M208 247 L208 308 L221 308 L221 285 L226 280 L227 280 L228 281 L228 282 L229 283 L229 284 L231 286 L231 287 L232 288 L232 289 L234 291 L234 292 L235 293 L235 294 L237 296 L237 297 L238 298 L238 299 L240 301 L240 302 L241 303 L241 304 L243 306 L243 307 L244 308 L259 308 L258 307 L258 306 L256 304 L256 303 L255 302 L255 301 L253 299 L253 298 L251 296 L251 295 L250 294 L250 293 L248 291 L248 290 L246 288 L246 287 L245 286 L245 285 L243 283 L243 282 L241 280 L241 279 L240 278 L240 277 L238 275 L238 274 L236 272 L236 271 L235 270 L243 262 L243 261 L256 248 L256 247 L240 247 L239 248 L239 249 L228 260 L228 261 L222 267 L221 266 L221 247 Z M134 247 L134 308 L147 308 L147 271 L148 270 L150 272 L150 273 L152 275 L152 276 L154 278 L154 279 L157 282 L157 283 L159 285 L159 286 L161 288 L161 289 L163 291 L163 292 L165 294 L165 295 L167 297 L167 298 L169 300 L169 301 L172 304 L172 305 L174 307 L174 308 L187 308 L187 247 L175 247 L174 248 L174 284 L173 285 L172 284 L172 283 L170 281 L170 280 L168 278 L168 277 L166 275 L166 274 L164 272 L164 271 L162 269 L162 268 L160 266 L160 265 L158 263 L158 262 L156 260 L156 259 L154 257 L154 256 L151 253 L151 252 L149 250 L149 249 L147 247 Z M83 247 L82 248 L82 250 L81 251 L81 253 L80 254 L80 256 L79 257 L79 258 L78 259 L78 261 L77 262 L77 264 L76 265 L76 267 L75 268 L75 269 L74 270 L74 272 L73 273 L73 275 L72 276 L72 278 L71 279 L71 280 L70 281 L70 283 L69 284 L69 286 L68 287 L68 289 L67 290 L67 291 L66 292 L66 294 L65 295 L65 297 L64 298 L64 300 L63 301 L63 302 L62 303 L62 305 L61 306 L61 308 L74 308 L74 307 L75 306 L75 305 L76 304 L76 302 L77 301 L77 299 L78 298 L78 296 L79 295 L101 295 L103 297 L103 299 L104 300 L104 302 L105 303 L105 305 L106 306 L106 307 L107 308 L120 308 L120 307 L119 306 L119 304 L118 303 L118 301 L117 300 L117 298 L116 297 L116 296 L115 295 L115 293 L114 292 L114 290 L113 289 L113 287 L112 286 L112 285 L111 284 L111 282 L110 281 L110 279 L109 278 L109 276 L108 275 L108 274 L107 273 L107 271 L106 270 L106 268 L105 267 L105 265 L104 264 L104 263 L103 262 L103 260 L102 259 L102 257 L101 256 L101 254 L100 253 L100 252 L99 251 L99 249 L98 248 L98 247 Z M90 262 L91 263 L91 264 L92 265 L92 267 L93 268 L93 270 L94 271 L94 273 L95 274 L95 276 L96 277 L96 279 L97 280 L97 281 L98 282 L98 284 L97 285 L83 285 L82 284 L83 283 L83 281 L84 280 L84 278 L85 277 L85 275 L86 274 L86 272 L87 271 L87 269 L88 268 L88 266 L89 265 L89 263 Z M1 247 L1 308 L30 308 L31 307 L35 307 L36 306 L37 306 L38 305 L39 305 L40 304 L41 304 L45 300 L45 299 L46 298 L46 297 L47 296 L47 286 L46 285 L46 284 L44 282 L44 281 L41 278 L40 278 L37 275 L38 274 L39 274 L43 270 L43 269 L44 268 L44 266 L45 265 L45 260 L44 259 L44 257 L43 256 L43 255 L42 254 L42 253 L40 251 L39 251 L38 250 L37 250 L36 249 L35 249 L34 248 L30 248 L29 247 Z M14 283 L15 282 L30 282 L31 283 L32 283 L33 284 L33 285 L34 286 L34 293 L30 297 L15 297 L14 296 Z M14 259 L15 258 L27 258 L28 259 L29 259 L31 261 L31 264 L32 265 L31 266 L31 268 L29 270 L28 270 L27 271 L15 271 L14 270 Z M590 246 L589 247 L585 247 L584 248 L582 248 L581 249 L580 249 L579 250 L578 250 L575 253 L575 254 L573 256 L573 258 L572 259 L572 269 L573 270 L573 271 L574 272 L574 273 L578 277 L579 277 L581 279 L582 279 L583 280 L585 280 L586 281 L587 281 L588 282 L590 282 L591 283 L593 283 L594 284 L595 284 L596 285 L597 285 L599 287 L600 287 L601 288 L601 289 L602 290 L602 293 L601 294 L601 295 L599 297 L598 297 L597 298 L591 298 L590 297 L589 297 L585 293 L585 291 L584 290 L571 290 L571 295 L572 296 L572 298 L574 300 L574 301 L578 305 L579 305 L580 306 L581 306 L582 307 L584 307 L585 308 L590 308 L591 309 L598 309 L599 308 L602 308 L603 307 L605 307 L606 306 L607 306 L609 304 L610 304 L612 302 L612 301 L614 299 L614 297 L615 296 L615 293 L616 292 L616 289 L615 288 L615 285 L614 284 L614 282 L608 276 L607 276 L606 275 L605 275 L604 274 L602 274 L601 273 L599 273 L598 272 L596 272 L595 271 L594 271 L593 270 L591 270 L589 268 L588 268 L586 266 L586 265 L585 264 L585 262 L586 261 L586 260 L589 257 L595 257 L596 258 L597 258 L600 261 L600 263 L601 264 L614 264 L614 259 L613 258 L613 257 L612 256 L612 255 L610 253 L610 252 L609 252 L606 249 L605 249 L604 248 L602 248 L601 247 L596 247 L595 246 Z M300 5 L299 6 L297 6 L296 7 L295 7 L294 8 L292 8 L291 9 L289 9 L288 10 L287 10 L286 11 L285 11 L283 13 L282 13 L281 14 L280 14 L278 16 L277 16 L276 17 L275 17 L273 19 L272 19 L270 21 L269 21 L267 23 L266 23 L262 27 L261 27 L250 38 L250 39 L246 43 L246 44 L243 47 L243 48 L241 50 L241 51 L239 53 L239 54 L237 56 L237 57 L236 58 L236 59 L235 60 L235 61 L234 62 L234 63 L233 64 L233 65 L232 66 L232 67 L231 68 L207 68 L206 69 L206 71 L205 72 L205 73 L204 74 L204 75 L203 76 L203 77 L202 78 L202 79 L201 80 L201 81 L200 82 L200 84 L199 85 L199 86 L198 87 L198 88 L197 89 L197 90 L196 91 L196 92 L195 93 L195 94 L194 95 L194 96 L193 97 L193 99 L192 100 L192 101 L223 101 L224 102 L224 104 L223 105 L223 114 L224 115 L224 118 L223 119 L208 119 L208 120 L207 121 L207 122 L206 123 L206 124 L205 125 L205 127 L204 128 L204 129 L203 130 L203 131 L202 132 L202 133 L201 134 L201 135 L200 136 L200 137 L199 138 L199 139 L198 140 L198 141 L197 142 L197 144 L196 145 L196 146 L195 147 L195 148 L194 149 L194 150 L193 151 L231 151 L233 153 L233 154 L234 155 L234 156 L235 157 L235 158 L236 159 L236 160 L238 162 L238 163 L239 164 L239 165 L241 167 L241 168 L243 170 L243 171 L246 174 L246 175 L249 178 L249 179 L261 191 L262 191 L266 195 L267 195 L269 197 L270 197 L272 199 L273 199 L275 201 L276 201 L277 202 L278 202 L279 203 L280 203 L282 205 L283 205 L284 206 L285 206 L286 207 L287 207 L288 208 L290 208 L291 209 L292 209 L293 210 L295 210 L296 211 L298 211 L299 212 L301 212 L302 213 L305 213 L306 214 L309 214 L310 215 L315 215 L316 216 L322 216 L323 217 L351 217 L352 216 L362 216 L363 215 L367 215 L368 214 L371 214 L372 213 L374 213 L375 212 L376 212 L377 211 L378 211 L379 210 L380 210 L382 208 L383 208 L385 206 L386 206 L389 203 L390 203 L393 200 L394 200 L396 198 L396 158 L396 159 L389 166 L388 166 L384 170 L383 170 L380 173 L379 173 L378 174 L377 174 L375 176 L374 176 L373 177 L372 177 L371 178 L370 178 L369 179 L368 179 L367 180 L365 180 L364 181 L363 181 L362 182 L360 182 L359 183 L355 183 L354 184 L350 184 L349 185 L327 185 L326 184 L322 184 L321 183 L318 183 L317 182 L315 182 L314 181 L313 181 L312 180 L310 180 L309 179 L308 179 L307 178 L305 178 L304 177 L303 177 L301 175 L300 175 L299 174 L298 174 L296 172 L295 172 L293 170 L292 170 L289 167 L288 167 L276 155 L276 154 L275 153 L275 152 L276 151 L354 151 L355 150 L355 149 L356 148 L356 147 L357 146 L357 145 L358 144 L358 143 L359 142 L359 141 L360 140 L360 138 L361 137 L361 136 L362 135 L362 134 L363 133 L363 132 L364 131 L364 130 L365 129 L365 128 L366 127 L366 126 L367 125 L367 123 L368 122 L368 121 L369 120 L369 119 L262 119 L261 118 L261 102 L262 101 L378 101 L378 100 L379 99 L379 98 L380 97 L380 95 L381 94 L381 93 L382 92 L382 91 L383 90 L383 89 L384 88 L384 87 L385 86 L385 85 L386 84 L386 82 L387 81 L387 80 L388 79 L388 78 L389 77 L389 76 L390 75 L390 74 L391 73 L391 72 L392 71 L392 70 L393 69 L273 69 L272 68 L272 67 L274 65 L274 64 L277 61 L277 60 L290 47 L291 47 L293 45 L294 45 L296 43 L297 43 L299 41 L300 41 L301 40 L302 40 L303 39 L304 39 L305 38 L306 38 L307 37 L308 37 L309 36 L311 36 L312 35 L314 35 L315 34 L317 34 L318 33 L321 33 L322 32 L327 32 L328 31 L350 31 L351 32 L354 32 L355 33 L358 33 L359 34 L361 34 L362 35 L364 35 L365 36 L366 36 L367 37 L369 37 L370 38 L371 38 L372 39 L373 39 L374 40 L375 40 L377 42 L378 42 L380 44 L381 44 L383 46 L384 46 L397 59 L398 59 L398 58 L399 57 L399 56 L400 55 L400 54 L401 53 L401 52 L402 51 L402 50 L403 49 L403 48 L404 47 L404 45 L405 44 L405 43 L406 42 L406 41 L407 40 L407 39 L408 38 L408 37 L409 36 L409 35 L410 34 L410 33 L411 32 L406 27 L405 27 L401 23 L400 23 L398 21 L397 21 L395 19 L394 19 L392 17 L391 17 L389 15 L388 15 L387 14 L386 14 L385 13 L384 13 L383 12 L382 12 L381 11 L380 11 L379 10 L377 10 L376 9 L375 9 L374 8 L372 8 L371 7 L369 7 L368 6 L366 6 L365 5 L363 5 L362 4 L358 4 L357 3 L353 3 L352 2 L345 2 L344 1 L321 1 L320 2 L313 2 L312 3 L308 3 L307 4 L304 4 L303 5 Z M324 2 L342 2 L343 3 L349 3 L350 4 L354 4 L355 5 L358 5 L359 6 L362 6 L363 7 L365 7 L366 8 L368 8 L369 9 L371 9 L372 10 L374 10 L375 11 L376 11 L377 12 L379 12 L380 13 L381 13 L382 14 L383 14 L384 15 L385 15 L386 16 L387 16 L388 17 L389 17 L390 18 L391 18 L393 20 L394 20 L395 21 L396 21 L398 23 L399 23 L402 26 L403 26 L407 30 L408 30 L410 32 L409 33 L409 34 L408 35 L408 36 L407 37 L407 38 L406 39 L406 41 L405 42 L405 43 L404 44 L404 45 L403 46 L403 47 L402 48 L402 49 L401 50 L401 51 L400 52 L400 53 L399 54 L399 55 L397 57 L387 47 L386 47 L382 43 L381 43 L380 42 L379 42 L377 40 L376 40 L375 39 L374 39 L373 38 L372 38 L371 37 L370 37 L369 36 L368 36 L367 35 L365 35 L364 34 L362 34 L361 33 L359 33 L358 32 L355 32 L354 31 L349 31 L348 30 L329 30 L328 31 L323 31 L322 32 L320 32 L319 33 L316 33 L315 34 L313 34 L312 35 L311 35 L310 36 L308 36 L307 37 L306 37 L305 38 L304 38 L303 39 L302 39 L301 40 L300 40 L299 41 L298 41 L296 43 L295 43 L293 45 L292 45 L289 48 L288 48 L275 61 L275 62 L273 64 L273 65 L271 67 L271 68 L270 69 L270 70 L271 69 L390 69 L391 70 L390 71 L390 72 L389 73 L389 74 L388 75 L388 77 L387 78 L387 79 L386 80 L386 81 L385 82 L385 83 L384 84 L384 85 L383 86 L383 87 L382 88 L382 90 L381 91 L381 92 L380 93 L380 94 L379 95 L379 96 L378 97 L378 98 L376 100 L260 100 L260 118 L261 119 L261 120 L366 120 L367 121 L367 122 L366 123 L366 124 L365 125 L365 127 L364 128 L364 129 L363 130 L363 131 L362 132 L362 133 L361 134 L361 135 L360 136 L360 137 L359 138 L359 139 L358 140 L358 141 L357 142 L357 144 L356 145 L356 146 L355 147 L355 148 L353 150 L272 150 L273 151 L273 152 L275 154 L275 155 L278 158 L278 159 L287 168 L288 168 L291 171 L292 171 L295 174 L296 174 L297 175 L298 175 L300 177 L301 177 L302 178 L303 178 L304 179 L305 179 L306 180 L308 180 L309 181 L311 181 L312 182 L313 182 L314 183 L317 183 L318 184 L321 184 L322 185 L327 185 L328 186 L349 186 L350 185 L355 185 L356 184 L359 184 L360 183 L363 183 L364 182 L365 182 L366 181 L368 181 L369 180 L370 180 L371 179 L372 179 L373 178 L374 178 L375 177 L376 177 L377 176 L378 176 L380 174 L381 174 L384 171 L385 171 L394 162 L395 163 L395 197 L392 200 L391 200 L390 201 L389 201 L388 202 L387 202 L385 204 L384 204 L383 205 L382 205 L381 206 L379 206 L378 207 L377 207 L376 208 L375 208 L374 209 L372 209 L371 210 L369 210 L368 211 L366 211 L365 212 L362 212 L361 213 L357 213 L356 214 L352 214 L351 215 L345 215 L344 216 L323 216 L322 215 L316 215 L315 214 L311 214 L310 213 L306 213 L305 212 L302 212 L301 211 L299 211 L298 210 L297 210 L296 209 L294 209 L293 208 L291 208 L290 207 L289 207 L288 206 L287 206 L286 205 L285 205 L284 204 L283 204 L282 203 L281 203 L280 202 L279 202 L277 200 L276 200 L275 199 L274 199 L272 197 L271 197 L268 194 L267 194 L263 190 L262 190 L251 179 L251 178 L246 173 L246 172 L244 170 L244 169 L241 166 L241 165 L240 164 L240 163 L238 161 L238 160 L237 159 L237 158 L236 157 L236 156 L235 155 L235 154 L234 153 L234 152 L232 150 L197 150 L196 149 L196 148 L197 147 L197 145 L198 144 L198 143 L199 142 L199 141 L200 140 L200 139 L201 138 L201 137 L202 136 L202 135 L203 134 L203 132 L204 131 L204 130 L205 129 L205 128 L206 127 L206 126 L207 125 L207 124 L208 123 L208 122 L210 120 L225 120 L225 100 L195 100 L194 99 L194 98 L195 97 L195 96 L196 95 L196 94 L197 93 L197 92 L198 91 L198 90 L199 89 L199 88 L200 87 L200 86 L201 85 L201 83 L202 82 L202 81 L203 80 L203 79 L204 78 L204 77 L205 76 L205 75 L206 74 L206 73 L207 72 L207 71 L208 70 L232 70 L233 69 L233 68 L234 67 L234 65 L235 64 L235 63 L236 62 L236 61 L237 60 L237 59 L238 58 L238 57 L240 55 L240 54 L242 52 L242 51 L244 49 L244 48 L247 45 L247 44 L251 40 L251 39 L260 30 L261 30 L266 25 L267 25 L269 23 L270 23 L273 20 L274 20 L275 19 L276 19 L278 17 L279 17 L280 16 L281 16 L282 15 L283 15 L284 14 L285 14 L286 13 L287 13 L288 12 L289 12 L290 11 L291 11 L292 10 L294 10 L295 9 L296 9 L297 8 L299 8 L300 7 L302 7 L303 6 L306 6 L307 5 L311 5 L312 4 L316 4 L317 3 L323 3 Z M21 13 L18 16 L17 16 L13 20 L13 21 L11 23 L11 24 L9 26 L9 27 L8 28 L8 29 L7 30 L7 32 L6 33 L6 35 L5 36 L5 39 L4 40 L4 44 L3 45 L3 53 L2 54 L2 73 L3 74 L3 84 L4 85 L4 90 L5 91 L5 94 L6 95 L6 97 L7 98 L7 100 L8 101 L8 102 L9 103 L9 104 L10 105 L10 106 L12 108 L12 109 L19 116 L20 116 L22 118 L23 118 L24 119 L25 119 L26 120 L27 120 L28 121 L29 121 L30 122 L32 122 L33 123 L35 123 L36 124 L38 124 L39 125 L43 125 L44 126 L48 126 L49 127 L57 127 L58 128 L66 128 L67 129 L81 129 L82 130 L95 130 L96 131 L106 131 L107 132 L116 132 L117 133 L119 133 L120 134 L121 134 L122 135 L123 135 L126 138 L126 139 L127 140 L127 141 L128 142 L128 144 L129 145 L129 159 L128 160 L128 162 L127 163 L127 164 L121 170 L120 170 L119 171 L118 171 L117 172 L113 172 L112 173 L71 173 L70 172 L68 172 L67 171 L65 171 L63 169 L62 169 L59 166 L59 165 L57 163 L57 161 L56 160 L56 148 L55 147 L2 147 L2 164 L3 165 L3 174 L4 175 L4 179 L5 180 L5 183 L6 184 L6 186 L7 187 L7 188 L8 189 L8 190 L9 191 L9 192 L10 193 L10 194 L12 196 L12 197 L19 204 L20 204 L22 206 L23 206 L25 208 L27 208 L28 209 L29 209 L30 210 L31 210 L32 211 L33 211 L34 212 L37 212 L38 213 L42 213 L43 214 L48 214 L49 215 L56 215 L57 216 L67 216 L68 217 L122 217 L123 216 L133 216 L134 215 L139 215 L140 214 L143 214 L144 213 L147 213 L148 212 L150 212 L151 211 L153 211 L154 210 L155 210 L156 209 L157 209 L158 208 L160 208 L162 206 L163 206 L164 205 L165 205 L168 202 L169 202 L174 197 L174 196 L176 194 L176 193 L178 191 L178 190 L179 189 L179 188 L180 187 L180 185 L181 184 L181 182 L182 181 L182 178 L183 177 L183 172 L184 171 L184 162 L185 161 L185 136 L184 135 L184 126 L183 125 L183 122 L182 121 L182 118 L181 117 L181 116 L180 115 L180 114 L179 113 L179 112 L178 111 L178 110 L176 108 L176 107 L169 100 L168 100 L167 99 L166 99 L164 97 L163 97 L162 96 L161 96 L160 95 L158 95 L157 94 L156 94 L155 93 L153 93 L152 92 L149 92 L148 91 L145 91 L144 90 L141 90 L140 89 L133 89 L132 88 L120 88 L119 87 L108 87 L107 86 L93 86 L92 85 L78 85 L77 84 L72 84 L71 83 L68 83 L67 82 L66 82 L65 81 L64 81 L61 78 L61 77 L60 76 L60 75 L59 74 L59 69 L58 68 L58 62 L59 61 L59 57 L60 56 L60 54 L61 53 L61 52 L65 48 L66 48 L67 47 L68 47 L69 46 L72 46 L73 45 L78 45 L79 44 L105 44 L106 45 L111 45 L112 46 L115 46 L116 47 L117 47 L122 52 L122 53 L123 54 L123 56 L124 57 L124 68 L125 69 L178 69 L179 68 L179 53 L178 52 L178 44 L177 43 L177 39 L176 38 L176 35 L175 34 L175 33 L174 32 L174 30 L173 29 L173 28 L172 27 L172 26 L171 25 L171 24 L169 22 L169 21 L161 13 L160 13 L158 11 L157 11 L155 9 L154 9 L153 8 L151 8 L150 7 L149 7 L148 6 L146 6 L145 5 L142 5 L141 4 L136 4 L135 3 L128 3 L127 2 L112 2 L111 1 L79 1 L78 2 L60 2 L59 3 L48 3 L47 4 L43 4 L42 5 L39 5 L38 6 L36 6 L35 7 L33 7 L32 8 L31 8 L30 9 L29 9 L28 10 L27 10 L26 11 L25 11 L24 12 L23 12 L22 13 Z M645 0 L644 1 L644 3 L643 4 L643 6 L642 7 L642 10 L641 11 L641 13 L640 14 L640 16 L639 17 L639 20 L638 21 L638 23 L637 24 L637 26 L636 27 L636 30 L635 31 L635 33 L634 34 L634 36 L633 37 L633 40 L632 41 L632 43 L631 44 L631 46 L630 47 L630 50 L629 51 L629 53 L628 54 L628 56 L627 57 L627 60 L626 61 L626 63 L625 64 L625 66 L624 67 L624 70 L623 71 L623 73 L622 74 L622 76 L621 77 L621 80 L620 81 L620 83 L619 84 L619 86 L618 87 L618 90 L617 91 L617 93 L616 94 L616 96 L615 97 L615 100 L614 101 L614 103 L613 104 L613 106 L612 107 L612 110 L611 111 L611 113 L610 114 L610 116 L609 117 L609 120 L608 121 L608 123 L607 124 L607 126 L606 127 L606 130 L605 131 L605 133 L604 134 L604 136 L603 137 L603 140 L602 141 L602 143 L601 144 L601 146 L600 147 L600 150 L599 151 L599 153 L598 154 L598 156 L597 157 L597 160 L596 161 L596 163 L595 164 L595 166 L594 167 L594 170 L593 171 L593 173 L592 174 L592 176 L591 177 L591 180 L590 181 L590 183 L589 184 L589 186 L588 187 L588 190 L587 191 L587 193 L586 194 L586 196 L585 197 L585 200 L584 201 L584 203 L583 204 L583 206 L582 207 L582 210 L581 211 L581 213 L580 214 L580 216 L579 217 L639 217 L639 216 L640 215 L640 213 L641 212 L641 209 L642 208 L642 206 L643 205 L643 202 L644 201 L644 198 L645 197 L645 195 L646 194 L646 191 L647 190 L647 188 L648 187 L648 184 L649 183 L649 181 L651 179 L728 179 L729 180 L729 181 L730 182 L730 184 L731 185 L731 188 L732 189 L732 191 L733 192 L733 195 L734 196 L734 198 L735 199 L735 201 L736 202 L736 205 L737 206 L737 208 L738 209 L738 211 L739 212 L739 215 L740 216 L740 217 L798 217 L798 214 L797 213 L797 211 L796 210 L796 208 L795 207 L795 205 L794 204 L794 201 L793 200 L793 198 L792 197 L792 195 L791 194 L791 191 L790 190 L790 188 L789 187 L789 185 L788 184 L788 182 L787 181 L787 178 L786 177 L786 175 L785 174 L785 172 L784 171 L784 168 L783 167 L783 165 L782 164 L782 162 L781 161 L781 159 L780 158 L780 155 L779 154 L779 152 L778 151 L778 149 L777 148 L777 145 L776 144 L776 142 L775 141 L775 139 L774 138 L774 136 L773 135 L773 132 L772 131 L772 129 L771 128 L771 126 L770 125 L770 122 L769 121 L769 119 L768 118 L768 116 L767 115 L767 113 L766 112 L766 109 L765 108 L765 106 L764 105 L764 103 L763 102 L763 99 L762 98 L762 96 L761 95 L761 93 L760 92 L760 89 L759 88 L759 86 L758 85 L758 83 L757 82 L757 80 L756 79 L756 76 L755 75 L755 73 L754 72 L754 70 L753 69 L753 66 L752 65 L752 63 L751 62 L751 60 L750 59 L750 57 L749 56 L749 53 L748 52 L748 50 L747 49 L747 47 L746 46 L746 43 L745 42 L745 40 L744 39 L744 37 L743 36 L743 34 L742 33 L742 30 L741 29 L741 27 L740 26 L740 24 L739 23 L739 20 L738 19 L738 17 L737 16 L737 14 L736 13 L736 10 L735 9 L735 7 L734 6 L734 4 L733 3 L733 1 L732 0 Z M689 43 L690 44 L690 45 L691 46 L691 48 L692 49 L692 52 L693 53 L693 55 L694 56 L694 58 L695 59 L695 62 L696 63 L696 65 L697 66 L697 69 L698 70 L698 72 L699 73 L699 76 L700 77 L700 79 L701 80 L701 83 L702 84 L702 86 L703 87 L703 89 L704 90 L704 93 L705 94 L705 96 L706 97 L706 100 L707 101 L707 103 L708 104 L708 107 L709 108 L709 110 L710 111 L710 113 L711 114 L711 117 L712 118 L712 120 L713 121 L713 124 L714 125 L714 127 L715 128 L715 131 L716 132 L716 134 L717 135 L717 137 L716 138 L663 138 L662 137 L663 136 L663 133 L664 132 L664 130 L665 129 L665 126 L666 125 L666 123 L667 122 L667 119 L668 118 L668 115 L669 114 L669 112 L670 111 L670 108 L671 107 L671 105 L672 104 L672 101 L673 100 L673 98 L674 97 L674 94 L675 93 L675 91 L676 90 L676 87 L677 86 L677 83 L678 82 L678 80 L679 79 L679 76 L680 75 L680 73 L681 72 L681 69 L682 68 L682 66 L683 65 L683 62 L684 61 L684 59 L685 58 L685 55 L686 54 L686 52 L687 51 L687 48 L688 47 L688 44 Z M569 6 L567 6 L566 5 L565 5 L564 4 L562 4 L561 3 L558 3 L557 2 L552 2 L551 1 L544 1 L543 0 L419 0 L419 217 L477 217 L477 162 L478 161 L522 161 L523 160 L553 160 L554 159 L558 159 L559 158 L563 158 L564 157 L566 157 L567 156 L569 156 L570 155 L572 155 L573 154 L574 154 L575 153 L576 153 L578 151 L579 151 L581 149 L582 149 L590 141 L590 140 L593 137 L593 136 L594 135 L594 134 L595 133 L595 132 L596 131 L596 130 L597 129 L597 127 L598 126 L598 124 L599 123 L599 120 L600 119 L600 114 L601 113 L601 106 L602 105 L602 91 L603 90 L603 69 L602 68 L602 55 L601 54 L601 48 L600 47 L600 44 L599 43 L599 40 L598 39 L598 37 L597 36 L597 35 L596 34 L596 32 L594 30 L594 29 L593 28 L593 27 L591 25 L591 24 L589 22 L589 21 L581 13 L580 13 L578 11 L577 11 L575 9 L574 9 L573 8 L572 8 L571 7 L570 7 Z M477 48 L478 47 L527 47 L528 48 L531 48 L532 49 L533 49 L535 51 L536 51 L539 54 L539 55 L541 57 L541 59 L542 60 L542 63 L543 64 L543 76 L544 77 L544 84 L543 85 L543 96 L542 97 L542 100 L541 101 L541 102 L540 103 L540 104 L536 108 L535 108 L534 109 L533 109 L532 110 L525 110 L524 111 L478 111 L477 110 Z" fill="#2C52A0" fill-rule="evenodd" transform="translate(177.000 440.250) scale(1.125000)" /><path d="M324 3 L323 4 L317 4 L316 5 L312 5 L311 6 L307 6 L306 7 L303 7 L302 8 L300 8 L299 9 L297 9 L296 10 L295 10 L294 11 L292 11 L291 12 L290 12 L289 13 L288 13 L287 14 L286 14 L285 15 L284 15 L283 16 L282 16 L281 17 L280 17 L279 18 L278 18 L276 20 L275 20 L274 21 L273 21 L270 24 L269 24 L267 26 L266 26 L261 31 L260 31 L252 39 L252 40 L248 44 L248 45 L245 48 L245 49 L243 51 L243 52 L241 54 L241 55 L239 57 L239 58 L238 59 L238 60 L237 61 L237 62 L236 63 L236 64 L235 65 L235 67 L234 68 L234 69 L232 71 L208 71 L208 72 L207 73 L207 74 L206 75 L206 76 L205 77 L205 78 L204 79 L204 80 L203 81 L203 82 L202 83 L202 85 L201 86 L201 87 L200 88 L200 89 L199 90 L199 91 L198 92 L198 93 L197 94 L197 95 L196 96 L196 97 L195 98 L195 99 L225 99 L226 100 L226 120 L225 121 L210 121 L209 122 L209 123 L208 124 L208 125 L207 126 L207 127 L206 128 L206 129 L205 130 L205 131 L204 132 L204 134 L203 135 L203 136 L202 137 L202 138 L201 139 L201 140 L200 141 L200 142 L199 143 L199 144 L198 145 L198 147 L197 148 L197 149 L232 149 L235 152 L235 153 L236 154 L236 155 L237 156 L237 157 L238 158 L238 159 L239 160 L239 161 L241 163 L241 164 L242 165 L242 166 L245 169 L245 170 L247 172 L247 173 L252 178 L252 179 L262 189 L263 189 L267 193 L268 193 L271 196 L272 196 L274 198 L275 198 L276 199 L277 199 L279 201 L280 201 L281 202 L282 202 L283 203 L284 203 L285 204 L286 204 L287 205 L288 205 L289 206 L290 206 L291 207 L293 207 L294 208 L296 208 L297 209 L298 209 L299 210 L301 210 L302 211 L305 211 L306 212 L310 212 L311 213 L315 213 L316 214 L322 214 L323 215 L344 215 L345 214 L351 214 L352 213 L356 213 L357 212 L361 212 L362 211 L365 211 L366 210 L368 210 L369 209 L371 209 L372 208 L374 208 L375 207 L376 207 L377 206 L378 206 L379 205 L381 205 L382 204 L383 204 L384 203 L385 203 L387 201 L388 201 L389 200 L390 200 L391 199 L392 199 L394 197 L394 163 L385 172 L384 172 L381 175 L380 175 L378 177 L377 177 L376 178 L375 178 L374 179 L373 179 L372 180 L371 180 L370 181 L369 181 L368 182 L366 182 L365 183 L364 183 L363 184 L360 184 L359 185 L356 185 L355 186 L350 186 L349 187 L328 187 L327 186 L322 186 L321 185 L318 185 L317 184 L314 184 L313 183 L312 183 L311 182 L309 182 L308 181 L306 181 L305 180 L304 180 L303 179 L302 179 L301 178 L300 178 L298 176 L297 176 L296 175 L295 175 L292 172 L291 172 L288 169 L287 169 L277 159 L277 158 L274 155 L274 154 L272 152 L272 151 L271 150 L272 149 L353 149 L354 148 L354 147 L355 146 L355 145 L356 144 L356 142 L357 141 L357 140 L358 139 L358 138 L359 137 L359 136 L360 135 L360 134 L361 133 L361 132 L362 131 L362 130 L363 129 L363 128 L364 127 L364 125 L365 124 L365 123 L366 122 L366 121 L261 121 L260 120 L260 119 L259 118 L259 100 L260 99 L376 99 L377 98 L377 97 L378 96 L378 95 L379 94 L379 93 L380 92 L380 91 L381 90 L381 88 L382 87 L382 86 L383 85 L383 84 L384 83 L384 82 L385 81 L385 80 L386 79 L386 78 L387 77 L387 75 L388 74 L388 73 L389 72 L389 71 L390 70 L271 70 L270 71 L269 70 L269 69 L270 68 L270 67 L272 65 L272 64 L274 62 L274 61 L288 47 L289 47 L292 44 L293 44 L295 42 L296 42 L298 40 L299 40 L300 39 L301 39 L302 38 L303 38 L304 37 L305 37 L306 36 L307 36 L308 35 L310 35 L311 34 L312 34 L313 33 L315 33 L316 32 L319 32 L320 31 L322 31 L323 30 L328 30 L329 29 L348 29 L349 30 L354 30 L355 31 L358 31 L359 32 L361 32 L362 33 L364 33 L365 34 L367 34 L368 35 L369 35 L370 36 L371 36 L372 37 L373 37 L374 38 L375 38 L376 39 L377 39 L379 41 L380 41 L381 42 L382 42 L386 46 L387 46 L397 56 L398 55 L398 54 L399 53 L399 52 L400 51 L400 50 L401 49 L401 48 L402 47 L402 46 L403 45 L403 44 L404 43 L404 42 L405 41 L405 39 L406 38 L406 37 L407 36 L407 35 L408 34 L408 33 L409 32 L408 31 L407 31 L403 27 L402 27 L399 24 L398 24 L396 22 L395 22 L394 21 L393 21 L391 19 L390 19 L389 18 L388 18 L387 17 L386 17 L385 16 L384 16 L383 15 L382 15 L381 14 L380 14 L379 13 L377 13 L376 12 L375 12 L374 11 L372 11 L371 10 L369 10 L368 9 L366 9 L365 8 L363 8 L362 7 L359 7 L358 6 L355 6 L354 5 L350 5 L349 4 L343 4 L342 3 Z" fill="#FBBC12" fill-rule="evenodd" transform="translate(177.000 440.250) scale(1.125000)" /></svg>
